<svg width="24" height="24" viewBox="0 0 24 24" fill="none" xmlns="http://www.w3.org/2000/svg">
<rect width="24" height="24" rx="4" fill="#E9E9F3"/>
<g clip-path="url(#clip0_211_1439)">
<path d="M11.2676 12.246H11.9366L11.6021 11.0986L11.2676 12.246Z" fill="white"/>
<path d="M17.9651 12.9261C17.2893 12.6477 16.5121 12.9196 16.1572 13.5586L14.9207 13.0494C15.1536 12.3837 15.1522 11.6584 14.9166 10.9937L16.1508 10.4796C16.5235 11.1465 17.3516 11.4069 18.0389 11.0736C18.7263 10.7402 19.0345 9.92867 18.7417 9.22309C18.4487 8.5175 17.6565 8.16275 16.9351 8.41417C16.2136 8.66559 15.8135 9.43596 16.0225 10.1707L14.7878 10.685C14.4804 10.0507 13.967 9.53929 13.3314 9.23463L13.8408 7.99778C14.5443 8.19596 15.2848 7.83565 15.563 7.15979C15.858 6.44419 15.5347 5.62351 14.8311 5.30109C14.1275 4.97879 13.2949 5.26995 12.9455 5.96062C12.5962 6.65118 12.8549 7.49451 13.5315 7.87028L13.0222 9.1069C12.3565 8.87399 11.6312 8.87541 10.9666 9.11104L10.4522 7.87648C11.1201 7.50235 11.3803 6.67241 11.0455 5.98403C10.7108 5.29565 9.89733 4.98772 9.19065 5.28193C8.48409 5.57625 8.12955 6.37047 8.38228 7.09304C8.63511 7.81551 9.40745 8.21556 10.1434 8.00508L10.6579 9.23985C10.0235 9.54724 9.5122 10.0606 9.20742 10.6962L7.97058 10.1868C8.12019 9.65526 7.95272 9.0848 7.5395 8.7185C7.12616 8.3521 6.53981 8.25432 6.03 8.46676C5.44702 8.70936 5.08998 9.30334 5.14921 9.93205C5.20856 10.5607 5.67035 11.0774 6.28839 11.2069C6.90643 11.3363 7.53666 11.0481 7.84318 10.4961L9.0797 11.0053C8.84679 11.671 8.84831 12.3963 9.08384 13.0609L7.84928 13.5753C7.47601 12.9097 6.64848 12.6506 5.96238 12.9846C5.27629 13.3185 4.96955 14.1295 5.263 14.8339C5.55645 15.5383 6.34827 15.8916 7.06856 15.6397C7.78885 15.3876 8.18759 14.6177 7.97787 13.884L9.21276 13.3697C9.52004 14.0041 10.0334 14.5154 10.6691 14.8202L10.1596 16.057C9.41474 15.8475 8.6374 16.2639 8.39905 17.0002C8.1608 17.7364 8.5467 18.5293 9.27319 18.796C9.99957 19.0626 10.8069 18.7078 11.1015 17.9923C11.3788 17.3164 11.1071 16.5399 10.4688 16.1845L10.9781 14.9479C11.6438 15.1808 12.3691 15.1794 13.0337 14.9438L13.5481 16.1783C12.8825 16.5515 12.6232 17.379 12.9569 18.0652C13.2908 18.7514 14.1018 19.0583 14.8063 18.765C15.5107 18.4717 15.8642 17.68 15.6125 16.9596C15.3606 16.2393 14.5908 15.8402 13.857 16.0497L13.3425 14.8149C13.9769 14.5076 14.4882 13.9942 14.793 13.3585L16.0298 13.868C15.8202 14.6129 16.2367 15.3904 16.9729 15.6287C17.7092 15.867 18.5022 15.4811 18.769 14.7546C19.0356 14.0281 18.6807 13.2208 17.9651 12.9261V12.9261ZM12.2744 13.0785C12.2176 13.0785 12.1708 13.0585 12.154 13.0049L12.0169 12.53H11.1907L11.0536 13.0049C11.0368 13.0585 10.99 13.0785 10.9298 13.0785C10.8329 13.0785 10.7091 13.0183 10.7091 12.9314C10.7085 12.9212 10.7096 12.9111 10.7125 12.9013L11.3781 10.7338C11.4048 10.6535 11.5018 10.6134 11.6022 10.6134C11.7026 10.6134 11.8028 10.6535 11.8296 10.7338L12.4919 12.9013C12.4957 12.9109 12.498 12.9211 12.4986 12.9314C12.4986 13.0151 12.3748 13.0785 12.2744 13.0785V13.0785ZM13.1174 12.9615C13.1174 13.0384 13.0304 13.0785 12.9402 13.0785C12.8532 13.0785 12.7629 13.0385 12.7629 12.9615V10.7472C12.7629 10.6669 12.8532 10.6335 12.9402 10.6335C13.0304 10.6335 13.1174 10.6669 13.1174 10.7472V12.9615Z" fill="white"/>
</g>
<defs>
<clipPath id="clip0_211_1439">
<rect width="13.7143" height="13.7143" fill="white" transform="translate(5.14282 5.14258)"/>
</clipPath>
</defs>
</svg>
