<?xml version="1.0" encoding="utf-8"?>
<svg viewBox="0 0 500 500" xmlns="http://www.w3.org/2000/svg">
  <g transform="matrix(1, 0, 0, 1, -67.821198, -102.195862)">
    <path d="M 162.172 291.277 L 314.882 356.461 C 319.089 358.25 323.839 358.25 328.042 356.461 L 480.812 291.277 C 484.874 289.543 488.093 286.285 489.769 282.195 C 491.444 278.109 491.444 273.527 489.769 269.441 C 488.093 265.355 484.874 262.093 480.812 260.363 L 328.102 195.402 C 323.895 193.613 319.145 193.613 314.942 195.402 L 162.172 260.363 C 158.109 262.093 154.89 265.355 153.215 269.441 C 151.539 273.527 151.539 278.109 153.215 282.195 C 154.89 286.285 158.109 289.543 162.172 291.277 L 162.172 291.277 Z M 321.492 229.004 L 431.422 275.875 L 321.492 322.746 L 211.562 275.82 L 321.492 229.004 Z"/>
    <path d="M 162.172 421.647 L 314.882 486.608 C 319.089 488.397 323.839 488.397 328.042 486.608 L 480.812 421.647 C 486.249 419.241 490.011 414.139 490.702 408.233 C 491.39 402.331 488.909 396.499 484.175 392.901 C 479.437 389.307 473.155 388.483 467.652 390.733 L 321.492 453.006 L 175.332 390.733 C 169.828 388.483 163.547 389.307 158.809 392.901 C 154.075 396.499 151.594 402.331 152.282 408.233 C 152.973 414.139 156.735 419.241 162.172 421.647 L 162.172 421.647 Z"/>
    <path d="M 162.172 356.467 L 314.882 421.651 C 319.089 423.44 323.839 423.44 328.042 421.651 L 480.812 356.467 C 486.249 354.061 490.011 348.959 490.702 343.053 C 491.39 337.147 488.909 331.319 484.175 327.721 C 479.437 324.127 473.155 323.303 467.652 325.553 L 321.492 387.881 L 175.332 325.553 C 169.828 323.303 163.547 324.127 158.809 327.721 C 154.075 331.319 151.594 337.147 152.282 343.053 C 152.973 348.959 156.735 354.061 162.172 356.467 L 162.172 356.467 Z"/>
  </g>
</svg>