<svg width="28" height="25" viewBox="0 0 28 25" fill="none" xmlns="http://www.w3.org/2000/svg">
<path d="M23.0547 6.75552H4.27006C3.7985 6.75552 3.41622 7.09158 3.41622 7.50613V19.5159C3.41622 19.9305 3.7985 20.2665 4.27006 20.2665H23.0547C23.5262 20.2665 23.9085 19.9305 23.9085 19.5159V7.50613C23.9085 7.09158 23.5262 6.75552 23.0547 6.75552Z" stroke="#E2E3E4" stroke-width="2" stroke-linecap="round" stroke-linejoin="round"/>
<path d="M17.9308 6.75551V5.25429C17.9308 4.85614 17.7509 4.4743 17.4306 4.19276C17.1103 3.91123 16.676 3.75306 16.2231 3.75306H11.1C10.6471 3.75306 10.2127 3.91123 9.89248 4.19276C9.57222 4.4743 9.39231 4.85614 9.39231 5.25429V6.75551" stroke="#E2E3E4" stroke-width="2" stroke-linecap="round" stroke-linejoin="round"/>
<path d="M23.9086 11.8512C20.7945 13.435 17.2593 14.2666 13.6615 14.2616C10.0644 14.2666 6.52981 13.4353 3.41608 11.852" stroke="#E2E3E4" stroke-width="2" stroke-linecap="round" stroke-linejoin="round"/>
<path d="M12.3808 11.2592H14.9423" stroke="#E2E3E4" stroke-width="2" stroke-linecap="round" stroke-linejoin="round"/>
</svg>
