<?xml version="1.0" encoding="utf-8"?>
<svg viewBox="0 0 500 500" xmlns="http://www.w3.org/2000/svg">
  <g transform="matrix(0.746262, 0, 0, 0.703747, -132.213608, -90.175354)" style="">
    <g>
      <g>
        <g>
          <g>
            <g>
              <linearGradient id="SVGID_3_" gradientUnits="userSpaceOnUse" x1="1791.0845" y1="1152.2582" x2="1791.2611" y2="1152.2582" gradientTransform="matrix(-0.8566 -0.5161 -0.5161 0.8566 2680.4597 692.3952)">
                <stop offset="0.2676" style="stop-color:#8DC63F"/>
                <stop offset="1" style="stop-color:#009444"/>
              </linearGradient>
              <path style="fill:url(#SVGID_3_);" d="M550.987,755.782l1.013-1.449c-0.008,0.046-0.012,0.093-0.018,0.14 C551.672,754.921,551.346,755.36,550.987,755.782z"/>
            </g>
            <g>
              <linearGradient id="SVGID_4_" gradientUnits="userSpaceOnUse" x1="1815.142" y1="927.9088" x2="1967.7479" y2="1156.8175" gradientTransform="matrix(-0.9048 -0.4258 -0.4258 0.9048 2782.1614 546.529)">
                <stop offset="0" style="stop-color:#9463D3"/>
                <stop offset="1" style="stop-color:#3F53C4"/>
              </linearGradient>
              <path style="fill:url(#SVGID_4_);" d="M542.003,677.712c5.341-1.521,11.001-1.917,16.152-3.99 c1.876-0.756,3.742-1.799,4.828-3.504c2.225-3.495,0.378-8.003-0.354-12.082c-2.246-12.493,6.683-23.964,15.037-33.521 c2.319-2.653,4.987-5.494,8.495-5.835c5.101-0.495,8.909,4.358,11.878,8.535c2.971,4.176,7.51,8.686,12.412,7.193 c4.855-1.478,6.174-7.899,5.082-12.856c-1.238-5.616-4.381-10.668-5.656-16.277c-1.276-5.609,0.091-12.614,5.319-15.014 c6.212-2.852,12.919,2.375,17.945,7.009c5.025,4.634,12.49,9.253,18.131,5.391c3.201-2.19,4.355-6.51,3.88-10.359 c-0.475-3.851-2.283-7.387-3.954-10.888c-0.92-1.927-1.828-4.071-1.285-6.136c0.496-1.896,2.114-3.281,3.776-4.32 c9.422-5.892,23.089-3.604,30.079,5.036c6.99,8.64,6.374,22.483-1.356,30.469c-2.932,3.028-7.081,6.8-5.159,10.551 c2.522,4.925,10.173,0.867,15.521,2.287c4.486,1.192,6.776,6.664,5.798,11.202c-0.979,4.538-4.374,8.169-8.033,11.027 c-7.037,5.497-15.395,8.975-23.334,13.067c-1.267,0.653-2.588,1.382-3.311,2.609c-1.211,2.051-0.314,4.716,1.035,6.679 c3.043,4.425,8.001,7.047,12.293,10.273c4.295,3.225,8.315,7.881,7.934,13.239c-0.41,5.776-5.858,10.003-11.395,11.696 c-5.539,1.693-11.478,1.64-17.071,3.144c-1.638,0.441-3.355,1.098-4.297,2.51c-1.454,2.181-0.47,5.094,0.548,7.509 c5.499,13.025,10.995,26.053,16.493,39.078c0.758,1.795,1.525,3.804,0.864,5.638c-0.326,0.902-0.968,1.651-1.641,2.334 c-7.152,7.246-18.622,8.619-28.534,6.287c-9.911-2.331-18.748-7.776-27.661-12.699c-2.467-1.364-5.025-2.715-7.821-3.079 c-3.921-0.51-7.796,0.976-11.488,2.393c-8.032,3.085-16.139,5.979-24.309,8.677c-4.229,1.395-8.968,2.717-12.999,0.823 c-2.67-1.255-4.245-4.613-3.86-7.333c0.239-0.345,0.451-0.703,0.661-1.062L552,754.333c0.184-1.096,0.691-2.078,1.59-2.763 c3.136-7.169,1.528-16.291-2.339-23.406c-4.676-8.604-12.014-15.429-17.591-23.477c-3.483-5.024-6.349-11.353-4.288-17.109 C531.243,682.35,536.663,679.235,542.003,677.712z"/>
            </g>
          </g>
          <path style="fill:#4256CB;" d="M562.138,710.725c7.788,2.25,13.932,7.522,17.312,14.838c6.341-7.638,13.31-14.532,20.243-21.606 c-0.037-0.052-0.079-0.096-0.106-0.162c-3.605-9.136-6.698-18.426-9.288-27.899c-0.283-1.03,1.288-1.601,1.572-0.562 c2.539,9.28,5.565,18.381,9.076,27.335c0.704-0.723,1.41-1.442,2.112-2.171c8.082-8.391,14.26-18.21,20.31-28.101 c-0.031-0.059-0.07-0.11-0.089-0.186c-2.064-8.495-3.144-17.059-3.211-25.804c-0.009-1.068,1.658-1.203,1.666-0.124 c0.063,8.17,1.002,16.191,2.84,24.14c0.411-0.674,0.822-1.348,1.234-2.02c7.255-11.857,14.287-23.847,21.137-35.943 c0.528-0.931,2.041-0.223,1.51,0.715c-4.692,8.286-9.508,16.5-14.384,24.678c2.438,0.2,4.877,0.4,7.316,0.6 c2.319,0.19,8.508,1.648,10.124-0.427c0.662-0.851,1.938,0.228,1.28,1.075c-1.534,1.971-3.856,1.636-6.121,1.454 c-4.517-0.367-9.034-0.742-13.552-1.112c-1.93,3.226-3.837,6.465-5.8,9.673c-4.143,6.773-8.233,13.672-12.852,20.165 c7.862,2.05,15.724,4.102,23.586,6.154c1.034,0.27,0.736,1.914-0.307,1.642c-8.071-2.106-16.14-4.213-24.21-6.318 c-0.044-0.01-0.073-0.037-0.112-0.054c-2.304,3.15-4.731,6.203-7.384,9.072c-5.783,6.252-11.867,12.107-17.674,18.26 c10.57-0.329,20.799,1.836,30.334,6.495c0.967,0.472,0.254,1.984-0.714,1.511c-9.696-4.738-20.018-6.859-30.795-6.314 c-0.131,0.007-0.249-0.013-0.352-0.052c-2.604,2.812-5.15,5.692-7.565,8.721c-8.353,10.48-15.839,21.606-23.315,32.717 c-0.6,0.893-1.874-0.192-1.28-1.075c7.25-10.775,14.506-21.566,22.558-31.766c0.343-0.434,0.7-0.852,1.047-1.281 c-0.008-0.016-0.022-0.024-0.03-0.042c-3.04-7.159-8.946-12.421-16.423-14.581C560.808,712.072,561.104,710.426,562.138,710.725 z"/>
        </g>
        <g>
          <g>
            <g>
              <linearGradient id="SVGID_5_" gradientUnits="userSpaceOnUse" x1="6337.1021" y1="-1018.2269" x2="6337.3413" y2="-1018.2269" gradientTransform="matrix(-0.7537 0.6572 0.6572 0.7537 6002.1064 -2630.1814)">
                <stop offset="0.2676" style="stop-color:#8DC63F"/>
                <stop offset="1" style="stop-color:#009444"/>
              </linearGradient>
              <path style="fill:url(#SVGID_5_);" d="M557.06,768.45l-1.449-1.909c0.055,0.029,0.115,0.054,0.173,0.081 C556.233,767.209,556.665,767.811,557.06,768.45z"/>
            </g>
            <g>
              <linearGradient id="SVGID_6_" gradientUnits="userSpaceOnUse" x1="6075.064" y1="-1770.7626" x2="6281.9312" y2="-1460.4615" gradientTransform="matrix(-0.6826 0.7308 0.7308 0.6826 5894.4209 -2771.6997)">
                <stop offset="0" style="stop-color:#9463D3"/>
                <stop offset="1" style="stop-color:#3F53C4"/>
              </linearGradient>
              <path style="fill:url(#SVGID_6_);" d="M452.591,747.612c0.256-7.523,2.096-14.991,1.561-22.499 c-0.196-2.734-0.767-5.576-2.516-7.685c-3.586-4.323-10.17-3.813-15.737-4.562c-17.054-2.291-28.146-18.578-37.008-33.327 c-2.46-4.094-5.017-8.718-4-13.385c1.48-6.788,9.324-9.685,15.947-11.781c6.623-2.098,14.328-6.082,14.437-13.028 c0.109-6.879-7.628-11.248-14.477-11.898c-7.761-0.736-15.586,1.221-23.353,0.537c-7.767-0.683-16.239-5.358-17.164-13.1 c-1.1-9.2,8.432-15.684,16.498-20.243c8.066-4.56,17.128-12.273,14.488-21.156c-1.497-5.04-6.591-8.324-11.754-9.31 c-5.166-0.986-10.481-0.123-15.692,0.579c-2.869,0.386-6.012,0.667-8.451-0.891c-2.241-1.428-3.355-4.09-4.006-6.667 c-3.689-14.605,4.941-31.29,18.993-36.721c14.053-5.43,31.659,1.115,38.752,14.406c2.69,5.041,5.834,11.961,11.472,11.039 c7.402-1.209,5.344-12.767,9.398-19.078c3.401-5.294,11.413-5.976,16.863-2.828s8.724,9.037,10.891,14.945 c4.17,11.364,5.186,23.594,7.168,35.537c0.316,1.906,0.708,3.913,1.992,5.357c2.144,2.414,5.955,2.364,9.048,1.439 c6.974-2.088,12.416-7.397,18.362-11.595c5.945-4.203,13.623-7.455,20.378-4.738c7.283,2.928,10.474,11.714,10.358,19.562 c-0.117,7.851-2.651,15.492-3.035,23.333c-0.112,2.297,0.023,4.785,1.453,6.587c2.21,2.782,6.378,2.723,9.917,2.412 c19.091-1.684,38.184-3.365,57.275-5.048c2.631-0.232,5.542-0.387,7.634,1.227c1.029,0.795,1.729,1.935,2.33,3.088 c6.379,12.238,3.385,27.61-3.741,39.431c-7.125,11.82-17.822,20.961-27.877,30.417c-2.785,2.617-5.59,5.357-7.222,8.813 c-2.286,4.848-1.979,10.465-1.684,15.818c0.644,11.645,1.011,23.309,1.098,34.972c0.044,6.036-0.219,12.701-4.338,17.115 c-2.729,2.924-7.716,3.561-11.066,1.935c-0.347-0.451-0.72-0.874-1.096-1.294l0.922,1.214 c-1.338-0.692-2.394-1.755-2.905-3.199c-7.947-7.024-20.386-8.739-31.173-6.704c-13.045,2.459-24.9,9.092-37.602,12.946 c-7.93,2.407-17.287,3.477-23.858-1.574C454.106,763.423,452.337,755.135,452.591,747.612z"/>
            </g>
          </g>
          <path style="fill:#4256CB;" d="M503.553,735.344c6.139-9.115,15.494-14.852,26.337-16.175 c-7.222-11.355-13.222-23.212-19.471-35.095c-0.083,0.026-0.157,0.062-0.254,0.07c-13.286,0.856-26.558,0.988-39.858,0.395 c-1.446-0.063-1.53-2.327-0.073-2.262c13.029,0.579,26.029,0.455,39.042-0.356c-0.64-1.209-1.275-2.418-1.924-3.627 c-7.47-13.914-17.574-25.964-27.824-37.88c-0.089,0.016-0.171,0.044-0.277,0.037c-11.818-0.866-23.318-3.029-34.63-6.576 c-1.381-0.432-0.864-2.639,0.533-2.201c10.568,3.313,21.309,5.433,32.329,6.364c-0.699-0.81-1.397-1.621-2.094-2.431 c-12.286-14.286-24.836-28.342-37.599-42.204c-0.983-1.068,0.56-2.727,1.55-1.652c8.743,9.496,17.342,19.122,25.869,28.811 c1.27-3.062,2.542-6.127,3.814-9.191c1.209-2.913,5.661-10.293,3.655-13.24c-0.823-1.208,1.099-2.407,1.918-1.205 c1.905,2.799,0.509,5.656-0.666,8.502c-2.349,5.676-4.71,11.349-7.064,17.025c3.361,3.831,6.749,7.636,10.072,11.502 c7.019,8.159,14.222,16.302,20.682,24.961c5.912-9.293,11.825-18.586,17.738-27.878c0.778-1.222,2.776-0.155,1.991,1.078 c-6.07,9.54-12.141,19.077-18.21,28.615c-0.032,0.053-0.078,0.079-0.116,0.122c3.107,4.282,6.039,8.682,8.638,13.296 c5.665,10.06,10.693,20.342,16.22,30.39c3.966-13.776,11.009-26.076,20.981-36.443c1.011-1.051,2.665,0.496,1.653,1.549 c-10.141,10.544-17.166,22.981-20.94,37.113c-0.045,0.173-0.12,0.315-0.213,0.432c2.547,4.529,5.206,9.01,8.11,13.384 c10.053,15.132,21.3,29.413,32.532,43.675c0.903,1.146-1.026,2.338-1.918,1.205c-10.892-13.83-21.802-27.676-31.619-42.303 c-0.417-0.623-0.808-1.257-1.218-1.883c-0.024,0.004-0.04,0.019-0.066,0.021c-10.501,0.949-19.743,6.384-25.636,15.135 C504.738,737.62,502.737,736.555,503.553,735.344z"/>
        </g>
        <g>
          <linearGradient id="SVGID_7_" gradientUnits="userSpaceOnUse" x1="3479.2205" y1="794.0818" x2="3769.2446" y2="627.8012" gradientTransform="matrix(0.7413 0.6711 -0.6711 0.7413 -1650.7222 -2328.2288)">
            <stop offset="0" style="stop-color:#9463D3"/>
            <stop offset="1" style="stop-color:#3F53C4"/>
          </linearGradient>
          <path style="fill:url(#SVGID_7_);" d="M738.497,670.214l0.126-0.095c0.788-0.559,1.219-0.919,1.219-0.919 c-0.591-0.88-1.197-1.679-1.798-2.43l-0.129-0.173l-0.018,0.006c-15.307-18.818-34.325-0.528-34.325-0.528 C718.754,681.882,733.976,673.37,738.497,670.214z"/>
          <linearGradient id="SVGID_8_" gradientUnits="userSpaceOnUse" x1="3482.1748" y1="799.2307" x2="3772.196" y2="632.9516" gradientTransform="matrix(0.7413 0.6711 -0.6711 0.7413 -1650.7222 -2328.2288)">
            <stop offset="0" style="stop-color:#9463D3"/>
            <stop offset="1" style="stop-color:#3F53C4"/>
          </linearGradient>
          <path style="fill:url(#SVGID_8_);" d="M707.534,705.962c-0.343-0.983-0.713-1.891-1.103-2.759l-0.1-0.254l-0.015,0 c-5.813-12.802-15.993-13.886-23.519-12.509c8.809-7.362,16.037-16.13,21.724-26.154c0.066,0.013,0.112,0.038,0.166,0.046 c0,0,0.062-0.196,0.125-0.533c3.223-5.747,5.958-11.904,8.186-18.438c1.882-5.479,3.376-11.061,4.616-16.692 c19.841,12.23,32.668-5.272,32.668-5.272c-0.701-0.65-1.394-1.23-2.08-1.768l-0.21-0.187l-0.029-0.001 c-14.439-11.224-25.985,0.129-29.848,4.837c2.305-11.296,3.523-22.823,4.344-34.356c20.015,12.591,32.971-5.094,32.971-5.094 c-0.7-0.65-1.39-1.235-2.088-1.781l-0.212-0.181l-0.018,0.006c-15.469-12.03-27.645,1.897-30.562,5.753 c0.445-6.546,0.769-13.084,1.084-19.581c0.039-0.511-0.134-0.878-0.402-1.148c1.794-3.914,8.796-21.909-9.621-29.803 l-0.013-0.03l-0.308-0.114c-0.8-0.327-1.618-0.648-2.512-0.937c0,0-0.236,0.494-0.536,1.382l-0.032,0.087 c-1.619,4.687-5.127,19.595,10.906,29.202c-0.564,0.279-1.008,0.802-1.051,1.57c-0.172,3.426-0.35,6.864-0.534,10.312 c-2.366-6.623-7.874-13.976-20.558-12.985l-0.02-0.018l-0.272,0.038c-0.867,0.074-1.768,0.181-2.71,0.34 c0,0,0.036,0.536,0.167,1.449l0.014,0.111l0.012,0.006c0.74,4.863,4.475,19.496,22.758,20.77 c-0.426,6.098-0.969,12.193-1.732,18.257c-1.659-3.871-4.973-7.494-10.955-10.061l-0.005-0.017l-0.304-0.12 c-0.8-0.326-1.625-0.636-2.516-0.931c0,0-0.233,0.489-0.532,1.347l-0.05,0.122l0.011,0.006 c-1.611,4.7-5.129,19.653,11.012,29.251c-1.814,8.101-4.212,16.051-7.459,23.737c-0.308,0.766-0.673,1.471-0.998,2.213 c-0.474-7.75-3.953-17.885-18.333-20.201l0.003-0.006l-0.07-0.008c-0.997-0.152-2.044-0.293-3.159-0.368 c0,0-4.06,21.322,17.352,28.787c-5.698,9.826-13.03,18.154-21.608,25.034c3.721-6.92,6.474-17.977-5.322-27.544l0.001-0.029 l-0.214-0.152c-0.749-0.587-1.524-1.181-2.392-1.766c0,0-0.353,0.408-0.882,1.144l-0.137,0.2 c-3.012,4.337-10.919,18.49,2.326,33.005c-8.562,5.722-18.158,10.178-28.494,13.371c-0.017,0.005-0.035,0.01-0.052,0.016 c4.875-6.071,9.21-16.054-0.074-27.463l0.009-0.017l-0.138-0.156c-0.618-0.747-1.277-1.5-2.009-2.256 c0,0-16.923,12.94-6.574,32.454c-17.716,4.931-35.817,8.9-51.734,17.881c3.739-8.877,6.597-24.06-10.498-34.303l-0.013-0.029 l-0.367-0.197c-0.98-0.571-2.017-1.144-3.13-1.683c0,0-14.387,22.517,6.821,40.753c-1.654,1.151-3.277,2.355-4.851,3.66 c-6.202,5.099-11.274,11.204-15.574,17.88c1.708-9.992,0.315-23.951-17.308-31.151l-0.003-0.023l-0.334-0.121 c-1.158-0.46-2.368-0.904-3.648-1.297c0,0-0.34,0.742-0.763,2.051l-0.003,0.006c-2.143,6.594-6.662,27.477,15.876,40.574 c1.654,0.032,3.251,0.773,4.043,2.27c22.977,12.941,38.698-1.777,43.278-7.024l0.03-0.028c0.893-1.028,1.35-1.685,1.35-1.685 c-0.996-0.897-1.983-1.702-2.98-2.459l-0.287-0.236l-0.032,0.005c-15.675-11.756-28.679-5.06-36.288,1.75 c5.393-8.408,11.999-15.906,20.379-21.866c0.16,0.116,0.285,0.213,0.444,0.328c0,0,0.31-0.44,0.797-1.234 c0.443-0.302,0.917-0.579,1.369-0.869c24.078,20.651,44.354-0.391,44.354-0.391c-0.812-0.991-1.63-1.889-2.435-2.729 l-0.203-0.227l-0.029,0c-5.073-5.19-10.172-7.667-14.982-8.428c9.449-2.945,19.14-5.214,28.698-7.894 c0.089,0.137,0.175,0.279,0.267,0.41c0,0,0.395-0.268,1.04-0.779c0.384-0.111,0.766-0.216,1.148-0.321 c10.661,19.017,27.483,14.706,32.66,12.804l-0.003,0.006l0.021-0.012c0.995-0.366,1.554-0.635,1.554-0.635 c-0.347-0.977-0.716-1.885-1.103-2.759l-0.106-0.243l-0.014,0c-5.368-11.845-14.471-13.666-21.773-12.789 c4.445-1.586,8.809-3.378,13.044-5.536c3.72-1.887,7.219-3.967,10.554-6.21c10.674,16.052,26.154,12.063,31.076,10.252 c0.009,0.012,0.009,0.012,0.009,0.012l0.006-0.012C706.972,706.236,707.534,705.962,707.534,705.962z"/>
        </g>
        <g>
          <linearGradient id="SVGID_9_" gradientUnits="userSpaceOnUse" x1="4469.3311" y1="273.8319" x2="4687.064" y2="148.9982" gradientTransform="matrix(-0.9586 0.2848 0.2848 0.9586 4835.4355 -854.1686)">
            <stop offset="0" style="stop-color:#9463D3"/>
            <stop offset="1" style="stop-color:#3F53C4"/>
          </linearGradient>
          <path style="fill:url(#SVGID_9_);" d="M372.611,620.596l-0.054-0.105c-0.352-0.634-0.527-1.018-0.527-1.018 c0.686-0.404,1.355-0.748,2.006-1.062l0.143-0.076l0.01,0.01c16.47-7.773,23.41,10.781,23.41,10.781 C382.191,634.902,374.647,624.199,372.611,620.596z"/>
          <linearGradient id="SVGID_10_" gradientUnits="userSpaceOnUse" x1="4471.5493" y1="277.6974" x2="4689.2798" y2="152.8651" gradientTransform="matrix(-0.9586 0.2848 0.2848 0.9586 4835.4355 -854.1686)">
            <stop offset="0" style="stop-color:#9463D3"/>
            <stop offset="1" style="stop-color:#3F53C4"/>
          </linearGradient>
          <path style="fill:url(#SVGID_10_);" d="M381.974,654.846c0.551-0.555,1.096-1.049,1.642-1.51l0.15-0.139l0.01,0.005 c8.09-6.781,15.334-4.212,19.983-0.837c-3.575-7.843-5.624-16.125-6.221-24.757c-0.049-0.012-0.088-0.01-0.128-0.023 c0,0,0.022-0.153,0.089-0.401c-0.317-4.937-0.171-9.993,0.441-15.139c0.504-4.32,1.304-8.584,2.292-12.799 c-17.402,1.841-20.407-14.17-20.407-14.17c0.685-0.213,1.343-0.381,1.982-0.523l0.203-0.058l0.02,0.008 c13.418-2.914,17.551,8.519,18.638,12.961c2.105-8.396,5.021-16.596,8.207-24.67c-17.637,2.029-20.669-14.148-20.669-14.148 c0.685-0.213,1.342-0.385,1.991-0.528l0.203-0.054l0.011,0.01c14.376-3.125,18.101,10.255,18.824,13.813 c1.823-4.576,3.725-9.108,5.62-13.609c0.139-0.359,0.375-0.551,0.645-0.647c0.055-3.232,1.154-17.688,16.185-17.056l0.019-0.016 l0.245,0.023c0.648,0.038,1.306,0.086,2.005,0.181c0,0,0,0.411-0.085,1.11l-0.007,0.069c-0.425,3.699-2.887,14.93-16.859,16.232 c0.291,0.372,0.423,0.87,0.202,1.404c-0.995,2.375-1.99,4.76-2.985,7.155c3.751-3.716,9.866-6.907,18.132-2.12l0.02-0.006 l0.172,0.114c0.563,0.331,1.138,0.696,1.724,1.11c0,0-0.199,0.351-0.583,0.927l-0.046,0.071l-0.01,0.001 c-2.079,3.052-9.356,11.747-22.148,6.677c-1.69,4.267-3.301,8.57-4.752,12.923c2.379-2.082,5.799-3.46,10.682-3.256l0.009-0.01 l0.245,0.017c0.648,0.039,1.306,0.096,2.006,0.186c0,0-0.001,0.406-0.077,1.085l-0.005,0.099l-0.009,0 c-0.434,3.705-2.905,14.97-16.948,16.23c-1.401,6.074-2.357,12.234-2.653,18.491c-0.04,0.619-0.022,1.215-0.042,1.822 c2.836-5.094,8.48-10.826,18.967-7.727l0-0.005l0.05,0.017c0.725,0.221,1.479,0.465,2.258,0.776c0,0-4.17,15.754-21.09,13.859 c0.669,8.502,2.931,16.519,6.506,23.961c-0.274-5.893,1.45-14.272,12.541-16.921l0.009-0.02l0.194-0.034 c0.697-0.155,1.415-0.305,2.192-0.419c0,0,0.107,0.391,0.226,1.06l0.028,0.18c0.632,3.914,1.393,16.062-12.285,21.591 c3.94,6.652,8.991,12.783,14.953,18.299c0.01,0.009,0.021,0.018,0.03,0.028c-1.331-5.692-1.026-13.858,8.962-18.57l-0.001-0.014 l0.144-0.061c0.66-0.305,1.352-0.601,2.092-0.875c0,0,7.259,14.253-6.081,24.106c10.394,9.088,21.361,17.649,29.224,28.894 c0.349-7.223,3.341-18.43,18.239-19.818l0.018-0.015l0.313-0.014c0.849-0.069,1.737-0.12,2.666-0.124 c0,0,2.434,19.913-17.843,25.378c0.746,1.316,1.454,2.657,2.096,4.052c2.544,5.464,3.997,11.244,4.742,17.159 c2.086-7.319,7.559-16.318,21.827-15.474l0.009-0.015l0.265,0.027c0.933,0.064,1.896,0.156,2.891,0.306 c0,0-0.011,0.613-0.149,1.636v0.005c-0.689,5.16-4.406,20.765-23.915,22.318c-1.13-0.515-2.452-0.532-3.474,0.225 c-19.755,1.305-25.623-13.761-27.022-18.799l-0.012-0.029c-0.271-0.985-0.367-1.578-0.367-1.578 c0.966-0.284,1.895-0.509,2.815-0.698l0.271-0.067l0.02,0.014c14.428-2.872,21.059,5.88,24.001,12.96 c-0.923-7.443-2.962-14.663-6.702-21.417c-0.146,0.026-0.262,0.052-0.407,0.078c0,0-0.067-0.398-0.139-1.094 c-0.202-0.348-0.433-0.69-0.645-1.032c-23.003,6.168-29.902-14.658-29.902-14.658c0.871-0.407,1.717-0.75,2.534-1.057 l0.211-0.088l0.02,0.009c5.119-1.868,9.375-1.89,12.878-0.845c-5.442-5.06-11.267-9.741-16.868-14.657 c-0.105,0.063-0.209,0.132-0.314,0.191c0,0-0.181-0.309-0.452-0.865c-0.224-0.2-0.449-0.395-0.673-0.59 c-13.389,9.415-23.379,1.038-26.267-1.929l0.001,0.005l-0.01-0.015c-0.555-0.571-0.846-0.934-0.846-0.934 c0.552-0.549,1.096-1.044,1.642-1.51l0.151-0.13l0.01,0.004c7.478-6.278,14.232-4.556,18.891-1.593 c-2.495-2.516-4.868-5.146-7.035-7.981c-1.906-2.485-3.6-5.029-5.13-7.629c-12.436,7.404-21.622-0.32-24.366-3.143 c-0.01,0.005-0.01,0.005-0.01,0.005l0-0.01C382.265,655.214,381.974,654.846,381.974,654.846z"/>
        </g>
        <g>
          <g>
            <g>
              <path style="fill:#232B57;" d="M537.94,213.7c50.812,0,89.26,15.811,115.335,47.421 c20.725,24.948,31.091,54.239,31.091,87.881c0,56.271-29.374,109.782-88.116,160.534 c-20.481,17.695-31.388,38.285-32.727,61.778c-0.675,7.83-1.012,16.532-1.012,26.103v32.629l-27.816,12.702l-66.96-12.702 v-32.629c0-51.336,14.542-89.472,43.627-114.418c31.42-26.974,52.982-54.667,64.688-83.096 c6.683-16.532,10.028-33.933,10.028-52.206c0-18.85-4.849-33.642-14.542-44.375c-10.703-12.467-26.248-17.545-46.636-15.227 c-19.055,2.033-32.767,13.487-41.119,34.37c-3.682,8.701-6.19,18.857-7.521,30.453l-27.816,12.702l-63.449-26.624 c3.338-33.934,16.376-62.498,39.113-85.706c15.373-15.662,36.771-26.973,64.187-33.933 C502.667,215.59,519.214,213.7,537.94,213.7z M467.737,687.037h94.775v82.66l-27.816,12.702l-66.96-12.702l-27.816-69.958 L467.737,687.037z"/>
            </g>
            <g>
              <g>
                <linearGradient id="SVGID_11_" gradientUnits="userSpaceOnUse" x1="357.1863" y1="504.3997" x2="656.5495" y2="504.3997">
                  <stop offset="0" style="stop-color:#FAC600"/>
                  <stop offset="1" style="stop-color:#FBB606"/>
                </linearGradient>
                <path style="fill:url(#SVGID_11_);" d="M655.218,341.508c-0.407-3.134-0.924-6.221-1.551-9.277 c-4.372-21.578-13.774-41.04-28.206-58.403c-4.2-5.093-8.713-9.763-13.555-14.025 c-25.213-22.283-59.155-33.409-101.778-33.409c-18.726,0-35.273,1.896-49.643,5.657 c-27.423,6.973-48.813,18.272-64.185,33.942c-22.737,23.207-35.775,51.774-39.113,85.7l91.263,13.931 c1.332-11.596,3.839-21.766,7.522-30.463c8.352-20.873,22.064-32.327,41.118-34.365c20.387-2.319,35.932,2.758,46.634,15.231 c2.711,2.993,5.03,6.315,6.973,9.951c5.046,9.371,7.569,20.841,7.569,34.412c0,18.287-3.353,35.681-10.029,52.213 c-11.706,28.426-33.268,56.115-64.687,83.099c-17.755,15.232-30.102,35.383-37.013,60.456 c-1.285,4.67-2.397,9.528-3.29,14.542c-2.225,12.129-3.322,25.276-3.322,39.41v32.641h94.773v-32.641 c0-9.558,0.329-18.271,1.003-26.091c1.347-23.505,12.254-44.08,32.735-61.788c52.824-45.616,81.892-93.488,87.22-143.586 c0.596-5.625,0.893-11.267,0.893-16.939C656.549,354.797,656.111,348.058,655.218,341.508z M439.925,699.744v82.66h94.773 v-82.66H439.925z"/>
              </g>
            </g>
          </g>
          <g style="opacity:0.2;">
            <path style="fill:#FFFFFF;" d="M653.666,332.231L446.538,556.158c6.911-25.072,19.259-45.224,37.013-60.456 c31.419-26.984,52.981-54.673,64.687-83.099c6.676-16.532,10.029-33.926,10.029-52.213c0-13.571-2.523-25.041-7.569-34.412 l61.208-66.175c4.842,4.262,9.355,8.932,13.555,14.025C639.892,291.191,649.294,310.654,653.666,332.231z"/>
            <path style="fill:#FFFFFF;" d="M656.549,361.707c0,5.673-0.298,11.314-0.893,16.939L439.925,611.897v-1.787 c0-14.135,1.097-27.282,3.322-39.41l211.97-229.192C656.111,348.058,656.549,354.797,656.549,361.707z"/>
          </g>
          <g>
            <path style="opacity:0.1;fill:#231F20;" d="M582.65,503.803l-37.739,28.57l-24.848-19.525l-0.72-0.029 c-1.31-2.193-4.099-6.634-5.705-7.539c-2.152-1.211-6.991-1.429-6.991-1.429s-6.152-5.113-6.358-3.27 c-0.205,1.843,2.166,4.496,2.166,4.496s-12.525-3.7-12.894-1.891c-0.37,1.81,1.684,10.626,10.743,9.479 c9.06-1.147,8.793-0.259,8.793-0.259s15.836,32.671,34.811,35.73c14.721,2.374,47.286-23.24,47.286-23.24 S603.974,506.791,582.65,503.803z"/>
            <g>
              <path style="fill:#F7BAAC;" d="M582.65,498.007l-37.739,28.57l-24.848-19.525l-0.72-0.029 c-1.31-2.193-4.099-6.634-5.705-7.539c-2.152-1.211-6.991-1.429-6.991-1.429s-6.152-5.113-6.358-3.27 c-0.205,1.843,2.166,4.496,2.166,4.496s-12.525-3.7-12.894-1.891c-0.37,1.81,1.684,10.626,10.743,9.479 c9.06-1.147,8.793-0.259,8.793-0.259s15.836,32.671,34.811,35.73c14.721,2.374,47.286-23.24,47.286-23.24 S603.974,500.995,582.65,498.007z"/>
              <path style="fill:#FEF3C9;" d="M596.741,485.444c0,0-29.86,20.075-33.579,24.437c-4.701,5.515,0.376,26.893,8.227,25.773 c7.851-1.119,21.415-10.857,21.415-10.857L596.741,485.444z"/>
            </g>
            <g>
              <path style="fill:#E8AAA0;" d="M678.354,541.253c-0.988-14.355-33.406-46.868-33.406-46.868 c-18.786-10.524-9.66,15.016-9.66,15.016s20.249,44.116,34.436,45.4C673.724,555.163,678.719,546.565,678.354,541.253z"/>
              <path style="fill:#FEF3C9;" d="M633.006,485.622c11.476-5.565,38.928,34.283,34.344,37.725 c-4.584,3.442-14.832,20.678-20.406,15.036c-5.573-5.642-12.22-21.096-12.22-21.096S625.873,489.081,633.006,485.622z"/>
            </g>
            <g>
              <g>
                <g>
                  <g>
                    <polygon style="fill:#E9C3B7;" points="651.391,758.225 655.219,772.892 644.346,775.125 639.846,758.399 &#9;&#9;&#9;&#9;&#9;&#9;&#9;&#9;&#9;"/>
                    <path style="fill:#222B5E;" d="M661.13,775.79l-5.464-8.455H641.51c0,0-1.047,6.242,1.425,10.47 c2.483,4.206,8.456,4.081,8.456,4.081L661.13,775.79z"/>
                    <path style="fill:#004A87;" d="M651.391,781.886c0,0,0.258-8.179,9.74-8.179c9.476,0,7.925,8.179,7.925,8.179H651.391z"/>
                  </g>
                  <path style="fill:#004A87;" d="M654.802,763.444c0,0-3.056,0.987-7.303,1.332c-2.304,0.204-4.952,0.204-7.647-0.235 c-4.059-0.658-12.818-41.338-18.757-75.546c-3.165-18.224-5.876-35.07-7.334-44.159c0.047-0.016,0.078-0.125,0.078-0.329 c0.251-2.68-1.755-21.061-6.08-29.24c-2.539-4.795-5.782-9.057-8.838-13.539c-3.432-5.061-5.206-4.191-6.773-10.13 c-0.423-1.567-0.736-3.15-0.956-4.748c17.66-3.369,25.177-1.436,25.177-1.436s27.647-3.604,27.983,3.784 c0.312,6.857,4.026,45.891,4.026,45.891L654.802,763.444z"/>
                </g>
                <g>
                  <g>
                    <polygon style="fill:#E9C3B7;" points="585.577,758.225 581.748,772.892 592.622,775.125 597.121,758.399 &#9;&#9;&#9;&#9;&#9;&#9;&#9;&#9;&#9;"/>
                    <path style="fill:#004A87;" d="M619.328,593.151c0,0-19.35-6.247-36.79-7.737c-0.203,1.556,1.917,81.288,3.039,86.448 c0.979,4.504-5.194,90.463-2.222,91.698c3.967,1.649,13.271,1.695,14.402-0.792c9.926-21.821,8.275-59.119,13.741-90.906 C619.274,626.634,619.328,593.151,619.328,593.151z"/>
                  </g>
                  <path style="fill:#222B5E;" d="M575.837,775.79l5.464-8.455h14.156c0,0,1.047,6.242-1.425,10.47 c-2.483,4.206-8.456,4.081-8.456,4.081L575.837,775.79z"/>
                  <path style="fill:#004A87;" d="M585.577,781.886c0,0-0.258-8.179-9.74-8.179c-9.476,0-7.925,8.179-7.925,8.179H585.577z"/>
                </g>
              </g>
              <path style="fill:#222B5E;" d="M647.5,764.955c-2.304,0.204-4.952,0.204-7.647-0.235 c-4.059-0.658-12.818-41.338-18.757-75.546c-3.165-18.224-5.876-35.07-7.334-44.159l0.078-0.329l8.681-33.518 c0,0-1.41,42.31,0,53.043C623.885,674.711,646.434,760.912,647.5,764.955z"/>
              <path style="opacity:0.3;fill:#222B5E;" d="M582.538,585.414l-0.014,8.149c0,0,24.065,12.802,36.398,12.109 c12.334-0.692,20.912-0.289,26.025-8.382l-0.595-8.093L582.538,585.414z"/>
            </g>
            <path style="fill:#FEF3C9;" d="M611.719,483.069c-6.405,0.353-21.316-1.324-23.908,9.312 c-3.11,12.764-14.124,90.346-5.273,96.899c20.864,15.446,57.624,10.989,62.217,2.604c8.829-16.118-0.502-97.596-6.559-105.614 C636.871,484.516,621.891,482.508,611.719,483.069z"/>
            <g>
              <path style="fill:#F7B9AC;" d="M623.809,485.335c0,0-1.243-14.558-1.243-17.221c0-2.663,4.438-8.699,0.621-15.801 c-3.817-7.101-19.795-5.859-23.346,2.308c-3.551,8.167-3.196,28.228,2.485,27.163c5.681-1.065,5.504-2.13,5.504-2.13 l-0.71,11.007c0,0,1.953,6.924,9.409,1.953C623.987,487.643,623.809,485.335,623.809,485.335z"/>
              <path style="fill:#E8A89E;" d="M607.831,479.654l8.456-5.62c0,0-4.899,9.613-8.829,11.41L607.831,479.654z"/>
              <path style="fill:#E8A89E;" d="M598.06,461.57l-0.255,2.053c0,0,3.358,0.856,8.794-1.026c5.436-1.882,8.01-7.031,8.01-7.031 s-0.895,7.885,1.119,8.252c2.015,0.367,4.141-5.23,4.141-5.23l1.236,8.393l0.891-12.087l-5.708-4.029L598.06,461.57z"/>
              <path style="fill:#232B57;" d="M614.4,453.023c0,0-9.246,10.347-16.34,8.547c-7.095-1.8-13.841-8.79-9.758-13.905 c4.083-5.116,6.391-22.514,21.304-18.076c0,0,12.783,1.42,11.362,6.214c0,0,10.297,0,9.409,8.344 c-0.888,8.344-2.663,22.192-6.391,23.612c-3.728,1.42-2.841-2.131-2.841-2.131l-0.533-7.989c0,0-1.42-1.775-1.953,1.775 s-2.486,4.438-2.841,0.355C615.465,455.686,618.306,453.556,614.4,453.023z"/>
            </g>
            <g>
              <g>
                <path style="fill:#FFDE6E;" d="M628.762,500.704l-7.832,3.823c-0.841,0.411-1.29,1.357-1.093,2.303l5.363,25.669 c0.285,1.363,1.748,2.116,2.961,1.524l7.832-3.823c0.841-0.411,1.29-1.356,1.093-2.302l-5.362-25.669 C631.438,500.866,629.974,500.112,628.762,500.704z"/>
                <path style="fill:#1F265A;" d="M629.704,502.466l-7.553,3.686c-0.811,0.396-1.254,1.29-1.076,2.175l4.819,24.031 c0.256,1.276,1.649,1.965,2.818,1.394l7.553-3.686c0.812-0.396,1.254-1.29,1.076-2.175l-4.819-24.031 C632.266,502.584,630.873,501.895,629.704,502.466z"/>
              </g>
              <path style="fill:#F7BAAC;" d="M633.278,511.136c0,0-0.972-4.681,0.405-3.889c1.377,0.792,4.165,7.25,4.597,11.436 c0.432,4.187-1.505,9.942-1.505,9.942s-11.474,0.362-15.003-5.606c-3.529-5.968-2.181-12.611-2.181-12.611 s7.471,4.846,10.331,3.377C632.782,512.316,633.278,511.136,633.278,511.136z"/>
              <path style="fill:#F7BAAC;" d="M638.279,518.683c0,0,13.312,11.411,19.168,12.856c5.856,1.444,10.823,3.477,10.823,3.477 s13.368,9.245,7.783,16.566c-5.584,7.321-15.118,0.647-20.175-4.734c-5.057-5.381-19.104-18.222-19.104-18.222 S635.767,519.07,638.279,518.683z"/>
            </g>
          </g>
          <g>
            <g>
              <g style="opacity:0.1;">
                <path style="fill:#231F20;" d="M652.843,451.463l95.669-0.628c2.887-0.019,5.243,2.306,5.262,5.194l0.227,34.503 c0.019,2.887-2.306,5.243-5.193,5.262l-75.678,0.497c-4.757,5.638-10.496,13.011-10.496,13.011l-2.902-12.923l-6.593,0.043 c-2.887,0.019-5.243-2.306-5.262-5.194l-0.227-34.503C647.631,453.838,649.956,451.482,652.843,451.463z"/>
              </g>
              <path style="fill:#FFDE6E;" d="M654.782,444.732l95.669-0.629c2.887-0.019,5.243,2.306,5.262,5.194l0.227,34.504 c0.019,2.887-2.306,5.243-5.193,5.262l-75.678,0.497c-4.757,5.638-10.497,13.011-10.497,13.011l-2.902-12.924l-6.593,0.044 c-2.887,0.019-5.243-2.307-5.262-5.194l-0.226-34.503C649.569,447.107,651.895,444.751,654.782,444.732z"/>
            </g>
            <g>
              <rect x="690.33" y="454.195" style="fill:#FFFFFF;" width="56.845" height="4.281"/>
              <rect x="690.33" y="472.175" style="fill:#FFFFFF;" width="56.845" height="4.281"/>
              <rect x="690.33" y="463.185" style="fill:#FFFFFF;" width="56.845" height="4.281"/>
            </g>
            <g>
              <path style="fill:#FFFFFF;" d="M668.449,471.522c-0.156-0.374-0.236-0.778-0.236-1.339c0-4.764,4.698-5.2,4.698-10.618 c0-1.557-0.784-2.149-2.155-2.149c-1.371,0-2.152,0.592-2.152,2.149v2.367h-4.07v-2.149c0-3.487,2.152-5.48,6.34-5.48 c4.189,0,6.343,1.993,6.343,5.48c0,5.666-5.091,6.538-5.091,10.524c0,0.404,0.038,0.81,0.156,1.214H668.449z M672.401,473.047 v3.301h-4.15v-3.301H672.401z"/>
            </g>
          </g>
        </g>
      </g>
      <g>
        <g>
          <g>
            <g>
              <path style="fill:#FFB092;" d="M365.174,756.329l0.569,12.391c0,0-11.161,1.784-10.921,1.048 c0.24-0.735,0.355-21.041,0.355-21.041L365.174,756.329z"/>
              <path style="fill:#FEC70E;" d="M366.634,767.858c0,0-10.587,2.106-12.025,0.485c0,0-1.125-3.825-2.197,0.707 c-1.072,4.533-1.295,7.918,0.22,8.887s31.363,1.349,31.363,1.349s3.482-3.814-3.458-5.197 C373.597,772.706,366.634,767.858,366.634,767.858z"/>
            </g>
            <g>
              <path style="fill:#FFB092;" d="M284.43,752.747l-3.454,11.914c0,0-11.14-1.907-10.676-2.526 c0.464-0.619,7.115-19.805,7.115-19.805L284.43,752.747z"/>
              <path style="fill:#FEC70E;" d="M282.098,764.132c0,0-10.701-1.417-11.54-3.416c0,0,0.167-3.984-2.308-0.038 c-2.475,3.945-3.777,7.079-2.655,8.484c1.122,1.405,29.256,11.382,29.256,11.382s4.525-2.489-1.599-6.034 C287.127,770.965,282.098,764.132,282.098,764.132z"/>
            </g>
            <path style="fill:#222B5E;" d="M352.9,575.902c0,0,12.684,98.501,13.988,101.109c1.304,2.608,2.31,86.655,2.31,86.655 s-18.907,3.912-18.255-1.304c0.652-5.216-20.224-120.471-20.224-120.471s-22.153-45.126-13.026-62.729 C326.822,561.559,352.9,575.902,352.9,575.902z"/>
            <path style="fill:#004A87;" d="M346.62,575.669c-21.989,99.963-29.267,113.399-29.267,113.399l-34.694,72.804 c0,0-19.106-2.781-16.712-7.461c2.394-4.679,27.555-97.319,27.555-97.319s-10.825-72.794,3.765-86.221 C311.859,557.444,346.62,575.669,346.62,575.669z"/>
          </g>
          <g>
            <path style="fill:#E9C3B7;" d="M431.896,500.076l-42.356,5.48l-25.299-11.271c-1.543,0.733-6.205,16.397-9.406,19.973 c9.99,8.293,16.898,1.754,25.692,5.976c0,0,49.563-12.399,51.702-10.42C431.108,497.455,431.896,500.076,431.896,500.076z"/>
            <path style="fill:#E9C3B7;" d="M449.089,507.312c0.565,2.096-1.493,4.381-3.009,5.737c-8.532-0.575-15.369,0.945-21.877,2.909 c-0.264-4.203-1.161-8.319-2.705-12.174c7.178-2.025,12.792-4.432,13.193-5.68c0.65-2.024,2.508-4.899,4.465-3.404 c1.659,1.269,0.397,4.026,0.397,4.026S448.244,504.131,449.089,507.312z"/>
            <path style="fill:#004A87;" d="M368.312,493.192c0.498-6.541-16.39-19.446-16.39-19.446 c-8.444-8.499-25.515-0.002-21.135,14.634c1.43,4.776,10.738,14.592,22.088,24.231 C356.297,508.834,368.209,494.545,368.312,493.192z"/>
          </g>
          <path style="fill:#FEF3C9;" d="M357.677,577.593c-5.896,1.488-11.885,2.529-17.737,3.227 c-22.463,2.696-43.029,0.39-48.376-1.614c-0.086-0.035-0.172-0.069-0.23-0.102c-0.746-0.306-1.139-0.622-1.123-0.885 l0.005-0.087c13.643-37.335,7.332-29.529,15.556-68.638c4.573-21.729,6.84-27.062,11.289-33.592 c5.118-7.461,12.882-12.71,19.004-12.71c0,0,9.544,2.653,13.946,8.919c1.223,1.742,4.446,8.543,5.667,10.844 c3.124,6.017,4.475,23.179,4.111,39.011C359.285,543.895,357.677,577.593,357.677,577.593z"/>
          <g>
            <path style="fill:#FFDE6E;" d="M295.676,529.308l130.594-31.234c3.941-0.943,7.9,1.488,8.843,5.43l11.265,47.1 c0.943,3.941-1.488,7.9-5.429,8.843L310.354,590.68c-3.941,0.943-7.9-1.488-8.843-5.429l-11.264-47.099 C289.304,534.21,291.735,530.25,295.676,529.308z"/>
            <g>
              <linearGradient id="SVGID_12_" gradientUnits="userSpaceOnUse" x1="381.8065" y1="534.7133" x2="427.8987" y2="534.7133">
                <stop offset="0" style="stop-color:#FAC600"/>
                <stop offset="1" style="stop-color:#FBB606"/>
              </linearGradient>
              <circle style="fill:url(#SVGID_12_);" cx="404.853" cy="534.713" r="23.041"/>
              <g>
                <g>
                  <path style="fill:#F7941D;" d="M392.64,531.109c0.321,1.357,1.681,2.197,3.038,1.876c1.356-0.321,2.196-1.68,1.876-3.037 c-0.321-1.357-1.681-2.197-3.038-1.876C393.16,528.393,392.32,529.753,392.64,531.109z"/>
                </g>
              </g>
              <g>
                <g>
                  <path style="fill:#F7941D;" d="M409.115,527.341c0.321,1.357,1.681,2.197,3.037,1.876c1.357-0.321,2.197-1.681,1.876-3.038 c-0.32-1.357-1.681-2.196-3.036-1.876C409.635,524.625,408.795,525.985,409.115,527.341z"/>
                </g>
              </g>
              <g>
                <path style="opacity:0.4;fill:#F4CF67;" d="M398.143,539.344c0.484,2.272-0.965,4.506-3.237,4.99 c-2.272,0.484-4.506-0.965-4.99-3.237c-0.484-2.272,0.965-4.506,3.237-4.99C395.424,535.623,397.659,537.073,398.143,539.344 z"/>
                <path style="opacity:0.4;fill:#F4CF67;" d="M421.095,534.453c0.484,2.272-0.965,4.506-3.237,4.99 c-2.272,0.484-4.506-0.965-4.99-3.237c-0.484-2.272,0.965-4.506,3.237-4.99C418.376,530.732,420.611,532.181,421.095,534.453 z"/>
              </g>
              <path style="fill:#F7941D;" d="M407.068,545.15c5.327-1.061,8.797-6.258,7.736-11.585c-0.064-0.322-0.378-0.532-0.7-0.468 c-0.323,0.064-0.532,0.378-0.468,0.7c0.933,4.683-2.118,9.253-6.801,10.186c-4.684,0.933-9.252-2.118-10.185-6.801 c-0.064-0.322-0.377-0.531-0.7-0.467c-0.322,0.064-0.531,0.378-0.467,0.699C396.545,542.741,401.741,546.211,407.068,545.15z"/>
            </g>
            <g>
              <path style="fill:#FFFFFF;" d="M309.306,548.798l59.932-13.825c1.248-0.288,1.955-1.847,1.578-3.482 c-0.377-1.635-1.695-2.727-2.943-2.439l-59.932,13.825c-1.248,0.288-1.955,1.847-1.577,3.482 C306.74,547.994,308.058,549.086,309.306,548.798z"/>
              <path style="fill:#FFFFFF;" d="M370.598,540.869l-59.932,13.825c-1.248,0.288-1.955,1.847-1.577,3.482 c0.377,1.635,1.695,2.727,2.943,2.439l59.932-13.825c1.248-0.288,1.955-1.847,1.578-3.482S371.846,540.581,370.598,540.869z"/>
              <path style="fill:#FFFFFF;" d="M373.324,552.685l-59.932,13.825c-1.249,0.288-1.955,1.847-1.578,3.482 c0.377,1.635,1.695,2.727,2.943,2.439l59.932-13.825c1.248-0.288,1.955-1.847,1.577-3.482 C375.89,553.49,374.572,552.398,373.324,552.685z"/>
            </g>
          </g>
          <g>
            <path style="fill:#E9C3B7;" d="M410.449,560.352c0,0,6.102-4.474,5.309-6.406c-0.935-2.278-4.21-0.407-9.193,3.417 c-0.674,0.492-3.047,4.507-13.872,0.103l-31.564-13.786l-17.089-39c-9.548,1.737-11.667,2.364-20.877,5.469 c4.638,14.036,16.314,41.541,22.743,51.048c0,0,49.712,6.439,50.561,9.226c0.089-0.189,0.161-0.354,0.245-0.538 c3.957,1.411,7.982,3.299,12.15,6.126c1.993-0.407,4.922-1.342,5.491-3.437c0.874-3.173,10.27,1.851,10.27,1.851 s0.468,0.041,1.22,0.102c0.407-1.302,0.468-2.217,0.468-2.217C420.395,563.504,410.449,560.352,410.449,560.352z"/>
            <path style="fill:#004A87;" d="M349.601,512.612c4.094-3.335-7.507-24.748-7.507-24.748 c-3.005-11.597-22.032-12.87-25.631,1.978c-0.993,4.096-0.908,19.228,8.565,30.381 C332.942,520.396,342.344,518.524,349.601,512.612z"/>
          </g>
          <path style="fill:#E9C3B7;" d="M436.737,501.673c0,0-7.772,13.437-2.905,14.6c4.867,1.162,12.248-3.223,12.248-3.223 S446.325,501.673,436.737,501.673z"/>
          <g>
            <path style="fill:#DDAC9E;" d="M339.969,453.505c-1.023,3.529-1.497,8.117-5.546,12.002c-4.045,3.881-3.495,2.592-4.045,3.881 c-1.851,4.333,10.94,13.779,15.821,10.247c2.391-1.73,2.153-8.047,5.706-10.336 C355.453,467.02,339.969,453.505,339.969,453.505z"/>
            <path style="fill:#E9C3B7;" d="M370.911,455.266c0.023-0.07,0.04-0.139,0.059-0.209c2.255-7.176,5.236-12.542,3.635-18.052 c-0.144-0.505-1.991-2.034-2.757-2.859c-4.749-11.436-31.879-8.921-33.441-0.968c-6.668,33.893,6.689,38.669,12.977,40.215 c3.186,0.737,4.872,1.349,7.636,0.064c2.469-1.145,5.419-3.926,7.741-8.494c2.124-0.11,4.412,0.154,4.804-1.043 c0.098-0.161,0.165-0.346,0.166-0.578C370.936,460.994,371.198,456.917,370.911,455.266z"/>
            <path style="fill:#222B5E;" d="M377.769,434.377c-3.311,1.798-8.33-9.368-18.001-13.423c-3.052-1.279-6.047-2.419-8.648-2.282 c-6.571-0.899-8.992,2.382-11.707,4.867c-0.723,0.686-12.943,3.333-10.375,19.732c0.706,4.489,1.761,6.566,2.014,9.316 c0.682,7.397-1.016,8.351-1.016,8.351s5.87,2.716,7.539,0.299c6.832-9.959,13.967-11.104,13.967-11.104 s0.259-0.748,0.674-1.804c2.313-0.374,4.01,0.449,4.01,0.449s2.198-4.267,5.307-6.867c3.659-3.076,4.095-2.918,6.262-2.947 c2.156-0.029,7.102,3.335,7.102,3.335S383.216,431.415,377.769,434.377z"/>
            <path style="fill:#DDAC9E;" d="M354.296,447.924c-0.191-4.38-3.434-4.638-5.269-2.96c-1.783,1.716-1.277,8.359,0.018,9.21 C352.644,456.541,354.296,447.924,354.296,447.924z"/>
          </g>
        </g>
      </g>
    </g>
  </g>
  <g transform="matrix(0.746262, 0, 0, 0.703747, -132.213608, -90.175354)" style="">
    <g>
      <path style="fill:#838BF3;" d="M719.553,375.214l0.515-0.857l2.586,1.554l-0.515,0.857c-0.863,1.434-1.348,2.195-1.348,2.195 l-0.537,0.843l-2.546-1.627l0.543-0.845C718.282,377.287,718.748,376.553,719.553,375.214z"/>
      <path style="fill:#838BF3;" d="M726.961,361.958c0.745-1.421,1.519-2.927,2.317-4.51l0.45-0.893l2.694,1.356l-0.449,0.893 c-0.805,1.599-1.587,3.118-2.339,4.554l-0.464,0.886l-2.673-1.402L726.961,361.958z"/>
      <path style="fill:#838BF3;" d="M722.104,370.855c0.742-1.302,1.57-2.783,2.469-4.428l0.48-0.879l2.645,1.448l-0.478,0.876 c-0.907,1.663-1.745,3.159-2.495,4.475l-0.495,0.868l-2.62-1.492L722.104,370.855z"/>
      <path style="fill:#838BF3;" d="M731.523,352.901c0.713-1.476,1.438-3.005,2.171-4.584l0.422-0.906l2.736,1.269l-0.421,0.908 c-0.74,1.594-1.472,3.137-2.191,4.626l-0.435,0.9l-2.716-1.311L731.523,352.901z"/>
      <path style="fill:#838BF3;" d="M739.748,334.37c0.625-1.543,1.244-3.115,1.858-4.712l0.359-0.934l2.815,1.082l-0.358,0.933 c-0.62,1.615-1.247,3.203-1.878,4.763l-0.376,0.928l-2.794-1.134L739.748,334.37z"/>
      <path style="fill:#838BF3;" d="M690.507,167.577c1.565,0.591,3.174,1.246,4.784,1.949l0.917,0.4L695,172.69l-0.916-0.399 c-1.564-0.682-3.126-1.318-4.643-1.891l-0.935-0.354l1.065-2.822L690.507,167.577z"/>
      <path style="fill:#838BF3;" d="M709.027,176.576c1.444,0.847,2.92,1.745,4.388,2.669l0.846,0.533l-1.606,2.553l-0.847-0.533 c-1.44-0.906-2.889-1.788-4.308-2.621l-0.863-0.507l1.527-2.6L709.027,176.576z"/>
      <path style="fill:#838BF3;" d="M743.379,324.91c0.57-1.571,1.133-3.164,1.684-4.776l0.323-0.945l2.853,0.973l-0.322,0.946 c-0.556,1.632-1.125,3.243-1.702,4.832l-0.341,0.939l-2.836-1.029L743.379,324.91z"/>
      <path style="fill:#838BF3;" d="M699.971,171.693c1.512,0.741,3.052,1.534,4.577,2.357l0.881,0.476l-1.436,2.653l-0.879-0.474 c-1.502-0.811-3.007-1.585-4.471-2.303l-0.898-0.44l1.328-2.708L699.971,171.693z"/>
      <path style="fill:#838BF3;" d="M717.719,182.039c0.974,0.65,1.958,1.322,2.948,2.011c0.432,0.299,0.862,0.602,1.286,0.908 l0.812,0.585l-1.764,2.447l-0.811-0.584c-0.408-0.293-0.821-0.585-1.243-0.876c-0.978-0.681-1.946-1.341-2.904-1.982l-0.83-0.555 l1.674-2.507L717.719,182.039z"/>
      <path style="fill:#838BF3;" d="M733.767,194.982c1.221,1.229,2.411,2.5,3.537,3.778l0.66,0.75l-2.262,1.995l-0.662-0.751 c-1.08-1.226-2.229-2.454-3.415-3.648l-0.705-0.71l2.141-2.124L733.767,194.982z"/>
      <path style="fill:#838BF3;" d="M726.068,188.079c1.352,1.084,2.68,2.208,3.945,3.343l0.746,0.668l-2.014,2.244L728,193.667 c-1.236-1.107-2.521-2.195-3.819-3.234l-0.781-0.625l1.886-2.354L726.068,188.079z"/>
      <path style="fill:#838BF3;" d="M735.788,343.702c0.672-1.512,1.346-3.063,2.018-4.649l0.39-0.921l2.777,1.179l-0.39,0.92 c-0.679,1.602-1.36,3.167-2.039,4.696l-0.406,0.914l-2.757-1.225L735.788,343.702z"/>
      <path style="fill:#838BF3;" d="M750.248,226.375c-0.568-1.55-1.192-3.11-1.856-4.638l-0.399-0.916l2.764-1.204l0.4,0.917 c0.68,1.562,1.328,3.179,1.924,4.804l0.344,0.939l-2.833,1.038L750.248,226.375z"/>
      <path style="fill:#838BF3;" d="M753.145,235.948c-0.397-1.635-0.839-3.259-1.314-4.829l-0.29-0.957l2.887-0.874l0.289,0.957 c0.494,1.63,0.95,3.309,1.357,4.991l0.235,0.971l-2.93,0.712L753.145,235.948z"/>
      <path style="fill:#838BF3;" d="M754.997,245.796c-0.231-1.685-0.5-3.351-0.801-4.949l-0.186-0.984l2.965-0.557l0.185,0.982 c0.31,1.647,0.588,3.363,0.825,5.099l0.136,0.992l-2.989,0.407L754.997,245.796z"/>
      <path style="fill:#838BF3;" d="M746.652,315.328c0.51-1.597,1.008-3.211,1.49-4.837l0.284-0.958l2.892,0.856l-0.284,0.959 c-0.489,1.648-0.991,3.281-1.508,4.898l-0.304,0.953l-2.874-0.92L746.652,315.328z"/>
      <path style="fill:#838BF3;" d="M741.165,208.638c-0.927-1.361-1.915-2.719-2.939-4.035l-0.614-0.789l2.381-1.852l0.614,0.79 c1.055,1.357,2.082,2.765,3.051,4.187l0.563,0.826l-2.494,1.701L741.165,208.638z"/>
      <path style="fill:#838BF3;" d="M746.255,217.222c-0.754-1.478-1.565-2.948-2.41-4.37l-0.511-0.86l2.595-1.541l0.51,0.86 c0.874,1.474,1.716,3,2.503,4.537l0.456,0.891l-2.688,1.374L746.255,217.222z"/>
      <path style="fill:#838BF3;" d="M755.897,255.799c-0.078-1.692-0.192-3.38-0.337-5.014l-0.089-0.995l3.004-0.271l0.089,0.997 c0.151,1.69,0.268,3.421,0.346,5.146l0.045,0.998l-3.011,0.139L755.897,255.799z"/>
      <path style="fill:#838BF3;" d="M749.528,305.624c0.442-1.619,0.867-3.251,1.274-4.893l0.24-0.97l2.93,0.724l-0.241,0.971 c-0.413,1.665-0.845,3.319-1.292,4.961l-0.262,0.965l-2.912-0.792L749.528,305.624z"/>
      <path style="fill:#838BF3;" d="M755.944,265.859c0.057-1.662,0.083-3.355,0.077-5.032l-0.004-0.999l3.016-0.015l0.004,1.001 c0.007,1.67-0.019,3.402-0.078,5.149l-0.033,1l-3.017-0.104L755.944,265.859z"/>
      <path style="fill:#838BF3;" d="M751.957,295.817c0.364-1.639,0.708-3.286,1.031-4.941l0.191-0.982l2.959,0.578l-0.19,0.98 c-0.313,1.609-0.664,3.297-1.045,5.017l-0.216,0.977l-2.947-0.652L751.957,295.817z"/>
      <path style="fill:#838BF3;" d="M755.24,275.911c0.155-1.487,0.292-3.016,0.405-4.541l0.105-1.473l3.01,0.204l-0.106,1.489 c-0.114,1.542-0.253,3.101-0.413,4.635l-0.104,0.995l-3.001-0.315L755.24,275.911z"/>
      <path style="fill:#838BF3;" d="M753.885,285.909c0.279-1.678,0.534-3.356,0.754-4.987l0.134-0.99l2.99,0.403l-0.135,0.992 c-0.221,1.633-0.48,3.341-0.767,5.078l-0.164,0.987l-2.977-0.496L753.885,285.909z"/>
      <path style="fill:#838BF3;" d="M634.673,166.153l0.968-0.25l0.755,2.921l-0.969,0.249c-1.624,0.419-3.253,0.858-4.891,1.309 l-0.964,0.266l-0.802-2.908l0.964-0.265C631.389,167.019,633.035,166.576,634.673,166.153z"/>
      <path style="fill:#838BF3;" d="M550.098,176.801c1.628,0.151,3.309,0.296,5.046,0.431l0.996,0.078l-0.233,3.008l-0.997-0.078 c-1.753-0.137-3.447-0.282-5.091-0.435l-0.996-0.093l0.281-3.003L550.098,176.801z"/>
      <path style="fill:#838BF3;" d="M510.311,169.878c1.588,0.409,3.218,0.819,4.911,1.23l0.972,0.236l-0.711,2.931l-0.972-0.235 c-1.706-0.413-3.349-0.829-4.952-1.239l-0.97-0.249l0.752-2.923L510.311,169.878z"/>
      <path style="fill:#838BF3;" d="M540.045,175.691c1.613,0.209,3.285,0.408,5.021,0.599l0.995,0.11l-0.332,2.998l-0.993-0.109 c-1.755-0.193-3.446-0.396-5.077-0.607l-0.991-0.128l0.385-2.992L540.045,175.691z"/>
      <path style="fill:#838BF3;" d="M530.053,174.192c1.595,0.275,3.253,0.544,4.984,0.802l0.989,0.147l-0.445,2.986l-0.99-0.149 c-1.753-0.263-3.435-0.535-5.052-0.813l-0.986-0.17l0.513-2.973L530.053,174.192z"/>
      <path style="fill:#838BF3;" d="M500.462,167.326c1.638,0.412,3.274,0.837,4.936,1.272l0.967,0.253l-0.764,2.917l-0.967-0.253 c-1.652-0.431-3.28-0.855-4.908-1.265l-0.97-0.244l0.735-2.924L500.462,167.326z"/>
      <path style="fill:#838BF3;" d="M520.144,172.246c1.583,0.35,3.226,0.693,4.944,1.031l0.982,0.194l-0.585,2.958l-0.98-0.193 c-1.74-0.342-3.406-0.691-5.01-1.044l-0.977-0.215l0.648-2.948L520.144,172.246z"/>
      <path style="fill:#838BF3;" d="M454.674,162.708l1-0.028l0.085,3.013l-0.999,0.029c-1.629,0.047-3.315,0.11-5.061,0.189 l-0.998,0.045l-0.139-3.012l0.999-0.046C451.325,162.817,453.027,162.754,454.674,162.708z"/>
      <path style="fill:#838BF3;" d="M680.64,164.466c1.636,0.41,3.313,0.886,4.983,1.415l0.953,0.302l-0.909,2.876l-0.954-0.302 c-1.613-0.511-3.231-0.97-4.807-1.365l-0.971-0.244l0.735-2.924L680.64,164.466z"/>
      <path style="fill:#838BF3;" d="M474.991,163.056l1.182,0.087l-0.221,3.008l-1.182-0.087c-1.592-0.117-3.223-0.211-4.848-0.279 l-0.999-0.042l0.127-3.014l0.999,0.042C471.717,162.842,473.379,162.938,474.991,163.056z"/>
      <path style="fill:#838BF3;" d="M480.294,163.544c1.719,0.191,3.434,0.416,5.1,0.669l0.988,0.15l-0.451,2.98l-0.988-0.149 c-1.639-0.247-3.315-0.466-4.982-0.651l-0.994-0.11l0.333-2.999L480.294,163.544z"/>
      <path style="fill:#838BF3;" d="M490.458,165.08c1.62,0.309,3.264,0.653,5.027,1.053l0.974,0.221l-0.665,2.942l-0.976-0.221 c-1.719-0.39-3.33-0.727-4.925-1.03l-0.983-0.187l0.566-2.964L490.458,165.08z"/>
      <path style="fill:#838BF3;" d="M464.919,162.625l1,0.015l-0.044,3.016l-1-0.015c-1.62-0.024-3.304-0.028-5.054-0.014l-0.999,0.008 l-0.027-3.016l1-0.009C461.57,162.595,463.276,162.6,464.919,162.625z"/>
      <path style="fill:#838BF3;" d="M654.909,162.427l0.997-0.086l0.258,3.006l-0.996,0.086c-1.619,0.14-3.291,0.332-4.97,0.572 l-0.991,0.142l-0.424-2.986l0.989-0.142C651.508,162.771,653.237,162.571,654.909,162.427z"/>
      <rect x="619.241" y="169.488" transform="matrix(0.9622 -0.2722 0.2722 0.9622 -23.029 175.9944)" style="fill:#838BF3;" width="7.09" height="3.016"/>
      <path style="fill:#838BF3;" d="M644.684,163.871l0.982-0.188l0.567,2.964l-0.983,0.187c-1.553,0.296-3.162,0.636-4.919,1.039 l-0.974,0.224l-0.676-2.938l0.975-0.225C641.415,164.529,643.06,164.182,644.684,163.871z"/>
      <path style="fill:#838BF3;" d="M665.264,162.196l0.999,0.044l-0.133,3.014l-0.999-0.044c-1.637-0.072-3.313-0.089-4.982-0.05 l-1.001,0.024l-0.067-3.017l0.999-0.023C661.817,162.104,663.562,162.121,665.264,162.196z"/>
      <path style="fill:#838BF3;" d="M670.438,162.604c1.721,0.196,3.448,0.453,5.134,0.763l0.983,0.18l-0.542,2.967l-0.984-0.181 c-1.636-0.299-3.295-0.546-4.932-0.732l-0.993-0.113l0.339-2.999L670.438,162.604z"/>
      <path style="fill:#838BF3;" d="M615.039,171.589l0.964-0.261l0.791,2.911l-0.967,0.261c-1.628,0.44-3.275,0.874-4.946,1.297 l-0.969,0.246l-0.741-2.925l0.97-0.245C611.796,172.454,613.427,172.024,615.039,171.589z"/>
      <path style="fill:#838BF3;" d="M564.229,177.832l2.028,0.104l-0.144,3.014l-2.046-0.105c-1.385-0.076-2.74-0.157-4.062-0.243 l-0.998-0.065l0.196-3.01l0.998,0.065C561.513,177.677,562.856,177.757,564.229,177.832z"/>
      <path style="fill:#838BF3;" d="M585.361,177.381l0.995-0.098l0.294,3l-0.995,0.098c-1.716,0.17-3.44,0.308-5.124,0.411 l-0.997,0.061l-0.187-3.009l0.998-0.062C582.003,177.681,583.69,177.545,585.361,177.381z"/>
      <path style="fill:#838BF3;" d="M575.319,178l1.001-0.026l0.073,3.018l-1,0.025c-1.7,0.042-3.429,0.053-5.139,0.033l-0.999-0.011 l0.033-3.017l1.001,0.012C571.972,178.053,573.664,178.042,575.319,178z"/>
      <path style="fill:#838BF3;" d="M605.229,174.061l0.974-0.224l0.676,2.939l-0.975,0.224c-1.689,0.388-3.377,0.752-5.015,1.081 l-0.981,0.197l-0.592-2.957l0.98-0.197C601.903,174.801,603.563,174.444,605.229,174.061z"/>
      <path style="fill:#838BF3;" d="M595.339,176.042l0.987-0.167l0.502,2.974l-0.986,0.167c-1.721,0.291-3.43,0.551-5.081,0.772 l-0.991,0.132l-0.401-2.989l0.991-0.133C592.005,176.577,593.68,176.323,595.339,176.042z"/>
      <path style="fill:#838BF3;" d="M441.675,163.348c0.861-0.058,1.71-0.112,2.546-0.164l0.998-0.062l0.186,3.01l-0.998,0.062 c-0.83,0.052-1.672,0.106-2.527,0.164l-0.998,0.068l-0.205-3.01L441.675,163.348z"/>
    </g>
    <g>
      <path style="fill:#F8AD18;" d="M435.759,173.726l-5.708,5.792c0,0-35.739-5.923-33.105-5.714 c2.634,0.208,36.639-11.997,36.639-11.997L435.759,173.726z"/>
      <polygon style="fill:#FFDE6E;" points="439.686,177.189 437.56,167.347 403.1,172.938 434.664,164.493 431.945,157.736 &#10;&#9;&#9;&#9;396.945,173.804 &#9;&#9;"/>
    </g>
  </g>
</svg>