<svg width="24" height="24" viewBox="0 0 24 24" fill="none" xmlns="http://www.w3.org/2000/svg">
<rect width="24" height="24" rx="4" fill="#E9E9F3"/>
<g clip-path="url(#clip0_213_1444)">
<path d="M12.4285 12.4287H11.1428V14.5716H12.4285C13.1143 14.5716 13.7143 14.1001 13.7143 13.5001C13.7143 12.9001 13.1143 12.4287 12.4285 12.4287Z" fill="white"/>
<path d="M12.4285 9.42871H11.1428V11.5716H12.4285C13.1143 11.5716 13.7143 11.1001 13.7143 10.5001C13.7143 9.90014 13.1143 9.42871 12.4285 9.42871Z" fill="white"/>
<path d="M12 5.57129C8.44284 5.57129 5.57141 8.44272 5.57141 11.9999C5.57141 15.557 8.44284 18.4284 12 18.4284C15.5571 18.4284 18.4286 15.557 18.4286 11.9999C18.4286 8.44272 15.5571 5.57129 12 5.57129ZM14.5714 13.4999C14.5714 14.4427 13.8428 15.2141 12.8571 15.3856V15.857C12.8571 16.0713 12.6428 16.2856 12.4286 16.2856C12.2143 16.2856 12 16.0713 12 15.857V15.4284H11.1428V15.857C11.1428 16.0713 10.9714 16.2856 10.7143 16.2856C10.4571 16.2856 10.2857 16.0713 10.2857 15.857V15.4284H9.85713C9.59998 15.4284 9.42855 15.2141 9.42855 14.9999C9.42855 14.7856 9.59998 14.5713 9.85713 14.5713H10.2857V12.4284H9.85713C9.59998 12.4284 9.42855 12.2141 9.42855 11.9999C9.42855 11.7856 9.59998 11.5713 9.85713 11.5713H10.2857V9.42843H9.85713C9.59998 9.42843 9.42855 9.257 9.42855 8.99986C9.42855 8.74272 9.59998 8.57129 9.85713 8.57129H10.2857V8.14272C10.2857 7.88557 10.4571 7.71415 10.7143 7.71415C10.9714 7.71415 11.1428 7.88557 11.1428 8.14272V8.57129H12V8.14272C12 7.88557 12.2143 7.71415 12.4286 7.71415C12.6428 7.71415 12.8571 7.88557 12.8571 8.14272V8.61415C13.8428 8.78557 14.5714 9.557 14.5714 10.4999C14.5714 11.0999 14.2286 11.657 13.7571 11.9999C14.2286 12.3427 14.5714 12.8999 14.5714 13.4999Z" fill="white"/>
</g>
<defs>
<clipPath id="clip0_213_1444">
<rect width="13.7143" height="13.7143" fill="white" transform="translate(5.14282 5.14258)"/>
</clipPath>
</defs>
</svg>
