<svg width="24" height="24" viewBox="0 0 24 24" fill="none" xmlns="http://www.w3.org/2000/svg">
<rect width="24" height="24" rx="4" fill="#335AE5"/>
<g clip-path="url(#clip0_213_1454)">
<path d="M12.8571 14.5278C13.3713 14.3564 13.7142 13.9707 13.7142 13.4993C13.7142 13.0278 13.3713 12.6421 12.8571 12.4707V14.5278Z" fill="white"/>
<path d="M11.1428 10.4994C11.1428 10.9708 11.4857 11.3565 12 11.528V9.51367C11.4857 9.64224 11.1428 10.028 11.1428 10.4994Z" fill="white"/>
<path d="M12.4286 5.57129C8.87143 5.57129 6 8.44272 6 11.9999C6 15.557 8.87143 18.4284 12.4286 18.4284C15.9857 18.4284 18.8571 15.557 18.8571 11.9999C18.8571 8.44272 15.9857 5.57129 12.4286 5.57129ZM14.5714 13.4999C14.5714 14.4427 13.8429 15.2141 12.8571 15.3856V15.857C12.8571 16.0713 12.6429 16.2856 12.4286 16.2856C12.2143 16.2856 12 16.0713 12 15.857V15.3856C11.0143 15.2141 10.2857 14.4427 10.2857 13.4999C10.2857 13.2856 10.4571 13.0713 10.7143 13.0713C10.9714 13.0713 11.1429 13.2856 11.1429 13.4999C11.1429 13.9713 11.4857 14.357 12 14.5284V12.4284C11.0143 12.257 10.2857 11.4856 10.2857 10.5427C10.2857 9.59986 11.0143 8.82843 12 8.657V8.14272C12 7.88557 12.1714 7.71415 12.4286 7.71415C12.6429 7.71415 12.8571 7.88557 12.8571 8.14272V8.61415C13.8429 8.78557 14.5714 9.557 14.5714 10.4999C14.5714 10.757 14.3571 10.9284 14.1429 10.9284C13.9286 10.9284 13.7143 10.757 13.7143 10.4999C13.7143 10.0284 13.3714 9.64272 12.8571 9.47129V11.5713C13.8429 11.7856 14.5714 12.557 14.5714 13.4999Z" fill="white"/>
</g>
<defs>
<clipPath id="clip0_213_1454">
<rect width="13.7143" height="13.7143" fill="white" transform="translate(5.57141 5.14258)"/>
</clipPath>
</defs>
</svg>
