<?xml version="1.0" encoding="utf-8"?>
<svg viewBox="-3.823 38.397 498.491 425.573" xmlns="http://www.w3.org/2000/svg">
  <g id="Layer_1" display="none" transform="matrix(0.917248, 0, 0, 0.907541, -84.069305, -75.974686)" style="">
    <rect display="inline" fill="#FFFFFF" width="750" height="750"/>
  </g>
  <g id="hose" transform="matrix(0.917248, 0, 0, 0.907541, -84.069305, -75.974686)" style="">
    <linearGradient id="SVGID_39_" gradientUnits="userSpaceOnUse" x1="190.8052" y1="327.4531" x2="215.9482" y2="327.4531">
      <stop offset="0" style="stop-color:#05C5DA"/>
      <stop offset="1" style="stop-color:#5860C4"/>
    </linearGradient>
    <path fill="url(#SVGID_39_)" d="M210.687,298.64c-0.597,0.583-1.308,1.541-1.957,2.561c-0.653,1.028-1.263,2.143-1.821,3.292 c-1.116,2.304-2.025,4.752-2.722,7.241c-1.392,4.984-1.925,10.155-1.484,15.134c0.433,4.984,1.848,9.766,4.135,14.11 c2.279,4.352,5.413,8.271,9.11,11.726l-10.646,10.342c-4.325-4.797-8.05-10.336-10.603-16.453c-2.57-6.102-3.9-12.738-3.894-19.265 c-0.008-6.537,1.25-12.931,3.473-18.877c1.119-2.976,2.473-5.849,4.111-8.603c0.822-1.377,1.713-2.725,2.725-4.048 c1.025-1.316,2.115-2.636,3.7-3.939L210.687,298.64z"/>
    <g>
      <path fill="#00E2EC" d="M203.603,311.587c-4.92,0-8.208-3.757-9.135-4.961c-0.168-0.219-0.127-0.533,0.092-0.701 c0.219-0.167,0.532-0.126,0.701,0.092c0.898,1.169,4.208,4.953,9.081,4.54c0.275-0.027,0.517,0.181,0.54,0.456 c0.023,0.275-0.181,0.517-0.456,0.54C204.147,311.576,203.872,311.587,203.603,311.587z"/>
    </g>
    <g>
      <path fill="#00E2EC" d="M196.936,327.294c-2.793,0-5.005-1.053-6.348-1.914c-0.232-0.149-0.3-0.458-0.151-0.691 c0.149-0.233,0.458-0.301,0.691-0.151c2.003,1.285,6.125,3.036,11.233,0.31c0.242-0.13,0.546-0.039,0.676,0.206 c0.13,0.244,0.038,0.546-0.206,0.676C200.685,326.876,198.695,327.294,196.936,327.294z"/>
    </g>
    <g>
      <path fill="#00E2EC" d="M195.226,345.771c-0.394,0-0.763-0.013-1.103-0.032c-0.276-0.016-0.486-0.252-0.47-0.528 s0.253-0.489,0.528-0.47c2.993,0.175,8.498-0.259,11.707-5.097c0.152-0.23,0.462-0.294,0.693-0.14 c0.23,0.152,0.293,0.463,0.14,0.693C203.604,344.896,198.554,345.771,195.226,345.771z"/>
    </g>
  </g>
  <g id="left_leg" transform="matrix(0.917248, 0, 0, 0.907541, -84.069305, -75.974686)" style="">
    <linearGradient id="SVGID_40_" gradientUnits="userSpaceOnUse" x1="533.3164" y1="509.874" x2="604.3594" y2="509.874">
      <stop offset="0" style="stop-color:#05C5DA"/>
      <stop offset="1" style="stop-color:#5860C4"/>
    </linearGradient>
    <path fill="url(#SVGID_40_)" d="M604.334,522.333c-1-3.334-21.667-3.333-24.334-3.667c-1.469-0.184-6.578-16.794-15.875-35.894 c-15.791,2.561-27.625,15.894-30.809,21.106l0.002,0.005c18.42,15.864,31.178,31.186,37.516,32.949 C576.679,538.459,605.334,525.667,604.334,522.333z"/>
    <linearGradient id="SVGID_41_" gradientUnits="userSpaceOnUse" x1="441.166" y1="459.7754" x2="564.125" y2="459.7754">
      <stop offset="0" style="stop-color:#FF57BD"/>
      <stop offset="1" style="stop-color:#FE6A77"/>
    </linearGradient>
    <path fill="url(#SVGID_41_)" d="M564.125,482.772c-7.587-15.585-17.962-32.826-31.428-44.157 c-17.688-14.884-36.03-21.615-50.364-22.948c0,0-19.413,8.26-29.166,17.5c-9.5,9-10.167,16.168-12.001,28.667 c18.833,1.166,35.504,6.009,59.501,18.999c12.305,6.661,23.219,14.927,32.651,23.051l-0.002-0.005 C536.5,498.666,548.334,485.333,564.125,482.772z"/>
    <g>
      <path fill="#9F36AD" d="M529.501,483.5c-0.315,0-0.626-0.148-0.82-0.427c-19.836-28.385-67.271-45.246-77.604-46.993 c-0.544-0.093-0.911-0.608-0.819-1.153c0.092-0.544,0.6-0.905,1.153-0.819c10.5,1.775,58.719,18.928,78.908,47.819 c0.316,0.453,0.206,1.076-0.246,1.393C529.898,483.441,529.698,483.5,529.501,483.5z"/>
    </g>
  </g>
  <g id="left_hand_x5F_2" transform="matrix(0.917248, 0, 0, 0.907541, -84.069305, -75.974686)" style="">
    <linearGradient id="SVGID_42_" gradientUnits="userSpaceOnUse" x1="358.2563" y1="278.6743" x2="358.2563" y2="335.3877">
      <stop offset="0" style="stop-color:#FE6A77"/>
      <stop offset="1" style="stop-color:#C91C91"/>
    </linearGradient>
    <path fill="url(#SVGID_42_)" d="M361.25,280.5c0,0-14.625-2.75-40.375-1.5c-7.993,0.388-15.035,1.135-21.004,1.995 c-1.537,5.934-3.917,11.529-7.004,16.648c4.633,1.107,8.633,1.607,28.133,10.982s48.381,28.572,58.875,26.625 c12.125-2.25,42.5-13.375,43.75-30.125C424.937,287.547,361.25,280.5,361.25,280.5z"/>
    <linearGradient id="SVGID_43_" gradientUnits="userSpaceOnUse" x1="403.4951" y1="310.5547" x2="423.645" y2="310.5547">
      <stop offset="0" style="stop-color:#05C5DA"/>
      <stop offset="1" style="stop-color:#5860C4"/>
    </linearGradient>
    <path fill="url(#SVGID_43_)" d="M423.625,305.125c0.298-3.997-2.771-7.448-7.681-10.397c-4.436,3.068-9.892,8.462-11.61,16.022 c-1.529,6.728-0.638,12.567,0.093,15.631C414.283,321.159,422.969,313.919,423.625,305.125z"/>
    <g>
      <path fill="#9F36AD" d="M365.833,292.75c-0.077,0-0.156-0.012-0.233-0.037c-25.768-8.427-66.914-6.001-70.004-4.844 c-0.385,0.147-0.819-0.051-0.965-0.439c-0.146-0.388,0.051-0.82,0.439-0.965c3.263-1.224,44.34-3.895,70.996,4.823 c0.394,0.129,0.609,0.552,0.48,0.946C366.443,292.549,366.149,292.75,365.833,292.75z"/>
    </g>
  </g>
  <g id="left_hand_x5F_1" transform="matrix(0.917248, 0, 0, 0.907541, -84.069305, -75.974686)" style="">
    <linearGradient id="SVGID_44_" gradientUnits="userSpaceOnUse" x1="360.499" y1="295.0586" x2="423.9653" y2="295.0586">
      <stop offset="0" style="stop-color:#FF57BD"/>
      <stop offset="1" style="stop-color:#FE6A77"/>
    </linearGradient>
    <path fill="url(#SVGID_44_)" d="M422.875,298.625c-3.813-9.938-20.089-17.978-30.226-23.001c-2.936-1.455-6.137-2.831-9.408-4.164 c-0.431,3.232-1.828,8.397-6.242,12.707c-5.311,5.184-12.157,6.116-16.501,6.181c3.089,3.812,6.277,7.359,9.501,10.028 c8.13,6.732,24.723,17.044,37.258,18.177c5.387,0.487,10.137-0.642,12.919-4.64C422.17,311.046,425.785,306.209,422.875,298.625z"/>
    <linearGradient id="SVGID_45_" gradientUnits="userSpaceOnUse" x1="403.5015" y1="305.7275" x2="423.9653" y2="305.7275">
      <stop offset="0" style="stop-color:#05C5DA"/>
      <stop offset="1" style="stop-color:#0090B2"/>
    </linearGradient>
    <path fill="url(#SVGID_45_)" d="M420.177,313.912c1.994-2.866,5.608-7.702,2.698-15.287c-0.777-2.025-2.078-3.97-3.732-5.828 c-4.507,2.314-12.639,8.403-14.809,17.953c-0.583,2.565-0.81,4.998-0.832,7.202c1.28,0.271,2.542,0.49,3.756,0.6 C412.645,319.039,417.395,317.91,420.177,313.912z"/>
    <linearGradient id="SVGID_46_" gradientUnits="userSpaceOnUse" x1="321.9443" y1="257.147" x2="383.2417" y2="257.147">
      <stop offset="0" style="stop-color:#00E2EC"/>
      <stop offset="1" style="stop-color:#0090B2"/>
    </linearGradient>
    <path fill="url(#SVGID_46_)" d="M383.242,271.46c-12.187-4.969-25.353-9.343-29.492-14.96c-4.121-5.592-2.563-15.188-4.375-22 c-1.352-5.081-5.563-11.188-9.75-10.5c-5.095,0.836-5.875,7.75-4.875,13.25s2.25,10-0.875,10.75 c-2.677,0.643-6.151-1.51-7.75-2.125c-1.083-0.417-5.346-0.521-3.875,4.5c1.917,6.542,13.333,11.815,19.875,17.375 c5.168,4.393,11.526,14.147,18.374,22.597c4.344-0.065,11.19-0.997,16.501-6.181C381.414,279.857,382.811,274.692,383.242,271.46z"/>
  </g>
  <g id="body" transform="matrix(0.917248, 0, 0, 0.907541, -84.069305, -75.974686)" style="">
    <linearGradient id="SVGID_47_" gradientUnits="userSpaceOnUse" x1="273.355" y1="431.3379" x2="395.4093" y2="328.9221">
      <stop offset="0" style="stop-color:#FE6A77"/>
      <stop offset="1" style="stop-color:#FF57BD"/>
    </linearGradient>
    <path fill="url(#SVGID_47_)" d="M443.5,387.25c0,0-16.833-25.917-53.125-52.75c-39.32-29.072-94.609-42.238-99.875-42 c0,0-10.25,13.25-21.5,20.25s-34.5,7.75-34.5,7.75s3.75,31.875,20,70.375c5.235,12.403,10.872,21.46,17.653,33.343 C292,459,323.5,495,365.75,497.25C359.667,463.333,385.5,412,443.5,387.25z"/>
    <g>
      <path fill="#FFA2BA" d="M412.136,406.254c-0.292,0-0.582-0.127-0.779-0.373c-42.761-53.082-94.836-88.645-126.437-102.97 c-0.503-0.228-0.726-0.82-0.498-1.324c0.228-0.502,0.82-0.725,1.324-0.498c31.8,14.416,84.186,50.182,127.168,103.538 c0.346,0.43,0.279,1.06-0.151,1.405C412.578,406.182,412.356,406.254,412.136,406.254z"/>
    </g>
    <g>
      <path fill="#FFA2BA" d="M365.833,476.778c-0.04,0-0.079-0.002-0.119-0.007c-50.191-5.92-82.86-56.743-84.227-58.904 c-0.295-0.467-0.156-1.084,0.311-1.379c0.467-0.297,1.084-0.156,1.38,0.311c11.396,18.023,43.362,53.338,82.771,57.986 c0.548,0.064,0.94,0.562,0.876,1.11C366.765,476.404,366.333,476.778,365.833,476.778z"/>
    </g>
    <linearGradient id="SVGID_48_" gradientUnits="userSpaceOnUse" x1="310.0063" y1="377.042" x2="378.1675" y2="319.848">
      <stop offset="0" style="stop-color:#C5188E"/>
      <stop offset="1" style="stop-color:#FF57BD"/>
    </linearGradient>
    <path fill="url(#SVGID_48_)" d="M295.167,354.333c-1.833,9,31.667,39.542,41.333,39.542c9.379,0,43.737-38.777,54.11-59.199 c-0.08-0.059-0.155-0.118-0.235-0.176c-14.4-10.647-30.941-19.159-46.384-25.662C329.796,317.443,297.177,344.467,295.167,354.333z "/>
    <g>
      <circle fill="#1AA9E8" cx="334.246" cy="356.944" r="8.753"/>
      <circle fill="#1AA9E8" cx="347.154" cy="344.037" r="3.82"/>
      <g>
        <path fill="#1AA9E8" d="M334.246,376.194c-10.614,0-19.25-8.636-19.25-19.25s8.636-19.25,19.25-19.25s19.25,8.636,19.25,19.25 S344.86,376.194,334.246,376.194z M334.246,339.694c-9.512,0-17.25,7.738-17.25,17.25s7.738,17.25,17.25,17.25 s17.25-7.738,17.25-17.25S343.758,339.694,334.246,339.694z"/>
      </g>
    </g>
    <g>
      <path fill="#9F36AD" d="M356.214,338.379c-0.501,0-1.003-0.188-1.392-0.564c-0.793-0.769-0.813-2.035-0.044-2.828l14.227-14.681 c0.77-0.793,2.036-0.812,2.828-0.044c0.793,0.769,0.813,2.035,0.044,2.828l-14.227,14.681 C357.258,338.176,356.736,338.379,356.214,338.379z"/>
    </g>
    <g>
      <path fill="#9F36AD" d="M347.265,330.342c-0.506,0-1.013-0.191-1.402-0.574c-0.788-0.774-0.798-2.041-0.023-2.828l12.221-12.425 c0.774-0.787,2.042-0.797,2.828-0.023c0.788,0.774,0.798,2.041,0.023,2.828l-12.221,12.425 C348.299,330.143,347.782,330.342,347.265,330.342z"/>
    </g>
    <g>
      <path fill="#9F36AD" d="M366.776,345.884c-0.472,0-0.946-0.166-1.327-0.504c-0.826-0.733-0.901-1.998-0.168-2.824l14.119-15.91 c0.735-0.826,1.999-0.9,2.824-0.168c0.826,0.733,0.901,1.998,0.168,2.824l-14.119,15.91 C367.877,345.657,367.328,345.884,366.776,345.884z"/>
    </g>
  </g>
  <g id="right_leg" transform="matrix(0.917248, 0, 0, 0.907541, -84.069305, -75.974686)" style="">
    <linearGradient id="SVGID_49_" gradientUnits="userSpaceOnUse" x1="364.8809" y1="439.6055" x2="560.1338" y2="439.6055">
      <stop offset="0" style="stop-color:#C91C91"/>
      <stop offset="1" style="stop-color:#FE6A77"/>
    </linearGradient>
    <path fill="url(#SVGID_49_)" d="M560.134,404.43L560.134,404.43c-28.154-9.844-63.22-23.57-87.134-22.68 c-20,0.745-29.5,5.5-29.5,5.5c-58,24.75-83.833,76.083-77.75,110C439.922,501.2,461.688,457.557,501,444 c15.513-5.35,34.665-5.966,52.164-5.613c0-0.001-0.001-0.002-0.001-0.003C548.993,420.101,557.667,408.167,560.134,404.43z"/>
    <linearGradient id="SVGID_50_" gradientUnits="userSpaceOnUse" x1="443.5" y1="395.3496" x2="498.8877" y2="395.3496">
      <stop offset="0" style="stop-color:#00E2EC"/>
      <stop offset="1" style="stop-color:#0090B2"/>
    </linearGradient>
    <path fill="url(#SVGID_50_)" d="M472.75,408.834c20.962-1.823,26.435-17.315,26.126-24.031c-9.375-2.114-18.201-3.339-25.876-3.053 c-20,0.745-29.5,5.5-29.5,5.5C444.417,397.834,453.011,410.551,472.75,408.834z"/>
    <g>
      <path fill="#9F36AD" d="M470.55,400.5c-0.825,0-1.496-0.666-1.5-1.492l-0.092-17.367c-0.004-0.828,0.664-1.503,1.492-1.508 c0.003,0,0.005,0,0.008,0c0.825,0,1.496,0.666,1.5,1.492l0.092,17.367c0.004,0.828-0.664,1.503-1.492,1.508 C470.555,400.5,470.553,400.5,470.55,400.5z"/>
    </g>
    <g>
      <path fill="#9F36AD" d="M481.922,400.484c-0.825,0-1.496-0.667-1.5-1.492l-0.086-16.938c-0.004-0.829,0.664-1.504,1.492-1.508 c0.003,0,0.006,0,0.008,0c0.825,0,1.496,0.667,1.5,1.492l0.086,16.938c0.004,0.829-0.664,1.504-1.492,1.508 C481.927,400.484,481.924,400.484,481.922,400.484z"/>
    </g>
    <g>
      <path fill="#9F36AD" d="M459.429,400.563c-0.804,0-1.469-0.637-1.498-1.446l-0.569-15.97c-0.029-0.828,0.618-1.523,1.445-1.553 c0.821-0.038,1.522,0.617,1.553,1.445l0.569,15.97c0.029,0.828-0.618,1.523-1.445,1.553 C459.465,400.563,459.446,400.563,459.429,400.563z"/>
    </g>
    <g>
      <path fill="#FFA2BA" d="M376.92,477.423c-3.706,0-7.442-0.208-11.205-0.651c-0.548-0.064-0.94-0.562-0.876-1.11 c0.065-0.549,0.563-0.939,1.11-0.876c39.85,4.703,77.171-17.682,101.866-32.492c8.914-5.346,15.954-9.568,21.337-11.563 c17.564-6.511,43.968-4.986,63.025-2.561c0.548,0.07,0.936,0.57,0.866,1.118s-0.563,0.93-1.118,0.866 c-18.838-2.398-44.896-3.918-62.078,2.451c-5.208,1.931-12.528,6.32-21.004,11.403C446.23,457.57,413.128,477.423,376.92,477.423z "/>
    </g>
    <linearGradient id="SVGID_51_" gradientUnits="userSpaceOnUse" x1="552.0469" y1="420.0098" x2="622.2031" y2="420.0098">
      <stop offset="0" style="stop-color:#00E2EC"/>
      <stop offset="1" style="stop-color:#0090B2"/>
    </linearGradient>
    <path fill="url(#SVGID_51_)" d="M599.5,437.5c4.351-1.826,10.168-5.365,16.75-16.25c4.333-7.166,7.667-20.576,5-20.5 c-5.833,0.167-12.764,12.453-22.25,13.25c-8.094,0.68-22.281-3.772-38.866-9.57l0,0c-2.467,3.737-11.141,15.671-6.971,33.954 c0,0.001,0.001,0.002,0.001,0.003C573.83,438.802,592.189,440.568,599.5,437.5z"/>
    <circle fill="#9F36AD" cx="572" cy="426" r="6"/>
  </g>
  <g id="right_hand" transform="matrix(0.917248, 0, 0, 0.907541, -84.069305, -75.974686)" style="">
    <linearGradient id="SVGID_52_" gradientUnits="userSpaceOnUse" x1="198.7612" y1="405.0107" x2="276.3203" y2="405.0107">
      <stop offset="0" style="stop-color:#FE6A77"/>
      <stop offset="1" style="stop-color:#C91C91"/>
    </linearGradient>
    <path fill="url(#SVGID_52_)" d="M266.5,451.5c2.25-21.25,9-32.875,9.75-49.5c0.818-18.142-5.106-70.836-39-78.25 c-6-1.313-12.75,0.063-12.75,0.063C210.833,343,197.667,371,198.833,407c1.286,39.682,24.307,65.857,38,79.5 c0.116,0.115,0.225,0.225,0.34,0.339c4.284-4.033,14.532-10.892,29.542-11.174C265.932,467.629,265.693,459.117,266.5,451.5z"/>
    <linearGradient id="SVGID_53_" gradientUnits="userSpaceOnUse" x1="198.8276" y1="430.2549" x2="220.2461" y2="430.2549">
      <stop offset="0" style="stop-color:#00E2EC"/>
      <stop offset="1" style="stop-color:#0090B2"/>
    </linearGradient>
    <path fill="url(#SVGID_53_)" d="M218.75,423.875c-4.232-13.379-14.699-16.905-19.922-17.163c0.003,0.097,0.003,0.191,0.006,0.288 c0.6,18.504,5.927,34.069,12.83,46.798C217.426,449.575,223,437.309,218.75,423.875z"/>
    <g>
      <path fill="#9F36AD" d="M202.52,431.675c-0.649,0-1.247-0.424-1.439-1.077c-0.233-0.795,0.222-1.629,1.017-1.862l9.916-2.911 c0.794-0.23,1.628,0.224,1.862,1.017c0.233,0.795-0.222,1.629-1.017,1.862l-9.916,2.911 C202.802,431.655,202.659,431.675,202.52,431.675z"/>
    </g>
    <g>
      <path fill="#9F36AD" d="M200.734,423.652c-0.649,0-1.247-0.424-1.439-1.077c-0.233-0.795,0.222-1.629,1.017-1.862l9.44-2.771 c0.795-0.231,1.628,0.223,1.862,1.017c0.233,0.795-0.222,1.629-1.017,1.862l-9.44,2.771 C201.016,423.633,200.874,423.652,200.734,423.652z"/>
    </g>
    <g>
      <path fill="#9F36AD" d="M204.946,440.127c-0.624,0-1.206-0.392-1.419-1.015c-0.268-0.784,0.15-1.637,0.934-1.904l9.531-3.259 c0.786-0.271,1.637,0.15,1.905,0.934c0.268,0.784-0.15,1.637-0.934,1.904l-9.531,3.259 C205.271,440.102,205.106,440.127,204.946,440.127z"/>
    </g>
    <g>
      <path fill="#FFA2BA" d="M243.001,471.667c-0.34,0-0.671-0.173-0.858-0.485c-0.172-0.286-0.399-0.654-0.675-1.103 c-18.498-29.997-23.152-56.096-23.8-72.707c-1.473-37.768,9.622-64.643,16.411-74.568c0.311-0.456,0.935-0.573,1.39-0.261 c0.456,0.312,0.573,0.934,0.261,1.39c-6.649,9.723-17.516,36.115-16.063,73.361c0.639,16.372,5.235,42.108,23.504,71.735 c0.281,0.457,0.513,0.832,0.688,1.123c0.284,0.474,0.131,1.088-0.343,1.372C243.354,471.621,243.176,471.667,243.001,471.667z"/>
    </g>
    <linearGradient id="SVGID_54_" gradientUnits="userSpaceOnUse" x1="237.1733" y1="512.7715" x2="284.501" y2="512.7715">
      <stop offset="0" style="stop-color:#00E2EC"/>
      <stop offset="1" style="stop-color:#0090B2"/>
    </linearGradient>
    <path fill="url(#SVGID_54_)" d="M260.688,514.625c2.104,6.695-3.438,13.542-3.813,19.5c-0.424,6.736,7.546,15.971,11.75,15.75 c3.958-0.208,6-4.875,5.875-8.125s-1.625-11,1.25-11.625s2.032,5.135,3.375,7.125c1.125,1.667,3.958,1.583,4.75-0.75 c0.808-2.382,1.125-9.083-0.875-13.25c-2.444-5.093-7-10.625-10.25-18c-2.017-4.577-4.755-16.442-6.035-29.585 c-15.009,0.282-25.257,7.141-29.542,11.174C253.521,503.124,258.639,508.108,260.688,514.625z"/>
  </g>
  <g id="head" transform="matrix(0.917248, 0, 0, 0.907541, -84.069305, -75.974686)" style="">
    <linearGradient id="SVGID_55_" gradientUnits="userSpaceOnUse" x1="256.2388" y1="279.8066" x2="261.8333" y2="311.5349">
      <stop offset="0" style="stop-color:#C16846"/>
      <stop offset="0.2653" style="stop-color:#D27565"/>
      <stop offset="0.5308" style="stop-color:#DE7F7B"/>
      <stop offset="0.7814" style="stop-color:#E58589"/>
      <stop offset="1" style="stop-color:#E8878E"/>
    </linearGradient>
    <path fill="url(#SVGID_55_)" d="M263.625,280.625c1.431,2.25,9.625,11.375,14.25,13.875c-1.375,4.25-7,11-15.875,15.125 c-7.264,3.376-16.313,4.75-16.313,4.75s-3.438-8.375-5.563-18.313c-1.443-6.749-2-13.063-2-13.063s5.813,3.188,13.125,3 C258.453,285.815,263.625,280.625,263.625,280.625z"/>
    <linearGradient id="SVGID_56_" gradientUnits="userSpaceOnUse" x1="223.77" y1="284.7759" x2="261.693" y2="252.9547">
      <stop offset="0" style="stop-color:#E8878E"/>
      <stop offset="1" style="stop-color:#F4BEA3"/>
    </linearGradient>
    <path fill="url(#SVGID_56_)" d="M264.583,266.083c-2.917-11.667-11.833-23.5-14.25-26.667h-6.917l-24.417,15l-0.75,12.833 c0,0,3.357,4.274,8.732,9.952c-2.097,0.859-3.565,2.851-3.565,5.172c0,3.107,2.63,5.625,5.875,5.625 c2.375,0,4.415-1.351,5.341-3.292c8.8,7.275,20.495,7.174,26.034,3.375C266.483,284.095,267.5,277.75,264.583,266.083z"/>
    <circle fill="#212F66" cx="242.5" cy="265.25" r="2"/>
    <circle fill="#212F66" cx="256.583" cy="255.667" r="1.833"/>
    <linearGradient id="SVGID_57_" gradientUnits="userSpaceOnUse" x1="249.4819" y1="262.167" x2="261.0449" y2="262.167">
      <stop offset="0" style="stop-color:#FF57BD"/>
      <stop offset="1" style="stop-color:#FE6A77"/>
    </linearGradient>
    <path fill="url(#SVGID_57_)" d="M249.545,256.284c1.424-1.601,11.762,6.861,11.495,8.643c-0.267,1.782-2.915,3.011-4.728,3.323 C254.335,264.687,248.832,257.086,249.545,256.284z"/>
    <g>
      <path fill="#954374" d="M256.719,278.084c-1.167,0-2.269-0.383-3.185-1.107c-0.217-0.171-0.253-0.486-0.082-0.702 c0.171-0.217,0.486-0.253,0.702-0.082c0.738,0.583,1.625,0.892,2.564,0.892c2.292,0,4.156-1.878,4.156-4.188 c0-0.284-0.028-0.569-0.084-0.845c-0.055-0.271,0.12-0.535,0.39-0.589c0.272-0.057,0.535,0.12,0.589,0.39 c0.07,0.342,0.105,0.693,0.105,1.044C261.875,275.757,259.563,278.084,256.719,278.084z"/>
    </g>
    <linearGradient id="SVGID_58_" gradientUnits="userSpaceOnUse" x1="210.4634" y1="253.6152" x2="257.0601" y2="253.6152">
      <stop offset="0" style="stop-color:#994574"/>
      <stop offset="1" style="stop-color:#43256F"/>
    </linearGradient>
    <path fill="url(#SVGID_58_)" d="M255.833,225.75c-2.583-2.417-6.417,0.417-8.75,3s-4.174,5.592-6.333,5.417 c-3.083-0.25-2.018-7.616-5.833-7.167c-5.667,0.667-8.5,13.833-10.333,14.833s-3.37-3.142-6.25-1.333 c-3.583,2.25-2.476,12.904-2.917,15.5c-0.297,1.747-5.433,4.929-4.917,11.25c0.622,7.615,8.124,13.27,12.918,15.148 c0-0.008-0.001-0.016-0.001-0.023c0-2.665,1.938-4.893,4.537-5.473c-0.022-2.727-0.542-5.85-1.204-8.151 c-1.583-5.5-5.207-9.771-5.207-9.771c2.333-0.25,16.791-4.562,26.874-13.395C257.032,238.037,258.553,228.294,255.833,225.75z"/>
  </g>
  <g id="helmet" transform="matrix(0.917248, 0, 0, 0.907541, -84.069305, -75.974686)" style="">
    <radialGradient id="SVGID_59_" cx="238.7666" cy="264.8916" r="47.0205" gradientUnits="userSpaceOnUse">
      <stop offset="0" style="stop-color:#635AD5;stop-opacity:0"/>
      <stop offset="0.1205" style="stop-color:#6960D7;stop-opacity:0.0482"/>
      <stop offset="0.2878" style="stop-color:#7A72DB;stop-opacity:0.1151"/>
      <stop offset="0.4824" style="stop-color:#9690E3;stop-opacity:0.193"/>
      <stop offset="0.6977" style="stop-color:#BDB9ED;stop-opacity:0.2791"/>
      <stop offset="0.9273" style="stop-color:#EEEDFA;stop-opacity:0.3709"/>
      <stop offset="1" style="stop-color:#FFFFFF;stop-opacity:0.4"/>
    </radialGradient>
    <path fill="url(#SVGID_59_)" d="M238.881,218.156c-17.058,0-31.992,9.088-40.229,22.686c7.762-7.028,18.057-11.311,29.354-11.311 c24.163,0,43.75,19.587,43.75,43.75c0,15.81-8.388,29.659-20.954,37.346c20.184-5.277,35.079-23.633,35.079-45.471 C285.881,239.199,264.838,218.156,238.881,218.156z"/>
    <linearGradient id="SVGID_60_" gradientUnits="userSpaceOnUse" x1="191.8809" y1="266.7202" x2="267.7637" y2="266.7202">
      <stop offset="0" style="stop-color:#00E2EC"/>
      <stop offset="1" style="stop-color:#0090B2"/>
    </linearGradient>
    <path fill="url(#SVGID_60_)" d="M250.904,305.348c-15.064,0-31.353-5.371-39.57-16.681c-14.833-20.417-5.458-58.042,10.688-67.383 c-17.625,6.778-30.14,23.858-30.14,43.872c0,25.958,21.042,47,47,47c10.893,0,20.913-3.716,28.883-9.936 C262.529,304.233,256.848,305.348,250.904,305.348z"/>
    <linearGradient id="SVGID_61_" gradientUnits="userSpaceOnUse" x1="203.9521" y1="296.6313" x2="214.9664" y2="287.3893">
      <stop offset="0" style="stop-color:#A281FF"/>
      <stop offset="0.0945" style="stop-color:#B17AF5"/>
      <stop offset="0.3504" style="stop-color:#D36BDD"/>
      <stop offset="0.5934" style="stop-color:#EB60CB"/>
      <stop offset="0.8163" style="stop-color:#FA59C1"/>
      <stop offset="1" style="stop-color:#FF57BD"/>
    </linearGradient>
    <path fill="url(#SVGID_61_)" d="M204.021,282.324c-2.915,0-5.623,0.875-7.887,2.367c4.036,8.817,10.713,16.166,19.026,21.036 c2.008-2.47,3.216-5.617,3.216-9.048C218.377,288.75,211.95,282.324,204.021,282.324z"/>
    <g opacity="0.5">
      <path fill="#FFFFFF" d="M262.126,234.452l1.004,0.643l1.038,0.72c0.671,0.485,1.33,0.989,1.978,1.513 c0.773,0.625,0.893,1.759,0.267,2.533c-0.625,0.773-1.759,0.893-2.532,0.267c-0.087-0.07-0.174-0.157-0.245-0.239 c-0.488-0.578-0.994-1.145-1.516-1.7l-0.783-0.802l-0.865-0.82c-0.541-0.512-0.563-1.366-0.051-1.906 C260.873,234.183,261.592,234.11,262.126,234.452z"/>
    </g>
    <g opacity="0.5">
      <path fill="#FFFFFF" d="M271.253,243.104c0.995,1.503,1.915,3.125,2.699,4.774c0.788,1.655,1.458,3.365,2.004,5.112 c1.093,3.494,1.681,7.137,1.757,10.779c0.02,0.933-0.721,1.705-1.654,1.725c-0.915,0.019-1.676-0.698-1.723-1.606 c-0.169-3.326-0.803-6.617-1.886-9.747c-0.541-1.565-1.191-3.09-1.946-4.561c-0.759-1.477-1.603-2.872-2.573-4.248 c-0.637-0.903-0.421-2.151,0.481-2.788s2.151-0.421,2.788,0.481c0.01,0.014,0.019,0.027,0.028,0.041L271.253,243.104z"/>
    </g>
    <linearGradient id="SVGID_62_" gradientUnits="userSpaceOnUse" x1="222.9077" y1="304.5752" x2="299.8711" y2="304.5752">
      <stop offset="0" style="stop-color:#00E2EC"/>
      <stop offset="1" style="stop-color:#0090B2"/>
    </linearGradient>
    <path fill="url(#SVGID_62_)" d="M299.871,280.995c-8.251,1.188-14.434,2.589-18.184,3.563 c-7.388,16.274-23.77,27.599-42.807,27.599c-1.71,0-3.397-0.097-5.061-0.275c-4.071,4.447-8.475,10.657-10.913,14.227 c5.102,1.333,10.454,2.048,15.973,2.048C268.204,328.156,292.846,308.122,299.871,280.995z"/>
    <path fill="#FFFFFF" d="M222.017,221.272c5.115-2.09,10.634-3.194,16.179-3.352c5.547-0.133,11.129,0.716,16.395,2.523 c10.559,3.588,19.679,11.146,25.322,20.774c5.647,9.629,7.672,21.326,5.622,32.265c-1.017,5.474-3.013,10.754-5.859,15.52 c-2.877,4.745-6.568,8.99-10.897,12.422c8.401-7.171,14.197-17.258,15.999-28.076c0.901-5.404,0.905-10.954-0.062-16.333 c-0.964-5.383-2.892-10.586-5.665-15.293c-2.738-4.728-6.332-8.957-10.532-12.457c-4.206-3.498-9.033-6.235-14.182-8.098 C244.029,217.443,232.393,217.486,222.017,221.272z"/>
  </g>
  <g id="phone" transform="matrix(0.917248, 0, 0, 0.907541, -84.069305, -75.974686)" style="">
    <linearGradient id="SVGID_63_" gradientUnits="userSpaceOnUse" x1="318.793" y1="235.0996" x2="347.7192" y2="235.0996">
      <stop offset="0" style="stop-color:#653271"/>
      <stop offset="0.1129" style="stop-color:#5B2F65"/>
      <stop offset="0.496" style="stop-color:#3D263F"/>
      <stop offset="0.8053" style="stop-color:#2A2128"/>
      <stop offset="1" style="stop-color:#231F20"/>
    </linearGradient>
    <path fill="url(#SVGID_63_)" d="M347.689,251.309c0.13,0.513-0.18,1.034-0.693,1.165l-16.609,4.602 c-0.513,0.13-1.034-0.18-1.165-0.693l-10.4-36.492c-0.13-0.512,0.18-1.034,0.692-1.165l17.609-5.602 c0.512-0.13,1.034,0.18,1.164,0.692L347.689,251.309z"/>
    <linearGradient id="SVGID_64_" gradientUnits="userSpaceOnUse" x1="320.4927" y1="221.5747" x2="345.6902" y2="246.7723">
      <stop offset="0" style="stop-color:#84DBF1"/>
      <stop offset="1" style="stop-color:#FFE2A8"/>
    </linearGradient>
    <polygon fill="url(#SVGID_64_)" points="343.787,248.675 330.587,252.411 321.44,220.626 335.568,215.909 &#9;"/>
  </g>
  <g id="block" transform="matrix(0.917248, 0, 0, 0.907541, -84.069305, -75.974686)" style="">
    <path fill="#C7A0F6" d="M368.543,176.495c0.458,1.592-0.462,3.254-2.054,3.712l-67.243,20.345 c-1.592,0.458-3.254-0.462-3.712-2.054l-5.941-21.663c-0.458-1.592,0.462-3.254,2.055-3.712l67.242-19.845 c1.592-0.458,3.254,0.462,3.712,2.055L368.543,176.495z"/>
    <path fill="#FDE1A7" d="M359.721,155.16c0.442,0,0.837,0.298,0.957,0.713l5.944,21.175c0.152,0.53-0.155,1.085-0.711,1.245 l-67.216,20.337c-0.092,0.026-0.185,0.04-0.278,0.04c-0.442,0-0.836-0.298-0.953-0.701l-5.947-21.687 c-0.1-0.347,0.011-0.625,0.086-0.761c0.075-0.135,0.252-0.377,0.612-0.481l67.229-19.841 C359.535,155.174,359.628,155.161,359.721,155.16 M359.721,153.16c-0.274,0-0.553,0.038-0.83,0.118l-67.242,19.845 c-1.592,0.458-2.512,2.12-2.055,3.712l5.941,21.663c0.378,1.315,1.578,2.172,2.881,2.172c0.274,0,0.554-0.038,0.831-0.118 l67.243-20.345c1.592-0.458,2.512-2.12,2.054-3.712l-5.94-21.163C362.225,154.017,361.024,153.16,359.721,153.16L359.721,153.16z"/>
    <circle fill="#FE697A" cx="330.5" cy="227.833" r="3.667"/>
    <g>
      <path fill="#FDE1A7" d="M330.501,228.583c-0.021,0-0.042-0.001-0.064-0.002c-0.413-0.035-0.719-0.398-0.685-0.811l3.177-37.699 c0.035-0.413,0.401-0.71,0.811-0.685c0.413,0.035,0.719,0.398,0.685,0.811l-3.177,37.699 C331.214,228.288,330.887,228.583,330.501,228.583z"/>
    </g>
    <linearGradient id="SVGID_65_" gradientUnits="userSpaceOnUse" x1="332.605" y1="177.4541" x2="347.1787" y2="177.4541">
      <stop offset="0" style="stop-color:#67B4D8"/>
      <stop offset="1" style="stop-color:#C7DFF2"/>
    </linearGradient>
    <line fill="url(#SVGID_65_)" x1="332.605" y1="174.697" x2="347.179" y2="180.21"/>
    <linearGradient id="SVGID_66_" gradientUnits="userSpaceOnUse" x1="317.5522" y1="183.0361" x2="326.2358" y2="183.0361">
      <stop offset="0" style="stop-color:#67B4D8"/>
      <stop offset="1" style="stop-color:#C7DFF2"/>
    </linearGradient>
    <line fill="url(#SVGID_66_)" x1="317.552" y1="189.336" x2="326.236" y2="176.737"/>
    <g>
      <polygon fill="#FFFFFF" points="341.561,164.518 333.825,174.357 346.011,178.967 &#9;&#9;"/>
      <polygon fill="#FFFFFF" points="339.783,164.352 314.683,172.083 329.746,177.119 &#9;&#9;"/>
      <polygon fill="#FFFFFF" points="317.813,187.635 325.052,177.132 313.376,173.229 &#9;&#9;"/>
      <path fill="#FFFFFF" d="M332.854,175.593l-2.255,2.868c-0.145,0.185-0.364,0.287-0.59,0.287c-0.08,0-0.16-0.013-0.238-0.039 l-3.238-1.083l-7.138,10.356l25.471-7.846L332.854,175.593z"/>
    </g>
  </g>
  <g id="envelopes" transform="matrix(0.917248, 0, 0, 0.907541, -84.069305, -75.974686)" style="">
    <g>
      <linearGradient id="SVGID_67_" gradientUnits="userSpaceOnUse" x1="303.1787" y1="410.708" x2="368.5073" y2="410.708">
        <stop offset="0" style="stop-color:#FDE1A7"/>
        <stop offset="1" style="stop-color:#F9A144"/>
      </linearGradient>
      <path fill="url(#SVGID_67_)" d="M368.486,415.04c0.223,2.961-1.319,4.211-3.249,4.844l-50.92,17.109 c-2.234,0.439-4.403-1.014-4.843-3.248l-6.214-31.539c-0.441-2.234,0.948-4.456,3.184-5.167c0,0,15.493-4.601,25.681-6.664 c9.934-2.012,28.24-5.946,28.24-5.946c2.234-0.439,3.885,0.863,4.448,3.446L368.486,415.04z"/>
      <g>
        <path fill="#C44B5F" d="M339.833,415.083c-0.084,0-0.168-0.014-0.25-0.043l-36.654-12.966c-0.391-0.138-0.595-0.566-0.457-0.957 c0.138-0.39,0.567-0.596,0.957-0.457l36.161,12.791l23.535-28.439c0.263-0.317,0.738-0.362,1.056-0.1 c0.319,0.265,0.364,0.737,0.1,1.057l-23.869,28.843C340.266,414.986,340.053,415.083,339.833,415.083z"/>
      </g>
      <g>
        <path fill="#C44B5F" d="M311.457,437.264c-0.152,0-0.305-0.046-0.438-0.142c-0.336-0.242-0.412-0.711-0.17-1.047l15.376-21.347 c0.242-0.335,0.711-0.412,1.047-0.17c0.336,0.242,0.412,0.711,0.17,1.047l-15.376,21.347 C311.919,437.155,311.69,437.264,311.457,437.264z"/>
      </g>
      <g>
        <path fill="#C44B5F" d="M367.802,418.896c-0.1,0-0.201-0.02-0.298-0.062l-18.803-8.146c-0.38-0.165-0.555-0.606-0.39-0.986 c0.165-0.381,0.605-0.557,0.986-0.391l18.803,8.146c0.38,0.165,0.555,0.606,0.39,0.986 C368.368,418.727,368.092,418.896,367.802,418.896z"/>
      </g>
    </g>
    <g>
      <linearGradient id="SVGID_68_" gradientUnits="userSpaceOnUse" x1="467.1709" y1="210.1777" x2="520.8232" y2="210.1777">
        <stop offset="0" style="stop-color:#FDE1A7"/>
        <stop offset="1" style="stop-color:#F9A144"/>
      </linearGradient>
      <path fill="url(#SVGID_68_)" d="M520.764,214.471c0.344,2.384-0.835,3.479-2.361,4.098l-40.254,13.64 c-1.784,0.479-3.618-0.578-4.098-2.361l-6.761-25.174c-0.479-1.783,0.523-3.657,2.292-4.355c0,0,12.281-4.573,20.409-6.802 c7.926-2.173,20.52-5.363,20.52-5.363c1.784-0.479,3.19,0.485,3.788,2.544L520.764,214.471z"/>
      <g>
        <path fill="#D66976" d="M497.546,212.974c-0.045,0-0.09-0.006-0.135-0.019l-30.367-8.475c-0.266-0.074-0.421-0.35-0.347-0.616 c0.073-0.266,0.346-0.425,0.616-0.347l30.018,8.377l15.523-23.344c0.152-0.231,0.462-0.292,0.693-0.14 c0.229,0.153,0.292,0.463,0.139,0.693l-15.725,23.646C497.868,212.893,497.71,212.974,497.546,212.974z"/>
      </g>
      <g>
        <path fill="#D66976" d="M475.809,232.478c-0.091,0-0.182-0.024-0.264-0.075c-0.235-0.146-0.307-0.455-0.161-0.689l11.266-18.115 c0.146-0.234,0.456-0.304,0.688-0.161c0.235,0.146,0.307,0.455,0.161,0.689l-11.266,18.115 C476.139,232.394,475.976,232.478,475.809,232.478z"/>
      </g>
      <g>
        <path fill="#D66976" d="M520.382,217.52c-0.081,0-0.164-0.02-0.239-0.061l-15.659-8.556c-0.243-0.133-0.332-0.437-0.199-0.679 c0.132-0.242,0.438-0.331,0.678-0.199l15.659,8.556c0.243,0.133,0.332,0.437,0.199,0.679 C520.729,217.426,520.559,217.52,520.382,217.52z"/>
      </g>
    </g>
    <g>
      <linearGradient id="SVGID_69_" gradientUnits="userSpaceOnUse" x1="430.8799" y1="332.0342" x2="483.5918" y2="332.0342">
        <stop offset="0" style="stop-color:#FDE1A7"/>
        <stop offset="1" style="stop-color:#F9A144"/>
      </linearGradient>
      <path fill="url(#SVGID_69_)" d="M483.183,326.798c0.939,2.119,0.132,3.443-1.119,4.414L450.6,356.138 c-1.528,0.908-3.504,0.408-4.412-1.12l-14.834-20.065c-0.91-1.528-0.47-3.525,0.988-4.634c0,0,10.187-7.443,17.139-11.63 c6.778-4.083,16.709-10.773,16.709-10.773c1.527-0.909,3.082-0.383,4.173,1.369L483.183,326.798z"/>
      <g>
        <path fill="#D66976" d="M431.074,334.857c-0.275,0-0.5-0.223-0.5-0.499s0.223-0.5,0.499-0.501l29.977-0.069l7.391-26.103 c0.075-0.265,0.356-0.422,0.617-0.345c0.267,0.075,0.421,0.352,0.346,0.617l-7.494,26.466c-0.062,0.215-0.257,0.363-0.48,0.364 L431.074,334.857C431.075,334.857,431.074,334.857,431.074,334.857z"/>
      </g>
      <g>
        <path fill="#D66976" d="M448.372,357.034c-0.033,0-0.066-0.003-0.1-0.01c-0.271-0.055-0.445-0.319-0.39-0.589l3.713-18.227 c0.056-0.271,0.323-0.445,0.59-0.39c0.271,0.055,0.445,0.319,0.391,0.589l-3.714,18.227 C448.813,356.871,448.605,357.034,448.372,357.034z"/>
      </g>
      <g>
        <path fill="#D66976" d="M483.494,329.761c-0.006,0-0.012,0-0.017,0l-16.463-0.563c-0.275-0.009-0.491-0.241-0.482-0.517 c0.01-0.276,0.284-0.506,0.517-0.482l16.463,0.563c0.275,0.009,0.491,0.241,0.482,0.517 C483.984,329.548,483.763,329.761,483.494,329.761z"/>
      </g>
    </g>
    <g>
      <linearGradient id="SVGID_70_" gradientUnits="userSpaceOnUse" x1="113.7393" y1="438.5664" x2="163.9551" y2="438.5664">
        <stop offset="0" style="stop-color:#FDE1A7"/>
        <stop offset="1" style="stop-color:#F9A144"/>
      </linearGradient>
      <path fill="url(#SVGID_70_)" d="M162.475,423.643c1.974,1.879,1.693,3.68,0.772,5.299l-19.448,39.245 c-1.25,1.675-3.622,2.021-5.297,0.77l-23.15-17.112c-1.677-1.25-2.099-3.618-1.015-5.479c0,0,5.713-10.673,11.378-18.352 c5.523-7.486,13.297-19.228,13.297-19.228c1.25-1.674,3.176-1.805,5.149-0.392L162.475,423.643z"/>
      <g>
        <path fill="#D66976" d="M114.778,452.073c-0.302,0-0.587-0.185-0.701-0.483c-0.147-0.388,0.048-0.82,0.435-0.968l30.392-11.541 l-3.711-31.539c-0.049-0.411,0.246-0.784,0.657-0.833c0.407-0.045,0.784,0.245,0.833,0.657l3.78,32.12 c0.041,0.342-0.157,0.667-0.479,0.789l-30.939,11.749C114.957,452.058,114.867,452.073,114.778,452.073z"/>
      </g>
      <g>
        <path fill="#D66976" d="M141.556,470.12c-0.234,0-0.444-0.166-0.49-0.404l-4.176-21.472c-0.053-0.271,0.124-0.534,0.395-0.587 c0.269-0.05,0.533,0.125,0.586,0.396l4.176,21.472c0.053,0.271-0.124,0.534-0.395,0.587 C141.62,470.117,141.588,470.12,141.556,470.12z"/>
      </g>
      <g>
        <path fill="#D66976" d="M149.289,431.48c-0.21,0-0.406-0.134-0.475-0.344c-0.086-0.263,0.057-0.545,0.319-0.631l14.633-4.803 c0.264-0.089,0.545,0.057,0.631,0.318c0.086,0.263-0.057,0.545-0.319,0.631l-14.633,4.803 C149.393,431.473,149.34,431.48,149.289,431.48z"/>
      </g>
    </g>
    <circle fill="#FE697A" cx="125.75" cy="476.75" r="3.5"/>
    <circle fill="#FE697A" cx="292.346" cy="416.128" r="3.5"/>
    <circle fill="#FE697A" cx="427.116" cy="347.02" r="3.5"/>
    <circle fill="#FE697A" cx="500.912" cy="235.249" r="3.5"/>
    <g>
      <path fill="#FDE1A7" d="M488.167,186c-0.541,0-0.986-0.432-1-0.976c-0.09-3.7-1.027-6.341-2.864-8.075 c-3.844-3.626-11.577-3.366-21.359-3.035L460.365,174c-3.806,0.112-6.222-0.573-7.642-2.171c-1.932-2.174-1.442-5.442-0.924-8.902 c0.469-3.121,0.952-6.349-0.217-9.026c-3.457-7.923-23.849-7.695-40.758-2.938c-17.523,4.928-31.1,10.283-31.235,10.336 c-0.513,0.202-1.095-0.048-1.298-0.562c-0.204-0.513,0.048-1.094,0.562-1.298c0.136-0.054,13.802-5.444,31.43-10.402 c14.243-4.006,38.547-6.445,43.134,4.063c1.398,3.205,0.848,6.88,0.361,10.123c-0.467,3.114-0.87,5.803,0.44,7.277 c0.982,1.106,2.975,1.595,6.084,1.501l2.573-0.084c10.249-0.347,18.348-0.62,22.799,3.579c2.246,2.119,3.388,5.22,3.492,9.48 c0.013,0.552-0.424,1.011-0.976,1.024C488.183,186,488.175,186,488.167,186z"/>
    </g>
    <g>
      <path fill="#FDE1A7" d="M493.836,177.652c-0.406,0-0.74-0.324-0.75-0.732c-0.165-6.789-2.951-9.997-9.617-11.074 c-0.409-0.066-0.688-0.451-0.621-0.86c0.066-0.409,0.46-0.686,0.859-0.621c7.342,1.186,10.697,5.046,10.879,12.518 c0.01,0.414-0.317,0.758-0.731,0.768C493.848,177.652,493.842,177.652,493.836,177.652z"/>
    </g>
    <g>
      <path fill="#FDE1A7" d="M384.605,150.706c-0.236,0-0.469-0.111-0.615-0.32c-0.238-0.339-0.155-0.807,0.184-1.044 c2.166-1.517,13.742-7.533,26.71-7.01c0.414,0.017,0.736,0.366,0.72,0.779c-0.016,0.414-0.372,0.745-0.779,0.72 c-12.57-0.508-23.707,5.281-25.79,6.74C384.904,150.662,384.754,150.706,384.605,150.706z"/>
    </g>
    <g>
      <path fill="#FDE1A7" d="M410.729,168.581c-0.094,0-0.19-0.018-0.284-0.056c-2.593-1.061-9.934-0.946-12.301-0.82 c-0.438,0.011-0.767-0.297-0.789-0.709c-0.021-0.414,0.296-0.767,0.709-0.789c0.096-0.004,9.554-0.458,12.949,0.93 c0.383,0.157,0.567,0.595,0.41,0.979C411.305,168.405,411.025,168.581,410.729,168.581z"/>
    </g>
    <g>
      <path fill="#FDE1A7" d="M479.918,307c-0.041,0-0.083-0.002-0.125-0.008c-0.548-0.068-0.937-0.568-0.868-1.116 c0.733-5.87,6.902-8.584,12.867-11.209c6.73-2.961,13.087-5.758,13.208-12.518c0.086-4.756-3.874-7.195-8.458-10.019 c-4.522-2.786-9.649-5.943-10.368-12.012c-0.852-7.19,4.434-13.184,8.68-18c2.323-2.634,4.518-5.123,5.098-7.145 c0.152-0.53,0.706-0.837,1.236-0.686c0.531,0.152,0.838,0.706,0.686,1.237c-0.704,2.456-2.936,4.986-5.52,7.917 c-4.19,4.752-8.94,10.138-8.193,16.441c0.605,5.108,4.892,7.749,9.431,10.544c4.678,2.882,9.515,5.861,9.409,11.758 c-0.145,8.039-7.72,11.372-14.402,14.313c-5.706,2.51-11.096,4.882-11.688,9.626C480.846,306.63,480.415,307,479.918,307z"/>
    </g>
    <g>
      <path fill="#FDE1A7" d="M474.501,269.875c-0.237,0-0.471-0.112-0.616-0.321c-5.477-7.858-2.705-15.303-0.475-18.142 c0.257-0.326,0.728-0.383,1.053-0.126c0.326,0.256,0.383,0.728,0.127,1.053c-0.058,0.073-5.691,7.438,0.525,16.358 c0.237,0.34,0.153,0.807-0.187,1.044C474.798,269.832,474.648,269.875,474.501,269.875z"/>
    </g>
    <g>
      <path fill="#FDE1A7" d="M375.751,402.375c-0.331,0-0.655-0.164-0.846-0.465c-0.295-0.466-0.157-1.084,0.309-1.38 c2.891-1.833,7.973-2.329,13.858-2.904c4.95-0.483,10.56-1.031,15.094-2.522c7.402-2.434,15.539-7.685,16.175-15.125 c0.416-4.857-1.866-7.178-4.281-9.634c-2.037-2.071-4.143-4.212-4.31-7.798c-0.433-9.306,14.321-16.15,14.95-16.437 c0.5-0.229,1.095-0.008,1.325,0.495c0.229,0.502,0.008,1.095-0.495,1.325c-4.896,2.235-14.079,8.147-13.782,14.524 c0.131,2.822,1.802,4.521,3.737,6.489c2.504,2.546,5.342,5.432,4.849,11.206c-0.72,8.412-9.534,14.223-17.543,16.855 c-4.744,1.56-10.471,2.119-15.524,2.612c-5.396,0.527-10.494,1.025-12.981,2.604C376.12,402.325,375.934,402.375,375.751,402.375z "/>
    </g>
    <g>
      <path fill="#FDE1A7" d="M404.501,361.375c-0.038,0-0.075-0.002-0.113-0.006c-0.549-0.062-0.943-0.557-0.882-1.105 c1.277-11.364,9.448-15.93,12.489-16.73c0.534-0.142,1.082,0.179,1.222,0.713c0.14,0.534-0.179,1.081-0.713,1.222 c-2.492,0.656-9.865,4.823-11.011,15.02C405.437,360.998,405.003,361.375,404.501,361.375z"/>
    </g>
    <g>
      <path fill="#FDE1A7" d="M291.142,417.263c-2.832,0-9.929-1.297-25.389-10.145c-2.03-1.162-4.09-2.36-6.181-3.576 c-20.645-12.006-44.042-25.606-70.903-23.296c-19.896,1.718-29.342,13.438-32.446,17.29c-0.304,0.376-0.544,0.675-0.726,0.878 c-0.367,0.413-0.999,0.451-1.412,0.083c-0.413-0.366-0.45-0.999-0.083-1.411c0.166-0.187,0.386-0.46,0.664-0.805 c3.236-4.017,13.086-16.236,33.832-18.027c27.485-2.384,51.178,11.404,72.081,23.56c2.086,1.213,4.142,2.409,6.168,3.568 c19.708,11.278,25.224,9.814,25.277,9.8c0.514-0.157,1.077,0.119,1.251,0.629c0.174,0.509-0.069,1.059-0.571,1.251 C292.557,417.118,292.087,417.263,291.142,417.263z"/>
    </g>
    <g>
      <path fill="#FDE1A7" d="M151.083,384c-0.165,0-0.33-0.054-0.468-0.164c-0.323-0.259-0.375-0.731-0.117-1.055 c2.737-3.422,10.67-11.256,25.231-10.029c0.413,0.035,0.719,0.397,0.685,0.81c-0.035,0.413-0.405,0.718-0.81,0.685 c-13.831-1.159-21.347,6.237-23.935,9.471C151.521,383.903,151.303,384,151.083,384z"/>
    </g>
    <g>
      <path fill="#FDE1A7" d="M123.249,518.25c-0.521,0-0.96-0.403-0.997-0.931c-1.289-18.555,0.871-34.896,2.535-40.839 c0.149-0.532,0.702-0.843,1.232-0.693c0.532,0.148,0.842,0.701,0.693,1.232c-1.627,5.813-3.736,21.857-2.465,40.161 c0.038,0.551-0.377,1.028-0.928,1.067C123.296,518.249,123.272,518.25,123.249,518.25z"/>
    </g>
    <g>
      <path fill="#FDE1A7" d="M169.656,583.066c-0.129,0-0.261-0.025-0.388-0.078c-0.328-0.139-8.039-3.449-8.906-9.001 c-0.569-3.641,1.035-5.97,2.586-8.222c0.921-1.337,1.874-2.719,2.435-4.44c2.14-6.559-2.426-10.162-4.366-10.996 c-0.507-0.219-0.741-0.807-0.523-1.314c0.217-0.507,0.806-0.739,1.314-0.523c2.406,1.036,8.081,5.472,5.477,13.455 c-0.651,1.996-1.734,3.567-2.689,4.954c-1.511,2.192-2.704,3.925-2.258,6.778c0.696,4.449,7.639,7.437,7.708,7.467 c0.508,0.215,0.747,0.802,0.532,1.31C170.416,582.837,170.045,583.066,169.656,583.066z"/>
    </g>
    <g>
      <path fill="#FDE1A7" d="M174.371,568.632c-0.18,0-0.36-0.064-0.503-0.194c-0.307-0.277-0.331-0.752-0.053-1.059 c2.481-2.743,2.676-5.748,2.402-7.785c-0.41-3.051-1.986-5.312-2.974-5.942c-0.349-0.223-0.452-0.687-0.229-1.035 c0.223-0.35,0.687-0.452,1.036-0.229c1.438,0.917,3.208,3.685,3.654,7.006c0.316,2.353,0.091,5.822-2.776,8.991 C174.779,568.549,174.575,568.632,174.371,568.632z"/>
    </g>
    <polygon fill="#FE697A" points="370.579,163.507 376.816,153.271 381.754,167.841 &#9;"/>
    <linearGradient id="SVGID_71_" gradientUnits="userSpaceOnUse" x1="97.0674" y1="551.4297" x2="148.0186" y2="551.4297" gradientTransform="matrix(0.990756, 0, 0, 1.03874, 1.215817, -20.194645)">
      <stop offset="0" style="stop-color:#FDE1A7"/>
      <stop offset="1" style="stop-color:#F9A144"/>
    </linearGradient>
    <path fill="url(#SVGID_71_)" d="M 142.723 527.756 L 109.05 521.329 C 105.766 520.983 103.581 522.508 103.24 525.469 C 103.24 525.469 103.462 530.879 102.761 537.846 C 103.502 538.859 99.525 578.046 100.65 578.526 C 107.251 581.34 115.287 581.754 120.986 582.649 C 130.189 584.095 137.952 585.135 147.952 585.691 L 147.22 533.761 C 147.213 531.104 146.325 528.678 142.723 527.756 Z" style=""/>
    <g>
      <path fill="#D66976" d="M129.19,549.903c-0.235,0-0.471-0.082-0.661-0.25c-0.414-0.366-0.454-0.998-0.088-1.412l17.092-19.359 c0.365-0.413,0.997-0.453,1.411-0.088c0.414,0.366,0.454,0.998,0.088,1.412l-17.092,19.359 C129.743,549.789,129.467,549.903,129.19,549.903z"/>
      <path fill="#D66976" d="M 132.439 561.867 C 132.231 561.867 132.022 561.96 131.853 562.151 C 131.486 562.567 131.451 563.285 131.775 563.756 L 146.911 585.761 C 147.235 586.23 147.793 586.275 148.161 585.86 C 148.527 585.445 148.562 584.727 148.239 584.256 L 133.102 562.251 C 132.928 561.996 132.684 561.867 132.439 561.867 Z" style=""/>
    </g>
    <path fill="#D66976" d="M 130.226 556.757 L 106.394 521.191 C 106.098 520.724 105.481 520.586 105.014 520.881 C 104.547 521.176 104.409 521.795 104.704 522.261 L 129.142 559.189 L 100.468 578.002 C 100.28 578.752 101.231 579.512 102.317 579.165 L 131.518 559.867 C 131.773 559.535 130.45 557.111 130.226 556.757 Z"/>
  </g>
</svg>