<svg width="27" height="23" viewBox="0 0 27 23" fill="none" xmlns="http://www.w3.org/2000/svg">
<path d="M3.09619 2.0625H23.9039C24.0915 2.0625 24.2752 2.10998 24.4325 2.19917C24.5897 2.28836 24.7139 2.41542 24.7898 2.56491C24.8657 2.71439 24.8902 2.87987 24.8601 3.04123C24.8301 3.20258 24.7469 3.35287 24.6207 3.47382L16.6582 11.1024C16.4961 11.2577 16.4063 11.4601 16.4063 11.6699V17.6422C16.4063 17.7811 16.3669 17.9178 16.2917 18.0403C16.2164 18.1628 16.1076 18.2672 15.9749 18.3442L12.0999 20.5942C11.954 20.6789 11.7844 20.7276 11.6093 20.735C11.4342 20.7423 11.26 20.7082 11.1054 20.6361C10.9508 20.564 10.8216 20.4568 10.7315 20.3258C10.6414 20.1948 10.5938 20.0449 10.5938 19.8922V11.67C10.5938 11.4601 10.504 11.2577 10.3418 11.1024L2.37937 3.47382C2.25313 3.35287 2.16994 3.20258 2.13992 3.04123C2.10989 2.87987 2.13433 2.71439 2.21026 2.56491C2.28618 2.41542 2.41033 2.28836 2.5676 2.19917C2.72488 2.10998 2.90852 2.0625 3.09619 2.0625V2.0625Z" stroke="#252733" stroke-width="3" stroke-linecap="round" stroke-linejoin="round"/>
</svg>
