<?xml version="1.0" encoding="utf-8"?>
<svg viewBox="56.233 92.131 294.555 239.838" xmlns="http://www.w3.org/2000/svg">
  <g id="_528_seo_flatline" data-name="#528_seo_flatline" transform="matrix(1, 0, 0, 1, 15.968305, 68.368729)">
    <path d="M251.25,52.34c1.94-1.9,4.43-5.23,2.26-8-.57-.72-1.41-1.21-1.87-2a8.85,8.85,0,0,1-.6-2.87c-.61-3.52-4-5.87-7.43-7s-8.74-2.09-12,0c-3.09,2-4.44,6.13-7.89,7.79-4.22,2-10-1-13.62,1.93-1.21,1-1.94,2.51-3.26,3.36a7.72,7.72,0,0,1-3.78.89c-6.25.34-13.3.21-17.72,4.64s-4.28,11.59-2.87,17.67a21.39,21.39,0,0,0,3.26,7.93,16.23,16.23,0,0,0,11,6c6.37.81,13.47,0,16.12-6.52.6-1.48,1-3.13,2.12-4.25,2.51-2.47,6.8-.88,10.15-2,5.69-1.83,6.7-10.4,12.28-12.58C242.68,55.34,246.83,56.66,251.25,52.34Z" fill="#fff"/>
    <path d="M200.61,83.46a30.44,30.44,0,0,1-3.93-.27A16.64,16.64,0,0,1,185.35,77,21.93,21.93,0,0,1,182,68.91c-1.3-5.6-1.84-13.29,3-18.13,4.13-4.14,10.27-4.43,16.22-4.7.61,0,1.22,0,1.82-.09a7.15,7.15,0,0,0,3.54-.82,7.39,7.39,0,0,0,1.72-1.72,10.67,10.67,0,0,1,1.49-1.6c2.12-1.73,4.88-1.56,7.54-1.39,2.15.13,4.37.27,6.19-.61a12.37,12.37,0,0,0,4.2-4,15.76,15.76,0,0,1,3.63-3.75c3.79-2.49,9.94-.89,12.4-.09,4.31,1.4,7.22,4.15,7.77,7.36.05.29.08.59.11.88a4.74,4.74,0,0,0,.44,1.83,4.72,4.72,0,0,0,.95,1.07,7.24,7.24,0,0,1,.87.88c1.81,2.3,1,5.46-2.3,8.66h0c-2.93,2.86-5.76,3.34-8.75,3.85a25.65,25.65,0,0,0-5.25,1.31c-2.58,1-4.13,3.46-5.76,6.06s-3.47,5.54-6.55,6.52a14.46,14.46,0,0,1-4.41.47c-2.14,0-4.17,0-5.54,1.38a7.6,7.6,0,0,0-1.61,3c-.13.35-.26.7-.4,1.05C211.43,81,207.06,83.46,200.61,83.46Zm14.33-42.1a6.8,6.8,0,0,0-4.5,1.26,10,10,0,0,0-1.36,1.46,8.35,8.35,0,0,1-2,1.94,8.15,8.15,0,0,1-4,1l-1.84.09c-5.75.26-11.7.54-15.55,4.4C181,56.25,182,64.3,183,68.69a21.15,21.15,0,0,0,3.17,7.75,15.62,15.62,0,0,0,10.66,5.76c5.67.73,13,.24,15.59-6.21.14-.33.26-.67.39-1a8.65,8.65,0,0,1,1.85-3.4c1.66-1.63,4-1.64,6.24-1.66a13.78,13.78,0,0,0,4.1-.42c2.73-.87,4.33-3.41,6-6.1s3.35-5.34,6.23-6.46a25.82,25.82,0,0,1,5.45-1.36c3-.51,5.51-.94,8.22-3.59,1.68-1.64,4.21-4.78,2.21-7.32a6.75,6.75,0,0,0-.75-.77,5.34,5.34,0,0,1-1.15-1.3,5.56,5.56,0,0,1-.56-2.22c0-.28-.06-.55-.1-.82-.49-2.84-3.14-5.3-7.1-6.58-1.81-.59-8-2.34-11.54,0a14.84,14.84,0,0,0-3.39,3.53A13.49,13.49,0,0,1,224,40.76c-2.05,1-4.41.84-6.68.7C216.48,41.41,215.7,41.36,214.94,41.36Zm36.31,11h0Z" fill="#231f20"/>
    <polygon points="138.37 54.1 138.25 45.9 145.56 45.9 146.57 56.01 138.37 54.1" fill="#fff"/>
    <path d="M146.58,56.51l-.12,0-8.2-1.91a.51.51,0,0,1-.39-.47l-.12-8.2a.5.5,0,0,1,.5-.51h7.31a.49.49,0,0,1,.49.45l1,10.11a.48.48,0,0,1-.16.42A.53.53,0,0,1,146.58,56.51Zm-7.71-2.81L146,55.36l-.91-9h-6.34Z" fill="#231f20"/>
    <path d="M145.56,45.9l1-5.17S130.11,35.5,131,38s7.27,7.95,7.27,7.95Z" fill="#231f20"/>
    <path d="M145.56,46.4h-7.31a.53.53,0,0,1-.32-.12c-.27-.23-6.51-5.62-7.42-8.16a.87.87,0,0,1,.17-.92c1.36-1.41,11.67,1.67,16,3a.5.5,0,0,1,.33.57L146,46A.49.49,0,0,1,145.56,46.4Zm-7.12-1h6.71l.85-4.33c-6.28-2-13.36-3.69-14.52-3.22C132.24,39.76,136.61,43.82,138.44,45.4Z" fill="#231f20"/>
    <path d="M134.48,88.3c0-.79,2.88-36.19,2.88-36.19s10.75-.52,10.49,0,2.62,36.19,2.62,36.19Z" fill="#231f20"/>
    <path d="M150.47,88.8h-16a.53.53,0,0,1-.36-.15.5.5,0,0,1-.14-.35c0-.8,2.77-34.78,2.88-36.23a.51.51,0,0,1,.48-.46c10.47-.51,10.74-.09,10.93.19a.6.6,0,0,1,.06.42c-.11,1.16,1.52,22.16,2.64,36a.53.53,0,0,1-.13.38A.52.52,0,0,1,150.47,88.8ZM135,87.8h14.93c-2.2-27.3-2.56-33.76-2.57-35.36-1.14-.14-5.47,0-9.54.15C136.89,64,135.25,84.32,135,87.8Z" fill="#231f20"/>
    <path d="M245.62,63.72s-5.82-8.68-4.76-11.2,2.65-4.25,4-3.81,5.06,11.87,5.06,11.87Z" fill="#fff"/>
    <path d="M245.62,64.22h-.09a.52.52,0,0,1-.33-.21c-.61-.91-5.93-9-4.8-11.67,1.26-3,3.07-4.6,4.6-4.09s4.23,8.68,5.37,12.18a.49.49,0,0,1-.18.56l-4.28,3.14A.45.45,0,0,1,245.62,64.22ZM244.4,49.14c-.92,0-2.17,1.42-3.08,3.58-.66,1.58,2.25,7,4.42,10.29l3.57-2.62c-1.73-5.23-3.9-10.78-4.65-11.21A.78.78,0,0,0,244.4,49.14Z" fill="#231f20"/>
    <polygon points="110.98 58.21 106.57 51.41 100.36 55.96 104.06 63.3 110.98 58.21" fill="#fff"/>
    <path d="M104.06,63.8h-.12a.52.52,0,0,1-.33-.27l-3.7-7.34a.51.51,0,0,1,.15-.63L106.28,51a.52.52,0,0,1,.38-.09.48.48,0,0,1,.33.22l4.41,6.79a.5.5,0,0,1-.12.68l-6.93,5.09A.45.45,0,0,1,104.06,63.8ZM101,56.11l3.24,6.44,6.07-4.47-3.87-5.95Z" fill="#231f20"/>
    <path d="M106.57,51.41S103,45.5,102.89,45.9,89.72,55.08,89.9,56s10.46,0,10.46,0Z" fill="#231f20"/>
    <path d="M93,56.86c-3.4,0-3.5-.5-3.56-.81-.13-.65.61-1.44,9.44-7.76,1.67-1.2,3.39-2.43,3.64-2.68a.59.59,0,0,1,.38-.23c.35,0,.64-.06,4.13,5.78a.49.49,0,0,1-.13.65l-6.22,4.55a.54.54,0,0,1-.25.09C97,56.75,94.59,56.86,93,56.86Zm-2.35-1.11a61.69,61.69,0,0,0,9.56-.28l5.73-4.19c-1.17-2-2.46-4-3-4.71-.46.36-1.42,1-3.47,2.53C96.69,51.05,91.83,54.53,90.62,55.75Z" fill="#231f20"/>
    <path d="M234.87,59.36c1.14.39,10.86,20.51,13.83,19.46S242.89,63,242.89,63l7.88-5.65s20.12,29.74,12.42,36.21-36.91-14.86-36.91-14.86Z" style="fill: rgb(253, 226, 2);"/>
    <path d="M231.77,54.84s-6.83-7.9-17-1.17S185.43,72,185.43,72l6.36,24.92s15.46,6.84,33.76-2.11c16.06-7.85,16.89-20.46,14.8-25.7S231.77,54.84,231.77,54.84Z" style="fill: rgb(253, 226, 2);"/>
    <path d="M224.57,92.47a.5.5,0,0,1-.28-.91c.14-.1,14.24-9.65,16.67-19.73a.51.51,0,0,1,.61-.36.5.5,0,0,1,.37.6c-2.53,10.45-16.5,19.92-17.09,20.32A.5.5,0,0,1,224.57,92.47Z" fill="#231f20"/>
    <path d="M247.08,50.53s.57,5.59-.44,6.16-2.61-1-2.61-1" fill="#fff"/>
    <path d="M246.14,57.31a4.26,4.26,0,0,1-2.46-1.26.5.5,0,0,1,0-.71.51.51,0,0,1,.71,0c.43.42,1.49,1.2,2,.91s.47-3,.19-5.67A.5.5,0,0,1,247,50a.51.51,0,0,1,.55.44c.23,2.21.44,6-.7,6.65A1.53,1.53,0,0,1,246.14,57.31Z" fill="#231f20"/>
    <path d="M231.8,69.92c-3.74-3-6.33-12.22-6.25-12.4a95.54,95.54,0,0,1,5-8.33s3,1.58,6.62-1.06,7-.3,12.21-3.39c1,2.34-1.09,5.09-2.13,7q-2.19,4.13-4.58,8.14c-1,1.7-5.55-.63-6.08-1.57C235.4,61.18,235.4,61.18,231.8,69.92Z" fill="#fff"/>
    <path d="M231.8,70.42a.47.47,0,0,1-.32-.12c-3.7-3-6.69-12.34-6.38-13a93.67,93.67,0,0,1,5-8.4.49.49,0,0,1,.65-.17c.11.06,2.77,1.4,6.08-1a9.67,9.67,0,0,1,5.6-1.61,13.36,13.36,0,0,0,6.65-1.81.53.53,0,0,1,.41-.05.54.54,0,0,1,.31.28c.93,2.18-.45,4.54-1.56,6.44-.21.37-.41.71-.59,1-1.46,2.74-3,5.49-4.59,8.16a1.94,1.94,0,0,1-1.81.85,8.86,8.86,0,0,1-4.53-1.8l-4.49,10.88a.52.52,0,0,1-.34.29Zm-5.73-12.81c.22,1,2.39,8.34,5.53,11.46,3.34-8.09,3.37-8.16,4.52-10.91a.49.49,0,0,1,.43-.31.5.5,0,0,1,.47.26A7.43,7.43,0,0,0,241.3,60c.51,0,.79-.12.93-.36,1.58-2.66,3.12-5.39,4.57-8.12.18-.34.39-.7.61-1.07.89-1.53,2-3.4,1.66-5a14.66,14.66,0,0,1-6.55,1.64,8.72,8.72,0,0,0-5.07,1.42,7.14,7.14,0,0,1-6.72,1.27C229.94,51,227.28,55.12,226.07,57.61Z" fill="#231f20"/>
    <path d="M243.67,57.83a2.53,2.53,0,0,1-2.81-2.61" fill="#fff"/>
    <path d="M243.55,58.33a3.49,3.49,0,0,1-2.32-.83,3,3,0,0,1-.87-2.28.5.5,0,0,1,.5-.5h0a.5.5,0,0,1,.49.5,2,2,0,0,0,.55,1.55,2.6,2.6,0,0,0,1.73.56.48.48,0,0,1,.53.47.5.5,0,0,1-.46.53Z" fill="#231f20"/>
    <path d="M236.58,58.35a5.4,5.4,0,0,1-2.52-3.51s-2.06,4.31.9,7.41Z" fill="#231f20"/>
    <path d="M235,62.75a.49.49,0,0,1-.36-.15c-3.17-3.31-1.08-7.78-1-8a.5.5,0,0,1,.53-.28.52.52,0,0,1,.42.44,4.94,4.94,0,0,0,2.27,3.13.49.49,0,0,1,.21.62l-1.62,3.9a.48.48,0,0,1-.37.3Zm-.9-6.32a5.94,5.94,0,0,0,.76,4.86L236,58.54A6.39,6.39,0,0,1,234.06,56.43Z" fill="#231f20"/>
    <ellipse cx="246.84" cy="48.71" rx="1.11" ry="0.44" transform="translate(75.95 233.37) rotate(-58.38)" fill="#231f20"/>
    <path d="M240.72,49a4.13,4.13,0,0,0,.21-2.29,5.91,5.91,0,0,0-.34-1.78,2.06,2.06,0,0,0-1.25-1.23,1.9,1.9,0,0,0-1.53.29,3.56,3.56,0,0,0-1.06,1.19,6.7,6.7,0,0,0,0,6.68l-.06-.25" fill="#fff"/>
    <path d="M236.73,52.36a.51.51,0,0,1-.43-.25,7.24,7.24,0,0,1,0-7.19,4,4,0,0,1,1.21-1.35,2.38,2.38,0,0,1,1.95-.35,2.51,2.51,0,0,1,1.57,1.52,6.17,6.17,0,0,1,.38,1.92,4.64,4.64,0,0,1-.27,2.57.5.5,0,0,1-.67.22.5.5,0,0,1-.22-.67,3.77,3.77,0,0,0,.17-2,6.27,6.27,0,0,0-.31-1.63,1.57,1.57,0,0,0-.93-.94,1.42,1.42,0,0,0-1.12.23,3,3,0,0,0-.9,1,6.2,6.2,0,0,0-.08,6.06l.05,0,.07.25a.51.51,0,0,1-.29.59A.48.48,0,0,1,236.73,52.36Z" fill="#231f20"/>
    <path d="M185.43,72c-4.89-2-16.55.44-23.9,2.89S130,83.93,130,83.93L112.27,56s-12.58,4.54-11.88,5.59S113,91,124.86,96.72s68.26.48,68.26.48Z" fill="#231f20"/>
    <path d="M149.78,99.91c-11,0-20.83-.67-25.13-2.74-7-3.37-15-14.71-23.89-33.71-.38-.81-.71-1.52-.79-1.63a.7.7,0,0,1-.07-.6c.45-1.37,8.69-4.47,12.21-5.74a.5.5,0,0,1,.59.2l17.47,27.66c3-.83,24.44-6.73,31.21-9,6-2,18.72-5.15,24.24-2.87a.54.54,0,0,1,.29.32l7.69,25.25a.52.52,0,0,1-.06.42.53.53,0,0,1-.37.22C191.7,97.83,169.06,99.91,149.78,99.91ZM100.91,61.47c.13.25.36.73.75,1.57,8.79,18.79,16.67,30,23.42,33.23,11,5.3,61.26,1,67.39.49L185,72.33c-5-1.86-16.63.74-23.33,3-7.27,2.42-31.36,9-31.61,9.1a.49.49,0,0,1-.55-.22L112.07,56.56C107,58.39,101.72,60.64,100.91,61.47Z" fill="#231f20"/>
    <polygon points="233.41 97.09 233.41 92.76 261.94 92.76 273.66 63.72 315.08 63.72 301.49 92.62 301.49 97.09 233.41 97.09" fill="#fff"/>
    <path d="M301.49,97.59H233.41a.5.5,0,0,1-.5-.5V92.76a.5.5,0,0,1,.5-.5H261.6l11.6-28.73a.49.49,0,0,1,.46-.31h41.42a.5.5,0,0,1,.42.23.49.49,0,0,1,0,.48L302,92.73v4.36A.5.5,0,0,1,301.49,97.59Zm-67.58-1H301v-4a.54.54,0,0,1,.05-.21l13.25-28.19H274L262.4,93a.49.49,0,0,1-.46.31h-28Z" fill="#231f20"/>
    <path d="M204.58,60s4.72,36.36,8,37.24,37-6.18,37-6.18l-2.3-11.79s-24.18,4.31-23.79,0-2.71-20.49-2.71-20.49Z" style="fill: rgb(253, 226, 2);"/>
    <path d="M212.79,97.08a18,18,0,0,1-3.6-.28c-2.34-.5-4.05-2.9-5.1-7.13-1.27-5.13-1.24-11.62-1.11-15,0-.08.32-8.34,1.27-9.14a.51.51,0,0,1,.71.06.52.52,0,0,1,0,.67c-.67,1.18-2.4,17.88,1,26,.9,2.12,2.06,3.34,3.45,3.64,8,1.7,39.8-5.23,40.12-5.3a.5.5,0,1,1,.22,1C248.57,91.75,224,97.08,212.79,97.08Z" fill="#231f20"/>
    <path d="M226.14,81.71a2.88,2.88,0,0,1-2-.85c-4.19-3.93-3.82-21.4-3.81-22.15a.52.52,0,0,1,.52-.48.49.49,0,0,1,.48.51c0,.18-.37,17.77,3.5,21.39a1.84,1.84,0,0,0,1.47.57c6-.54,20.84-2,21-2a.52.52,0,0,1,.54.45.5.5,0,0,1-.45.55c-.15,0-15,1.44-21,2Z" fill="#231f20"/>
    <path d="M248.7,81.19s7.16-4.88,8.5-3.65,7.41,9.1,5.78,9.69-4.3-2.23-4.3-2.23-1.59,2.53-7.91,1.64Z" fill="#fff"/>
    <path d="M262.5,87.81c-1.42,0-3.06-1.38-3.8-2.08-.83.75-3,2.1-8,1.4a.49.49,0,0,1-.4-.32l-2.07-5.44a.49.49,0,0,1,.19-.59c2.25-1.53,7.65-5,9.12-3.6,1.11,1,6.59,7.83,6.19,9.83a.88.88,0,0,1-.58.69A2,2,0,0,1,262.5,87.81Zm-3.82-3.3a.48.48,0,0,1,.36.15c.95,1,2.81,2.45,3.77,2.1.16-.55-3.27-6.38-5.95-8.85-.54-.49-4,1.12-7.55,3.48l1.82,4.79c5.61.71,7.12-1.43,7.13-1.45a.54.54,0,0,1,.38-.22Z" fill="#231f20"/>
    <path d="M134.48,81.7a.5.5,0,0,1-.49-.39.49.49,0,0,1,.38-.59l16-3.53a.5.5,0,0,1,.59.38.5.5,0,0,1-.38.6l-16,3.52Z" fill="#fff"/>
    <path d="M301,93.26h-39.1a.5.5,0,0,1-.5-.5.5.5,0,0,1,.5-.5H301a.51.51,0,0,1,.5.5A.5.5,0,0,1,301,93.26Z" fill="#231f20"/>
    <path d="M320,106.13V253.24c0,5.44-6.11,9.86-13.67,9.86h-204c-7.54,0-13.68-4.42-13.68-9.86V106.13c0-5.44,6.14-9.86,13.68-9.86h204C313.9,96.27,320,100.69,320,106.13Z" fill="#fff"/>
    <path d="M306.34,263.6h-204c-7.82,0-14.18-4.65-14.18-10.36V106.12c0-5.71,6.36-10.35,14.18-10.35h204c7.81,0,14.17,4.64,14.17,10.35V253.24C320.51,259,314.15,263.6,306.34,263.6Zm-204-166.83c-7.27,0-13.18,4.19-13.18,9.35V253.24c0,5.16,5.91,9.36,13.18,9.36h204c7.26,0,13.17-4.2,13.17-9.36V106.12c0-5.16-5.91-9.35-13.17-9.35Z" fill="#231f20"/>
    <path d="M320,106.13v7.74H88.69v-7.74c0-5.44,6.14-9.86,13.68-9.86h204C313.9,96.27,320,100.69,320,106.13Z" fill="#fff"/>
    <path d="M320,114.37H88.69a.5.5,0,0,1-.5-.5v-7.75c0-5.71,6.36-10.35,14.18-10.35h204c7.81,0,14.17,4.64,14.17,10.35v7.75A.5.5,0,0,1,320,114.37Zm-230.82-1H319.51v-7.25c0-5.16-5.91-9.35-13.17-9.35h-204c-7.27,0-13.18,4.19-13.18,9.35Z" fill="#231f20"/>
    <rect x="127.3" y="124.71" width="156.37" height="15.56" fill="#fff"/>
    <path d="M283.67,140.77H127.3a.5.5,0,0,1-.5-.5V124.71a.5.5,0,0,1,.5-.5H283.67a.51.51,0,0,1,.5.5v15.56A.5.5,0,0,1,283.67,140.77Zm-155.87-1H283.17V125.21H127.8Z" fill="#231f20"/>
    <rect x="262.46" y="124.71" width="21.21" height="15.56" style="fill: rgb(253, 226, 2);"/>
    <path d="M283.67,140.77H262.46a.5.5,0,0,1-.5-.5V124.71a.5.5,0,0,1,.5-.5h21.21a.51.51,0,0,1,.5.5v15.56A.5.5,0,0,1,283.67,140.77Zm-20.71-1h20.21V125.21H263Z" fill="#231f20"/>
    <rect x="224.6" y="151.05" width="80.7" height="80.7" fill="#e6e7e8"/>
    <rect x="110.17" y="153.06" width="89.77" height="2" style="fill: rgb(253, 226, 3);"/>
    <rect x="110.17" y="159.04" width="59.71" height="2" style="fill: rgb(253, 226, 3);"/>
    <rect x="110.17" y="165.01" width="96.27" height="2" fill="#d1d3d4"/>
    <rect x="110.17" y="170.99" width="84.62" height="2" fill="#d1d3d4"/>
    <rect x="110.85" y="177.37" width="12.73" height="1" fill="#d1d3d4"/>
    <rect x="127.3" y="177.37" width="7.04" height="1" fill="#d1d3d4"/>
    <rect x="137.59" y="177.37" width="6.8" height="1" fill="#d1d3d4"/>
    <rect x="110.17" y="189.16" width="70.41" height="2" style="fill: rgb(253, 226, 3);"/>
    <rect x="110.17" y="195.14" width="84.62" height="2" style="fill: rgb(253, 226, 3);"/>
    <rect x="110.17" y="201.11" width="56.6" height="2" fill="#d1d3d4"/>
    <rect x="110.17" y="207.09" width="74.2" height="2" fill="#d1d3d4"/>
    <rect x="110.85" y="213.47" width="6.36" height="1" fill="#d1d3d4"/>
    <rect x="120.46" y="213.47" width="13.88" height="1" fill="#d1d3d4"/>
    <rect x="137.59" y="213.47" width="4.6" height="1" fill="#d1d3d4"/>
    <rect x="110.17" y="225.26" width="78.73" height="2" style="fill: rgb(253, 226, 3);"/>
    <rect x="110.17" y="231.24" width="89.77" height="2" style="fill: rgb(253, 226, 3);"/>
    <rect x="110.17" y="237.21" width="61.47" height="2" fill="#d1d3d4"/>
    <rect x="110.17" y="243.18" width="50.64" height="2" fill="#d1d3d4"/>
    <rect x="110.85" y="249.57" width="16.55" height="1" fill="#d1d3d4"/>
    <rect x="131.63" y="249.57" width="9.36" height="1" fill="#d1d3d4"/>
    <circle cx="104.11" cy="105.06" r="3.3" style="fill: rgb(253, 226, 2);"/>
    <circle cx="114.03" cy="105.06" r="3.3" fill="#e6e7e8"/>
    <circle cx="123.95" cy="105.06" r="3.3" fill="#e6e7e8"/>
    <path d="M270.54,135.73a4.23,4.23,0,1,1,3-1.24A4.21,4.21,0,0,1,270.54,135.73Zm0-7.45a3.2,3.2,0,0,0-2.28.94,3.23,3.23,0,1,0,4.56,0A3.2,3.2,0,0,0,270.54,128.28Z" fill="#231f20"/>
    <path d="M276.25,137.71a.51.51,0,0,1-.36-.15l-3.07-3.07a.5.5,0,0,1,0-.7.5.5,0,0,1,.71,0l3.07,3.07a.5.5,0,0,1-.35.85Z" fill="#231f20"/>
    <rect x="252.21" y="178.93" width="82.11" height="60.91" fill="#fff"/>
    <path d="M334.32,240.34H252.21a.5.5,0,0,1-.5-.5V178.93a.5.5,0,0,1,.5-.5h82.11a.51.51,0,0,1,.5.5v60.91A.5.5,0,0,1,334.32,240.34Zm-81.61-1h81.11V179.43H252.71Z" fill="#231f20"/>
    <path d="M261,228.35h-.1c-7.17-.23-9.14-7.06-9.16-7.13a.5.5,0,0,1,1-.27c.07.26,1.81,6.19,8.23,6.4H261c3.16,0,5.39-8.47,7.35-16,2-7.8,4-15.17,7.25-15.93a4.89,4.89,0,0,1,3.85.53c2.9,1.83,4,6.95,5.33,12.87a79.4,79.4,0,0,0,2.62,9.92c1.74,4.82,5,7.81,8.14,7.45,3.89-.45,6.83-5.89,7.84-14.56,2.89-24.72,11.47-27.43,15-27.45h.13c8.84,0,13.41,4.75,16.29,16.91a.5.5,0,1,1-1,.23c-2.79-11.75-6.94-16.14-15.32-16.14h-.12c-6.85,0-12.1,10-14,26.57-1.08,9.29-4.26,14.92-8.72,15.43-3.59.43-7.29-2.84-9.19-8.1a81.47,81.47,0,0,1-2.66-10c-1.2-5.47-2.33-10.63-4.89-12.25a3.88,3.88,0,0,0-3.09-.4c-2.68.63-4.71,8.38-6.5,15.21C267,220.23,264.91,228.35,261,228.35Z" fill="#231f20"/>
    <path d="M326.67,215.56H315.2a.5.5,0,0,1-.5-.5.5.5,0,0,1,.5-.5h11.47a.5.5,0,0,1,.5.5A.5.5,0,0,1,326.67,215.56Z" fill="#d1d3d4"/>
    <path d="M326.67,220.29H315.2a.5.5,0,0,1-.5-.5.5.5,0,0,1,.5-.5h11.47a.5.5,0,0,1,.5.5A.5.5,0,0,1,326.67,220.29Z" fill="#d1d3d4"/>
    <path d="M320.93,225H315.2a.5.5,0,0,1-.5-.5.5.5,0,0,1,.5-.5h5.73a.5.5,0,0,1,.5.5A.5.5,0,0,1,320.93,225Z" fill="#d1d3d4"/>
    <path d="M272,185.22H260.53a.5.5,0,0,1-.5-.5.5.5,0,0,1,.5-.5H272a.5.5,0,0,1,.5.5A.51.51,0,0,1,272,185.22Z" fill="#d1d3d4"/>
    <path d="M272,190H260.53a.5.5,0,0,1-.5-.5.5.5,0,0,1,.5-.5H272a.51.51,0,0,1,.5.5A.5.5,0,0,1,272,190Z" fill="#d1d3d4"/>
    <path d="M266.26,194.69h-5.73a.5.5,0,0,1-.5-.5.5.5,0,0,1,.5-.5h5.73a.5.5,0,0,1,.5.5A.5.5,0,0,1,266.26,194.69Z" fill="#d1d3d4"/>
    <rect x="98.02" y="187.16" width="11.18" height="26.58" transform="translate(102.57 -25.19) rotate(27.07)" fill="#231f20"/>
    <path d="M102.53,215.33a.46.46,0,0,1-.22-.06l-10-5.08a.49.49,0,0,1-.22-.67l12.1-23.67a.48.48,0,0,1,.29-.25.5.5,0,0,1,.38,0l10,5.09a.49.49,0,0,1,.21.67L103,215.06a.53.53,0,0,1-.29.24A.41.41,0,0,1,102.53,215.33Zm-9.28-5.8,9.07,4.63L114,191.38l-9.06-4.64Z" fill="#231f20"/>
    <rect x="81.97" y="202.79" width="15" height="50.65" rx="2.49" transform="translate(113.61 -15.73) rotate(27.07)" fill="#fff"/>
    <path d="M83.54,253.72a2.9,2.9,0,0,1-1.35-.33l-8.94-4.56a3,3,0,0,1-1.3-4l20.79-40.67a3,3,0,0,1,4-1.3l8.93,4.56h0a3,3,0,0,1,1.3,4L86.2,252.09a3,3,0,0,1-2.66,1.63ZM95.4,203.51a1.81,1.81,0,0,0-.61.1,2,2,0,0,0-1.16,1L72.84,245.27a2,2,0,0,0,.87,2.67l8.93,4.56a2,2,0,0,0,2.67-.86L106.1,211a2,2,0,0,0-.87-2.67l-8.93-4.56A1.9,1.9,0,0,0,95.4,203.51Z" fill="#231f20"/>
    <path d="M132.56,142.39A28.73,28.73,0,1,0,145.07,181,28.73,28.73,0,0,0,132.56,142.39ZM109.75,187a21.39,21.39,0,1,1,28.78-9.31A21.39,21.39,0,0,1,109.75,187Z" fill="#fff"/>
    <path d="M119.46,197.21a29.33,29.33,0,1,1,9-1.44A29.06,29.06,0,0,1,119.46,197.21Zm.06-57.48a28.47,28.47,0,0,0-8.72,1.38,28.11,28.11,0,1,0,8.72-1.38Zm-.07,50.12a21.79,21.79,0,0,1-9.92-2.39h0a21.91,21.91,0,1,1,9.92,2.39ZM110,186.57a20.89,20.89,0,0,0,29.38-25,20.89,20.89,0,0,0-38.47-3.08A20.91,20.91,0,0,0,110,186.57Z" fill="#231f20"/>
  </g>
</svg>