<?xml version="1.0" encoding="utf-8"?>
<svg viewBox="32.611 78.243 399.021 270.572" xmlns="http://www.w3.org/2000/svg">
  <g id="freepik--Character--inject-23" transform="matrix(1, 0, 0, 1, -14.981451, -18.782307)">
    <path d="M 98.959 275.71 C 98.959 275.71 97.695 286.77 102.496 291.631 C 107.295 296.493 123.525 297.663 124.498 299.295 C 125.469 300.928 141.63 337.296 141.63 337.296 C 144.281 339.846 162.846 333.667 163.341 327.548 C 163.341 327.548 148.612 297.53 147.906 294.021 C 147.199 290.514 152.918 275.396 152.822 268.588 L 98.959 275.71 Z" style="" fill="#F2F4FA"/>
    <path d="M 152.847 268.588 C 152.945 275.396 147.226 290.505 147.933 294.021 C 148.639 297.539 163.368 327.548 163.368 327.548 C 162.933 332.697 149.735 337.883 143.981 337.883 C 143.16 337.968 142.336 337.761 141.655 337.298 C 141.655 337.298 125.497 300.928 124.525 299.295 C 123.551 297.663 107.356 296.493 102.521 291.631 C 97.686 286.77 98.985 275.71 98.985 275.71 L 152.909 268.588 L 152.847 268.588 Z M 152.909 267.715 L 152.795 267.715 L 98.87 274.837 C 98.674 274.862 98.492 274.949 98.35 275.089 C 98.211 275.229 98.124 275.411 98.1 275.605 C 98.048 276.077 96.856 287.134 101.921 292.234 C 105.103 295.437 112.643 297.069 118.15 298.257 C 120.441 298.754 123.285 299.372 123.817 299.774 C 124.809 301.571 136.433 327.635 140.869 337.638 C 140.918 337.74 140.983 337.836 141.064 337.917 C 141.901 338.555 142.955 338.851 144.008 338.747 C 150.045 338.747 163.782 333.369 164.277 327.617 C 164.291 327.463 164.259 327.304 164.189 327.164 C 160.105 318.837 149.392 296.615 148.826 293.838 C 148.525 292.346 149.709 287.73 150.902 283.313 C 152.265 278.076 153.812 272.211 153.757 268.562 C 153.756 268.44 153.727 268.317 153.674 268.206 C 153.621 268.096 153.544 267.995 153.449 267.917 C 153.288 267.781 153.083 267.707 152.874 267.707 L 152.909 267.715 Z" fill="#231F20" style=""/>
    <path d="M 146.27 275.807 C 144.623 277.982 143.67 280.593 143.53 283.304 C 143.415 287.529 148.832 296.474 148.832 296.474 L 161.032 288.68 L 154.845 274.523 L 146.27 275.807 Z" style="fill: rgb(255, 255, 255);"/>
    <path d="M 148.835 296.895 L 148.736 296.895 C 148.621 296.861 148.521 296.791 148.454 296.692 C 148.234 296.317 142.964 287.588 143.087 283.278 C 143.237 280.473 144.237 277.779 145.96 275.545 C 146.03 275.46 146.128 275.405 146.236 275.387 L 154.756 274.087 C 154.853 274.07 154.953 274.087 155.04 274.133 C 155.126 274.178 155.195 274.253 155.233 274.34 L 161.422 288.496 C 161.462 288.592 161.468 288.699 161.437 288.798 C 161.406 288.896 161.34 288.981 161.255 289.04 L 149.055 296.832 C 148.989 296.872 148.911 296.895 148.835 296.895 Z M 146.554 276.217 C 145.018 278.281 144.122 280.738 143.972 283.294 C 143.873 286.855 147.959 294.084 148.984 295.837 L 160.476 288.496 L 154.554 274.986 L 146.554 276.217 Z" fill="#231F20" style=""/>
    <path d="M 227.943 305.997 C 227.943 305.997 187.412 276.522 163.755 276.321 C 157.773 276.335 151.797 276.756 145.872 277.576 C 131.896 279.324 117.885 282.447 108.133 282.955 C 88.793 283.968 74.216 278.049 73.889 258.105 C 73.606 241.041 81.738 237.794 98.905 232.844 C 107.391 230.411 123.78 227.784 139.279 223.245 C 148.718 220.504 157.84 217.073 164.603 212.561 C 182.496 200.646 195.543 173.902 195.543 173.902 L 227.943 305.997 Z" style="" fill="white"/>
    <path d="M 227.943 306.459 C 227.848 306.459 227.756 306.434 227.678 306.381 C 220.221 301.076 212.494 296.151 204.525 291.629 C 187.465 282.03 173.382 276.852 163.792 276.793 C 157.813 276.802 151.845 277.229 145.927 278.065 C 140.188 278.79 134.487 279.734 128.971 280.686 C 121.236 281.967 113.943 283.182 108.161 283.479 C 95.6 284.14 86.301 281.784 80.554 276.496 C 75.967 272.271 73.58 266.118 73.481 258.166 C 73.191 240.711 81.969 237.331 98.818 232.48 C 102.406 231.448 107.374 230.391 113.128 229.163 C 121.147 227.415 130.236 225.521 139.18 222.922 C 150.23 219.719 158.479 216.236 164.392 212.299 C 181.975 200.586 195.086 174.079 195.217 173.806 C 195.257 173.724 195.321 173.655 195.4 173.611 C 195.481 173.568 195.573 173.549 195.664 173.558 C 195.755 173.568 195.842 173.607 195.912 173.666 C 195.98 173.724 196.027 173.806 196.048 173.895 L 228.394 305.927 C 228.414 306.015 228.409 306.105 228.376 306.188 C 228.341 306.271 228.284 306.342 228.209 306.389 C 228.132 306.444 228.036 306.468 227.943 306.459 Z M 162.96 275.909 L 163.755 275.909 C 173.648 275.997 187.501 281.035 204.942 290.888 C 215.593 296.91 224.389 302.977 227.226 304.993 L 195.403 175.229 C 192.751 180.344 180.578 202.497 164.825 212.988 C 158.833 216.986 150.505 220.504 139.374 223.734 C 130.394 226.352 121.289 228.279 113.253 229.992 C 107.517 231.214 102.567 232.269 99.003 233.289 C 82.128 238.152 74.023 241.241 74.304 258.122 C 74.437 265.786 76.726 271.728 81.129 275.789 C 86.7 280.913 95.767 283.189 108.09 282.545 C 113.802 282.246 121.086 281.043 128.803 279.759 C 134.32 278.888 140.03 277.9 145.784 277.142 C 151.482 276.36 157.225 275.944 162.978 275.894 L 162.96 275.909 Z" fill="#231F20" style=""/>
    <path d="M 242.069 309.436 C 227.253 312.334 210.243 292.738 199.832 263.097 C 194.578 248.037 191.42 232.343 190.443 216.445 C 188.614 184.909 196.745 160.235 211.642 157.311 C 230.065 153.715 251.81 184.856 260.218 226.858 C 268.624 268.858 260.501 305.839 242.069 309.436 Z" style="fill: rgb(220, 220, 220);"/>
    <path d="M 214.585 157.032 C 232.318 157.032 252.253 187.076 260.218 226.858 C 268.624 268.876 260.501 305.84 242.069 309.438 C 241.099 309.628 240.114 309.724 239.124 309.724 C 225.051 309.724 209.592 290.794 199.832 263.098 C 194.578 248.038 191.42 232.343 190.443 216.446 C 188.614 184.909 196.748 160.235 211.641 157.312 C 212.611 157.122 213.597 157.029 214.585 157.032 Z M 214.585 156.159 C 213.541 156.157 212.498 156.257 211.474 156.456 C 196.447 159.389 187.606 183.513 189.559 216.498 C 190.547 232.476 193.72 248.247 198.991 263.385 C 209.104 292.068 224.858 310.597 239.124 310.597 C 240.171 310.597 241.211 310.494 242.238 310.293 C 251.52 308.486 258.564 298.702 262.072 282.746 C 265.522 267.035 265.176 247.125 261.082 226.693 C 257.23 207.42 250.388 189.607 241.812 176.547 C 233.238 163.491 223.504 156.159 214.585 156.159 Z" fill="#231F20" style=""/>
    <path d="M 229.791 251.933 L 199.832 263.097 C 194.578 248.037 191.42 232.343 190.443 216.445 L 224.389 215.948 L 229.791 251.933 Z" style="fill: rgb(109, 109, 109);"/>
    <path d="M 199.83 263.534 C 199.767 263.546 199.701 263.546 199.638 263.534 C 199.583 263.508 199.535 263.474 199.495 263.429 C 199.457 263.385 199.427 263.334 199.406 263.28 C 194.151 248.18 190.986 232.451 190.001 216.513 C 189.998 216.456 190.004 216.396 190.025 216.341 C 190.045 216.285 190.076 216.234 190.115 216.19 C 190.156 216.147 190.205 216.111 190.259 216.087 C 190.316 216.064 190.374 216.05 190.434 216.053 L 224.38 215.553 C 224.486 215.553 224.588 215.593 224.667 215.663 C 224.747 215.732 224.799 215.826 224.813 215.93 L 230.233 251.881 C 230.245 251.978 230.223 252.079 230.172 252.164 C 230.122 252.249 230.043 252.315 229.949 252.353 L 199.981 263.516 C 199.934 263.531 199.882 263.536 199.83 263.534 Z M 190.913 216.871 C 191.915 232.425 195.006 247.779 200.105 262.53 L 229.278 251.654 L 223.974 216.393 L 190.913 216.871 Z" fill="#231F20" style=""/>
    <path d="M 229.794 251.93 C 234.476 251.225 237.026 242.604 235.49 232.679 C 233.956 222.753 228.917 215.278 224.236 215.986 C 219.556 216.69 217.002 225.309 218.538 235.236 C 220.074 245.16 225.111 252.636 229.794 251.93 Z" style="" fill="white"/>
    <path d="M 229.172 252.414 C 224.398 252.414 219.625 245.143 218.103 235.308 C 217.335 230.894 217.515 226.371 218.635 222.032 C 219.764 218.226 221.728 215.922 224.176 215.564 C 226.626 215.206 229.19 216.804 231.418 220.111 C 233.796 223.92 235.331 228.183 235.925 232.62 C 237.524 242.937 234.855 251.611 229.861 252.362 C 229.632 252.399 229.401 252.414 229.172 252.414 Z M 224.856 216.385 C 224.674 216.367 224.491 216.367 224.309 216.385 C 222.223 216.69 220.509 218.776 219.483 222.241 C 218.398 226.455 218.227 230.848 218.978 235.133 C 220.473 244.803 225.289 252.109 229.729 251.454 C 234.167 250.8 236.553 242.377 235.032 232.707 C 234.446 228.39 232.939 224.247 230.611 220.547 C 228.827 217.843 226.784 216.385 224.856 216.385 Z" fill="#231F20" style=""/>
    <path d="M 92.727 278.591 C 92.647 278.592 92.568 278.57 92.499 278.53 C 92.431 278.49 92.375 278.432 92.337 278.364 C 86.008 266.746 84.718 257.302 84.745 251.428 C 84.745 245.03 86.301 241.433 86.37 241.284 C 86.392 241.229 86.422 241.18 86.465 241.137 C 86.507 241.095 86.556 241.061 86.61 241.039 C 86.665 241.015 86.723 241.003 86.783 241.003 C 86.843 241.003 86.902 241.015 86.958 241.037 C 87.011 241.061 87.06 241.093 87.102 241.137 C 87.143 241.18 87.176 241.229 87.196 241.284 C 87.218 241.339 87.227 241.397 87.225 241.456 C 87.224 241.515 87.209 241.573 87.185 241.625 C 87.122 241.765 81.198 256.088 93.114 277.953 C 93.143 278.004 93.16 278.058 93.166 278.114 C 93.17 278.172 93.166 278.228 93.147 278.283 C 93.131 278.338 93.102 278.388 93.065 278.432 C 93.026 278.475 92.982 278.512 92.931 278.539 C 92.868 278.571 92.797 278.592 92.727 278.591 Z" fill="#F2F4FA" style=""/>
    <path d="M 107.896 170.954 C 107.896 170.954 110.079 174.34 109.531 174.906 C 108.983 175.475 107.48 175.056 107.48 175.056" fill="white" style=""/>
    <path d="M 116.754 189.799 C 117.751 190.583 120.953 208.363 122.561 214.874 L 116.754 189.799 Z" fill="white" style=""/>
    <path d="M 129.917 240.536 C 129.803 240.536 129.692 240.49 129.612 240.411 C 129.53 240.329 129.484 240.222 129.484 240.107 C 129.484 240.048 129.342 233.77 127.928 230.505 C 127.897 230.453 127.877 230.394 127.872 230.333 C 127.865 230.274 127.872 230.21 127.89 230.152 C 127.91 230.094 127.941 230.041 127.983 229.996 C 128.024 229.95 128.076 229.914 128.132 229.888 C 128.19 229.865 128.25 229.852 128.312 229.852 C 128.376 229.852 128.437 229.865 128.494 229.89 C 128.551 229.916 128.599 229.954 128.642 229.999 C 128.683 230.045 128.714 230.1 128.733 230.158 C 130.217 233.543 130.36 239.759 130.36 240.048 C 130.36 240.104 130.351 240.161 130.328 240.214 C 130.307 240.267 130.275 240.316 130.236 240.359 C 130.196 240.398 130.149 240.432 130.093 240.456 C 130.041 240.478 129.982 240.49 129.926 240.49 L 129.917 240.536 Z" fill="white" style=""/>
  </g>
  <g id="freepik--News--inject-23" transform="matrix(1, 0, 0, 1, -35.025661, 15.5298)">
    <path d="M 371.215 136.017 L 359.885 94.747 C 358.958 91.363 355.407 89.356 351.955 90.267 L 269.955 111.833 C 266.502 112.747 264.456 116.231 265.385 119.617 L 276.705 160.887 C 277.633 164.272 281.181 166.282 284.635 165.377 L 296.205 162.328 L 298.093 175.391 L 308.745 159.025 L 366.645 143.771 C 370.084 142.858 372.126 139.394 371.215 136.017 Z" style="fill: rgb(251, 227, 2);"/>
    <path d="M 425.74 231.68 L 430.12 203.18 C 430.479 200.844 428.876 198.659 426.54 198.3 L 371 189.76 C 368.662 189.395 366.474 191.001 366.12 193.34 L 361.73 221.84 C 361.371 224.176 362.974 226.361 365.31 226.72 L 373.14 227.93 L 371.983 234.524 L 381.64 229.23 L 420.82 235.23 C 423.16 235.614 425.367 234.022 425.74 231.68 Z" style="fill: rgb(251, 227, 2);"/>
    <path d="M 423.77 185.48 L 416.63 134.48 C 416.042 130.291 412.169 127.372 407.98 127.96 L 308.57 141.86 C 304.381 142.448 301.462 146.321 302.05 150.51 L 309.19 201.51 C 309.768 205.7 313.642 208.623 317.83 208.03 L 331.83 206.03 L 333.086 220.455 L 347.05 203.9 L 417.22 194.09 C 421.4 193.511 424.327 189.663 423.77 185.48 Z" style="fill: rgb(181, 33, 236);"/>
    <path d="M318.43,164.26l5.63-.79,8.85,9.76-1.51-10.79,5.68-.79,2.73,19.5-5.68.8-8.8-9.69,1.5,10.71-5.67.79Z" style="fill:#fff"/>
    <path d="M341.07,161.09l16.16-2.26.58,4.17-10.11,1.41.43,3.1,9.38-1.31.56,4-9.38,1.31.53,3.84,10.41-1.45.62,4.41-16.45,2.3Z" style="fill:#fff"/>
    <path d="M358.76,158.62l5.72-.8,3.59,10.63,1.49-11.34,5.7-.8,4.55,10.48.54-11.19,5.69-.8-1.57,20.11-5.91.82-5.14-11.8-1.69,12.76-5.91.82Z" style="fill:#fff"/>
    <path d="M388.78,167.72l5.69-1.16a4.4,4.4,0,0,0,1,2,3.25,3.25,0,0,0,2.83.81,2.94,2.94,0,0,0,1.9-.89,1.84,1.84,0,0,0,.51-1.5,1.82,1.82,0,0,0-.86-1.26,7.74,7.74,0,0,0-3.24-.7,13.3,13.3,0,0,1-6-1.58,4.82,4.82,0,0,1-2.23-3.52,5.16,5.16,0,0,1,.48-3,5.87,5.87,0,0,1,2.32-2.47,12.39,12.39,0,0,1,4.69-1.43,10,10,0,0,1,5.9.59,6.06,6.06,0,0,1,2.95,4.1l-5.63,1.13a3.11,3.11,0,0,0-1.22-1.79,3.16,3.16,0,0,0-2.09-.32,2.42,2.42,0,0,0-1.52.67,1.39,1.39,0,0,0-.38,1.16,1.1,1.1,0,0,0,.56.78,5.05,5.05,0,0,0,2.12.43,25.69,25.69,0,0,1,5.9.93,6.07,6.07,0,0,1,2.79,1.82,5.53,5.53,0,0,1,1.18,2.78,6.22,6.22,0,0,1-.55,3.6,6.58,6.58,0,0,1-2.56,2.81,11.81,11.81,0,0,1-4.59,1.47q-5,.7-7.16-1A7.69,7.69,0,0,1,388.78,167.72Z" style="fill:#fff"/>
  </g>
</svg>