<svg version="1.1" id="Layer_1_1_" xmlns="http://www.w3.org/2000/svg" xmlns:xlink="http://www.w3.org/1999/xlink" x="0px" y="0px" viewBox="0 0 64 64" style="enable-background:new 0 0 64 64;" xml:space="preserve">
<path style="fill:#526880;" d="M23,45h37c1.105,0,2-0.895,2-2V4c0-1.105-0.895-2-2-2H23c-1.105,0-2,0.895-2,2v27l-6,7l6-1v6
	C21,44.105,21.895,45,23,45z" id="id_158"></path>
<g>
<polygon style="fill:#CDD3D9;" points="57,29 34,29 34,4 54,4 54,16 57,16 	" id="id_159"></polygon>
</g>
<g>
<rect x="37" y="7" style="fill:#64778C;" width="6" height="6" id="id_160"></rect>
</g>
<g>
<path style="fill:#B5BABF;" d="M56.5,29L56.5,29c-1.381,0-2.5-1.119-2.5-2.5V16h5v10.5C59,27.881,57.881,29,56.5,29z" id="id_161"></path>
</g>
<g>
<rect x="45" y="8" style="fill:#64778C;" width="6" height="1" id="id_162"></rect>
</g>
<g>
<rect x="45" y="12" style="fill:#64778C;" width="6" height="1" id="id_163"></rect>
</g>
<g>
<rect x="37" y="20" style="fill:#64778C;" width="14" height="1" id="id_164"></rect>
</g>
<g>
<rect x="45" y="24" style="fill:#64778C;" width="6" height="1" id="id_165"></rect>
</g>
<g>
<rect x="37" y="16" style="fill:#64778C;" width="14" height="1" id="id_166"></rect>
</g>
<circle style="fill:#6691CC;" cx="34" cy="32" r="11" id="id_167"></circle>
<path style="fill:#759ACC;" d="M18,62V50c0-2.209-1.791-4-4-4h-4H6c-2.209,0-4,1.791-4,4v6c0,1.105,0.895,2,2,2v4H18z" id="id_168"></path>
<circle style="fill:#759ACC;" cx="10" cy="42" r="4" id="id_169"></circle>
<g>
<rect x="9.5" y="51" style="fill:#B5BABF;" width="1" height="4" id="id_170"></rect>
</g>
<g>
<rect x="14.5" y="51" style="fill:#6687B3;" width="1" height="11" id="id_171"></rect>
</g>
<path style="fill:#759ACC;" d="M33.972,23c2.053,0,3.904-0.265,5.235-0.69C37.657,21.475,35.884,21,34,21
	c-1.866,0-3.622,0.468-5.161,1.288C30.098,22.628,31.793,23,33.972,23z" id="id_172"></path>
<path style="fill:#759ACC;" d="M34.01,41c-2.047,0-3.894,0.264-5.224,0.686C30.338,42.524,32.113,43,34,43
	c1.871,0,3.632-0.47,5.174-1.294C38.057,41.391,36.256,41,34.01,41z" id="id_173"></path>
<path style="fill:#A1BDE6;" d="M40.017,27.049c1.204-0.202,2.332-0.466,3.355-0.786c-0.183-0.298-0.379-0.587-0.589-0.865
	c-0.917,0.271-1.917,0.497-2.98,0.674c-0.261-1.069-0.597-2.093-0.998-3.064c0.382-0.087,0.737-0.187,1.074-0.294
	c-0.405-0.257-0.828-0.487-1.266-0.69C37.294,22.327,35.679,22.5,34,22.5c-1.679,0-3.294-0.173-4.614-0.475
	c-0.438,0.203-0.861,0.433-1.266,0.69c0.336,0.107,0.69,0.206,1.071,0.293c-0.401,0.971-0.736,1.995-0.997,3.064
	c-1.062-0.177-2.061-0.403-2.978-0.674c-0.21,0.279-0.406,0.567-0.589,0.865c1.023,0.32,2.15,0.583,3.353,0.786
	c-0.285,1.432-0.441,2.927-0.469,4.452h-4.486C23.018,31.667,23,31.831,23,32s0.018,0.333,0.025,0.5h4.486
	c0.029,1.535,0.188,3.041,0.476,4.483c-1.199,0.201-2.323,0.463-3.344,0.781c0.184,0.298,0.382,0.587,0.593,0.865
	c0.913-0.269,1.908-0.493,2.965-0.669c0.259,1.058,0.593,2.072,0.99,3.033c-0.381,0.087-0.735,0.186-1.071,0.293
	c0.405,0.257,0.828,0.487,1.266,0.69C30.707,41.673,32.322,41.5,34,41.5c1.678,0,3.293,0.173,4.613,0.476
	c0.439-0.203,0.862-0.433,1.267-0.69c-0.335-0.106-0.688-0.205-1.067-0.292c0.396-0.962,0.729-1.976,0.988-3.034
	c1.056,0.176,2.05,0.4,2.963,0.669c0.211-0.279,0.409-0.567,0.593-0.865c-1.02-0.318-2.143-0.58-3.342-0.781
	c0.288-1.442,0.446-2.948,0.474-4.483h4.486C44.982,32.333,45,32.169,45,32s-0.018-0.333-0.025-0.5h-4.487
	C40.459,29.976,40.302,28.481,40.017,27.049z M33.5,40.509c-1.174,0.022-2.297,0.119-3.312,0.287
	c-0.399-0.938-0.705-1.949-0.965-2.988c1.356-0.179,2.793-0.281,4.277-0.299V40.509z M33.5,36.509
	c-1.566,0.019-3.085,0.129-4.516,0.323c-0.281-1.391-0.431-2.846-0.461-4.332H33.5V36.509z M33.5,31.5h-4.977
	c0.029-1.474,0.176-2.919,0.453-4.3c1.434,0.194,2.955,0.304,4.524,0.324V31.5z M33.5,26.523c-1.487-0.019-2.927-0.121-4.285-0.3
	c0.261-1.05,0.57-2.072,0.973-3.019c1.015,0.168,2.138,0.265,3.312,0.287V26.523z M34.5,23.491c1.174-0.022,2.298-0.12,3.314-0.287
	l-0.005,0.002c0.403,0.947,0.711,1.968,0.973,3.018c-1.357,0.179-2.796,0.281-4.283,0.3V23.491z M34.5,27.523
	c1.568-0.019,3.089-0.129,4.521-0.323c0.278,1.381,0.425,2.826,0.455,4.3H34.5V27.523z M37.816,40.797
	c-1.017-0.168-2.141-0.266-3.316-0.288v-3c1.485,0.019,2.923,0.121,4.28,0.3C38.52,38.848,38.214,39.859,37.816,40.797z
	 M39.018,36.832c-1.432-0.194-2.951-0.304-4.518-0.323V32.5h4.977C39.448,33.986,39.299,35.441,39.018,36.832z" id="id_174"></path>
<path style="fill:#CDD3D9;" d="M10.5,52h-1c-0.552,0-1-0.448-1-1v-2c0-0.552,0.448-1,1-1h1c0.552,0,1,0.448,1,1v2
	C11.5,51.552,11.052,52,10.5,52z" id="id_175"></path>
<g>
<path style="fill:#6687B3;" d="M11,58.5H4v-1h6.5v-2H5v-1h6c0.276,0,0.5,0.224,0.5,0.5v3C11.5,58.276,11.276,58.5,11,58.5z" id="id_176"></path>
</g>
</svg>