<svg width="24" height="24" viewBox="0 0 24 24" fill="none" xmlns="http://www.w3.org/2000/svg">
<rect width="24" height="24" rx="4" fill="#E9E9F3"/>
<g clip-path="url(#clip0_213_1460)">
<path d="M11.0532 14.468V12.368H7.07906C6.80495 12.3683 6.54215 12.4773 6.34832 12.6712C6.15449 12.865 6.04545 13.1278 6.04513 13.4019V16.6738C6.04545 16.9479 6.15449 17.2107 6.34832 17.4046C6.54215 17.5984 6.80495 17.7074 7.07906 17.7078H7.99195C8.01882 17.7078 8.04512 17.7155 8.06778 17.73C8.09044 17.7444 8.10853 17.765 8.11993 17.7893C8.40056 18.3915 8.9314 18.7331 9.74271 18.8337L9.9293 18.8569L9.82302 18.7018C9.64795 18.4543 9.52707 18.1727 9.4683 17.8753C9.46442 17.8549 9.4651 17.8339 9.47028 17.8138C9.47546 17.7936 9.48501 17.7749 9.49825 17.7589C9.5115 17.7429 9.52811 17.73 9.54691 17.7212C9.5657 17.7124 9.58622 17.7078 9.60699 17.7078H12.8204C13.0946 17.7074 13.3574 17.5984 13.5512 17.4046C13.745 17.2107 13.8541 16.9479 13.8544 16.6738V15.7843H12.3695C12.0205 15.7839 11.6859 15.6451 11.4392 15.3983C11.1924 15.1515 11.0536 14.817 11.0532 14.468V14.468ZM7.33246 13.4813H10.1941C10.2128 13.481 10.2314 13.4845 10.2487 13.4914C10.2661 13.4984 10.2819 13.5088 10.2952 13.5219C10.3085 13.5351 10.3191 13.5507 10.3263 13.568C10.3335 13.5852 10.3372 13.6037 10.3372 13.6224C10.3372 13.6411 10.3335 13.6597 10.3263 13.6769C10.3191 13.6942 10.3085 13.7098 10.2952 13.723C10.2819 13.7361 10.2661 13.7465 10.2487 13.7534C10.2314 13.7604 10.2128 13.7639 10.1941 13.7636H7.33246C7.29535 13.7631 7.25994 13.748 7.23388 13.7216C7.20782 13.6952 7.19321 13.6595 7.19321 13.6224C7.19321 13.5853 7.20782 13.5497 7.23388 13.5233C7.25994 13.4969 7.29535 13.4818 7.33246 13.4813V13.4813ZM7.33246 14.8967H10.1941C10.2128 14.8965 10.2314 14.8999 10.2487 14.9069C10.2661 14.9139 10.2819 14.9242 10.2952 14.9374C10.3085 14.9505 10.3191 14.9662 10.3263 14.9834C10.3335 15.0007 10.3372 15.0192 10.3372 15.0379C10.3372 15.0566 10.3335 15.0751 10.3263 15.0924C10.3191 15.1096 10.3085 15.1253 10.2952 15.1384C10.2819 15.1516 10.2661 15.1619 10.2487 15.1689C10.2314 15.1759 10.2128 15.1793 10.1941 15.1791H7.33246C7.29535 15.1786 7.25994 15.1635 7.23388 15.137C7.20782 15.1106 7.19321 15.075 7.19321 15.0379C7.19321 15.0008 7.20782 14.9652 7.23388 14.9388C7.25994 14.9123 7.29535 14.8972 7.33246 14.8967V14.8967ZM12.0536 16.5945H7.33246C7.29535 16.594 7.25994 16.5789 7.23388 16.5525C7.20782 16.526 7.19321 16.4904 7.19321 16.4533C7.19321 16.4162 7.20782 16.3806 7.23388 16.3542C7.25994 16.3278 7.29535 16.3127 7.33246 16.3121H12.0536C12.0723 16.3119 12.0908 16.3153 12.1082 16.3223C12.1256 16.3293 12.1413 16.3397 12.1547 16.3528C12.168 16.3659 12.1786 16.3816 12.1858 16.3988C12.193 16.4161 12.1967 16.4346 12.1967 16.4533C12.1967 16.472 12.193 16.4905 12.1858 16.5078C12.1786 16.5251 12.168 16.5407 12.1547 16.5538C12.1413 16.567 12.1256 16.5773 12.1082 16.5843C12.0908 16.5913 12.0723 16.5947 12.0536 16.5945V16.5945ZM18.1108 10.1622H13.5938L13.5685 10.1985C13.4473 10.373 13.2857 10.5155 13.0975 10.6141C12.9094 10.7127 12.7002 10.7643 12.4878 10.7647H11.429L11.4078 10.8183C11.36 10.9385 11.3355 11.0668 11.3355 11.1962V14.468C11.3358 14.7421 11.4448 15.0049 11.6387 15.1987C11.8325 15.3926 12.0953 15.5016 12.3694 15.5019H15.5829C15.6037 15.5019 15.6242 15.5065 15.643 15.5153C15.6618 15.5241 15.6784 15.537 15.6916 15.553C15.7049 15.569 15.7144 15.5877 15.7196 15.6078C15.7248 15.628 15.7255 15.649 15.7216 15.6694C15.6629 15.9668 15.542 16.2484 15.367 16.4959L15.2607 16.651L15.4472 16.6279C16.2586 16.5273 16.7894 16.1856 17.0701 15.5835C17.0815 15.5591 17.0996 15.5386 17.1222 15.5241C17.1449 15.5097 17.1711 15.502 17.198 15.5019H18.1109C18.385 15.5016 18.6478 15.3926 18.8416 15.1988C19.0355 15.0049 19.1445 14.7421 19.1448 14.468V11.1961C19.1445 10.922 19.0355 10.6592 18.8416 10.4654C18.6478 10.2715 18.3849 10.1625 18.1108 10.1622V10.1622ZM13.093 13.5555C12.95 13.5555 12.8101 13.5131 12.6911 13.4336C12.5721 13.3541 12.4794 13.2411 12.4246 13.1089C12.3699 12.9767 12.3555 12.8312 12.3835 12.6909C12.4114 12.5506 12.4803 12.4217 12.5815 12.3205C12.6826 12.2193 12.8115 12.1504 12.9519 12.1225C13.0922 12.0946 13.2377 12.1089 13.3699 12.1637C13.5021 12.2184 13.6151 12.3111 13.6946 12.4301C13.7741 12.5491 13.8165 12.689 13.8165 12.8321C13.8163 13.0239 13.74 13.2077 13.6043 13.3434C13.4687 13.479 13.2848 13.5553 13.093 13.5555V13.5555ZM15.2402 13.5555C15.0971 13.5555 14.9572 13.5131 14.8382 13.4336C14.7192 13.3541 14.6265 13.2411 14.5718 13.1089C14.517 12.9767 14.5027 12.8312 14.5306 12.6909C14.5585 12.5506 14.6274 12.4217 14.7286 12.3205C14.8298 12.2193 14.9587 12.1504 15.099 12.1225C15.2393 12.0946 15.3848 12.1089 15.517 12.1637C15.6492 12.2184 15.7622 12.3111 15.8417 12.4301C15.9212 12.5491 15.9636 12.689 15.9636 12.8321C15.9634 13.0239 15.8871 13.2077 15.7515 13.3434C15.6158 13.479 15.432 13.5553 15.2402 13.5555V13.5555ZM17.3873 13.5555C17.2442 13.5555 17.1043 13.5131 16.9853 13.4336C16.8663 13.3541 16.7736 13.2411 16.7188 13.1089C16.6641 12.9767 16.6498 12.8312 16.6777 12.6909C16.7056 12.5506 16.7745 12.4217 16.8757 12.3205C16.9768 12.2193 17.1058 12.1504 17.2461 12.1225C17.3864 12.0946 17.5319 12.1089 17.6641 12.1637C17.7963 12.2184 17.9093 12.3111 17.9888 12.4301C18.0683 12.5491 18.1107 12.689 18.1107 12.8321C18.1105 13.0239 18.0342 13.2077 17.8986 13.3434C17.7629 13.479 17.5791 13.5553 17.3873 13.5555V13.5555ZM17.8283 12.8321C17.8283 12.9193 17.8025 13.0046 17.754 13.0771C17.7055 13.1496 17.6366 13.2062 17.556 13.2395C17.4754 13.2729 17.3867 13.2817 17.3012 13.2646C17.2156 13.2476 17.137 13.2056 17.0753 13.1439C17.0137 13.0822 16.9717 13.0036 16.9546 12.9181C16.9376 12.8325 16.9464 12.7438 16.9797 12.6632C17.0131 12.5826 17.0697 12.5138 17.1422 12.4653C17.2147 12.4168 17.3 12.391 17.3873 12.391C17.5042 12.3911 17.6163 12.4376 17.699 12.5203C17.7817 12.603 17.8282 12.7151 17.8283 12.8321V12.8321ZM15.6812 12.8321C15.6812 12.9193 15.6554 13.0046 15.6069 13.0771C15.5584 13.1497 15.4895 13.2062 15.4089 13.2396C15.3283 13.273 15.2396 13.2817 15.1541 13.2647C15.0685 13.2477 14.9899 13.2057 14.9282 13.144C14.8665 13.0823 14.8245 13.0037 14.8075 12.9181C14.7905 12.8325 14.7992 12.7438 14.8326 12.6632C14.866 12.5826 14.9225 12.5137 14.9951 12.4653C15.0676 12.4168 15.1529 12.3909 15.2402 12.391C15.3571 12.3911 15.4692 12.4376 15.5519 12.5203C15.6346 12.603 15.6811 12.7151 15.6812 12.8321V12.8321ZM13.5341 12.8321C13.5341 12.9193 13.5082 13.0046 13.4598 13.0771C13.4113 13.1496 13.3424 13.2062 13.2618 13.2395C13.1812 13.2729 13.0925 13.2817 13.007 13.2646C12.9214 13.2476 12.8428 13.2056 12.7811 13.1439C12.7195 13.0822 12.6775 13.0036 12.6604 12.9181C12.6434 12.8325 12.6522 12.7438 12.6855 12.6632C12.7189 12.5826 12.7755 12.5138 12.848 12.4653C12.9205 12.4168 13.0058 12.391 13.093 12.391C13.21 12.3911 13.3221 12.4376 13.4048 12.5203C13.4875 12.603 13.534 12.7151 13.5341 12.8321V12.8321ZM7.65921 10.4823C7.68609 10.4824 7.7124 10.4901 7.73505 10.5046C7.7577 10.519 7.77577 10.5397 7.78714 10.564C8.0678 11.1661 8.59875 11.5078 9.40998 11.6084L9.59655 11.6316L9.49026 11.4765C9.31516 11.2289 9.19428 10.9472 9.13554 10.6497C9.13166 10.6293 9.13234 10.6083 9.13752 10.5882C9.1427 10.5681 9.15225 10.5494 9.1655 10.5334C9.17874 10.5174 9.19536 10.5045 9.21415 10.4956C9.23295 10.4868 9.25346 10.4822 9.27423 10.4822H12.4877C12.7618 10.4819 13.0246 10.3729 13.2184 10.1791C13.4122 9.98522 13.5213 9.72242 13.5216 9.4483V6.17651C13.5213 5.90239 13.4122 5.63958 13.2184 5.44575C13.0246 5.25192 12.7618 5.14289 12.4877 5.14258H6.74633C6.47221 5.14289 6.20941 5.25192 6.01558 5.44575C5.82175 5.63958 5.71271 5.90239 5.7124 6.17651V9.44835C5.71271 9.72247 5.82175 9.98528 6.01558 10.1791C6.20941 10.3729 6.47221 10.482 6.74633 10.4823L7.65921 10.4823ZM7.80217 7.43884C7.80222 7.40141 7.81711 7.36553 7.84358 7.33907C7.87005 7.3126 7.90593 7.29772 7.94336 7.29768H8.75679C8.77344 7.29774 8.78994 7.30076 8.80554 7.3066L8.84802 7.32224L8.88461 7.29567C8.92627 7.26522 8.97004 7.23778 9.01559 7.21354L9.01907 7.21169L9.02239 7.20958C9.46436 6.92104 9.65044 6.53385 9.78758 5.6162C9.79219 5.58452 9.80748 5.55536 9.83092 5.53356C9.85436 5.51175 9.88454 5.4986 9.91647 5.49628C9.93255 5.49508 9.94862 5.49446 9.96469 5.49446C10.1763 5.49446 10.3636 5.60059 10.4916 5.79326C10.6859 6.08552 10.708 6.5169 10.5522 6.97681L10.5143 7.08869H10.9049C10.9801 7.08874 11.0544 7.10441 11.1232 7.13472C11.192 7.16503 11.2537 7.20931 11.3045 7.26476C11.3497 7.31296 11.3843 7.37015 11.4059 7.4326C11.4275 7.49505 11.4357 7.56136 11.43 7.62719L11.2483 9.61764C11.2215 9.90998 10.9959 10.1304 10.7233 10.1304H9.52029C9.28393 10.1294 9.05426 10.052 8.86562 9.90955L8.83278 9.88475L8.79297 9.89522C8.78118 9.89845 8.76901 9.90012 8.75679 9.9002H7.94336C7.90593 9.90016 7.87004 9.88527 7.84357 9.8588C7.8171 9.83233 7.80221 9.79645 7.80217 9.75902V7.43884ZM8.91948 9.57698L8.89805 9.55287V7.66627L8.91948 7.64217C8.98592 7.56731 9.06561 7.50538 9.15455 7.45949C9.15868 7.45739 9.16269 7.45509 9.16658 7.45258C9.7178 7.0974 9.90474 6.59482 10.0277 5.89901L10.0523 5.76012L10.1634 5.84704C10.1997 5.87602 10.2311 5.91062 10.2564 5.94952C10.3952 6.15819 10.4547 6.60181 10.166 7.1656C10.155 7.18712 10.1496 7.21111 10.1506 7.23527C10.1515 7.25944 10.1586 7.28296 10.1712 7.30359C10.1838 7.32422 10.2015 7.34127 10.2226 7.35309C10.2437 7.36492 10.2675 7.37113 10.2916 7.37112H10.9048C10.9407 7.37134 10.9762 7.37892 11.0091 7.39338C11.0419 7.40785 11.0715 7.4289 11.0959 7.45523C11.1145 7.47455 11.1288 7.49756 11.1379 7.52277C11.147 7.54798 11.1507 7.57483 11.1487 7.60156L11.1326 7.77861H10.8357C10.7985 7.77913 10.7631 7.79422 10.7371 7.82064C10.711 7.84706 10.6964 7.88268 10.6964 7.91979C10.6964 7.9569 10.711 7.99251 10.7371 8.01893C10.7631 8.04535 10.7985 8.06045 10.8357 8.06096H11.1068L11.0696 8.46848H10.7727C10.7356 8.46899 10.7002 8.48409 10.6741 8.51051C10.648 8.53693 10.6334 8.57255 10.6334 8.60965C10.6334 8.64676 10.648 8.68238 10.6741 8.7088C10.7002 8.73522 10.7356 8.75032 10.7727 8.75083H11.0438L11.0065 9.15832H10.7097C10.6726 9.15883 10.6372 9.17393 10.6111 9.20035C10.5851 9.22677 10.5705 9.26238 10.5705 9.29949C10.5705 9.3366 10.5851 9.37222 10.6111 9.39864C10.6372 9.42506 10.6726 9.44016 10.7097 9.44067H10.9808L10.967 9.59203C10.9557 9.71541 10.8746 9.84816 10.7232 9.84816H9.52029C9.4067 9.84777 9.29447 9.82341 9.19094 9.77669C9.08742 9.72996 8.99491 9.66191 8.91948 9.57698V9.57698ZM8.6156 9.61785H8.08452V7.58008H8.6156V9.61785Z" fill="white"/>
</g>
<defs>
<clipPath id="clip0_213_1460">
<rect width="13.7143" height="13.7143" fill="white" transform="translate(5.57141 5.14258)"/>
</clipPath>
</defs>
</svg>
