<svg width="27" height="25" viewBox="0 0 27 25" fill="none" xmlns="http://www.w3.org/2000/svg">
<path d="M9.81148 10.9289H17.9877" stroke="#E2E3E4" stroke-width="2" stroke-linecap="round" stroke-linejoin="round"/>
<path d="M9.81148 14.0515H17.9877" stroke="#E2E3E4" stroke-width="2" stroke-linecap="round" stroke-linejoin="round"/>
<path d="M3.27049 19.5159C3.70419 19.5159 4.12012 19.3514 4.42679 19.0586C4.73345 18.7658 4.90574 18.3687 4.90574 17.9547V6.2451C4.90574 6.03806 4.99188 5.8395 5.14521 5.6931C5.29855 5.54671 5.50651 5.46446 5.72336 5.46446H22.0758C22.2927 5.46446 22.5006 5.54671 22.654 5.6931C22.8073 5.8395 22.8934 6.03806 22.8934 6.2451V17.9547C22.8934 18.3687 22.7212 18.7658 22.4145 19.0586C22.1078 19.3514 21.6919 19.5159 21.2582 19.5159H3.27049Z" stroke="#E2E3E4" stroke-width="2" stroke-linecap="round" stroke-linejoin="round"/>
<path d="M3.27049 19.5159C2.8368 19.5159 2.42087 19.3514 2.1142 19.0586C1.80753 18.7658 1.63525 18.3687 1.63525 17.9547V8.58701" stroke="#E2E3E4" stroke-width="2" stroke-linecap="round" stroke-linejoin="round"/>
</svg>
