<svg width="24" height="24" viewBox="0 0 24 24" fill="none" xmlns="http://www.w3.org/2000/svg">
<rect width="24" height="24" rx="4" fill="#E9E9F3"/>
<g clip-path="url(#clip0_213_1450)">
<path d="M17.7914 8.4241L12.2009 5.19642C12.0766 5.12463 11.9234 5.12463 11.7991 5.19642L6.20858 8.4241C6.08427 8.49585 6.00769 8.6285 6.00769 8.77204V15.2274C6.00769 15.3709 6.08427 15.5036 6.20858 15.5753L11.7991 18.803C11.9234 18.8748 12.0766 18.8748 12.2009 18.803L17.7914 15.5753C17.9157 15.5036 17.9923 15.3709 17.9923 15.2274V8.77204C17.9923 8.6285 17.9157 8.49585 17.7914 8.4241ZM10.4937 13.2908C10.4937 13.5127 10.3138 13.6926 10.0919 13.6926H9.66158C9.49937 13.6926 9.35309 13.5951 9.29071 13.4453L8.55713 11.6847V13.2908C8.53736 13.8233 7.77314 13.8229 7.75356 13.2908V10.7086C7.75356 10.4868 7.93345 10.3069 8.15534 10.3069H8.58571C8.74792 10.3069 8.8942 10.4044 8.95658 10.5541L9.69016 12.3147V10.7086C9.70993 10.1761 10.4742 10.1765 10.4937 10.7086V13.2908ZM13.291 11.1104H12V11.8131H12.8607C13.3932 11.8329 13.3928 12.5971 12.8607 12.6167H12V13.2908C11.9802 13.8233 11.216 13.8229 11.1964 13.2908V10.7086C11.1964 10.4868 11.3763 10.3069 11.5982 10.3069H13.291C13.8236 10.3266 13.8232 11.0909 13.291 11.1104V11.1104ZM16.0884 11.1104H15.6294V13.2908C15.6097 13.8233 14.8454 13.8229 14.8259 13.2908V11.1104H14.3669C13.8344 11.0907 13.8348 10.3264 14.3669 10.3069H16.0884C16.6209 10.3266 16.6205 11.0909 16.0884 11.1104V11.1104Z" fill="white"/>
</g>
<defs>
<clipPath id="clip0_213_1450">
<rect width="13.7143" height="13.7143" fill="white" transform="translate(5.14282 5.14258)"/>
</clipPath>
</defs>
</svg>
