<svg width="24" height="24" viewBox="0 0 24 24" fill="none" xmlns="http://www.w3.org/2000/svg">
<rect width="24" height="24" rx="4" fill="#335AE5"/>
<g clip-path="url(#clip0_213_1464)">
<path d="M16.5 11.9999C16.5 10.1739 14.7696 8.70265 12.4285 8.41079V7.28557L13.2857 6.42843V5.57129H9.85711V6.42843L10.7143 7.28557V8.41079C8.37318 8.70265 6.64282 10.1739 6.64282 11.9999C6.64282 13.8258 8.37318 15.2971 10.7143 15.5889V16.7141L9.85711 17.5713V18.4284H13.2857V17.5713L12.4285 16.7141V15.5889C14.7696 15.2971 16.5 13.8258 16.5 11.9999V11.9999ZM14.7857 11.9999C14.7857 12.8506 13.755 13.613 12.4285 13.8506V10.1491C13.755 10.3867 14.7857 11.1491 14.7857 11.9999ZM8.35711 11.9999C8.35711 11.1491 9.38782 10.3867 10.7143 10.1491V13.8506C9.38782 13.613 8.35711 12.8506 8.35711 11.9999Z" fill="white"/>
</g>
<defs>
<clipPath id="clip0_213_1464">
<rect width="13.7143" height="13.7143" fill="white" transform="translate(4.71423 5.14258)"/>
</clipPath>
</defs>
</svg>
