<?xml version="1.0" encoding="utf-8"?>
<svg viewBox="-24.266 23.529 520.435 401.485" xmlns="http://www.w3.org/2000/svg">
  <path d="M 318.109 408.654 C 318.109 408.654 315.601 386.051 325.128 376.113 C 334.655 366.176 366.867 363.786 368.797 360.449 C 370.727 357.113 402.799 282.772 402.799 282.772 C 408.062 277.562 444.907 290.193 445.889 302.7 C 445.889 302.7 416.659 364.053 415.256 371.225 C 413.853 378.397 425.204 409.297 425.01 423.213 L 318.109 408.654 Z" fill="#F2F4FA" style="" transform="matrix(-1, 0, 0, -1, 763.699646, 704.780731)"/>
  <path d="M 424.916 423.212 C 425.11 409.296 413.759 378.413 415.162 371.224 C 416.565 364.034 445.795 302.699 445.795 302.699 C 444.935 292.173 418.741 281.575 407.319 281.575 C 405.689 281.4 404.053 281.824 402.705 282.771 C 402.705 282.771 370.633 357.112 368.703 360.448 C 366.773 363.785 334.63 366.175 325.033 376.112 C 315.437 386.05 318.015 408.653 318.015 408.653 L 425.04 423.212 L 424.916 423.212 Z M 425.04 424.995 L 424.811 424.995 L 317.788 410.438 C 317.397 410.388 317.034 410.207 316.756 409.922 C 316.48 409.637 316.306 409.265 316.261 408.868 C 316.156 407.904 313.787 385.3 323.84 374.881 C 330.156 368.334 345.123 364.997 356.053 362.571 C 360.597 361.555 366.246 360.287 367.299 359.467 C 369.265 355.792 392.335 302.521 401.143 282.075 C 401.241 281.865 401.372 281.672 401.53 281.504 C 403.192 280.2 405.283 279.594 407.372 279.809 C 419.355 279.809 446.62 290.799 447.602 302.556 C 447.627 302.875 447.567 303.196 447.427 303.483 C 439.321 320.504 418.057 365.926 416.934 371.599 C 416.337 374.65 418.688 384.087 421.057 393.115 C 423.759 403.818 426.829 415.808 426.723 423.264 C 426.718 423.516 426.662 423.764 426.556 423.992 C 426.45 424.219 426.298 424.421 426.11 424.585 C 425.792 424.862 425.387 425.014 424.969 425.014 L 425.04 424.995 Z" fill="#231F20" style="" transform="matrix(-1, 0, 0, -1, 763.552673, 704.780487)"/>
  <path d="M 327.832 335.947 C 324.565 331.5 322.672 326.166 322.393 320.622 C 322.165 311.987 332.92 293.701 332.92 293.701 L 357.132 309.632 L 344.851 338.569 L 327.832 335.947 Z" fill="white" style="" transform="matrix(-1, 0, 0, -1, 679.521423, 632.269989)"/>
  <path d="M 332.958 292.796 L 332.765 292.796 C 332.536 292.861 332.338 293.006 332.203 293.206 C 331.765 293.973 321.308 311.813 321.554 320.626 C 321.849 326.358 323.835 331.867 327.256 336.433 C 327.392 336.605 327.586 336.719 327.8 336.754 L 344.713 339.412 C 344.905 339.446 345.102 339.412 345.274 339.318 C 345.445 339.225 345.581 339.076 345.66 338.895 L 357.942 309.958 C 358.021 309.763 358.032 309.546 357.97 309.344 C 357.909 309.142 357.782 308.968 357.609 308.851 L 333.397 292.92 C 333.264 292.84 333.112 292.797 332.958 292.796 Z M 328.432 335.059 C 325.385 330.841 323.606 325.816 323.309 320.591 C 323.115 313.312 331.221 298.54 333.256 294.954 L 356.065 309.958 L 344.31 337.575 L 328.432 335.059 Z" fill="#231F20" style="" transform="matrix(-1, 0, 0, -1, 679.559601, 632.220856)"/>
  <path d="M 495.361 88.035 C 495.361 88.035 414.917 148.282 367.967 148.693 C 356.092 148.663 344.233 147.804 332.473 146.124 C 304.735 142.555 276.926 136.169 257.574 135.133 C 219.186 133.064 190.255 145.16 189.606 185.926 C 189.044 220.804 205.185 227.44 239.257 237.556 C 256.1 242.533 288.628 247.903 319.385 257.181 C 338.123 262.783 356.229 269.794 369.651 279.018 C 405.162 303.37 431.058 358.033 431.058 358.033 L 495.361 88.035 Z" fill="white" style="" transform="matrix(-1, 0, 0, -1, 684.95282, 446.067993)"/>
  <path d="M 495.249 87.328 C 495.061 87.327 494.878 87.382 494.722 87.488 C 479.923 98.333 464.586 108.397 448.772 117.639 C 414.91 137.263 386.961 147.844 367.925 147.968 C 356.06 147.947 344.212 147.077 332.466 145.364 C 321.08 143.883 309.763 141.956 298.815 140.012 C 283.464 137.389 268.989 134.909 257.515 134.302 C 232.583 132.946 214.127 137.763 202.722 148.574 C 193.617 157.209 188.879 169.787 188.686 186.04 C 188.108 221.721 205.53 228.625 238.97 238.544 C 246.093 240.649 255.954 242.809 267.375 245.324 C 283.289 248.891 301.324 252.763 319.08 258.08 C 341.011 264.627 357.381 271.746 369.118 279.791 C 404.015 303.734 430.034 357.915 430.297 358.469 C 430.375 358.636 430.502 358.776 430.661 358.867 C 430.82 358.958 431.003 358.997 431.184 358.977 C 431.366 358.957 431.536 358.88 431.673 358.758 C 431.81 358.634 431.905 358.471 431.947 358.29 L 496.144 88.417 C 496.186 88.239 496.174 88.053 496.108 87.884 C 496.042 87.713 495.925 87.57 495.775 87.471 C 495.622 87.361 495.435 87.311 495.249 87.328 Z M 366.275 149.77 L 367.855 149.77 C 387.487 149.592 414.98 139.298 449.596 119.156 C 470.738 106.845 488.195 94.447 493.827 90.325 L 430.666 355.56 C 425.402 345.106 401.243 299.826 369.978 278.382 C 358.082 270.211 341.555 263.022 319.466 256.421 C 301.64 251.069 283.569 247.126 267.62 243.629 C 256.234 241.131 246.409 238.972 239.339 236.885 C 205.846 226.948 189.757 220.633 190.318 186.129 C 190.581 170.465 195.125 158.316 203.863 150.02 C 214.917 139.547 232.917 134.89 257.374 136.211 C 268.709 136.818 283.165 139.28 298.482 141.903 C 309.43 143.686 320.764 145.703 332.186 147.254 C 343.495 148.849 354.894 149.701 366.311 149.805 L 366.275 149.77 Z" fill="#231F20" style="" transform="matrix(-1, 0, 0, -1, 684.840607, 446.306854)"/>
  <path d="M 221.921 54.122 C 192.515 48.199 158.758 88.251 138.091 148.837 C 127.666 179.62 121.398 211.698 119.458 244.195 C 115.826 308.652 131.968 359.087 161.531 365.064 C 198.095 372.414 241.255 308.76 257.94 222.91 C 274.625 137.062 258.502 61.472 221.921 54.122 Z" fill="#F2F4FA" style="" transform="matrix(-1, 0, 0, -1, 383.475891, 419.184273)"/>
  <path d="M 167.381 365.65 C 202.576 365.65 242.14 304.243 257.948 222.926 C 274.633 137.042 258.51 61.488 221.929 54.137 C 220.004 53.745 218.047 53.548 216.085 53.548 C 188.154 53.548 157.468 92.245 138.098 148.852 C 127.674 179.635 121.406 211.714 119.466 244.21 C 115.834 308.668 131.976 359.103 161.539 365.079 C 163.462 365.466 165.42 365.657 167.381 365.65 Z M 167.381 367.435 C 165.308 367.439 163.239 367.236 161.205 366.828 C 131.379 360.834 113.834 311.523 117.712 244.103 C 119.672 211.444 125.969 179.206 136.432 148.264 C 156.503 89.64 187.768 51.765 216.085 51.765 C 218.16 51.766 220.228 51.975 222.262 52.389 C 240.684 56.082 254.667 76.081 261.632 108.693 C 268.475 140.807 267.79 181.501 259.667 223.265 C 252.018 262.657 238.438 299.07 221.419 325.759 C 204.401 352.448 185.084 367.435 167.381 367.435 Z" fill="#231F20" style="" transform="matrix(-1, 0, 0, -1, 383.484238, 419.200043)"/>
  <path d="M 264.019 196.79 L 204.559 173.972 C 194.135 204.755 187.867 236.833 185.926 269.33 L 253.299 270.347 L 264.019 196.79 Z" fill="#231F20" style="" transform="matrix(-1, 0, 0, -1, 449.945007, 444.318985)"/>
  <path d="M 204.552 173.189 C 204.425 173.162 204.294 173.162 204.166 173.189 C 204.06 173.24 203.965 173.311 203.887 173.4 C 203.809 173.49 203.748 173.593 203.71 173.706 C 193.276 204.568 186.996 236.722 185.043 269.296 C 185.035 269.415 185.051 269.536 185.09 269.649 C 185.13 269.763 185.19 269.867 185.27 269.956 C 185.35 270.046 185.448 270.119 185.556 270.168 C 185.665 270.217 185.783 270.242 185.902 270.241 L 253.274 271.259 C 253.484 271.257 253.687 271.177 253.845 271.037 C 254.003 270.896 254.105 270.702 254.135 270.492 L 264.89 197.006 C 264.915 196.805 264.873 196.601 264.771 196.426 C 264.67 196.252 264.514 196.117 264.328 196.042 L 204.851 173.224 C 204.755 173.194 204.653 173.182 204.552 173.189 Z M 186.85 268.564 C 188.841 236.772 194.976 205.389 205.096 175.241 L 262.994 197.47 L 252.467 269.546 L 186.85 268.564 Z" fill="#231F20" style="" transform="matrix(-1, 0, 0, -1, 449.938065, 444.42775)"/>
  <path d="M 196.949 174.048 C 206.241 175.49 211.304 193.107 208.257 213.395 C 205.211 233.685 195.21 248.963 185.918 247.52 C 176.627 246.077 171.564 228.461 174.61 208.172 C 177.657 187.884 187.658 172.606 196.949 174.048 Z" fill="white" style="" transform="matrix(-1, 0, 0, -1, 382.867477, 421.56813)"/>
  <path d="M 195.725 173.087 C 186.251 173.087 176.777 187.948 173.759 208.054 C 172.231 217.074 172.59 226.32 174.812 235.19 C 177.057 242.968 180.952 247.677 185.812 248.409 C 190.672 249.141 195.76 245.876 200.182 239.115 C 204.902 231.329 207.951 222.616 209.129 213.548 C 212.305 192.462 207.007 174.728 197.094 173.194 C 196.64 173.122 196.183 173.087 195.725 173.087 Z M 187.163 246.732 C 186.801 246.769 186.437 246.769 186.076 246.732 C 181.935 246.107 178.532 241.844 176.495 234.762 C 174.345 226.147 174.004 217.168 175.496 208.411 C 178.461 188.643 188.023 173.711 196.83 175.049 C 205.638 176.387 210.375 193.603 207.357 213.37 C 206.192 222.191 203.201 230.661 198.585 238.223 C 195.041 243.753 190.988 246.732 187.163 246.732 Z" fill="#231F20" style="" transform="matrix(-1, 0, 0, -1, 382.878357, 421.596939)"/>
  <path d="M 472.928 225.187 C 472.77 225.184 472.614 225.227 472.478 225.309 C 472.341 225.391 472.23 225.509 472.156 225.652 C 459.594 249.397 457.032 268.701 457.085 280.707 C 457.085 293.784 460.173 301.134 460.313 301.438 C 460.355 301.55 460.418 301.652 460.5 301.739 C 460.582 301.826 460.68 301.895 460.788 301.942 C 460.897 301.989 461.014 302.014 461.132 302.014 C 461.25 302.014 461.367 301.99 461.476 301.943 C 461.585 301.896 461.683 301.828 461.765 301.741 C 461.847 301.654 461.91 301.552 461.953 301.44 C 461.995 301.328 462.014 301.209 462.01 301.088 C 462.006 300.969 461.978 300.85 461.928 300.742 C 461.804 300.456 450.049 271.18 473.699 226.49 C 473.754 226.387 473.788 226.274 473.799 226.158 C 473.81 226.041 473.797 225.925 473.764 225.813 C 473.729 225.702 473.673 225.599 473.599 225.51 C 473.525 225.42 473.434 225.347 473.331 225.294 C 473.209 225.224 473.069 225.186 472.928 225.187 Z" fill="#F2F4FA" style="" transform="matrix(-1, 0, 0, -1, 930.887024, 527.200851)"/>
  <path d="M 340.853 59.491 C 340.853 59.491 338.029 73.121 340.362 73.21 C 342.696 73.299 344.556 66.484 344.556 66.484 C 344.556 66.484 350.766 80.204 352.258 78.419 C 353.749 76.636 356.136 71.069 355.486 69.374 C 354.837 67.68 350.433 54.585 350.433 54.585 L 340.853 59.491 Z" fill="white" style="" transform="matrix(-1, 0, 0, -1, 695.034424, 133.164207)"/>
  <path d="M 350.432 53.715 C 350.298 53.708 350.164 53.739 350.047 53.804 L 340.467 58.728 C 340.348 58.791 340.245 58.88 340.163 58.988 C 340.081 59.095 340.023 59.22 339.993 59.352 C 339.414 62.153 337.642 71.483 339.221 73.535 C 339.35 73.713 339.516 73.859 339.707 73.964 C 339.898 74.07 340.11 74.13 340.327 74.142 L 340.414 74.142 C 342.396 74.142 343.923 71.216 344.713 68.951 C 346.853 73.465 349.976 79.226 351.73 79.476 C 351.949 79.508 352.172 79.483 352.378 79.402 C 352.584 79.32 352.766 79.186 352.906 79.013 C 354.327 77.228 357.152 71.377 356.292 69.075 C 355.661 67.416 351.292 54.446 351.239 54.303 C 351.197 54.185 351.132 54.076 351.048 53.984 C 350.963 53.892 350.861 53.819 350.748 53.769 C 350.647 53.733 350.54 53.716 350.432 53.715 Z M 341.66 60.137 L 349.959 55.856 C 351.012 58.942 354.17 68.344 354.696 69.718 C 355.116 70.806 353.38 75.498 351.836 77.586 C 350.59 76.586 347.625 71.074 345.397 66.15 C 345.323 65.981 345.197 65.842 345.039 65.752 C 344.881 65.662 344.699 65.626 344.52 65.65 C 344.341 65.662 344.171 65.731 344.033 65.845 C 343.894 65.961 343.795 66.116 343.748 66.293 C 342.993 69.057 341.537 72.091 340.572 72.34 C 339.993 71.324 340.467 65.864 341.625 60.137 L 341.66 60.137 Z" fill="#231F20" style="" transform="matrix(-1, 0, 0, -1, 695.033569, 133.203526)"/>
  <path d="M 341.146 101.641 C 341.146 101.641 379.587 98.59 387.552 103.033 L 408.799 135.663 L 425.396 127.707 C 425.396 127.707 413.799 92.614 404.342 82.374 C 389.061 65.942 340.409 73.007 340.409 73.007 L 341.146 101.641 Z" style="fill: rgb(253, 225, 8);" transform="matrix(-1, 0, 0, -1, 765.804993, 207.159805)"/>
  <path d="M 420.636 104.793 C 420.636 104.793 399.583 140.011 398.776 164.649 C 397.969 189.286 413.531 192.694 418.917 193.693 C 424.303 194.692 452.761 202.077 464.831 190.124 C 476.902 178.171 481.534 114.677 481.534 114.677 L 420.636 104.793 Z" style="fill: rgb(253, 225, 8);" transform="matrix(-1, 0, 0, -1, 880.279755, 301.65538)"/>
  <path d="M 341.055 278.075 C 341.055 278.075 355.6 273.918 378.584 261.787 C 389.111 256.22 402.971 185.733 402.971 185.733 C 402.971 185.733 402.269 174.047 389.058 174.279 L 345.582 249.53 C 345.582 249.53 330.002 277.095 341.055 278.075 Z" fill="#231F20" style="" transform="matrix(-1, 0, 0, -1, 740.063751, 452.350616)"/>
  <path d="M 389.43 173.317 L 389.027 173.317 C 388.876 173.318 388.728 173.359 388.598 173.438 C 388.469 173.516 388.362 173.629 388.29 173.764 L 344.814 248.907 C 344.34 249.746 333.375 269.335 336.936 276.311 C 337.323 277.061 337.898 277.695 338.604 278.146 C 339.309 278.598 340.12 278.851 340.954 278.88 C 341.064 278.898 341.177 278.898 341.287 278.88 C 341.427 278.88 356.183 274.562 378.973 262.52 C 383.588 260.094 389.167 246.464 395.571 221.861 C 400.29 203.718 403.782 186.038 403.817 185.859 C 403.826 185.783 403.826 185.704 403.817 185.628 C 403.817 185.485 402.923 173.317 389.43 173.317 Z M 340.971 277.096 C 340.457 277.071 339.958 276.91 339.524 276.628 C 339.09 276.346 338.736 275.955 338.498 275.49 C 335.901 270.406 343.27 255.223 346.34 249.8 L 389.536 175.102 C 400.764 175.102 401.958 184.432 402.08 185.609 C 398.221 205.234 386.5 256.526 378.166 260.932 C 366.266 267.434 353.818 272.843 340.971 277.096 Z" fill="#231F20" style="" transform="matrix(-1, 0, 0, -1, 740.049591, 452.210495)"/>
  <path d="M 382.951 290.657 C 382.951 290.657 432.288 295.135 443.657 298.239 C 443.657 298.239 444.323 298.239 454.675 283.307 C 465.027 268.375 461.254 194.337 461.254 194.337 C 461.254 194.337 451.481 180.973 442.446 181.633 L 422.34 263.183 C 422.34 263.183 404.584 260.506 393.846 266.519 C 386.303 270.765 385.355 281.63 382.951 290.657 Z" fill="#231F20" style="" transform="matrix(-1, 0, 0, -1, 844.875671, 479.848343)"/>
  <path d="M 443.029 180.756 L 442.31 180.756 C 442.124 180.767 441.947 180.839 441.804 180.962 C 441.662 181.083 441.562 181.25 441.521 181.435 L 421.607 262.217 C 417.993 261.77 403.062 260.326 393.359 265.785 C 386.869 269.352 385.044 277.488 383.272 285.284 C 382.886 287.068 382.483 288.853 382.044 290.458 C 382.007 290.584 381.999 290.717 382.02 290.847 C 382.043 290.977 382.092 291.1 382.167 291.207 C 382.241 291.311 382.335 291.397 382.444 291.462 C 382.552 291.526 382.673 291.567 382.798 291.582 C 383.29 291.582 432.205 296.077 443.363 299.147 C 443.468 299.165 443.574 299.165 443.678 299.147 C 444.099 299.147 444.748 299.039 455.311 283.839 C 465.873 268.64 462.224 197.349 462.066 194.316 C 462.053 194.141 461.992 193.975 461.89 193.834 C 461.487 193.245 452.223 180.756 443.029 180.756 Z M 422.274 264.126 C 422.471 264.128 422.664 264.061 422.82 263.939 C 422.976 263.815 423.087 263.643 423.134 263.448 L 443.065 182.541 C 450.749 182.541 459.083 193.084 460.329 194.708 C 460.556 199.685 463.627 268.835 453.89 282.84 C 446.381 293.634 444.03 296.542 443.363 297.308 C 432.117 294.436 391.272 290.583 384.027 289.904 C 384.377 288.531 384.693 287.122 385.026 285.694 C 386.781 278.273 388.535 270.601 394.237 267.355 C 404.589 261.557 422.011 264.089 422.186 264.126 L 422.274 264.126 Z" fill="#231F20" style="" transform="matrix(-1, 0, 0, -1, 844.809784, 479.916519)"/>
  <path d="M 415.194 55.842 C 414.316 56.02 413.264 62.978 413.088 63.727 C 411.938 67.719 411.58 71.903 412.036 76.037 C 412.169 78.514 412.879 80.923 414.106 83.067 C 414.742 84.122 415.711 84.926 416.856 85.348 C 418 85.769 419.251 85.783 420.404 85.386 C 421.034 84.925 421.773 84.642 422.545 84.565 C 423.107 84.694 423.623 84.978 424.036 85.386 C 425.859 86.899 427.966 88.022 430.227 88.684 C 432.489 89.346 434.859 89.535 437.195 89.239 C 439.525 88.898 441.717 87.912 443.534 86.389 C 445.35 84.866 446.72 82.865 447.493 80.605 C 447.318 81.55 448.634 82.192 449.494 81.764 C 450.289 81.23 450.855 80.407 451.073 79.463 C 452.195 76.812 452.37 73.845 451.565 71.078 C 450.424 68.241 447.371 68.116 444.546 68.116 C 436.493 68.081 423.808 54.022 415.194 55.842 Z" fill="white" style="" transform="matrix(-1, 0, 0, -1, 863.907196, 145.054249)"/>
  <path d="M 416.716 54.795 C 416.126 54.795 415.539 54.855 414.962 54.974 C 413.997 55.17 413.453 56.365 412.347 62.609 C 412.347 63.056 412.207 63.395 412.172 63.537 C 411.014 67.631 410.662 71.918 411.136 76.15 C 411.299 78.762 412.062 81.297 413.365 83.554 C 414.108 84.783 415.244 85.715 416.583 86.193 C 417.922 86.67 419.381 86.664 420.716 86.177 C 420.922 86.084 421.121 85.977 421.313 85.855 C 421.636 85.627 422.009 85.486 422.4 85.445 C 422.767 85.563 423.103 85.765 423.383 86.034 C 425.301 87.64 427.521 88.831 429.908 89.533 C 432.294 90.235 434.796 90.435 437.261 90.119 C 439.464 89.777 441.555 88.905 443.362 87.577 C 445.168 86.25 446.637 84.504 447.648 82.483 C 447.984 82.651 448.353 82.738 448.727 82.738 C 449.1 82.738 449.47 82.651 449.805 82.483 C 450.314 82.177 450.755 81.768 451.105 81.285 C 451.454 80.8 451.705 80.249 451.84 79.665 C 453.052 76.828 453.214 73.641 452.297 70.691 C 450.876 67.123 447.033 67.123 444.524 67.123 C 441.016 67.123 436.348 64.161 431.787 61.289 C 426.664 58.203 421.348 54.795 416.716 54.795 Z M 415.505 56.579 C 419.821 55.83 425.453 59.38 430.91 62.806 C 435.875 65.946 440.577 68.889 444.542 68.907 C 447.384 68.907 449.805 69.103 450.7 71.316 C 451.426 73.878 451.246 76.617 450.192 79.059 C 450.037 79.774 449.632 80.408 449.051 80.842 C 448.966 80.881 448.873 80.902 448.78 80.902 C 448.685 80.902 448.593 80.881 448.507 80.842 C 448.42 80.817 448.345 80.76 448.297 80.681 C 448.335 80.455 448.286 80.223 448.163 80.031 C 448.039 79.839 447.849 79.702 447.63 79.647 C 447.414 79.596 447.188 79.63 446.995 79.743 C 446.803 79.856 446.66 80.038 446.595 80.253 C 445.879 82.361 444.603 84.227 442.909 85.644 C 441.216 87.06 439.169 87.974 436.998 88.282 C 434.78 88.567 432.53 88.386 430.384 87.75 C 428.239 87.116 426.244 86.039 424.523 84.589 C 423.978 84.072 423.294 83.731 422.558 83.608 C 421.815 83.585 421.084 83.805 420.47 84.232 L 419.979 84.5 C 419.007 84.816 417.958 84.79 417.002 84.424 C 416.046 84.058 415.241 83.374 414.715 82.483 C 413.586 80.442 412.926 78.167 412.786 75.83 C 412.346 71.815 412.692 67.753 413.803 63.876 C 413.803 63.716 413.803 63.358 413.979 62.859 C 414.258 60.749 414.752 58.675 415.453 56.668 L 415.505 56.579 Z" fill="#231F20" style="" transform="matrix(-1, 0, 0, -1, 863.815247, 145.05954)"/>
  <path d="M 437.269 86.314 L 436.672 73.041 C 435.577 70.95 433.772 69.336 431.593 68.498 C 429.413 67.661 427.009 67.659 424.829 68.491 C 416.39 71.113 415.636 77.412 415.636 77.412 L 417.144 101.978 C 417.144 101.978 424.285 105.831 426.443 121.084 C 426.443 121.084 445.076 121.87 444.69 114.68 C 444.69 114.68 446.445 101.442 445.234 94.735 C 444.023 88.026 437.391 86.403 437.269 86.314 Z" fill="white" style="" transform="matrix(-1, 0, 0, -1, 861.296112, 188.977921)"/>
  <path d="M 428.434 66.998 C 427.148 67.009 425.871 67.214 424.644 67.605 C 415.749 70.37 414.854 76.989 414.819 77.256 L 416.329 101.983 C 416.337 102.137 416.385 102.286 416.468 102.414 C 416.552 102.542 416.667 102.646 416.802 102.715 C 416.802 102.715 423.574 106.622 425.575 121.162 C 425.606 121.369 425.708 121.559 425.861 121.698 C 426.015 121.838 426.21 121.919 426.416 121.929 C 426.961 121.929 440.014 122.465 444.207 118.129 C 444.679 117.674 445.047 117.117 445.283 116.501 C 445.52 115.884 445.619 115.221 445.575 114.561 C 445.575 114.169 447.33 101.27 446.102 94.472 C 445.67 92.402 444.705 90.485 443.305 88.918 C 441.906 87.351 440.122 86.189 438.137 85.552 L 437.54 72.885 C 437.558 72.774 437.558 72.659 437.54 72.546 C 436.642 70.884 435.326 69.495 433.725 68.52 C 432.125 67.545 430.299 67.02 428.434 66.998 Z M 418.048 101.413 L 416.504 77.31 C 416.504 77.31 417.328 71.726 425.084 69.318 C 427.032 68.542 429.191 68.511 431.16 69.233 C 433.129 69.955 434.773 71.38 435.786 73.243 L 436.382 86.319 C 436.391 86.455 436.427 86.589 436.491 86.709 C 436.554 86.829 436.643 86.933 436.75 87.016 C 436.867 87.083 436.991 87.137 437.119 87.176 C 438.89 87.681 440.497 88.658 441.771 90.007 C 443.045 91.356 443.941 93.027 444.365 94.848 C 445.541 101.342 443.839 114.472 443.821 114.472 C 443.856 114.906 443.796 115.343 443.644 115.75 C 443.493 116.158 443.253 116.526 442.944 116.827 C 440.102 119.753 431.189 120.198 427.153 120.109 C 425.276 107.193 419.679 102.519 418.048 101.413 Z" fill="#231F20" style="" transform="matrix(-1, 0, 0, -1, 861.357147, 188.948059)"/>
  <path d="M 449.259 88.278 C 449.012 89.49 448.399 90.595 447.504 91.435 C 446.642 92.197 445.657 92.802 444.591 93.22 C 444.046 93.499 443.447 93.652 442.836 93.665 C 442.4 93.631 441.975 93.504 441.591 93.29 C 440.638 92.885 439.859 92.144 439.398 91.203 C 439.114 90.41 439.03 89.558 439.152 88.724 C 439.201 87.814 439.365 86.914 439.644 86.048 C 439.947 85.186 440.415 84.395 441.022 83.719 C 441.63 83.043 442.362 82.497 443.178 82.112 C 443.994 81.727 444.878 81.511 445.777 81.475 C 446.676 81.441 447.573 81.588 448.416 81.908" fill="white" style="" transform="matrix(-1, 0, 0, -1, 888.356659, 175.135201)"/>
  <path d="M 446.12 80.703 C 445.005 80.699 443.903 80.942 442.891 81.416 C 441.037 82.307 439.6 83.901 438.891 85.858 C 438.574 86.798 438.379 87.776 438.312 88.766 C 438.184 89.747 438.293 90.745 438.627 91.674 C 439.178 92.806 440.104 93.703 441.242 94.207 C 441.734 94.464 442.27 94.62 442.821 94.671 C 443.574 94.675 444.318 94.505 444.997 94.172 C 446.148 93.73 447.217 93.091 448.155 92.281 C 449.178 91.339 449.88 90.089 450.155 88.713 C 450.196 88.481 450.144 88.242 450.013 88.048 C 449.882 87.854 449.68 87.722 449.453 87.678 C 449.223 87.636 448.986 87.686 448.792 87.821 C 448.599 87.954 448.465 88.159 448.418 88.392 C 448.239 89.415 447.734 90.349 446.979 91.05 C 446.179 91.707 445.278 92.225 444.313 92.584 C 443.882 92.81 443.409 92.938 442.926 92.958 C 442.607 92.923 442.298 92.826 442.014 92.673 C 441.261 92.356 440.641 91.781 440.26 91.05 C 440.034 90.386 439.968 89.676 440.066 88.98 C 440.115 88.148 440.274 87.325 440.54 86.536 C 440.794 85.779 441.193 85.079 441.714 84.479 C 442.235 83.879 442.868 83.39 443.575 83.039 C 445.014 82.375 446.652 82.311 448.137 82.861 C 448.353 82.942 448.593 82.934 448.803 82.837 C 449.013 82.74 449.177 82.562 449.26 82.344 C 449.302 82.234 449.322 82.119 449.319 82.002 C 449.316 81.885 449.29 81.77 449.243 81.663 C 449.195 81.557 449.127 81.462 449.043 81.382 C 448.959 81.303 448.86 81.241 448.751 81.202 C 447.911 80.874 447.019 80.706 446.12 80.703 Z" fill="#231F20" style="" transform="matrix(-1, 0, 0, -1, 888.42865, 175.374023)"/>
  <path d="M 425.256 90.695 C 425.256 90.695 429.589 83.773 428.502 82.613 C 427.414 81.452 424.431 82.309 424.431 82.309" fill="white" style="" transform="matrix(-1, 0, 0, -1, 853.107971, 172.699402)"/>
  <path d="M 426.595 81.163 C 425.805 81.176 425.02 81.295 424.262 81.519 C 424.147 81.552 424.039 81.606 423.944 81.68 C 423.849 81.754 423.77 81.847 423.711 81.951 C 423.652 82.056 423.613 82.173 423.598 82.293 C 423.582 82.414 423.59 82.535 423.621 82.653 C 423.653 82.77 423.706 82.88 423.779 82.976 C 423.851 83.072 423.943 83.152 424.046 83.213 C 424.15 83.274 424.263 83.313 424.382 83.328 C 424.5 83.344 424.621 83.335 424.735 83.304 C 425.736 83.018 427.438 82.84 427.929 83.304 C 427.194 85.799 426.062 88.156 424.577 90.28 C 424.467 90.478 424.434 90.712 424.488 90.934 C 424.541 91.155 424.677 91.348 424.865 91.472 C 425.054 91.595 425.282 91.64 425.503 91.598 C 425.724 91.555 425.92 91.429 426.051 91.243 C 429.174 86.248 430.227 83.161 429.192 82.055 C 428.84 81.737 428.429 81.494 427.983 81.34 C 427.537 81.187 427.065 81.127 426.595 81.163 Z" fill="#231F20" style="" transform="matrix(-1, 0, 0, -1, 853.167023, 172.76619)"/>
  <path d="M 433.195 78.601 C 433.805 78.614 434.286 79.334 434.269 80.211 C 434.252 81.088 433.742 81.789 433.133 81.776 C 432.522 81.764 432.041 81.043 432.059 80.166 C 432.076 79.289 432.585 78.589 433.195 78.601 Z" fill="#231F20" style="" transform="matrix(-1, 0, 0, -1, 866.327942, 160.377022)"/>
  <path d="M 424.095 79.789 C 424.704 79.804 425.183 80.526 425.163 81.403 C 425.142 82.279 424.631 82.979 424.02 82.964 C 423.411 82.949 422.932 82.227 422.952 81.35 C 422.972 80.474 423.484 79.774 424.095 79.789 Z" fill="#231F20" style="" transform="matrix(-1, 0, 0, -1, 848.11499, 162.752998)"/>
  <path d="M 428.993 89.261 C 427.882 89.244 426.779 89.45 425.747 89.867 C 424.45 90.466 423.312 91.371 422.427 92.506 C 421.542 93.642 420.936 94.975 420.66 96.397 C 420.628 96.514 420.62 96.636 420.636 96.757 C 420.651 96.877 420.69 96.993 420.749 97.098 C 420.808 97.203 420.888 97.295 420.982 97.37 C 421.077 97.443 421.185 97.498 421.3 97.529 C 421.415 97.562 421.535 97.569 421.654 97.554 C 421.772 97.538 421.886 97.499 421.99 97.438 C 422.093 97.378 422.183 97.297 422.257 97.201 C 422.329 97.105 422.383 96.996 422.414 96.878 C 422.63 95.726 423.11 94.641 423.814 93.712 C 424.517 92.782 425.426 92.033 426.466 91.526 C 430.38 89.921 435.415 92.865 435.467 92.9 C 435.667 93.017 435.905 93.049 436.129 92.989 C 436.352 92.928 436.543 92.781 436.66 92.579 C 436.776 92.372 436.809 92.128 436.749 91.898 C 436.69 91.668 436.545 91.47 436.344 91.348 C 434.092 90.068 431.572 89.354 428.993 89.261 Z" fill="#231F20" style="" transform="matrix(-1, 0, 0, -1, 857.406372, 186.821548)"/>
  <path d="M 436.888 110.322 C 436.888 110.322 428.694 108.805 424.027 111.803 C 424.027 111.803 428.817 100.421 436.484 101.223 L 436.888 110.322 Z" fill="#231F20" style="" transform="matrix(-1, 0, 0, -1, 860.915009, 212.985535)"/>
  <path d="M 435.638 100.36 C 427.954 100.36 423.357 111.064 423.164 111.528 C 423.092 111.701 423.076 111.894 423.121 112.078 C 423.165 112.262 423.266 112.425 423.41 112.545 C 423.558 112.662 423.74 112.726 423.927 112.726 C 424.115 112.726 424.297 112.662 424.445 112.545 C 428.761 109.762 436.604 111.171 436.726 111.189 C 436.856 111.217 436.989 111.213 437.117 111.178 C 437.245 111.144 437.363 111.081 437.463 110.993 C 437.565 110.906 437.645 110.796 437.696 110.672 C 437.748 110.549 437.77 110.413 437.761 110.279 L 437.34 101.181 C 437.334 100.967 437.252 100.764 437.11 100.607 C 436.969 100.45 436.776 100.349 436.568 100.324 L 435.638 100.36 Z M 425.918 109.976 C 427.673 107.033 431.041 102.198 435.585 102.144 L 435.919 109.28 C 432.574 108.81 429.169 109.047 425.918 109.976 Z" fill="#231F20" style="" transform="matrix(-1, 0, 0, -1, 860.858795, 213.049995)"/>
  <path d="M 450.387 192.739 C 437.668 185.318 421.193 121.663 431.088 115.579 C 446.669 106.107 495.039 123.411 495.039 123.411 L 488.776 142.412 C 488.776 142.412 456.932 137.666 455.704 144.196 C 454.476 150.726 469.915 183.98 466.88 188.279 C 463.844 192.579 450.387 192.739 450.387 192.739 Z" style="fill: rgb(253, 225, 6);" transform="matrix(-1, 0, 0, -1, 923.102081, 305.483635)"/>
  <path d="M 384.714 177.723 C 390.058 178.043 395.353 178.953 400.504 180.435 C 404.283 181.855 408.219 182.797 412.224 183.236 C 417.55 183.601 422.897 182.996 428.014 181.452 C 428.219 181.412 428.407 181.313 428.559 181.167 C 429.103 180.56 428.067 179.775 427.26 179.65 C 425.161 179.329 423.026 179.329 420.927 179.65 C 426.173 178.366 431.225 176.367 435.945 173.709 C 436.489 173.405 437.103 172.906 436.927 172.317 C 436.752 171.729 435.717 171.693 435.033 171.907 L 422.996 175.85 C 426.092 175.006 429.027 173.643 431.681 171.818 C 432.067 171.55 432.488 171.194 432.453 170.73 C 432.453 169.927 431.208 169.927 430.471 170.213 C 426.787 171.55 423.224 173.21 419.821 175.172 L 427.523 170.534 C 427.681 169.944 427.12 169.374 426.541 169.284 C 425.931 169.243 425.322 169.379 424.786 169.677 L 416.383 173.477 L 421.646 170.569 C 422.471 170.105 423.4 169.338 423.172 168.411 C 422.944 167.483 421.313 167.465 420.242 167.803 C 415.981 169.101 411.591 169.915 407.154 170.23 C 405.578 170.553 403.971 170.691 402.364 170.641 C 399.959 170.034 397.611 169.217 395.346 168.196 L 384.977 164.414" fill="white" style="" transform="matrix(-1, 0, 0, -1, 821.671722, 347.75322)"/>
  <path d="M 384.876 163.445 C 384.689 163.451 384.51 163.523 384.369 163.647 C 384.228 163.771 384.134 163.942 384.103 164.13 C 384.072 164.317 384.106 164.51 384.198 164.674 C 384.292 164.839 384.438 164.966 384.612 165.034 L 394.981 168.816 C 395.666 169.047 396.367 169.351 397.07 169.637 C 398.679 170.386 400.369 170.943 402.105 171.296 C 403.277 171.424 404.461 171.364 405.614 171.117 C 406.125 171.019 406.64 170.947 407.157 170.903 C 411.658 170.595 416.108 169.762 420.422 168.423 C 420.992 168.231 421.606 168.231 422.177 168.423 C 422.24 168.459 422.289 168.515 422.316 168.584 C 422.316 168.887 421.931 169.368 421.159 169.797 L 415.895 172.705 C 415.713 172.804 415.576 172.97 415.514 173.171 C 415.452 173.371 415.469 173.588 415.562 173.775 C 415.649 173.965 415.807 174.113 416.001 174.186 C 416.195 174.259 416.408 174.253 416.597 174.168 L 425.001 170.493 C 425.383 170.279 425.811 170.163 426.247 170.154 L 426.405 170.154 L 419.247 174.471 C 419.156 174.525 419.077 174.595 419.014 174.68 C 418.951 174.765 418.905 174.862 418.879 174.964 C 418.853 175.067 418.847 175.175 418.861 175.28 C 418.877 175.385 418.912 175.486 418.966 175.578 C 419.072 175.763 419.246 175.898 419.449 175.955 C 419.652 176.01 419.869 175.984 420.054 175.88 C 423.414 173.935 426.937 172.294 430.58 170.975 C 430.86 170.868 431.161 170.832 431.457 170.868 L 431.089 171.135 C 429.276 172.381 427.326 173.41 425.282 174.203 L 422.597 175.078 C 422.4 175.144 422.235 175.284 422.137 175.47 C 422.04 175.656 422.016 175.873 422.071 176.077 C 422.132 176.282 422.268 176.454 422.451 176.561 C 422.633 176.667 422.849 176.698 423.054 176.648 C 423.983 176.38 424.914 176.077 425.809 175.738 L 435.124 172.687 C 435.428 172.602 435.75 172.602 436.054 172.687 C 436.054 172.687 435.809 172.866 435.405 173.079 C 430.746 175.706 425.759 177.68 420.58 178.949 C 420.378 178.996 420.203 179.121 420.091 179.298 C 419.981 179.474 419.941 179.689 419.984 179.895 C 420.026 180.1 420.144 180.281 420.314 180.401 C 420.483 180.52 420.691 180.568 420.896 180.537 C 422.919 180.225 424.977 180.225 427.001 180.537 C 427.202 180.563 427.394 180.637 427.562 180.751 C 422.578 182.235 417.373 182.802 412.194 182.428 C 408.743 182.074 405.349 181.289 402.088 180.09 L 400.666 179.645 C 395.456 178.153 390.103 177.239 384.7 176.915 C 384.487 176.901 384.276 176.97 384.113 177.109 C 383.95 177.249 383.846 177.448 383.824 177.665 C 383.808 177.879 383.877 178.092 384.015 178.255 C 384.154 178.419 384.349 178.521 384.56 178.539 C 389.85 178.85 395.091 179.741 400.193 181.197 L 401.596 181.643 C 404.99 182.896 408.528 183.705 412.123 184.051 C 417.519 184.428 422.937 183.824 428.124 182.268 C 428.475 182.184 428.796 182.005 429.054 181.75 C 429.225 181.568 429.341 181.341 429.39 181.095 C 429.441 180.849 429.421 180.594 429.335 180.359 C 429.137 179.96 428.847 179.616 428.49 179.358 C 428.132 179.1 427.717 178.935 427.282 178.878 L 426.755 178.878 C 430.029 177.724 433.2 176.286 436.23 174.579 C 437.827 173.686 437.722 172.634 437.598 172.223 C 437.538 172.028 437.439 171.848 437.31 171.691 C 437.18 171.536 437.022 171.407 436.844 171.313 C 436.148 171.053 435.382 171.053 434.686 171.313 L 432.826 171.92 C 433.062 171.603 433.175 171.21 433.142 170.814 C 433.125 170.589 433.055 170.371 432.94 170.179 C 432.823 169.987 432.664 169.826 432.475 169.707 C 432.102 169.532 431.694 169.441 431.282 169.441 C 430.87 169.441 430.463 169.532 430.089 169.707 C 429.481 169.922 428.896 170.154 428.335 170.404 C 428.295 170.141 428.2 169.891 428.054 169.672 C 427.898 169.425 427.692 169.215 427.451 169.055 C 427.208 168.894 426.935 168.789 426.65 168.744 C 425.915 168.683 425.179 168.838 424.528 169.19 L 424.071 169.387 C 424.169 169.036 424.169 168.666 424.071 168.317 C 424.001 168.072 423.882 167.844 423.722 167.648 C 423.563 167.452 423.364 167.29 423.142 167.175 C 422.168 166.805 421.097 166.805 420.123 167.175 C 415.927 168.462 411.601 169.27 407.228 169.583 C 406.666 169.583 406.106 169.726 405.474 169.815 C 404.505 170.023 403.512 170.082 402.526 169.993 C 400.919 169.652 399.354 169.131 397.859 168.441 C 397.123 168.12 396.403 167.835 395.701 167.566 C 392.192 166.336 388.684 165.069 385.332 163.803 C 385.23 163.629 385.067 163.502 384.876 163.445 Z" fill="#231F20" style="" transform="matrix(-1, 0, 0, -1, 821.483032, 347.604874)"/>
  <path d="M 398.746 171.779 C 400.729 170.174 407.08 133.833 410.273 120.523 L 398.746 171.779 Z" fill="white" style="" transform="matrix(-1, 0, 0, -1, 809.019012, 292.30201)"/>
  <path d="M 410.471 119.703 C 410.29 119.702 410.114 119.763 409.97 119.876 C 409.827 119.989 409.726 120.149 409.682 120.328 C 408.542 125.127 406.98 132.816 405.348 141.023 C 402.91 153.172 399.593 169.8 398.331 171.155 C 398.25 171.221 398.182 171.302 398.133 171.395 C 398.083 171.488 398.053 171.59 398.044 171.695 C 398.033 171.8 398.045 171.905 398.076 172.005 C 398.107 172.106 398.157 172.199 398.225 172.279 C 398.363 172.446 398.558 172.553 398.771 172.576 C 398.984 172.6 399.197 172.538 399.365 172.404 C 400.699 171.316 402.769 161.699 406.84 141.344 C 408.472 133.191 410.016 125.483 411.156 120.702 C 411.204 120.495 411.17 120.275 411.063 120.092 C 410.954 119.909 410.78 119.776 410.577 119.721 L 410.471 119.703 Z" fill="#231F20" style="" transform="matrix(-1, 0, 0, -1, 809.217316, 292.284058)"/>
  <path d="M 414.992 205.122 L 414.834 199.68 L 343.321 180.11 L 343.917 185.783 L 414.992 205.122 Z" fill="white" style="" transform="matrix(-1, 0, 0, -1, 758.313019, 385.231995)"/>
  <path d="M 343.343 179.222 C 343.136 179.223 342.938 179.299 342.782 179.436 C 342.672 179.528 342.588 179.647 342.535 179.781 C 342.483 179.915 342.466 180.06 342.483 180.203 L 343.062 185.876 C 343.079 186.058 343.151 186.228 343.266 186.365 C 343.383 186.503 343.539 186.6 343.711 186.643 L 414.786 205.983 C 414.918 206.019 415.056 206.024 415.19 205.996 C 415.324 205.968 415.45 205.908 415.558 205.822 C 415.668 205.738 415.757 205.626 415.814 205.499 C 415.872 205.372 415.899 205.232 415.892 205.091 L 415.734 199.738 C 415.726 199.547 415.658 199.363 415.542 199.212 C 415.425 199.062 415.265 198.953 415.084 198.9 L 343.572 179.275 C 343.5 179.238 343.422 179.221 343.343 179.222 Z M 344.747 185.073 L 344.36 181.31 L 413.996 200.363 L 414.102 203.931 L 344.747 185.073 Z" fill="#231F20" style="" transform="matrix(-1, 0, 0, -1, 758.36972, 385.235931)"/>
  <path d="M 435.993 187.19 C 435.993 187.19 417.763 199.678 417.219 199.446 C 416.676 199.213 343.321 181.23 343.321 181.23 L 364.918 167.85 L 435.993 187.19 Z" fill="white" style="" transform="matrix(-1, 0, 0, -1, 779.314026, 367.299194)"/>
  <path d="M 364.906 166.902 C 364.745 166.899 364.586 166.942 364.45 167.027 L 342.851 180.479 C 342.706 180.576 342.591 180.713 342.519 180.874 C 342.448 181.035 342.424 181.214 342.448 181.389 C 342.474 181.562 342.549 181.724 342.664 181.854 C 342.78 181.984 342.93 182.076 343.097 182.12 C 368.187 188.275 415.891 199.961 416.943 200.299 C 417.4 200.478 417.838 200.657 436.471 187.955 C 436.613 187.859 436.723 187.724 436.791 187.567 C 436.858 187.409 436.878 187.235 436.85 187.064 C 436.823 186.895 436.747 186.737 436.634 186.61 C 436.519 186.483 436.372 186.392 436.208 186.348 L 365.133 166.92 L 364.906 166.902 Z M 345.606 180.818 L 365.081 168.739 L 433.927 187.49 C 427.594 191.79 418.769 197.678 417.207 198.462 C 412.645 197.285 363.993 185.332 345.571 180.818 L 345.606 180.818 Z" fill="#231F20" style="" transform="matrix(-1, 0, 0, -1, 779.30127, 367.243042)"/>
  <path d="M 435.397 186.069 L 414.535 199.949 L 414.396 205.122 L 435.993 191.742 L 435.397 186.069 Z" fill="white" style="" transform="matrix(-1, 0, 0, -1, 850.389008, 391.190994)"/>
  <path d="M 435.424 185.183 C 435.257 185.187 435.093 185.236 434.951 185.326 L 414.09 199.205 C 413.97 199.285 413.871 199.394 413.801 199.522 C 413.731 199.649 413.691 199.791 413.686 199.937 L 413.547 205.111 C 413.544 205.269 413.583 205.426 413.66 205.564 C 413.737 205.701 413.85 205.816 413.985 205.895 C 414.122 205.974 414.276 206.015 414.433 206.015 C 414.589 206.015 414.743 205.974 414.88 205.895 L 436.477 192.498 C 436.622 192.412 436.739 192.285 436.813 192.133 C 436.888 191.981 436.918 191.81 436.899 191.642 L 436.302 185.986 C 436.29 185.833 436.239 185.686 436.152 185.561 C 436.066 185.435 435.948 185.335 435.811 185.272 C 435.692 185.207 435.559 185.176 435.424 185.183 Z M 415.424 200.454 L 434.723 187.627 L 435.109 191.195 L 415.371 203.434 L 415.424 200.454 Z" fill="#231F20" style="" transform="matrix(-1, 0, 0, -1, 850.451385, 391.197021)"/>
  <path d="M 405.957 150.138 L 414.396 199.449 L 339.251 176.934 L 334.882 130.798 L 405.957 150.138 Z" fill="white" style="" transform="matrix(-1, 0, 0, -1, 749.277985, 330.247009)"/>
  <path d="M 334.889 129.902 C 334.768 129.899 334.646 129.922 334.534 129.971 C 334.421 130.019 334.32 130.091 334.237 130.182 C 334.153 130.273 334.091 130.381 334.052 130.5 C 334.014 130.617 334 130.741 334.013 130.866 L 338.381 177.018 C 338.397 177.197 338.465 177.366 338.578 177.503 C 338.692 177.64 338.843 177.739 339.012 177.786 L 414.157 200.301 C 414.299 200.346 414.448 200.353 414.592 200.321 C 414.737 200.29 414.871 200.221 414.982 200.123 C 415.093 200.021 415.178 199.892 415.227 199.749 C 415.276 199.605 415.289 199.452 415.263 199.302 L 406.824 149.972 C 406.797 149.807 406.724 149.652 406.611 149.528 C 406.498 149.404 406.353 149.317 406.192 149.277 L 335.117 129.92 L 334.889 129.902 Z M 340.153 176.288 L 335.96 132.025 L 405.263 150.882 L 413.367 198.231 L 340.153 176.288 Z" fill="#231F20" style="" transform="matrix(-1, 0, 0, -1, 749.284393, 330.242493)"/>
  <path d="M 451.931 121.454 C 451.74 121.451 451.554 121.512 451.402 121.628 C 451.249 121.744 451.139 121.909 451.089 122.096 C 451.057 122.208 451.047 122.326 451.059 122.443 C 451.072 122.559 451.107 122.672 451.162 122.775 C 451.217 122.877 451.292 122.968 451.382 123.041 C 451.472 123.115 451.575 123.169 451.685 123.202 L 466.195 127.573 L 464.634 144.985 L 436.317 144.557 C 436.191 144.555 436.065 144.58 435.95 144.633 C 435.834 144.685 435.732 144.763 435.649 144.86 C 435.564 144.958 435.5 145.076 435.463 145.202 C 435.427 145.328 435.419 145.462 435.439 145.592 L 442.843 190.978 C 442.862 191.094 442.904 191.205 442.965 191.305 C 443.027 191.405 443.107 191.491 443.202 191.559 C 443.297 191.627 443.403 191.676 443.516 191.701 C 443.63 191.727 443.746 191.73 443.861 191.709 C 444.083 191.65 444.275 191.506 444.396 191.307 C 444.517 191.107 444.558 190.868 444.51 190.639 L 437.281 146.305 L 465.352 146.734 C 465.569 146.734 465.778 146.652 465.937 146.503 C 466.097 146.354 466.195 146.15 466.212 145.931 L 467.967 126.966 C 467.984 126.764 467.933 126.561 467.821 126.392 C 467.709 126.223 467.544 126.099 467.353 126.038 L 452.142 121.454 L 451.931 121.454 Z" fill="#231F20" style="" transform="matrix(-1, 0, 0, -1, 903.398499, 313.176765)"/>
  <path d="M 336.373 274.805 C 337.513 276.16 338.724 277.445 339.987 278.676 C 342.742 281.352 348.76 285.508 351.303 280.317 C 352.83 277.105 351.585 272.432 350.707 269.203 C 348.969 263 345.881 257.274 341.671 252.45 C 338.022 248.187 325.565 241.176 325.267 251.808 C 325.305 253.737 325.692 255.642 326.407 257.428 C 328.662 263.788 332.039 269.677 336.373 274.805 Z" fill="white" style="" transform="matrix(-1, 0, 0, -1, 677.289581, 529.006241)"/>
  <path d="M 329.761 245.4 C 329.074 245.391 328.391 245.507 327.743 245.739 C 326.252 246.273 324.462 247.772 324.357 251.786 C 324.374 253.824 324.773 255.841 325.533 257.727 C 327.81 264.187 331.243 270.163 335.656 275.354 C 336.796 276.71 338.025 278.03 339.305 279.279 C 340.165 280.117 344.674 284.238 348.463 283.542 C 349.236 283.401 349.961 283.065 350.574 282.568 C 351.186 282.069 351.668 281.423 351.973 280.688 C 353.727 277.12 352.324 272.249 351.446 268.985 C 349.662 262.67 346.508 256.842 342.217 251.929 C 339.972 249.378 334.182 245.4 329.761 245.4 Z M 347.587 281.991 C 345.411 281.991 342.481 280.117 340.411 278.101 C 339.183 276.888 337.989 275.621 336.902 274.301 C 332.62 269.254 329.289 263.449 327.077 257.175 C 326.392 255.474 326.023 253.659 325.989 251.822 C 325.989 249.324 326.849 247.79 328.322 247.255 C 331.691 246.024 338.323 249.877 340.972 252.982 C 345.113 257.707 348.147 263.325 349.85 269.413 C 350.675 272.428 351.903 277.013 350.499 279.957 C 350.308 280.449 350 280.887 349.601 281.23 C 349.203 281.572 348.728 281.809 348.218 281.919 C 348.01 281.962 347.799 281.986 347.587 281.991 Z" fill="#231F20" style="" transform="matrix(-1, 0, 0, -1, 677.169373, 529.020294)"/>
  <path d="M 395.405 302.293 C 396.224 303.04 397.27 303.48 398.369 303.541 C 399.071 303.453 399.738 303.176 400.299 302.738 C 401.343 301.876 402.182 300.788 402.759 299.553 C 403.335 298.318 403.634 296.969 403.633 295.603 C 403.586 292.859 403.057 290.147 402.072 287.592 C 399.405 279.689 395.439 271.857 388.79 266.933 C 387.607 266.004 386.278 265.287 384.86 264.809 C 372.473 261.009 376.228 274.337 378.666 280.491 C 382.13 289.207 387.929 296.761 395.405 302.293 Z" fill="white" style="" transform="matrix(-1, 0, 0, -1, 779.797668, 567.67984)"/>
  <path d="M 381.008 263.349 C 380.24 263.295 379.471 263.411 378.752 263.692 C 378.034 263.972 377.384 264.409 376.85 264.973 C 373.551 268.63 376.481 277.265 377.903 280.815 C 381.427 289.679 387.315 297.365 394.904 303.009 C 395.881 303.871 397.12 304.362 398.413 304.4 C 399.276 304.327 400.099 303.998 400.781 303.454 C 401.925 302.513 402.848 301.321 403.479 299.97 C 404.111 298.617 404.436 297.137 404.43 295.641 C 404.389 292.801 403.848 289.991 402.834 287.345 C 399.5 277.479 395.062 270.575 389.272 266.293 C 388.015 265.309 386.603 264.549 385.096 264.045 C 383.774 263.614 382.397 263.379 381.008 263.349 Z M 398.202 302.777 C 397.329 302.661 396.51 302.282 395.851 301.689 C 388.509 296.248 382.804 288.834 379.376 280.28 C 377.288 275.035 375.868 268.559 378.025 266.133 C 379.184 264.848 381.394 264.687 384.605 265.668 C 385.935 266.127 387.181 266.808 388.289 267.684 C 393.816 271.77 398.062 278.388 401.29 287.951 C 402.251 290.411 402.762 293.029 402.799 295.676 C 402.811 296.924 402.548 298.158 402.029 299.288 C 401.51 300.418 400.747 301.415 399.799 302.206 C 399.365 302.56 398.842 302.783 398.289 302.848 L 398.202 302.777 Z" fill="#231F20" style="" transform="matrix(-1, 0, 0, -1, 779.770844, 567.736115)"/>
  <path d="M 387.335 202.393 C 387.107 202.393 386.888 202.485 386.728 202.65 C 386.566 202.814 386.475 203.036 386.475 203.268 C 386.475 203.392 386.195 216.22 383.387 222.893 C 383.326 223.001 383.287 223.122 383.275 223.246 C 383.262 223.37 383.275 223.497 383.313 223.616 C 383.352 223.735 383.414 223.844 383.497 223.937 C 383.58 224.031 383.681 224.104 383.794 224.155 C 383.907 224.205 384.029 224.231 384.152 224.23 C 384.276 224.229 384.398 224.202 384.51 224.151 C 384.622 224.099 384.722 224.024 384.804 223.93 C 384.886 223.836 384.947 223.726 384.984 223.605 C 387.932 216.684 388.212 203.981 388.212 203.392 C 388.215 203.276 388.195 203.159 388.152 203.05 C 388.111 202.941 388.048 202.841 387.968 202.757 C 387.888 202.673 387.793 202.604 387.687 202.557 C 387.581 202.511 387.467 202.485 387.353 202.483 L 387.335 202.393 Z" fill="white" style="" transform="matrix(-1, 0, 0, -1, 771.482422, 426.623032)"/>
  <path d="M 491.366 153.871 L 486.102 152.32 L 487.646 148.751 C 487.646 148.751 477.523 133.641 440.871 135.799 L 429.976 127.468 L 440.047 121.687 C 440.047 121.687 473.084 119.904 490.383 148.234 L 493.646 149.162 L 491.366 153.871 Z" fill="#231F20" style="" transform="matrix(-1, 0, 0, -1, 923.622009, 275.535713)"/>
  <path d="M 134.42 95.998 L 67.58 78.927 L 79.308 31.448 L 146.149 48.519 L 134.42 95.998 Z" fill="white" style="" transform="matrix(-1, 0, 0, -1, 213.729004, 127.446003)"/>
  <path d="M 79.306 30.529 C 79.152 30.533 79.001 30.575 78.867 30.654 C 78.766 30.713 78.679 30.792 78.609 30.887 C 78.54 30.982 78.49 31.092 78.465 31.208 L 66.727 78.68 C 66.673 78.912 66.712 79.156 66.833 79.36 C 66.954 79.563 67.149 79.71 67.376 79.769 L 134.204 96.843 C 134.433 96.896 134.671 96.857 134.872 96.734 C 135.072 96.611 135.217 96.413 135.274 96.183 L 147.012 48.709 C 147.064 48.484 147.026 48.246 146.907 48.049 C 146.849 47.946 146.771 47.856 146.677 47.785 C 146.583 47.715 146.477 47.665 146.363 47.638 L 79.535 30.565 L 79.306 30.529 Z M 68.656 78.252 L 79.956 32.509 L 145.082 49.154 L 133.818 94.898 L 68.656 78.252 Z" fill="#F2F4FA" style="" transform="matrix(-1, 0, 0, -1, 213.737946, 127.395096)"/>
  <path d="M 90.162 52.347 C 90.053 52.322 89.939 52.322 89.829 52.347 C 89.619 52.442 89.453 52.615 89.364 52.831 C 89.276 53.047 89.273 53.289 89.355 53.507 L 106.813 96.324 C 106.864 96.45 106.943 96.561 107.043 96.651 C 107.144 96.74 107.263 96.806 107.392 96.841 C 107.515 96.884 107.647 96.895 107.775 96.874 C 107.904 96.851 108.026 96.797 108.129 96.717 L 134.938 77.092 C 135.126 76.952 135.252 76.743 135.288 76.509 C 135.324 76.274 135.267 76.035 135.13 75.844 C 134.993 75.652 134.787 75.524 134.556 75.486 C 134.326 75.45 134.09 75.508 133.902 75.647 L 108.006 94.737 L 90.987 52.9 C 90.919 52.736 90.804 52.596 90.657 52.498 C 90.51 52.4 90.339 52.347 90.162 52.347 Z" fill="#F2F4FA" style="" transform="matrix(-1, 0, 0, -1, 224.594223, 149.212585)"/>
  <path d="M 72.049 48.09 C 71.944 48.072 71.838 48.072 71.733 48.09 C 71.624 48.131 71.525 48.194 71.44 48.275 C 71.355 48.356 71.287 48.453 71.24 48.561 C 71.192 48.669 71.166 48.785 71.164 48.903 C 71.162 49.022 71.182 49.139 71.224 49.249 L 78.032 67.678 C 78.073 67.803 78.144 67.916 78.24 68.006 C 78.334 68.097 78.45 68.162 78.575 68.196 C 78.696 68.239 78.826 68.254 78.954 68.238 C 79.081 68.222 79.204 68.177 79.313 68.107 L 97.927 56.225 C 98.027 56.164 98.114 56.084 98.182 55.989 C 98.251 55.894 98.3 55.785 98.326 55.67 C 98.353 55.555 98.356 55.436 98.335 55.319 C 98.315 55.204 98.272 55.092 98.208 54.994 C 98.082 54.795 97.884 54.655 97.657 54.605 C 97.43 54.555 97.193 54.598 96.998 54.726 L 79.242 66.073 L 72.803 48.678 C 72.748 48.516 72.648 48.373 72.513 48.268 C 72.379 48.163 72.217 48.101 72.049 48.09 Z" fill="#F2F4FA" style="" transform="matrix(-1, 0, 0, -1, 169.512642, 116.320747)"/>
  <path d="M 101.271 41.921 C 100.019 41.926 98.812 42.394 97.877 43.24 C 96.941 44.084 96.34 45.247 96.187 46.51 C 96.034 47.773 96.34 49.049 97.047 50.1 C 97.753 51.15 98.812 51.902 100.025 52.215 C 100.681 52.382 101.361 52.416 102.03 52.315 C 102.698 52.214 103.341 51.98 103.92 51.627 C 104.498 51.275 105.003 50.81 105.404 50.259 C 105.804 49.707 106.093 49.081 106.253 48.416 C 106.419 47.751 106.455 47.06 106.357 46.382 C 106.259 45.704 106.032 45.052 105.686 44.464 C 105.34 43.875 104.885 43.362 104.343 42.954 C 103.802 42.545 103.188 42.248 102.534 42.082 C 102.12 41.976 101.697 41.922 101.271 41.921 Z M 101.271 50.592 C 100.993 50.593 100.715 50.556 100.447 50.485 C 99.579 50.252 98.831 49.691 98.358 48.915 C 98.13 48.527 97.98 48.097 97.916 47.65 C 97.854 47.203 97.879 46.748 97.99 46.31 C 98.209 45.429 98.762 44.673 99.528 44.205 C 100.293 43.737 101.21 43.596 102.078 43.813 C 102.946 44.045 103.692 44.607 104.165 45.382 C 104.393 45.77 104.544 46.2 104.607 46.647 C 104.67 47.094 104.646 47.55 104.534 47.988 C 104.432 48.426 104.242 48.841 103.976 49.203 C 103.712 49.564 103.375 49.868 102.99 50.092 C 102.477 50.41 101.889 50.583 101.288 50.592 L 101.271 50.592 Z" fill="#F2F4FA" style="" transform="matrix(-1, 0, 0, -1, 202.559425, 94.292778)"/>
  <path d="M 78.989 286.386 C 93.388 286.386 105.062 298.256 105.062 312.898 C 105.062 327.539 93.388 339.408 78.989 339.408 C 64.591 339.408 52.917 327.539 52.917 312.898 C 52.917 298.256 64.591 286.386 78.989 286.386 Z" fill="white" style="" transform="matrix(-1, 0, 0, -1, 157.978996, 625.793976)"/>
  <path d="M 81.98 340.536 L 85.015 340.019 C 85.117 339.964 85.222 339.916 85.331 339.876 C 89.868 338.838 94.042 336.562 97.402 333.292 C 101.137 329.891 103.849 325.484 105.225 320.581 C 106.6 315.678 106.583 310.48 105.174 305.586 C 103.694 299.615 100.167 294.376 95.226 290.814 C 91.918 288.243 88.063 286.497 83.971 285.716 C 79.879 284.935 75.663 285.142 71.663 286.319 C 67.425 287.44 63.545 289.66 60.399 292.759 C 57.576 295.397 55.34 298.617 53.839 302.204 C 52.339 305.792 51.608 309.664 51.697 313.561 C 51.697 314.364 51.697 315.167 51.785 315.969 L 52.294 319.056 C 52.294 319.234 52.434 319.43 52.487 319.609 C 52.838 320.751 53.119 321.91 53.54 322.999 C 55.735 328.79 59.799 333.653 65.067 336.79 C 69.419 339.451 74.429 340.787 79.506 340.643 C 80.366 340.625 81.173 340.572 81.98 340.536 Z M 96.138 294.418 C 99.852 297.972 102.405 302.599 103.455 307.674 L 92.805 309.457 C 92.314 307.549 91.893 305.658 91.331 303.803 C 90.77 301.947 90.068 300.234 89.472 298.45 L 96.138 294.418 Z M 54.119 316.041 C 53.485 310.889 54.422 305.665 56.803 301.073 L 64.452 302.696 C 64.153 306.54 64.283 310.406 64.838 314.221 L 54.119 316.041 Z M 103.77 309.85 C 104.648 313.847 103.086 322.339 101.086 324.783 L 93.471 323.177 C 93.778 319.339 93.654 315.48 93.104 311.67 L 103.77 309.85 Z M 68.523 327.423 L 61.821 331.473 C 58.768 329.118 54.61 321.625 54.54 318.236 L 65.207 316.451 C 65.899 320.236 67.011 323.93 68.523 327.459 L 68.523 327.423 Z M 78.243 301.875 C 79.822 301.483 81.331 301.144 82.822 300.698 C 84.313 300.252 85.822 299.734 87.331 299.235 L 87.541 299.645 C 88.852 302.754 89.835 305.995 90.471 309.315 C 90.471 309.761 90.471 309.904 90.033 309.976 L 80.348 311.598 C 80.185 311.608 80.02 311.608 79.857 311.598 L 78.243 301.875 Z M 66.997 313.865 C 66.445 310.223 66.326 306.527 66.645 302.857 L 76.068 302.339 L 77.663 312.045 L 66.997 313.865 Z M 90.928 312.08 C 91.478 315.716 91.601 319.405 91.297 323.07 L 81.822 323.57 L 80.243 313.9 L 90.928 312.08 Z M 70.54 326.602 C 69.073 323.241 68.007 319.713 67.365 316.095 L 78.05 314.31 L 79.647 323.979 L 70.54 326.602 Z M 90.998 325.425 C 90.676 327.927 89.978 330.364 88.927 332.651 C 88.245 334.24 87.205 335.646 85.893 336.753 C 85.327 337.154 84.742 337.523 84.138 337.86 L 82.173 325.907 C 85.093 325.468 88.048 325.307 90.998 325.425 Z M 77.892 299.663 L 75.944 287.835 C 77.276 287.865 78.57 288.293 79.664 289.066 C 82.002 290.716 83.945 292.881 85.348 295.4 C 85.699 295.971 86.015 296.559 86.366 297.183 C 83.624 298.281 80.787 299.11 77.892 299.663 Z M 73.751 288.174 L 75.699 300.038 C 72.796 300.476 69.858 300.63 66.926 300.502 C 67.242 299.163 67.488 297.879 67.839 296.631 C 68.391 294.368 69.421 292.256 70.856 290.44 C 71.611 289.441 72.609 288.66 73.751 288.174 Z M 71.453 328.779 C 74.226 327.682 77.091 326.846 80.014 326.281 L 81.98 338.145 C 81.059 338.116 80.156 337.884 79.331 337.467 C 77.369 336.477 75.677 335.013 74.4 333.203 C 73.365 331.812 72.47 330.313 71.453 328.779 Z M 94.261 292.848 C 92.431 294.229 90.454 295.397 88.366 296.327 C 86.74 292.966 84.41 290.006 81.541 287.657 C 86.19 288.149 90.612 289.948 94.314 292.848 L 94.261 292.848 Z M 76.26 338.199 C 73.559 338.555 65.4 335.202 63.576 332.936 L 69.348 329.546 C 70.418 331.205 71.366 332.758 72.4 334.256 C 73.482 335.763 74.783 337.093 76.26 338.199 Z M 57.979 298.95 C 60.559 294.972 64.172 291.798 68.417 289.78 C 66.417 292.96 65.146 296.557 64.698 300.305 C 62.43 300.131 60.188 299.7 58.014 299.021 L 57.979 298.95 Z M 89.559 335.844 C 90.538 334.291 91.304 332.611 91.84 330.849 C 92.331 329.064 92.753 327.281 93.208 325.497 C 95.449 325.711 97.66 326.165 99.806 326.852 C 97.336 330.788 93.82 333.931 89.664 335.915 L 89.559 335.844 Z" fill="#F2F4FA" style="" transform="matrix(-1, 0, 0, -1, 157.933399, 625.905396)"/>
  <path d="M 146.381 168.582 L 115.303 162.878 C 112.07 162.285 109.923 159.14 110.505 155.852 L 113.696 137.874 C 114.28 134.587 117.374 132.403 120.606 132.997 L 151.685 138.7 C 154.918 139.293 157.065 142.439 156.482 145.726 L 153.291 163.704 C 152.707 166.991 149.615 169.175 146.381 168.582 Z" fill="white" style="" transform="matrix(-1, 0, 0, -1, 266.987297, 301.578705)"/>
  <path d="M 119.572 132.041 C 117.972 132.044 116.423 132.616 115.196 133.659 C 113.968 134.702 113.139 136.15 112.852 137.75 L 109.658 155.716 C 109.346 157.529 109.749 159.394 110.78 160.907 C 111.812 162.42 113.388 163.458 115.167 163.797 L 146.24 169.488 C 147.122 169.653 148.029 169.638 148.905 169.445 C 149.782 169.252 150.614 168.885 151.35 168.365 C 152.087 167.844 152.716 167.18 153.2 166.412 C 153.684 165.643 154.013 164.785 154.17 163.886 L 157.363 145.921 C 157.675 144.108 157.273 142.242 156.241 140.729 C 155.21 139.216 153.633 138.178 151.854 137.839 L 120.782 132.148 C 120.383 132.077 119.977 132.041 119.572 132.041 Z M 147.451 167.723 C 147.146 167.748 146.841 167.748 146.538 167.723 L 115.483 162.013 C 114.827 161.893 114.202 161.643 113.642 161.275 C 113.081 160.909 112.598 160.434 112.218 159.878 C 111.838 159.321 111.57 158.694 111.429 158.032 C 111.288 157.37 111.276 156.685 111.396 156.019 L 114.571 138.071 C 114.688 137.403 114.933 136.767 115.295 136.197 C 115.657 135.627 116.127 135.136 116.677 134.753 C 117.22 134.361 117.836 134.084 118.487 133.94 C 119.138 133.796 119.812 133.788 120.466 133.915 L 151.538 139.606 C 152.194 139.726 152.82 139.976 153.38 140.343 C 153.94 140.71 154.424 141.185 154.804 141.741 C 155.184 142.298 155.451 142.925 155.593 143.587 C 155.734 144.249 155.745 144.934 155.626 145.6 L 152.45 163.565 C 152.194 164.911 151.441 166.105 150.345 166.902 C 149.494 167.5 148.484 167.818 147.451 167.812 L 147.451 167.723 Z" fill="#F2F4FA" style="" transform="matrix(-1, 0, 0, -1, 267.021126, 301.642639)"/>
  <path d="M 125.438 142.144 C 125.329 142.12 125.214 142.12 125.104 142.144 C 124.968 142.198 124.848 142.288 124.756 142.404 C 124.663 142.519 124.602 142.657 124.578 142.804 L 121.386 161.109 C 121.36 161.259 121.371 161.413 121.42 161.556 C 121.469 161.7 121.554 161.829 121.666 161.929 C 121.774 162.033 121.908 162.107 122.052 162.141 C 122.196 162.175 122.349 162.17 122.49 162.126 L 142.439 156.399 C 142.601 156.359 142.746 156.273 142.86 156.149 C 142.973 156.027 143.05 155.873 143.079 155.707 C 143.109 155.541 143.091 155.37 143.027 155.214 C 142.964 155.058 142.857 154.925 142.72 154.829 L 125.877 142.341 C 125.754 142.23 125.6 142.162 125.438 142.144 Z M 123.315 159.985 L 126.052 144.571 L 140.299 155.15 L 123.315 159.985 Z" fill="#F2F4FA" style="" transform="matrix(-1, 0, 0, -1, 264.465469, 304.28923)"/>
  <path d="M 165.872 254.166 L 101.167 254.166 L 101.167 217.914 L 165.872 217.914 L 165.872 254.166 Z" fill="white" style="" transform="matrix(-1, 0, 0, -1, 267.038994, 472.080002)"/>
  <path d="M 165.891 217.021 L 101.15 217.021 C 100.918 217.025 100.698 217.121 100.534 217.286 C 100.37 217.453 100.277 217.677 100.272 217.912 L 100.272 254.164 C 100.272 254.401 100.365 254.628 100.529 254.795 C 100.694 254.963 100.916 255.057 101.15 255.057 L 165.891 255.057 C 166.123 255.057 166.346 254.963 166.511 254.795 C 166.675 254.628 166.767 254.401 166.767 254.164 L 166.767 217.912 C 166.763 217.677 166.669 217.453 166.505 217.286 C 166.342 217.121 166.122 217.025 165.891 217.021 Z M 102.044 218.804 L 165.013 218.804 L 165.013 253.201 L 102.044 253.201 L 102.044 218.804 Z" fill="#F2F4FA" style="" transform="matrix(-1, 0, 0, -1, 267.039001, 472.078003)"/>
  <path d="M 133.519 216.935 C 133.342 216.933 133.17 216.99 133.028 217.096 L 100.657 239.7 C 100.561 239.766 100.479 239.852 100.417 239.95 C 100.353 240.049 100.31 240.16 100.289 240.276 C 100.268 240.392 100.269 240.511 100.293 240.626 C 100.317 240.742 100.363 240.851 100.428 240.948 C 100.495 241.045 100.579 241.129 100.676 241.193 C 100.773 241.257 100.882 241.302 100.996 241.324 C 101.109 241.345 101.227 241.343 101.341 241.319 C 101.454 241.294 101.561 241.247 101.657 241.181 L 133.519 218.898 L 165.362 241.252 C 165.458 241.319 165.565 241.366 165.679 241.39 C 165.793 241.415 165.91 241.416 166.024 241.394 C 166.138 241.373 166.246 241.328 166.344 241.265 C 166.441 241.2 166.525 241.117 166.591 241.02 C 166.657 240.923 166.703 240.813 166.727 240.698 C 166.751 240.582 166.752 240.464 166.731 240.347 C 166.71 240.232 166.666 240.121 166.604 240.022 C 166.54 239.923 166.458 239.838 166.363 239.771 L 134.01 217.168 C 133.876 217.035 133.703 216.954 133.519 216.935 Z" fill="#F2F4FA" style="" transform="matrix(-1, 0, 0, -1, 267.019997, 458.34462)"/>
  <path d="M 139.947 235.137 C 139.805 235.142 139.666 235.179 139.541 235.248 C 139.416 235.315 139.309 235.412 139.227 235.53 C 139.097 235.728 139.049 235.968 139.091 236.202 C 139.134 236.435 139.265 236.642 139.455 236.778 L 165.387 254.904 C 165.58 255.037 165.817 255.086 166.047 255.043 C 166.277 254.999 166.48 254.866 166.615 254.672 C 166.74 254.475 166.786 254.235 166.744 254.002 C 166.701 253.77 166.573 253.564 166.387 253.424 L 140.472 235.298 C 140.317 235.191 140.134 235.135 139.947 235.137 Z" fill="#F2F4FA" style="" transform="matrix(-1, 0, 0, -1, 305.835358, 490.195129)"/>
  <path d="M 127.066 235.079 C 126.891 235.083 126.721 235.139 126.575 235.24 L 100.662 253.42 C 100.468 253.555 100.336 253.761 100.293 253.995 C 100.251 254.23 100.301 254.472 100.434 254.668 C 100.567 254.865 100.77 254.999 101 255.043 C 101.231 255.086 101.468 255.036 101.662 254.9 L 127.576 236.774 C 127.766 236.637 127.896 236.431 127.939 236.197 C 127.982 235.963 127.933 235.722 127.803 235.526 C 127.726 235.395 127.618 235.287 127.49 235.209 C 127.361 235.131 127.217 235.087 127.066 235.079 Z" fill="#F2F4FA" style="" transform="matrix(-1, 0, 0, -1, 228.232727, 490.136993)"/>
  <path d="M 43.373 164.981 L 7.652 169.458 L 14.529 226.227 L 59.637 220.59 L 54.111 175.007 L 43.373 164.981 Z" fill="white" style="" transform="matrix(-1, 0, 0, -1, 67.289001, 391.208008)"/>
  <path d="M 43.338 164.082 L 43.215 164.082 L 7.511 168.579 C 7.282 168.605 7.071 168.724 6.926 168.908 C 6.782 169.091 6.714 169.326 6.739 169.56 L 13.652 226.328 C 13.665 226.445 13.701 226.559 13.758 226.663 C 13.814 226.766 13.891 226.857 13.981 226.929 C 14.073 227.003 14.178 227.056 14.29 227.088 C 14.402 227.119 14.519 227.128 14.634 227.113 L 59.743 221.457 C 59.859 221.446 59.973 221.409 60.075 221.351 C 60.178 221.293 60.268 221.214 60.339 221.119 C 60.477 220.93 60.54 220.694 60.514 220.458 L 54.988 174.894 C 54.967 174.68 54.867 174.482 54.707 174.341 L 43.952 164.332 C 43.872 164.25 43.776 164.185 43.671 164.142 C 43.565 164.099 43.451 164.078 43.338 164.082 Z M 8.599 170.238 L 43.04 165.92 L 53.251 175.429 L 58.62 219.798 L 15.249 225.151 L 8.599 170.238 Z" fill="#F2F4FA" style="" transform="matrix(-1, 0, 0, -1, 67.253658, 391.201614)"/>
  <path d="M 45.941 174.053 L 45.836 174.053 L 15.431 177.854 C 15.201 177.884 14.992 178.007 14.85 178.194 C 14.709 178.381 14.646 178.618 14.676 178.853 C 14.686 178.968 14.72 179.081 14.776 179.184 C 14.831 179.285 14.906 179.376 14.996 179.447 C 15.086 179.519 15.19 179.571 15.301 179.601 C 15.412 179.631 15.527 179.637 15.641 179.619 L 46.046 175.837 C 46.279 175.823 46.497 175.716 46.651 175.538 C 46.806 175.361 46.885 175.128 46.871 174.892 C 46.857 174.655 46.751 174.434 46.577 174.277 C 46.403 174.119 46.174 174.039 45.941 174.053 Z" fill="#F2F4FA" style="" transform="matrix(-1, 0, 0, -1, 61.541262, 353.680542)"/>
  <path d="M 47.01 183.191 L 16.552 187.009 C 16.437 187.023 16.326 187.06 16.225 187.118 C 16.124 187.176 16.034 187.253 15.963 187.346 C 15.891 187.438 15.838 187.545 15.807 187.659 C 15.775 187.772 15.766 187.891 15.78 188.008 C 15.794 188.125 15.83 188.239 15.887 188.341 C 15.944 188.444 16.021 188.534 16.111 188.608 C 16.203 188.68 16.307 188.734 16.418 188.766 C 16.53 188.798 16.648 188.808 16.762 188.793 L 47.167 184.975 C 47.401 184.961 47.618 184.854 47.772 184.677 C 47.927 184.499 48.006 184.266 47.993 184.03 C 47.978 183.793 47.873 183.572 47.698 183.414 C 47.524 183.257 47.296 183.177 47.063 183.191 L 47.01 183.191 Z" fill="#F2F4FA" style="" transform="matrix(-1, 0, 0, -1, 63.767992, 371.989258)"/>
  <path d="M 48.269 192.342 L 48.146 192.342 L 17.74 196.159 C 17.626 196.174 17.514 196.211 17.413 196.269 C 17.312 196.327 17.223 196.404 17.151 196.497 C 17.08 196.589 17.027 196.696 16.995 196.81 C 16.964 196.923 16.954 197.042 16.969 197.159 C 16.982 197.276 17.019 197.389 17.076 197.492 C 17.133 197.595 17.209 197.685 17.3 197.759 C 17.392 197.831 17.496 197.885 17.607 197.917 C 17.719 197.949 17.836 197.957 17.951 197.944 L 48.356 194.144 C 48.585 194.108 48.791 193.984 48.931 193.798 C 49.072 193.612 49.137 193.378 49.111 193.145 C 49.089 192.93 48.993 192.731 48.838 192.583 C 48.683 192.435 48.481 192.35 48.269 192.342 Z" fill="#F2F4FA" style="" transform="matrix(-1, 0, 0, -1, 66.078754, 390.291946)"/>
  <path d="M 49.264 201.51 L 49.158 201.51 L 18.771 205.31 C 18.539 205.341 18.329 205.464 18.184 205.65 C 18.04 205.837 17.973 206.074 17.998 206.31 C 18.009 206.429 18.044 206.543 18.1 206.648 C 18.155 206.752 18.232 206.844 18.323 206.917 C 18.416 206.991 18.521 207.045 18.634 207.075 C 18.748 207.105 18.865 207.112 18.981 207.095 L 49.386 203.277 C 49.619 203.26 49.836 203.151 49.989 202.971 C 50.141 202.792 50.218 202.559 50.202 202.322 C 50.186 202.086 50.078 201.866 49.901 201.71 C 49.726 201.554 49.496 201.476 49.264 201.493 L 49.264 201.51 Z" fill="#F2F4FA" style="" transform="matrix(-1, 0, 0, -1, 68.196941, 408.594788)"/>
  <path d="M 50.379 210.662 L 50.275 210.662 L 29.677 213.249 C 29.563 213.262 29.453 213.299 29.354 213.355 C 29.255 213.411 29.167 213.488 29.097 213.579 C 29.027 213.671 28.976 213.775 28.945 213.887 C 28.915 213.999 28.907 214.115 28.922 214.23 C 28.932 214.348 28.967 214.464 29.023 214.568 C 29.079 214.673 29.155 214.765 29.247 214.838 C 29.339 214.912 29.445 214.965 29.557 214.996 C 29.671 215.026 29.789 215.033 29.904 215.015 L 50.484 212.429 C 50.6 212.421 50.713 212.392 50.817 212.34 C 50.92 212.289 51.013 212.217 51.089 212.129 C 51.166 212.041 51.225 211.939 51.263 211.829 C 51.3 211.718 51.317 211.6 51.309 211.483 C 51.302 211.365 51.273 211.251 51.222 211.146 C 51.172 211.04 51.102 210.946 51.015 210.868 C 50.928 210.79 50.828 210.73 50.719 210.691 C 50.61 210.653 50.495 210.638 50.379 210.644 L 50.379 210.662 Z" fill="#F2F4FA" style="" transform="matrix(-1, 0, 0, -1, 80.225569, 425.667526)"/>
  <path d="M 13.178 215.024 L 14.529 226.227 L 23.916 225.05 L 13.178 215.024 Z" fill="white" style="" transform="matrix(-1, 0, 0, -1, 37.094001, 441.251007)"/>
  <path d="M 13.174 214.139 C 13.033 214.138 12.893 214.175 12.77 214.246 C 12.609 214.329 12.476 214.462 12.391 214.624 C 12.307 214.788 12.274 214.973 12.297 215.156 L 13.647 226.342 C 13.661 226.459 13.697 226.571 13.753 226.674 C 13.81 226.776 13.886 226.866 13.979 226.938 C 14.07 227.009 14.175 227.061 14.287 227.09 C 14.4 227.12 14.516 227.127 14.63 227.109 L 24.034 225.932 C 24.199 225.909 24.353 225.841 24.48 225.734 C 24.607 225.626 24.702 225.484 24.753 225.325 C 24.808 225.163 24.815 224.988 24.771 224.822 C 24.727 224.658 24.636 224.509 24.508 224.397 L 13.753 214.389 C 13.6 214.23 13.392 214.141 13.174 214.139 Z M 15.279 225.236 L 14.332 217.332 L 21.928 224.469 L 15.279 225.236 Z" fill="#F2F4FA" style="" transform="matrix(-1, 0, 0, -1, 37.089588, 441.257797)"/>
</svg>