<?xml version="1.0" encoding="utf-8"?>
<svg viewBox="-137.94 32.007 639.25 401.485" xmlns="http://www.w3.org/2000/svg">
  <path d="M 318.109 408.654 C 318.109 408.654 315.601 386.051 325.128 376.113 C 334.655 366.176 366.867 363.786 368.797 360.449 C 370.727 357.113 402.799 282.772 402.799 282.772 C 408.062 277.562 444.907 290.193 445.889 302.7 C 445.889 302.7 416.659 364.053 415.256 371.225 C 413.853 378.397 425.204 409.297 425.01 423.213 L 318.109 408.654 Z" style="fill: rgb(214, 214, 216);" transform="matrix(-1, 0, 0, -1, 763.699646, 704.780731)"/>
  <path d="M 424.916 423.212 C 425.11 409.296 413.759 378.413 415.162 371.224 C 416.565 364.034 445.795 302.699 445.795 302.699 C 444.935 292.173 418.741 281.575 407.319 281.575 C 405.689 281.4 404.053 281.824 402.705 282.771 C 402.705 282.771 370.633 357.112 368.703 360.448 C 366.773 363.785 334.63 366.175 325.033 376.112 C 315.437 386.05 318.015 408.653 318.015 408.653 L 425.04 423.212 L 424.916 423.212 Z M 425.04 424.995 L 424.811 424.995 L 317.788 410.438 C 317.397 410.388 317.034 410.207 316.756 409.922 C 316.48 409.637 316.306 409.265 316.261 408.868 C 316.156 407.904 313.787 385.3 323.84 374.881 C 330.156 368.334 345.123 364.997 356.053 362.571 C 360.597 361.555 366.246 360.287 367.299 359.467 C 369.265 355.792 392.335 302.521 401.143 282.075 C 401.241 281.865 401.372 281.672 401.53 281.504 C 403.192 280.2 405.283 279.594 407.372 279.809 C 419.355 279.809 446.62 290.799 447.602 302.556 C 447.627 302.875 447.567 303.196 447.427 303.483 C 439.321 320.504 418.057 365.926 416.934 371.599 C 416.337 374.65 418.688 384.087 421.057 393.115 C 423.759 403.818 426.829 415.808 426.723 423.264 C 426.718 423.516 426.662 423.764 426.556 423.992 C 426.45 424.219 426.298 424.421 426.11 424.585 C 425.792 424.862 425.387 425.014 424.969 425.014 L 425.04 424.995 Z" fill="#231F20" style="" transform="matrix(-1, 0, 0, -1, 763.552673, 704.780487)"/>
  <path d="M 327.832 335.947 C 324.565 331.5 322.672 326.166 322.393 320.622 C 322.165 311.987 332.92 293.701 332.92 293.701 L 357.132 309.632 L 344.851 338.569 L 327.832 335.947 Z" fill="white" style="" transform="matrix(-1, 0, 0, -1, 679.521423, 632.269989)"/>
  <path d="M 332.958 292.796 L 332.765 292.796 C 332.536 292.861 332.338 293.006 332.203 293.206 C 331.765 293.973 321.308 311.813 321.554 320.626 C 321.849 326.358 323.835 331.867 327.256 336.433 C 327.392 336.605 327.586 336.719 327.8 336.754 L 344.713 339.412 C 344.905 339.446 345.102 339.412 345.274 339.318 C 345.445 339.225 345.581 339.076 345.66 338.895 L 357.942 309.958 C 358.021 309.763 358.032 309.546 357.97 309.344 C 357.909 309.142 357.782 308.968 357.609 308.851 L 333.397 292.92 C 333.264 292.84 333.112 292.797 332.958 292.796 Z M 328.432 335.059 C 325.385 330.841 323.606 325.816 323.309 320.591 C 323.115 313.312 331.221 298.54 333.256 294.954 L 356.065 309.958 L 344.31 337.575 L 328.432 335.059 Z" fill="#231F20" style="" transform="matrix(-1, 0, 0, -1, 679.559601, 632.220856)"/>
  <path d="M 495.361 88.035 C 495.361 88.035 414.917 148.282 367.967 148.693 C 356.092 148.663 344.233 147.804 332.473 146.124 C 304.735 142.555 276.926 136.169 257.574 135.133 C 219.186 133.064 190.255 145.16 189.606 185.926 C 189.044 220.804 205.185 227.44 239.257 237.556 C 256.1 242.533 288.628 247.903 319.385 257.181 C 338.123 262.783 356.229 269.794 369.651 279.018 C 405.162 303.37 431.058 358.033 431.058 358.033 L 495.361 88.035 Z" style="fill: rgb(252, 252, 252);" transform="matrix(-1, 0, 0, -1, 684.95282, 446.067993)"/>
  <path d="M 495.249 87.328 C 495.061 87.327 494.878 87.382 494.722 87.488 C 479.923 98.333 464.586 108.397 448.772 117.639 C 414.91 137.263 386.961 147.844 367.925 147.968 C 356.06 147.947 344.212 147.077 332.466 145.364 C 321.08 143.883 309.763 141.956 298.815 140.012 C 283.464 137.389 268.989 134.909 257.515 134.302 C 232.583 132.946 214.127 137.763 202.722 148.574 C 193.617 157.209 188.879 169.787 188.686 186.04 C 188.108 221.721 205.53 228.625 238.97 238.544 C 246.093 240.649 255.954 242.809 267.375 245.324 C 283.289 248.891 301.324 252.763 319.08 258.08 C 341.011 264.627 357.381 271.746 369.118 279.791 C 404.015 303.734 430.034 357.915 430.297 358.469 C 430.375 358.636 430.502 358.776 430.661 358.867 C 430.82 358.958 431.003 358.997 431.184 358.977 C 431.366 358.957 431.536 358.88 431.673 358.758 C 431.81 358.634 431.905 358.471 431.947 358.29 L 496.144 88.417 C 496.186 88.239 496.174 88.053 496.108 87.884 C 496.042 87.713 495.925 87.57 495.775 87.471 C 495.622 87.361 495.435 87.311 495.249 87.328 Z M 366.275 149.77 L 367.855 149.77 C 387.487 149.592 414.98 139.298 449.596 119.156 C 470.738 106.845 488.195 94.447 493.827 90.325 L 430.666 355.56 C 425.402 345.106 401.243 299.826 369.978 278.382 C 358.082 270.211 341.555 263.022 319.466 256.421 C 301.64 251.069 283.569 247.126 267.62 243.629 C 256.234 241.131 246.409 238.972 239.339 236.885 C 205.846 226.948 189.757 220.633 190.318 186.129 C 190.581 170.465 195.125 158.316 203.863 150.02 C 214.917 139.547 232.917 134.89 257.374 136.211 C 268.709 136.818 283.165 139.28 298.482 141.903 C 309.43 143.686 320.764 145.703 332.186 147.254 C 343.495 148.849 354.894 149.701 366.311 149.805 L 366.275 149.77 Z" fill="#231F20" style="" transform="matrix(-1, 0, 0, -1, 684.840607, 446.306854)"/>
  <path d="M 221.852 53.893 C 192.446 47.97 158.689 88.022 138.022 148.608 C 127.597 179.391 121.329 211.469 119.389 243.966 C 115.757 308.423 131.899 358.858 161.462 364.835 C 198.026 372.185 241.186 308.531 257.871 222.681 C 274.556 136.833 258.433 61.243 221.852 53.893 Z" style="fill: rgb(214, 214, 216);" transform="matrix(-1, 0, 0, -1, 383.337891, 418.726273)"/>
  <path d="M 167.381 365.65 C 202.576 365.65 242.14 304.243 257.948 222.926 C 274.633 137.042 258.51 61.488 221.929 54.137 C 220.004 53.745 218.047 53.548 216.085 53.548 C 188.154 53.548 157.468 92.245 138.098 148.852 C 127.674 179.635 121.406 211.714 119.466 244.21 C 115.834 308.668 131.976 359.103 161.539 365.079 C 163.462 365.466 165.42 365.657 167.381 365.65 Z M 167.381 367.435 C 165.308 367.439 163.239 367.236 161.205 366.828 C 131.379 360.834 113.834 311.523 117.712 244.103 C 119.672 211.444 125.969 179.206 136.432 148.264 C 156.503 89.64 187.768 51.765 216.085 51.765 C 218.16 51.766 220.228 51.975 222.262 52.389 C 240.684 56.082 254.667 76.081 261.632 108.693 C 268.475 140.807 267.79 181.501 259.667 223.265 C 252.018 262.657 238.438 299.07 221.419 325.759 C 204.401 352.448 185.084 367.435 167.381 367.435 Z" fill="#231F20" style="" transform="matrix(-1, 0, 0, -1, 383.484238, 419.200043)"/>
  <path d="M 264.019 196.79 L 204.559 173.972 C 194.135 204.755 187.867 236.833 185.926 269.33 L 253.299 270.347 L 264.019 196.79 Z" style="fill: rgb(37, 40, 91);" transform="matrix(-1, 0, 0, -1, 449.945007, 444.318985)"/>
  <path d="M 204.552 173.189 C 204.425 173.162 204.294 173.162 204.166 173.189 C 204.06 173.24 203.965 173.311 203.887 173.4 C 203.809 173.49 203.748 173.593 203.71 173.706 C 193.276 204.568 186.996 236.722 185.043 269.296 C 185.035 269.415 185.051 269.536 185.09 269.649 C 185.13 269.763 185.19 269.867 185.27 269.956 C 185.35 270.046 185.448 270.119 185.556 270.168 C 185.665 270.217 185.783 270.242 185.902 270.241 L 253.274 271.259 C 253.484 271.257 253.687 271.177 253.845 271.037 C 254.003 270.896 254.105 270.702 254.135 270.492 L 264.89 197.006 C 264.915 196.805 264.873 196.601 264.771 196.426 C 264.67 196.252 264.514 196.117 264.328 196.042 L 204.851 173.224 C 204.755 173.194 204.653 173.182 204.552 173.189 Z M 186.85 268.564 C 188.841 236.772 194.976 205.389 205.096 175.241 L 262.994 197.47 L 252.467 269.546 L 186.85 268.564 Z" fill="#231F20" style="" transform="matrix(-1, 0, 0, -1, 449.938065, 444.42775)"/>
  <path d="M 196.949 174.048 C 206.241 175.49 211.304 193.107 208.257 213.395 C 205.211 233.685 195.21 248.963 185.918 247.52 C 176.627 246.077 171.564 228.461 174.61 208.172 C 177.657 187.884 187.658 172.606 196.949 174.048 Z" fill="white" style="" transform="matrix(-1, 0, 0, -1, 382.867477, 421.56813)"/>
  <path d="M 195.725 173.087 C 186.251 173.087 176.777 187.948 173.759 208.054 C 172.231 217.074 172.59 226.32 174.812 235.19 C 177.057 242.968 180.952 247.677 185.812 248.409 C 190.672 249.141 195.76 245.876 200.182 239.115 C 204.902 231.329 207.951 222.616 209.129 213.548 C 212.305 192.462 207.007 174.728 197.094 173.194 C 196.64 173.122 196.183 173.087 195.725 173.087 Z M 187.163 246.732 C 186.801 246.769 186.437 246.769 186.076 246.732 C 181.935 246.107 178.532 241.844 176.495 234.762 C 174.345 226.147 174.004 217.168 175.496 208.411 C 178.461 188.643 188.023 173.711 196.83 175.049 C 205.638 176.387 210.375 193.603 207.357 213.37 C 206.192 222.191 203.201 230.661 198.585 238.223 C 195.041 243.753 190.988 246.732 187.163 246.732 Z" fill="#231F20" style="" transform="matrix(-1, 0, 0, -1, 382.878357, 421.596939)"/>
  <path d="M 472.928 225.187 C 472.77 225.184 472.614 225.227 472.478 225.309 C 472.341 225.391 472.23 225.509 472.156 225.652 C 459.594 249.397 457.032 268.701 457.085 280.707 C 457.085 293.784 460.173 301.134 460.313 301.438 C 460.355 301.55 460.418 301.652 460.5 301.739 C 460.582 301.826 460.68 301.895 460.788 301.942 C 460.897 301.989 461.014 302.014 461.132 302.014 C 461.25 302.014 461.367 301.99 461.476 301.943 C 461.585 301.896 461.683 301.828 461.765 301.741 C 461.847 301.654 461.91 301.552 461.953 301.44 C 461.995 301.328 462.014 301.209 462.01 301.088 C 462.006 300.969 461.978 300.85 461.928 300.742 C 461.804 300.456 450.049 271.18 473.699 226.49 C 473.754 226.387 473.788 226.274 473.799 226.158 C 473.81 226.041 473.797 225.925 473.764 225.813 C 473.729 225.702 473.673 225.599 473.599 225.51 C 473.525 225.42 473.434 225.347 473.331 225.294 C 473.209 225.224 473.069 225.186 472.928 225.187 Z" fill="#F2F4FA" style="" transform="matrix(-1, 0, 0, -1, 930.887024, 527.200851)"/>
  <path d="M 340.853 59.491 C 340.853 59.491 338.029 73.121 340.362 73.21 C 342.696 73.299 344.556 66.484 344.556 66.484 C 344.556 66.484 350.766 80.204 352.258 78.419 C 353.749 76.636 356.136 71.069 355.486 69.374 C 354.837 67.68 350.433 54.585 350.433 54.585 L 340.853 59.491 Z" style="fill: rgb(244, 162, 140);" transform="matrix(-1, 0, 0, -1, 695.034424, 133.164207)"/>
  <path d="M 350.432 53.715 C 350.298 53.708 350.164 53.739 350.047 53.804 L 340.467 58.728 C 340.348 58.791 340.245 58.88 340.163 58.988 C 340.081 59.095 340.023 59.22 339.993 59.352 C 339.414 62.153 337.642 71.483 339.221 73.535 C 339.35 73.713 339.516 73.859 339.707 73.964 C 339.898 74.07 340.11 74.13 340.327 74.142 L 340.414 74.142 C 342.396 74.142 343.923 71.216 344.713 68.951 C 346.853 73.465 349.976 79.226 351.73 79.476 C 351.949 79.508 352.172 79.483 352.378 79.402 C 352.584 79.32 352.766 79.186 352.906 79.013 C 354.327 77.228 357.152 71.377 356.292 69.075 C 355.661 67.416 351.292 54.446 351.239 54.303 C 351.197 54.185 351.132 54.076 351.048 53.984 C 350.963 53.892 350.861 53.819 350.748 53.769 C 350.647 53.733 350.54 53.716 350.432 53.715 Z M 341.66 60.137 L 349.959 55.856 C 351.012 58.942 354.17 68.344 354.696 69.718 C 355.116 70.806 353.38 75.498 351.836 77.586 C 350.59 76.586 347.625 71.074 345.397 66.15 C 345.323 65.981 345.197 65.842 345.039 65.752 C 344.881 65.662 344.699 65.626 344.52 65.65 C 344.341 65.662 344.171 65.731 344.033 65.845 C 343.894 65.961 343.795 66.116 343.748 66.293 C 342.993 69.057 341.537 72.091 340.572 72.34 C 339.993 71.324 340.467 65.864 341.625 60.137 L 341.66 60.137 Z" style="fill: rgb(244, 162, 140);" transform="matrix(-1, 0, 0, -1, 695.033569, 133.203526)"/>
  <path d="M 341.146 101.641 C 341.146 101.641 379.587 98.59 387.552 103.033 L 408.799 135.663 L 425.396 127.707 C 425.396 127.707 413.799 92.614 404.342 82.374 C 389.061 65.942 340.409 73.007 340.409 73.007 L 341.146 101.641 Z" style="fill: rgb(242, 239, 161);" transform="matrix(-1, 0, 0, -1, 765.804993, 207.159805)"/>
  <path d="M 420.636 104.793 C 420.636 104.793 399.583 140.011 398.776 164.649 C 397.969 189.286 413.531 192.694 418.917 193.693 C 424.303 194.692 452.761 202.077 464.831 190.124 C 476.902 178.171 481.534 114.677 481.534 114.677 L 420.636 104.793 Z" style="fill: rgb(240, 239, 159);" transform="matrix(-1, 0, 0, -1, 880.279755, 301.65538)"/>
  <path d="M 341.055 278.075 C 341.055 278.075 355.6 273.918 378.584 261.787 C 389.111 256.22 402.971 185.733 402.971 185.733 C 402.971 185.733 402.269 174.047 389.058 174.279 L 345.582 249.53 C 345.582 249.53 330.002 277.095 341.055 278.075 Z" style="fill: rgb(37, 40, 91);" transform="matrix(-1, 0, 0, -1, 740.063751, 452.350616)"/>
  <path d="M 389.43 173.317 L 389.027 173.317 C 388.876 173.318 388.728 173.359 388.598 173.438 C 388.469 173.516 388.362 173.629 388.29 173.764 L 344.814 248.907 C 344.34 249.746 333.375 269.335 336.936 276.311 C 337.323 277.061 337.898 277.695 338.604 278.146 C 339.309 278.598 340.12 278.851 340.954 278.88 C 341.064 278.898 341.177 278.898 341.287 278.88 C 341.427 278.88 356.183 274.562 378.973 262.52 C 383.588 260.094 389.167 246.464 395.571 221.861 C 400.29 203.718 403.782 186.038 403.817 185.859 C 403.826 185.783 403.826 185.704 403.817 185.628 C 403.817 185.485 402.923 173.317 389.43 173.317 Z M 340.971 277.096 C 340.457 277.071 339.958 276.91 339.524 276.628 C 339.09 276.346 338.736 275.955 338.498 275.49 C 335.901 270.406 343.27 255.223 346.34 249.8 L 389.536 175.102 C 400.764 175.102 401.958 184.432 402.08 185.609 C 398.221 205.234 386.5 256.526 378.166 260.932 C 366.266 267.434 353.818 272.843 340.971 277.096 Z" fill="#231F20" style="" transform="matrix(-1, 0, 0, -1, 740.049591, 452.210495)"/>
  <path d="M 382.951 290.657 C 382.951 290.657 432.288 295.135 443.657 298.239 C 443.657 298.239 444.323 298.239 454.675 283.307 C 465.027 268.375 461.254 194.337 461.254 194.337 C 461.254 194.337 451.481 180.973 442.446 181.633 L 422.34 263.183 C 422.34 263.183 404.584 260.506 393.846 266.519 C 386.303 270.765 385.355 281.63 382.951 290.657 Z" style="fill: rgb(37, 40, 91);" transform="matrix(-1, 0, 0, -1, 844.875671, 479.848343)"/>
  <path d="M 443.029 180.756 L 442.31 180.756 C 442.124 180.767 441.947 180.839 441.804 180.962 C 441.662 181.083 441.562 181.25 441.521 181.435 L 421.607 262.217 C 417.993 261.77 403.062 260.326 393.359 265.785 C 386.869 269.352 385.044 277.488 383.272 285.284 C 382.886 287.068 382.483 288.853 382.044 290.458 C 382.007 290.584 381.999 290.717 382.02 290.847 C 382.043 290.977 382.092 291.1 382.167 291.207 C 382.241 291.311 382.335 291.397 382.444 291.462 C 382.552 291.526 382.673 291.567 382.798 291.582 C 383.29 291.582 432.205 296.077 443.363 299.147 C 443.468 299.165 443.574 299.165 443.678 299.147 C 444.099 299.147 444.748 299.039 455.311 283.839 C 465.873 268.64 462.224 197.349 462.066 194.316 C 462.053 194.141 461.992 193.975 461.89 193.834 C 461.487 193.245 452.223 180.756 443.029 180.756 Z M 422.274 264.126 C 422.471 264.128 422.664 264.061 422.82 263.939 C 422.976 263.815 423.087 263.643 423.134 263.448 L 443.065 182.541 C 450.749 182.541 459.083 193.084 460.329 194.708 C 460.556 199.685 463.627 268.835 453.89 282.84 C 446.381 293.634 444.03 296.542 443.363 297.308 C 432.117 294.436 391.272 290.583 384.027 289.904 C 384.377 288.531 384.693 287.122 385.026 285.694 C 386.781 278.273 388.535 270.601 394.237 267.355 C 404.589 261.557 422.011 264.089 422.186 264.126 L 422.274 264.126 Z" fill="#231F20" style="" transform="matrix(-1, 0, 0, -1, 844.809784, 479.916519)"/>
  <path d="M 415.194 55.842 C 414.316 56.02 413.264 62.978 413.088 63.727 C 411.938 67.719 411.58 71.903 412.036 76.037 C 412.169 78.514 412.879 80.923 414.106 83.067 C 414.742 84.122 415.711 84.926 416.856 85.348 C 418 85.769 419.251 85.783 420.404 85.386 C 421.034 84.925 421.773 84.642 422.545 84.565 C 423.107 84.694 423.623 84.978 424.036 85.386 C 425.859 86.899 427.966 88.022 430.227 88.684 C 432.489 89.346 434.859 89.535 437.195 89.239 C 439.525 88.898 441.717 87.912 443.534 86.389 C 445.35 84.866 446.72 82.865 447.493 80.605 C 447.318 81.55 448.634 82.192 449.494 81.764 C 450.289 81.23 450.855 80.407 451.073 79.463 C 452.195 76.812 452.37 73.845 451.565 71.078 C 450.424 68.241 447.371 68.116 444.546 68.116 C 436.493 68.081 423.808 54.022 415.194 55.842 Z" style="fill: rgb(50, 54, 129);" transform="matrix(-1, 0, 0, -1, 863.907196, 145.054249)"/>
  <path d="M 416.716 54.795 C 416.126 54.795 415.539 54.855 414.962 54.974 C 413.997 55.17 413.453 56.365 412.347 62.609 C 412.347 63.056 412.207 63.395 412.172 63.537 C 411.014 67.631 410.662 71.918 411.136 76.15 C 411.299 78.762 412.062 81.297 413.365 83.554 C 414.108 84.783 415.244 85.715 416.583 86.193 C 417.922 86.67 419.381 86.664 420.716 86.177 C 420.922 86.084 421.121 85.977 421.313 85.855 C 421.636 85.627 422.009 85.486 422.4 85.445 C 422.767 85.563 423.103 85.765 423.383 86.034 C 425.301 87.64 427.521 88.831 429.908 89.533 C 432.294 90.235 434.796 90.435 437.261 90.119 C 439.464 89.777 441.555 88.905 443.362 87.577 C 445.168 86.25 446.637 84.504 447.648 82.483 C 447.984 82.651 448.353 82.738 448.727 82.738 C 449.1 82.738 449.47 82.651 449.805 82.483 C 450.314 82.177 450.755 81.768 451.105 81.285 C 451.454 80.8 451.705 80.249 451.84 79.665 C 453.052 76.828 453.214 73.641 452.297 70.691 C 450.876 67.123 447.033 67.123 444.524 67.123 C 441.016 67.123 436.348 64.161 431.787 61.289 C 426.664 58.203 421.348 54.795 416.716 54.795 Z M 415.505 56.579 C 419.821 55.83 425.453 59.38 430.91 62.806 C 435.875 65.946 440.577 68.889 444.542 68.907 C 447.384 68.907 449.805 69.103 450.7 71.316 C 451.426 73.878 451.246 76.617 450.192 79.059 C 450.037 79.774 449.632 80.408 449.051 80.842 C 448.966 80.881 448.873 80.902 448.78 80.902 C 448.685 80.902 448.593 80.881 448.507 80.842 C 448.42 80.817 448.345 80.76 448.297 80.681 C 448.335 80.455 448.286 80.223 448.163 80.031 C 448.039 79.839 447.849 79.702 447.63 79.647 C 447.414 79.596 447.188 79.63 446.995 79.743 C 446.803 79.856 446.66 80.038 446.595 80.253 C 445.879 82.361 444.603 84.227 442.909 85.644 C 441.216 87.06 439.169 87.974 436.998 88.282 C 434.78 88.567 432.53 88.386 430.384 87.75 C 428.239 87.116 426.244 86.039 424.523 84.589 C 423.978 84.072 423.294 83.731 422.558 83.608 C 421.815 83.585 421.084 83.805 420.47 84.232 L 419.979 84.5 C 419.007 84.816 417.958 84.79 417.002 84.424 C 416.046 84.058 415.241 83.374 414.715 82.483 C 413.586 80.442 412.926 78.167 412.786 75.83 C 412.346 71.815 412.692 67.753 413.803 63.876 C 413.803 63.716 413.803 63.358 413.979 62.859 C 414.258 60.749 414.752 58.675 415.453 56.668 L 415.505 56.579 Z" fill="#231F20" style="" transform="matrix(-1, 0, 0, -1, 863.815247, 145.05954)"/>
  <path d="M 437.269 86.314 L 436.672 73.041 C 435.577 70.95 433.772 69.336 431.593 68.498 C 429.413 67.661 427.009 67.659 424.829 68.491 C 416.39 71.113 415.636 77.412 415.636 77.412 L 417.144 101.978 C 417.144 101.978 424.285 105.831 426.443 121.084 C 426.443 121.084 445.076 121.87 444.69 114.68 C 444.69 114.68 446.445 101.442 445.234 94.735 C 444.023 88.026 437.391 86.403 437.269 86.314 Z" style="fill: rgb(244, 162, 140);" transform="matrix(-1, 0, 0, -1, 861.296112, 188.977921)"/>
  <path d="M 428.434 66.998 C 427.148 67.009 425.871 67.214 424.644 67.605 C 415.749 70.37 414.854 76.989 414.819 77.256 L 416.329 101.983 C 416.337 102.137 416.385 102.286 416.468 102.414 C 416.552 102.542 416.667 102.646 416.802 102.715 C 416.802 102.715 423.574 106.622 425.575 121.162 C 425.606 121.369 425.708 121.559 425.861 121.698 C 426.015 121.838 426.21 121.919 426.416 121.929 C 426.961 121.929 440.014 122.465 444.207 118.129 C 444.679 117.674 445.047 117.117 445.283 116.501 C 445.52 115.884 445.619 115.221 445.575 114.561 C 445.575 114.169 447.33 101.27 446.102 94.472 C 445.67 92.402 444.705 90.485 443.305 88.918 C 441.906 87.351 440.122 86.189 438.137 85.552 L 437.54 72.885 C 437.558 72.774 437.558 72.659 437.54 72.546 C 436.642 70.884 435.326 69.495 433.725 68.52 C 432.125 67.545 430.299 67.02 428.434 66.998 Z M 418.048 101.413 L 416.504 77.31 C 416.504 77.31 417.328 71.726 425.084 69.318 C 427.032 68.542 429.191 68.511 431.16 69.233 C 433.129 69.955 434.773 71.38 435.786 73.243 L 436.382 86.319 C 436.391 86.455 436.427 86.589 436.491 86.709 C 436.554 86.829 436.643 86.933 436.75 87.016 C 436.867 87.083 436.991 87.137 437.119 87.176 C 438.89 87.681 440.497 88.658 441.771 90.007 C 443.045 91.356 443.941 93.027 444.365 94.848 C 445.541 101.342 443.839 114.472 443.821 114.472 C 443.856 114.906 443.796 115.343 443.644 115.75 C 443.493 116.158 443.253 116.526 442.944 116.827 C 440.102 119.753 431.189 120.198 427.153 120.109 C 425.276 107.193 419.679 102.519 418.048 101.413 Z" style="fill: rgb(244, 162, 140);" transform="matrix(-1, 0, 0, -1, 861.357147, 188.948059)"/>
  <path d="M 449.259 88.278 C 449.012 89.49 448.399 90.595 447.504 91.435 C 446.642 92.197 445.657 92.802 444.591 93.22 C 444.046 93.499 443.447 93.652 442.836 93.665 C 442.4 93.631 441.975 93.504 441.591 93.29 C 440.638 92.885 439.859 92.144 439.398 91.203 C 439.114 90.41 439.03 89.558 439.152 88.724 C 439.201 87.814 439.365 86.914 439.644 86.048 C 439.947 85.186 440.415 84.395 441.022 83.719 C 441.63 83.043 442.362 82.497 443.178 82.112 C 443.994 81.727 444.878 81.511 445.777 81.475 C 446.676 81.441 447.573 81.588 448.416 81.908" style="fill: rgb(244, 162, 140);" transform="matrix(-1, 0, 0, -1, 888.356659, 175.135201)"/>
  <path d="M 425.256 90.695 C 425.256 90.695 429.589 83.773 428.502 82.613 C 427.414 81.452 424.431 82.309 424.431 82.309" style="fill: rgb(244, 162, 140);" transform="matrix(-1, 0, 0, -1, 853.107971, 172.699402)"/>
  <path d="M 426.595 81.163 C 425.805 81.176 425.02 81.295 424.262 81.519 C 424.147 81.552 424.039 81.606 423.944 81.68 C 423.849 81.754 423.77 81.847 423.711 81.951 C 423.652 82.056 423.613 82.173 423.598 82.293 C 423.582 82.414 423.59 82.535 423.621 82.653 C 423.653 82.77 423.706 82.88 423.779 82.976 C 423.851 83.072 423.943 83.152 424.046 83.213 C 424.15 83.274 424.263 83.313 424.382 83.328 C 424.5 83.344 424.621 83.335 424.735 83.304 C 425.736 83.018 427.438 82.84 427.929 83.304 C 427.194 85.799 426.062 88.156 424.577 90.28 C 424.467 90.478 424.434 90.712 424.488 90.934 C 424.541 91.155 424.677 91.348 424.865 91.472 C 425.054 91.595 425.282 91.64 425.503 91.598 C 425.724 91.555 425.92 91.429 426.051 91.243 C 429.174 86.248 430.227 83.161 429.192 82.055 C 428.84 81.737 428.429 81.494 427.983 81.34 C 427.537 81.187 427.065 81.127 426.595 81.163 Z" fill="#231F20" style="" transform="matrix(-1, 0, 0, -1, 853.167023, 172.76619)"/>
  <path d="M 433.195 78.601 C 433.805 78.614 434.286 79.334 434.269 80.211 C 434.252 81.088 433.742 81.789 433.133 81.776 C 432.522 81.764 432.041 81.043 432.059 80.166 C 432.076 79.289 432.585 78.589 433.195 78.601 Z" fill="#231F20" style="" transform="matrix(-1, 0, 0, -1, 866.327942, 160.377022)"/>
  <path d="M 424.095 79.789 C 424.704 79.804 425.183 80.526 425.163 81.403 C 425.142 82.279 424.631 82.979 424.02 82.964 C 423.411 82.949 422.932 82.227 422.952 81.35 C 422.972 80.474 423.484 79.774 424.095 79.789 Z" fill="#231F20" style="" transform="matrix(-1, 0, 0, -1, 848.11499, 162.752998)"/>
  <path d="M 428.993 89.261 C 427.882 89.244 426.779 89.45 425.747 89.867 C 424.45 90.466 423.312 91.371 422.427 92.506 C 421.542 93.642 420.936 94.975 420.66 96.397 C 420.628 96.514 420.62 96.636 420.636 96.757 C 420.651 96.877 420.69 96.993 420.749 97.098 C 420.808 97.203 420.888 97.295 420.982 97.37 C 421.077 97.443 421.185 97.498 421.3 97.529 C 421.415 97.562 421.535 97.569 421.654 97.554 C 421.772 97.538 421.886 97.499 421.99 97.438 C 422.093 97.378 422.183 97.297 422.257 97.201 C 422.329 97.105 422.383 96.996 422.414 96.878 C 422.63 95.726 423.11 94.641 423.814 93.712 C 424.517 92.782 425.426 92.033 426.466 91.526 C 430.38 89.921 435.415 92.865 435.467 92.9 C 435.667 93.017 435.905 93.049 436.129 92.989 C 436.352 92.928 436.543 92.781 436.66 92.579 C 436.776 92.372 436.809 92.128 436.749 91.898 C 436.69 91.668 436.545 91.47 436.344 91.348 C 434.092 90.068 431.572 89.354 428.993 89.261 Z" fill="#231F20" style="" transform="matrix(-1, 0, 0, -1, 857.406372, 186.821548)"/>
  <path d="M 436.888 110.322 C 436.888 110.322 428.694 108.805 424.027 111.803 C 424.027 111.803 428.817 100.421 436.484 101.223 L 436.888 110.322 Z" fill="#231F20" style="" transform="matrix(-1, 0, 0, -1, 860.915009, 212.985535)"/>
  <path d="M 435.638 100.36 C 427.954 100.36 423.357 111.064 423.164 111.528 C 423.092 111.701 423.076 111.894 423.121 112.078 C 423.165 112.262 423.266 112.425 423.41 112.545 C 423.558 112.662 423.74 112.726 423.927 112.726 C 424.115 112.726 424.297 112.662 424.445 112.545 C 428.761 109.762 436.604 111.171 436.726 111.189 C 436.856 111.217 436.989 111.213 437.117 111.178 C 437.245 111.144 437.363 111.081 437.463 110.993 C 437.565 110.906 437.645 110.796 437.696 110.672 C 437.748 110.549 437.77 110.413 437.761 110.279 L 437.34 101.181 C 437.334 100.967 437.252 100.764 437.11 100.607 C 436.969 100.45 436.776 100.349 436.568 100.324 L 435.638 100.36 Z M 425.918 109.976 C 427.673 107.033 431.041 102.198 435.585 102.144 L 435.919 109.28 C 432.574 108.81 429.169 109.047 425.918 109.976 Z" fill="#231F20" style="" transform="matrix(-1, 0, 0, -1, 860.858795, 213.049995)"/>
  <path d="M 450.387 192.739 C 437.668 185.318 421.193 121.663 431.088 115.579 C 446.669 106.107 495.039 123.411 495.039 123.411 L 488.776 142.412 C 488.776 142.412 456.932 137.666 455.704 144.196 C 454.476 150.726 469.915 183.98 466.88 188.279 C 463.844 192.579 450.387 192.739 450.387 192.739 Z" style="fill: rgb(241, 239, 160);" transform="matrix(-1, 0, 0, -1, 923.102081, 305.483635)"/>
  <path d="M 384.714 177.723 C 390.058 178.043 395.353 178.953 400.504 180.435 C 404.283 181.855 408.219 182.797 412.224 183.236 C 417.55 183.601 422.897 182.996 428.014 181.452 C 428.219 181.412 428.407 181.313 428.559 181.167 C 429.103 180.56 428.067 179.775 427.26 179.65 C 425.161 179.329 423.026 179.329 420.927 179.65 C 426.173 178.366 431.225 176.367 435.945 173.709 C 436.489 173.405 437.103 172.906 436.927 172.317 C 436.752 171.729 435.717 171.693 435.033 171.907 L 422.996 175.85 C 426.092 175.006 429.027 173.643 431.681 171.818 C 432.067 171.55 432.488 171.194 432.453 170.73 C 432.453 169.927 431.208 169.927 430.471 170.213 C 426.787 171.55 423.224 173.21 419.821 175.172 L 427.523 170.534 C 427.681 169.944 427.12 169.374 426.541 169.284 C 425.931 169.243 425.322 169.379 424.786 169.677 L 416.383 173.477 L 421.646 170.569 C 422.471 170.105 423.4 169.338 423.172 168.411 C 422.944 167.483 421.313 167.465 420.242 167.803 C 415.981 169.101 411.591 169.915 407.154 170.23 C 405.578 170.553 403.971 170.691 402.364 170.641 C 399.959 170.034 397.611 169.217 395.346 168.196 L 384.977 164.414" style="fill: rgb(244, 162, 140);" transform="matrix(-1, 0, 0, -1, 821.671722, 347.75322)"/>
  <path d="M 384.876 163.445 C 384.689 163.451 384.51 163.523 384.369 163.647 C 384.228 163.771 384.134 163.942 384.103 164.13 C 384.072 164.317 384.106 164.51 384.198 164.674 C 384.292 164.839 384.438 164.966 384.612 165.034 L 394.981 168.816 C 395.666 169.047 396.367 169.351 397.07 169.637 C 398.679 170.386 400.369 170.943 402.105 171.296 C 403.277 171.424 404.461 171.364 405.614 171.117 C 406.125 171.019 406.64 170.947 407.157 170.903 C 411.658 170.595 416.108 169.762 420.422 168.423 C 420.992 168.231 421.606 168.231 422.177 168.423 C 422.24 168.459 422.289 168.515 422.316 168.584 C 422.316 168.887 421.931 169.368 421.159 169.797 L 415.895 172.705 C 415.713 172.804 415.576 172.97 415.514 173.171 C 415.452 173.371 415.469 173.588 415.562 173.775 C 415.649 173.965 415.807 174.113 416.001 174.186 C 416.195 174.259 416.408 174.253 416.597 174.168 L 425.001 170.493 C 425.383 170.279 425.811 170.163 426.247 170.154 L 426.405 170.154 L 419.247 174.471 C 419.156 174.525 419.077 174.595 419.014 174.68 C 418.951 174.765 418.905 174.862 418.879 174.964 C 418.853 175.067 418.847 175.175 418.861 175.28 C 418.877 175.385 418.912 175.486 418.966 175.578 C 419.072 175.763 419.246 175.898 419.449 175.955 C 419.652 176.01 419.869 175.984 420.054 175.88 C 423.414 173.935 426.937 172.294 430.58 170.975 C 430.86 170.868 431.161 170.832 431.457 170.868 L 431.089 171.135 C 429.276 172.381 427.326 173.41 425.282 174.203 L 422.597 175.078 C 422.4 175.144 422.235 175.284 422.137 175.47 C 422.04 175.656 422.016 175.873 422.071 176.077 C 422.132 176.282 422.268 176.454 422.451 176.561 C 422.633 176.667 422.849 176.698 423.054 176.648 C 423.983 176.38 424.914 176.077 425.809 175.738 L 435.124 172.687 C 435.428 172.602 435.75 172.602 436.054 172.687 C 436.054 172.687 435.809 172.866 435.405 173.079 C 430.746 175.706 425.759 177.68 420.58 178.949 C 420.378 178.996 420.203 179.121 420.091 179.298 C 419.981 179.474 419.941 179.689 419.984 179.895 C 420.026 180.1 420.144 180.281 420.314 180.401 C 420.483 180.52 420.691 180.568 420.896 180.537 C 422.919 180.225 424.977 180.225 427.001 180.537 C 427.202 180.563 427.394 180.637 427.562 180.751 C 422.578 182.235 417.373 182.802 412.194 182.428 C 408.743 182.074 405.349 181.289 402.088 180.09 L 400.666 179.645 C 395.456 178.153 390.103 177.239 384.7 176.915 C 384.487 176.901 384.276 176.97 384.113 177.109 C 383.95 177.249 383.846 177.448 383.824 177.665 C 383.808 177.879 383.877 178.092 384.015 178.255 C 384.154 178.419 384.349 178.521 384.56 178.539 C 389.85 178.85 395.091 179.741 400.193 181.197 L 401.596 181.643 C 404.99 182.896 408.528 183.705 412.123 184.051 C 417.519 184.428 422.937 183.824 428.124 182.268 C 428.475 182.184 428.796 182.005 429.054 181.75 C 429.225 181.568 429.341 181.341 429.39 181.095 C 429.441 180.849 429.421 180.594 429.335 180.359 C 429.137 179.96 428.847 179.616 428.49 179.358 C 428.132 179.1 427.717 178.935 427.282 178.878 L 426.755 178.878 C 430.029 177.724 433.2 176.286 436.23 174.579 C 437.827 173.686 437.722 172.634 437.598 172.223 C 437.538 172.028 437.439 171.848 437.31 171.691 C 437.18 171.536 437.022 171.407 436.844 171.313 C 436.148 171.053 435.382 171.053 434.686 171.313 L 432.826 171.92 C 433.062 171.603 433.175 171.21 433.142 170.814 C 433.125 170.589 433.055 170.371 432.94 170.179 C 432.823 169.987 432.664 169.826 432.475 169.707 C 432.102 169.532 431.694 169.441 431.282 169.441 C 430.87 169.441 430.463 169.532 430.089 169.707 C 429.481 169.922 428.896 170.154 428.335 170.404 C 428.295 170.141 428.2 169.891 428.054 169.672 C 427.898 169.425 427.692 169.215 427.451 169.055 C 427.208 168.894 426.935 168.789 426.65 168.744 C 425.915 168.683 425.179 168.838 424.528 169.19 L 424.071 169.387 C 424.169 169.036 424.169 168.666 424.071 168.317 C 424.001 168.072 423.882 167.844 423.722 167.648 C 423.563 167.452 423.364 167.29 423.142 167.175 C 422.168 166.805 421.097 166.805 420.123 167.175 C 415.927 168.462 411.601 169.27 407.228 169.583 C 406.666 169.583 406.106 169.726 405.474 169.815 C 404.505 170.023 403.512 170.082 402.526 169.993 C 400.919 169.652 399.354 169.131 397.859 168.441 C 397.123 168.12 396.403 167.835 395.701 167.566 C 392.192 166.336 388.684 165.069 385.332 163.803 C 385.23 163.629 385.067 163.502 384.876 163.445 Z" style="fill: rgb(244, 162, 140);" transform="matrix(-1, 0, 0, -1, 821.483032, 347.604874)"/>
  <path d="M 398.746 171.779 C 400.729 170.174 407.08 133.833 410.273 120.523 L 398.746 171.779 Z" fill="white" style="" transform="matrix(-1, 0, 0, -1, 809.019012, 292.30201)"/>
  <path d="M 410.471 119.703 C 410.29 119.702 410.114 119.763 409.97 119.876 C 409.827 119.989 409.726 120.149 409.682 120.328 C 408.542 125.127 406.98 132.816 405.348 141.023 C 402.91 153.172 399.593 169.8 398.331 171.155 C 398.25 171.221 398.182 171.302 398.133 171.395 C 398.083 171.488 398.053 171.59 398.044 171.695 C 398.033 171.8 398.045 171.905 398.076 172.005 C 398.107 172.106 398.157 172.199 398.225 172.279 C 398.363 172.446 398.558 172.553 398.771 172.576 C 398.984 172.6 399.197 172.538 399.365 172.404 C 400.699 171.316 402.769 161.699 406.84 141.344 C 408.472 133.191 410.016 125.483 411.156 120.702 C 411.204 120.495 411.17 120.275 411.063 120.092 C 410.954 119.909 410.78 119.776 410.577 119.721 L 410.471 119.703 Z" fill="#231F20" style="" transform="matrix(-1, 0, 0, -1, 809.217316, 292.284058)"/>
  <path d="M 414.992 205.122 L 414.834 199.68 L 343.321 180.11 L 343.917 185.783 L 414.992 205.122 Z" fill="white" style="" transform="matrix(-1, 0, 0, -1, 758.313019, 385.231995)"/>
  <path d="M 343.343 179.222 C 343.136 179.223 342.938 179.299 342.782 179.436 C 342.672 179.528 342.588 179.647 342.535 179.781 C 342.483 179.915 342.466 180.06 342.483 180.203 L 343.062 185.876 C 343.079 186.058 343.151 186.228 343.266 186.365 C 343.383 186.503 343.539 186.6 343.711 186.643 L 414.786 205.983 C 414.918 206.019 415.056 206.024 415.19 205.996 C 415.324 205.968 415.45 205.908 415.558 205.822 C 415.668 205.738 415.757 205.626 415.814 205.499 C 415.872 205.372 415.899 205.232 415.892 205.091 L 415.734 199.738 C 415.726 199.547 415.658 199.363 415.542 199.212 C 415.425 199.062 415.265 198.953 415.084 198.9 L 343.572 179.275 C 343.5 179.238 343.422 179.221 343.343 179.222 Z M 344.747 185.073 L 344.36 181.31 L 413.996 200.363 L 414.102 203.931 L 344.747 185.073 Z" fill="#231F20" style="" transform="matrix(-1, 0, 0, -1, 758.36972, 385.235931)"/>
  <path d="M 435.993 187.19 C 435.993 187.19 417.763 199.678 417.219 199.446 C 416.676 199.213 343.321 181.23 343.321 181.23 L 364.918 167.85 L 435.993 187.19 Z" fill="white" style="" transform="matrix(-1, 0, 0, -1, 779.314026, 367.299194)"/>
  <path d="M 364.906 166.902 C 364.745 166.899 364.586 166.942 364.45 167.027 L 342.851 180.479 C 342.706 180.576 342.591 180.713 342.519 180.874 C 342.448 181.035 342.424 181.214 342.448 181.389 C 342.474 181.562 342.549 181.724 342.664 181.854 C 342.78 181.984 342.93 182.076 343.097 182.12 C 368.187 188.275 415.891 199.961 416.943 200.299 C 417.4 200.478 417.838 200.657 436.471 187.955 C 436.613 187.859 436.723 187.724 436.791 187.567 C 436.858 187.409 436.878 187.235 436.85 187.064 C 436.823 186.895 436.747 186.737 436.634 186.61 C 436.519 186.483 436.372 186.392 436.208 186.348 L 365.133 166.92 L 364.906 166.902 Z M 345.606 180.818 L 365.081 168.739 L 433.927 187.49 C 427.594 191.79 418.769 197.678 417.207 198.462 C 412.645 197.285 363.993 185.332 345.571 180.818 L 345.606 180.818 Z" fill="#231F20" style="" transform="matrix(-1, 0, 0, -1, 779.30127, 367.243042)"/>
  <path d="M 435.397 186.069 L 414.535 199.949 L 414.396 205.122 L 435.993 191.742 L 435.397 186.069 Z" fill="white" style="" transform="matrix(-1, 0, 0, -1, 850.389008, 391.190994)"/>
  <path d="M 435.424 185.183 C 435.257 185.187 435.093 185.236 434.951 185.326 L 414.09 199.205 C 413.97 199.285 413.871 199.394 413.801 199.522 C 413.731 199.649 413.691 199.791 413.686 199.937 L 413.547 205.111 C 413.544 205.269 413.583 205.426 413.66 205.564 C 413.737 205.701 413.85 205.816 413.985 205.895 C 414.122 205.974 414.276 206.015 414.433 206.015 C 414.589 206.015 414.743 205.974 414.88 205.895 L 436.477 192.498 C 436.622 192.412 436.739 192.285 436.813 192.133 C 436.888 191.981 436.918 191.81 436.899 191.642 L 436.302 185.986 C 436.29 185.833 436.239 185.686 436.152 185.561 C 436.066 185.435 435.948 185.335 435.811 185.272 C 435.692 185.207 435.559 185.176 435.424 185.183 Z M 415.424 200.454 L 434.723 187.627 L 435.109 191.195 L 415.371 203.434 L 415.424 200.454 Z" fill="#231F20" style="" transform="matrix(-1, 0, 0, -1, 850.451385, 391.197021)"/>
  <path d="M 405.957 150.138 L 414.396 199.449 L 339.251 176.934 L 334.882 130.798 L 405.957 150.138 Z" fill="white" style="" transform="matrix(-1, 0, 0, -1, 749.277985, 330.247009)"/>
  <path d="M 334.889 129.902 C 334.768 129.899 334.646 129.922 334.534 129.971 C 334.421 130.019 334.32 130.091 334.237 130.182 C 334.153 130.273 334.091 130.381 334.052 130.5 C 334.014 130.617 334 130.741 334.013 130.866 L 338.381 177.018 C 338.397 177.197 338.465 177.366 338.578 177.503 C 338.692 177.64 338.843 177.739 339.012 177.786 L 414.157 200.301 C 414.299 200.346 414.448 200.353 414.592 200.321 C 414.737 200.29 414.871 200.221 414.982 200.123 C 415.093 200.021 415.178 199.892 415.227 199.749 C 415.276 199.605 415.289 199.452 415.263 199.302 L 406.824 149.972 C 406.797 149.807 406.724 149.652 406.611 149.528 C 406.498 149.404 406.353 149.317 406.192 149.277 L 335.117 129.92 L 334.889 129.902 Z M 340.153 176.288 L 335.96 132.025 L 405.263 150.882 L 413.367 198.231 L 340.153 176.288 Z" fill="#231F20" style="" transform="matrix(-1, 0, 0, -1, 749.284393, 330.242493)"/>
  <path d="M 451.931 121.454 C 451.74 121.451 451.554 121.512 451.402 121.628 C 451.249 121.744 451.139 121.909 451.089 122.096 C 451.057 122.208 451.047 122.326 451.059 122.443 C 451.072 122.559 451.107 122.672 451.162 122.775 C 451.217 122.877 451.292 122.968 451.382 123.041 C 451.472 123.115 451.575 123.169 451.685 123.202 L 466.195 127.573 L 464.634 144.985 L 436.317 144.557 C 436.191 144.555 436.065 144.58 435.95 144.633 C 435.834 144.685 435.732 144.763 435.649 144.86 C 435.564 144.958 435.5 145.076 435.463 145.202 C 435.427 145.328 435.419 145.462 435.439 145.592 L 442.843 190.978 C 442.862 191.094 442.904 191.205 442.965 191.305 C 443.027 191.405 443.107 191.491 443.202 191.559 C 443.297 191.627 443.403 191.676 443.516 191.701 C 443.63 191.727 443.746 191.73 443.861 191.709 C 444.083 191.65 444.275 191.506 444.396 191.307 C 444.517 191.107 444.558 190.868 444.51 190.639 L 437.281 146.305 L 465.352 146.734 C 465.569 146.734 465.778 146.652 465.937 146.503 C 466.097 146.354 466.195 146.15 466.212 145.931 L 467.967 126.966 C 467.984 126.764 467.933 126.561 467.821 126.392 C 467.709 126.223 467.544 126.099 467.353 126.038 L 452.142 121.454 L 451.931 121.454 Z" fill="#231F20" style="" transform="matrix(-1, 0, 0, -1, 903.398499, 313.176765)"/>
  <path d="M 336.373 274.805 C 337.513 276.16 338.724 277.445 339.987 278.676 C 342.742 281.352 348.76 285.508 351.303 280.317 C 352.83 277.105 351.585 272.432 350.707 269.203 C 348.969 263 345.881 257.274 341.671 252.45 C 338.022 248.187 325.565 241.176 325.267 251.808 C 325.305 253.737 325.692 255.642 326.407 257.428 C 328.662 263.788 332.039 269.677 336.373 274.805 Z" style="fill: rgb(244, 162, 140);" transform="matrix(-1, 0, 0, -1, 677.289581, 529.006241)"/>
  <path d="M 329.761 245.4 C 329.074 245.391 328.391 245.507 327.743 245.739 C 326.252 246.273 324.462 247.772 324.357 251.786 C 324.374 253.824 324.773 255.841 325.533 257.727 C 327.81 264.187 331.243 270.163 335.656 275.354 C 336.796 276.71 338.025 278.03 339.305 279.279 C 340.165 280.117 344.674 284.238 348.463 283.542 C 349.236 283.401 349.961 283.065 350.574 282.568 C 351.186 282.069 351.668 281.423 351.973 280.688 C 353.727 277.12 352.324 272.249 351.446 268.985 C 349.662 262.67 346.508 256.842 342.217 251.929 C 339.972 249.378 334.182 245.4 329.761 245.4 Z M 347.587 281.991 C 345.411 281.991 342.481 280.117 340.411 278.101 C 339.183 276.888 337.989 275.621 336.902 274.301 C 332.62 269.254 329.289 263.449 327.077 257.175 C 326.392 255.474 326.023 253.659 325.989 251.822 C 325.989 249.324 326.849 247.79 328.322 247.255 C 331.691 246.024 338.323 249.877 340.972 252.982 C 345.113 257.707 348.147 263.325 349.85 269.413 C 350.675 272.428 351.903 277.013 350.499 279.957 C 350.308 280.449 350 280.887 349.601 281.23 C 349.203 281.572 348.728 281.809 348.218 281.919 C 348.01 281.962 347.799 281.986 347.587 281.991 Z" style="fill: rgb(244, 162, 140);" transform="matrix(-1, 0, 0, -1, 677.169373, 529.020294)"/>
  <path d="M 395.405 302.293 C 396.224 303.04 397.27 303.48 398.369 303.541 C 399.071 303.453 399.738 303.176 400.299 302.738 C 401.343 301.876 402.182 300.788 402.759 299.553 C 403.335 298.318 403.634 296.969 403.633 295.603 C 403.586 292.859 403.057 290.147 402.072 287.592 C 399.405 279.689 395.439 271.857 388.79 266.933 C 387.607 266.004 386.278 265.287 384.86 264.809 C 372.473 261.009 376.228 274.337 378.666 280.491 C 382.13 289.207 387.929 296.761 395.405 302.293 Z" style="fill: rgb(244, 162, 140);" transform="matrix(-1, 0, 0, -1, 779.797668, 567.67984)"/>
  <path d="M 381.008 263.349 C 380.24 263.295 379.471 263.411 378.752 263.692 C 378.034 263.972 377.384 264.409 376.85 264.973 C 373.551 268.63 376.481 277.265 377.903 280.815 C 381.427 289.679 387.315 297.365 394.904 303.009 C 395.881 303.871 397.12 304.362 398.413 304.4 C 399.276 304.327 400.099 303.998 400.781 303.454 C 401.925 302.513 402.848 301.321 403.479 299.97 C 404.111 298.617 404.436 297.137 404.43 295.641 C 404.389 292.801 403.848 289.991 402.834 287.345 C 399.5 277.479 395.062 270.575 389.272 266.293 C 388.015 265.309 386.603 264.549 385.096 264.045 C 383.774 263.614 382.397 263.379 381.008 263.349 Z M 398.202 302.777 C 397.329 302.661 396.51 302.282 395.851 301.689 C 388.509 296.248 382.804 288.834 379.376 280.28 C 377.288 275.035 375.868 268.559 378.025 266.133 C 379.184 264.848 381.394 264.687 384.605 265.668 C 385.935 266.127 387.181 266.808 388.289 267.684 C 393.816 271.77 398.062 278.388 401.29 287.951 C 402.251 290.411 402.762 293.029 402.799 295.676 C 402.811 296.924 402.548 298.158 402.029 299.288 C 401.51 300.418 400.747 301.415 399.799 302.206 C 399.365 302.56 398.842 302.783 398.289 302.848 L 398.202 302.777 Z" style="fill: rgb(244, 162, 140);" transform="matrix(-1, 0, 0, -1, 779.770844, 567.736115)"/>
  <path d="M 387.335 202.393 C 387.107 202.393 386.888 202.485 386.728 202.65 C 386.566 202.814 386.475 203.036 386.475 203.268 C 386.475 203.392 386.195 216.22 383.387 222.893 C 383.326 223.001 383.287 223.122 383.275 223.246 C 383.262 223.37 383.275 223.497 383.313 223.616 C 383.352 223.735 383.414 223.844 383.497 223.937 C 383.58 224.031 383.681 224.104 383.794 224.155 C 383.907 224.205 384.029 224.231 384.152 224.23 C 384.276 224.229 384.398 224.202 384.51 224.151 C 384.622 224.099 384.722 224.024 384.804 223.93 C 384.886 223.836 384.947 223.726 384.984 223.605 C 387.932 216.684 388.212 203.981 388.212 203.392 C 388.215 203.276 388.195 203.159 388.152 203.05 C 388.111 202.941 388.048 202.841 387.968 202.757 C 387.888 202.673 387.793 202.604 387.687 202.557 C 387.581 202.511 387.467 202.485 387.353 202.483 L 387.335 202.393 Z" style="fill: rgb(35, 31, 31);" transform="matrix(-1, 0, 0, -1, 771.482422, 426.623032)"/>
  <path d="M 491.366 153.871 L 486.102 152.32 L 487.646 148.751 C 487.646 148.751 477.523 133.641 440.871 135.799 L 429.976 127.468 L 440.047 121.687 C 440.047 121.687 473.084 119.904 490.383 148.234 L 493.646 149.162 L 491.366 153.871 Z" style="fill: rgb(37, 40, 91);" transform="matrix(-1, 0, 0, -1, 923.622009, 275.535713)"/>
  <path d="M 84.39 123.691 L 17.55 106.62 L 29.278 59.141 L 96.119 76.212 L 84.39 123.691 Z" style="fill: rgb(241, 241, 241);" transform="matrix(-1, 0, 0, -1, 113.668999, 182.832001)"/>
  <path d="M 29.276 58.222 C 29.122 58.226 28.971 58.268 28.837 58.347 C 28.736 58.406 28.649 58.485 28.579 58.58 C 28.51 58.675 28.46 58.785 28.435 58.901 L 16.697 106.373 C 16.643 106.605 16.682 106.849 16.803 107.053 C 16.924 107.256 17.119 107.403 17.346 107.462 L 84.174 124.536 C 84.403 124.589 84.641 124.55 84.842 124.427 C 85.042 124.304 85.187 124.106 85.244 123.876 L 96.982 76.402 C 97.034 76.177 96.996 75.939 96.877 75.742 C 96.819 75.639 96.741 75.549 96.647 75.478 C 96.553 75.408 96.447 75.358 96.333 75.331 L 29.505 58.258 L 29.276 58.222 Z M 18.626 105.945 L 29.926 60.202 L 95.052 76.847 L 83.788 122.591 L 18.626 105.945 Z" style="fill: rgb(214, 214, 216);" transform="matrix(-1, 0, 0, -1, 113.677959, 182.781097)"/>
  <path d="M 40.132 80.04 C 40.023 80.015 39.909 80.015 39.799 80.04 C 39.589 80.135 39.423 80.308 39.334 80.524 C 39.246 80.74 39.243 80.982 39.325 81.2 L 56.783 124.017 C 56.834 124.143 56.913 124.254 57.013 124.344 C 57.114 124.433 57.233 124.499 57.362 124.534 C 57.485 124.577 57.617 124.588 57.745 124.567 C 57.874 124.544 57.996 124.49 58.099 124.41 L 84.908 104.785 C 85.096 104.645 85.222 104.436 85.258 104.202 C 85.294 103.967 85.237 103.728 85.1 103.537 C 84.963 103.345 84.757 103.217 84.526 103.179 C 84.296 103.143 84.06 103.201 83.872 103.34 L 57.976 122.43 L 40.957 80.593 C 40.889 80.429 40.774 80.289 40.627 80.191 C 40.48 80.093 40.309 80.04 40.132 80.04 Z" style="fill: rgb(214, 214, 216);" transform="matrix(-1, 0, 0, -1, 124.534218, 204.598587)"/>
  <path d="M 22.02 75.783 C 21.915 75.765 21.809 75.765 21.704 75.783 C 21.595 75.824 21.496 75.887 21.411 75.968 C 21.326 76.049 21.258 76.146 21.211 76.254 C 21.163 76.362 21.137 76.478 21.135 76.596 C 21.133 76.715 21.153 76.832 21.195 76.942 L 28.003 95.371 C 28.044 95.496 28.115 95.609 28.211 95.699 C 28.305 95.79 28.421 95.855 28.546 95.889 C 28.667 95.932 28.797 95.947 28.925 95.931 C 29.052 95.915 29.175 95.87 29.284 95.8 L 47.898 83.918 C 47.998 83.857 48.085 83.777 48.153 83.682 C 48.222 83.587 48.271 83.478 48.297 83.363 C 48.324 83.248 48.327 83.129 48.306 83.012 C 48.286 82.897 48.243 82.785 48.179 82.687 C 48.053 82.488 47.855 82.348 47.628 82.298 C 47.401 82.248 47.164 82.291 46.969 82.419 L 29.213 93.766 L 22.774 76.371 C 22.719 76.209 22.619 76.066 22.484 75.961 C 22.35 75.856 22.188 75.794 22.02 75.783 Z" style="fill: rgb(214, 214, 216);" transform="matrix(-1, 0, 0, -1, 69.454645, 171.706749)"/>
  <path d="M 51.241 69.614 C 49.989 69.619 48.782 70.087 47.847 70.933 C 46.911 71.777 46.31 72.94 46.157 74.203 C 46.004 75.466 46.31 76.742 47.017 77.793 C 47.723 78.843 48.782 79.595 49.995 79.908 C 50.651 80.075 51.331 80.109 52 80.008 C 52.668 79.907 53.311 79.673 53.89 79.32 C 54.468 78.968 54.973 78.503 55.374 77.952 C 55.774 77.4 56.063 76.774 56.223 76.109 C 56.389 75.444 56.425 74.753 56.327 74.075 C 56.229 73.397 56.002 72.745 55.656 72.157 C 55.31 71.568 54.855 71.055 54.313 70.647 C 53.772 70.238 53.158 69.941 52.504 69.775 C 52.09 69.669 51.667 69.615 51.241 69.614 Z M 51.241 78.285 C 50.963 78.286 50.685 78.249 50.417 78.178 C 49.549 77.945 48.801 77.384 48.328 76.608 C 48.1 76.22 47.95 75.79 47.886 75.343 C 47.824 74.896 47.849 74.441 47.96 74.003 C 48.179 73.122 48.732 72.366 49.498 71.898 C 50.263 71.43 51.18 71.289 52.048 71.506 C 52.916 71.738 53.662 72.3 54.135 73.075 C 54.363 73.463 54.514 73.893 54.577 74.34 C 54.64 74.787 54.616 75.243 54.504 75.681 C 54.402 76.119 54.212 76.534 53.946 76.896 C 53.682 77.257 53.345 77.561 52.96 77.785 C 52.447 78.103 51.859 78.276 51.258 78.285 L 51.241 78.285 Z" style="fill: rgb(214, 214, 216);" transform="matrix(-1, 0, 0, -1, 102.499428, 149.67878)"/>
  <path d="M 115.667 233.794 C 130.066 233.794 141.74 245.664 141.74 260.306 C 141.74 274.947 130.066 286.816 115.667 286.816 C 101.269 286.816 89.595 274.947 89.595 260.306 C 89.595 245.664 101.269 233.794 115.667 233.794 Z" fill="white" style="" transform="matrix(-1, 0, 0, -1, 231.335007, 520.610016)"/>
  <path d="M 118.658 287.944 L 121.693 287.427 C 121.795 287.372 121.9 287.324 122.009 287.284 C 126.546 286.246 130.72 283.97 134.08 280.7 C 137.815 277.299 140.527 272.892 141.903 267.989 C 143.278 263.086 143.261 257.888 141.852 252.994 C 140.372 247.023 136.845 241.784 131.904 238.222 C 128.596 235.651 124.741 233.905 120.649 233.124 C 116.557 232.343 112.341 232.55 108.341 233.727 C 104.103 234.848 100.223 237.068 97.077 240.167 C 94.254 242.805 92.018 246.025 90.517 249.612 C 89.017 253.2 88.286 257.072 88.375 260.969 C 88.375 261.772 88.375 262.575 88.463 263.377 L 88.972 266.464 C 88.972 266.642 89.112 266.838 89.165 267.017 C 89.516 268.159 89.797 269.318 90.218 270.407 C 92.413 276.198 96.477 281.061 101.745 284.198 C 106.097 286.859 111.107 288.195 116.184 288.051 C 117.044 288.033 117.851 287.98 118.658 287.944 Z M 132.816 241.826 C 136.53 245.38 139.083 250.007 140.133 255.082 L 129.483 256.865 C 128.992 254.957 128.571 253.066 128.009 251.211 C 127.448 249.355 126.746 247.642 126.15 245.858 L 132.816 241.826 Z M 90.797 263.449 C 90.163 258.297 91.1 253.073 93.481 248.481 L 101.13 250.104 C 100.831 253.948 100.961 257.814 101.516 261.629 L 90.797 263.449 Z M 140.448 257.258 C 141.326 261.255 139.764 269.747 137.764 272.191 L 130.149 270.585 C 130.456 266.747 130.332 262.888 129.782 259.078 L 140.448 257.258 Z M 105.201 274.831 L 98.499 278.881 C 95.446 276.526 91.288 269.033 91.218 265.644 L 101.885 263.859 C 102.577 267.644 103.689 271.338 105.201 274.867 L 105.201 274.831 Z M 114.921 249.283 C 116.5 248.891 118.009 248.552 119.5 248.106 C 120.991 247.66 122.5 247.142 124.009 246.643 L 124.219 247.053 C 125.53 250.162 126.513 253.403 127.149 256.723 C 127.149 257.169 127.149 257.312 126.711 257.384 L 117.026 259.006 C 116.863 259.016 116.698 259.016 116.535 259.006 L 114.921 249.283 Z M 103.675 261.273 C 103.123 257.631 103.004 253.935 103.323 250.265 L 112.746 249.747 L 114.341 259.453 L 103.675 261.273 Z M 127.606 259.488 C 128.156 263.124 128.279 266.813 127.975 270.478 L 118.5 270.978 L 116.921 261.308 L 127.606 259.488 Z M 107.218 274.01 C 105.751 270.649 104.685 267.121 104.043 263.503 L 114.728 261.718 L 116.325 271.387 L 107.218 274.01 Z M 127.676 272.833 C 127.354 275.335 126.656 277.772 125.605 280.059 C 124.923 281.648 123.883 283.054 122.571 284.161 C 122.005 284.562 121.42 284.931 120.816 285.268 L 118.851 273.315 C 121.771 272.876 124.726 272.715 127.676 272.833 Z M 114.57 247.071 L 112.622 235.243 C 113.954 235.273 115.248 235.701 116.342 236.474 C 118.68 238.124 120.623 240.289 122.026 242.808 C 122.377 243.379 122.693 243.967 123.044 244.591 C 120.302 245.689 117.465 246.518 114.57 247.071 Z M 110.429 235.582 L 112.377 247.446 C 109.474 247.884 106.536 248.038 103.604 247.91 C 103.92 246.571 104.166 245.287 104.517 244.039 C 105.069 241.776 106.099 239.664 107.534 237.848 C 108.289 236.849 109.287 236.068 110.429 235.582 Z M 108.131 276.187 C 110.904 275.09 113.769 274.254 116.692 273.689 L 118.658 285.553 C 117.737 285.524 116.834 285.292 116.009 284.875 C 114.047 283.885 112.355 282.421 111.078 280.611 C 110.043 279.22 109.148 277.721 108.131 276.187 Z M 130.939 240.256 C 129.109 241.637 127.132 242.805 125.044 243.735 C 123.418 240.374 121.088 237.414 118.219 235.065 C 122.868 235.557 127.29 237.356 130.992 240.256 L 130.939 240.256 Z M 112.938 285.607 C 110.237 285.963 102.078 282.61 100.254 280.344 L 106.026 276.954 C 107.096 278.613 108.044 280.166 109.078 281.664 C 110.16 283.171 111.461 284.501 112.938 285.607 Z M 94.657 246.358 C 97.237 242.38 100.85 239.206 105.095 237.188 C 103.095 240.368 101.824 243.965 101.376 247.713 C 99.108 247.539 96.866 247.108 94.692 246.429 L 94.657 246.358 Z M 126.237 283.252 C 127.216 281.699 127.982 280.019 128.518 278.257 C 129.009 276.472 129.431 274.689 129.886 272.905 C 132.127 273.119 134.338 273.573 136.484 274.26 C 134.014 278.196 130.498 281.339 126.342 283.323 L 126.237 283.252 Z" style="fill: rgb(214, 214, 216);" transform="matrix(-1, 0, 0, -1, 231.289406, 520.721375)"/>
  <path d="M 166.99 158.095 L 135.912 152.391 C 132.679 151.798 130.532 148.653 131.114 145.365 L 134.305 127.387 C 134.889 124.1 137.983 121.916 141.215 122.51 L 172.294 128.213 C 175.527 128.806 177.674 131.952 177.091 135.239 L 173.9 153.217 C 173.316 156.504 170.224 158.688 166.99 158.095 Z" fill="white" style="" transform="matrix(-1, 0, 0, -1, 308.205292, 280.604713)"/>
  <path d="M 139.837 121.937 C 138.237 121.94 136.688 122.512 135.461 123.555 C 134.233 124.598 133.404 126.046 133.117 127.646 L 129.923 145.612 C 129.611 147.425 130.014 149.29 131.045 150.803 C 132.077 152.316 133.653 153.354 135.432 153.693 L 166.505 159.384 C 167.387 159.549 168.294 159.534 169.17 159.341 C 170.047 159.148 170.879 158.781 171.615 158.261 C 172.352 157.74 172.981 157.076 173.465 156.308 C 173.949 155.539 174.278 154.681 174.435 153.782 L 177.628 135.817 C 177.94 134.004 177.538 132.138 176.506 130.625 C 175.475 129.112 173.898 128.074 172.119 127.735 L 141.047 122.044 C 140.648 121.973 140.242 121.937 139.837 121.937 Z M 167.716 157.619 C 167.411 157.644 167.106 157.644 166.803 157.619 L 135.748 151.909 C 135.092 151.789 134.467 151.539 133.907 151.171 C 133.346 150.805 132.863 150.33 132.483 149.774 C 132.103 149.217 131.835 148.59 131.694 147.928 C 131.553 147.266 131.541 146.581 131.661 145.915 L 134.836 127.967 C 134.953 127.299 135.198 126.663 135.56 126.093 C 135.922 125.523 136.392 125.032 136.942 124.649 C 137.485 124.257 138.101 123.98 138.752 123.836 C 139.403 123.692 140.077 123.684 140.731 123.811 L 171.803 129.502 C 172.459 129.622 173.085 129.872 173.645 130.239 C 174.205 130.606 174.689 131.081 175.069 131.637 C 175.449 132.194 175.716 132.821 175.858 133.483 C 175.999 134.145 176.01 134.83 175.891 135.496 L 172.715 153.461 C 172.459 154.807 171.706 156.001 170.61 156.798 C 169.759 157.396 168.749 157.714 167.716 157.708 L 167.716 157.619 Z" style="fill: rgb(214, 214, 216);" transform="matrix(-1, 0, 0, -1, 307.551117, 281.434631)"/>
  <path d="M 145.756 132.459 C 145.647 132.435 145.532 132.435 145.422 132.459 C 145.286 132.513 145.166 132.603 145.074 132.719 C 144.981 132.834 144.92 132.972 144.896 133.119 L 141.704 151.424 C 141.678 151.574 141.689 151.728 141.738 151.871 C 141.787 152.015 141.872 152.144 141.984 152.244 C 142.092 152.348 142.226 152.422 142.37 152.456 C 142.514 152.49 142.667 152.485 142.808 152.441 L 162.757 146.714 C 162.919 146.674 163.064 146.588 163.178 146.464 C 163.291 146.342 163.368 146.188 163.397 146.022 C 163.427 145.856 163.409 145.685 163.345 145.529 C 163.282 145.373 163.175 145.24 163.038 145.144 L 146.195 132.656 C 146.072 132.545 145.918 132.477 145.756 132.459 Z M 143.633 150.3 L 146.37 134.886 L 160.617 145.465 L 143.633 150.3 Z" style="fill: rgb(214, 214, 216);" transform="matrix(-1, 0, 0, -1, 305.101471, 284.91922)"/>
  <path d="M 131.253 353.251 L 66.548 353.251 L 66.548 316.999 L 131.253 316.999 L 131.253 353.251 Z" style="fill: rgb(241, 241, 241);" transform="matrix(-1, 0, 0, -1, 197.801003, 670.25)"/>
  <path d="M 131.272 316.106 L 66.531 316.106 C 66.299 316.11 66.079 316.206 65.915 316.371 C 65.751 316.538 65.658 316.762 65.653 316.997 L 65.653 353.249 C 65.653 353.486 65.746 353.713 65.91 353.88 C 66.075 354.048 66.297 354.142 66.531 354.142 L 131.272 354.142 C 131.504 354.142 131.727 354.048 131.892 353.88 C 132.056 353.713 132.148 353.486 132.148 353.249 L 132.148 316.997 C 132.144 316.762 132.05 316.538 131.886 316.371 C 131.723 316.206 131.503 316.11 131.272 316.106 Z M 67.425 317.889 L 130.394 317.889 L 130.394 352.286 L 67.425 352.286 L 67.425 317.889 Z" style="fill: rgb(214, 214, 216);" transform="matrix(-1, 0, 0, -1, 197.800995, 670.247986)"/>
  <path d="M 98.9 316.02 C 98.723 316.018 98.551 316.075 98.409 316.181 L 66.038 338.785 C 65.942 338.851 65.86 338.937 65.798 339.035 C 65.734 339.134 65.691 339.245 65.67 339.361 C 65.649 339.477 65.65 339.596 65.674 339.711 C 65.698 339.827 65.744 339.936 65.809 340.033 C 65.876 340.13 65.96 340.214 66.057 340.278 C 66.154 340.342 66.263 340.387 66.377 340.409 C 66.49 340.43 66.608 340.428 66.722 340.404 C 66.835 340.379 66.942 340.332 67.038 340.266 L 98.9 317.983 L 130.743 340.337 C 130.839 340.404 130.946 340.451 131.06 340.475 C 131.174 340.5 131.291 340.501 131.405 340.479 C 131.519 340.458 131.627 340.413 131.725 340.35 C 131.822 340.285 131.906 340.202 131.972 340.105 C 132.038 340.008 132.084 339.898 132.108 339.783 C 132.132 339.667 132.133 339.549 132.112 339.432 C 132.091 339.317 132.047 339.206 131.985 339.107 C 131.921 339.008 131.839 338.923 131.744 338.856 L 99.391 316.253 C 99.257 316.12 99.084 316.039 98.9 316.02 Z" style="fill: rgb(214, 214, 216);" transform="matrix(-1, 0, 0, -1, 197.781998, 656.514618)"/>
  <path d="M 105.328 334.222 C 105.186 334.227 105.047 334.264 104.922 334.333 C 104.797 334.4 104.69 334.497 104.608 334.615 C 104.478 334.813 104.43 335.053 104.472 335.287 C 104.515 335.52 104.646 335.727 104.836 335.863 L 130.768 353.989 C 130.961 354.122 131.198 354.171 131.428 354.128 C 131.658 354.084 131.861 353.951 131.996 353.757 C 132.121 353.56 132.167 353.32 132.125 353.087 C 132.082 352.855 131.954 352.649 131.768 352.509 L 105.853 334.383 C 105.698 334.276 105.515 334.22 105.328 334.222 Z" style="fill: rgb(214, 214, 216);" transform="matrix(-1, 0, 0, -1, 236.597366, 688.365082)"/>
  <path d="M 92.447 334.164 C 92.272 334.168 92.102 334.224 91.956 334.325 L 66.043 352.505 C 65.849 352.64 65.717 352.846 65.674 353.08 C 65.632 353.315 65.682 353.557 65.815 353.753 C 65.948 353.95 66.151 354.084 66.381 354.128 C 66.612 354.171 66.849 354.121 67.043 353.985 L 92.957 335.859 C 93.147 335.722 93.277 335.516 93.32 335.282 C 93.363 335.048 93.314 334.807 93.184 334.611 C 93.107 334.48 92.999 334.372 92.871 334.294 C 92.742 334.216 92.598 334.172 92.447 334.164 Z" style="fill: rgb(214, 214, 216);" transform="matrix(-1, 0, 0, -1, 158.994736, 688.307007)"/>
  <path d="M 20.556 192.625 L -15.165 197.102 L -8.288 253.871 L 36.82 248.234 L 31.294 202.651 L 20.556 192.625 Z" fill="white" style="" transform="matrix(-1, 0, 0, -1, 21.655001, 446.496002)"/>
  <path d="M 20.521 191.728 L 20.398 191.728 L -15.306 196.225 C -15.535 196.251 -15.746 196.37 -15.891 196.554 C -16.035 196.737 -16.103 196.972 -16.078 197.206 L -9.165 253.974 C -9.152 254.091 -9.116 254.205 -9.059 254.309 C -9.003 254.412 -8.926 254.503 -8.836 254.575 C -8.744 254.649 -8.639 254.702 -8.527 254.734 C -8.415 254.765 -8.298 254.774 -8.183 254.759 L 36.926 249.103 C 37.042 249.092 37.156 249.055 37.258 248.997 C 37.361 248.939 37.451 248.86 37.522 248.765 C 37.66 248.576 37.723 248.34 37.697 248.104 L 32.171 202.54 C 32.15 202.326 32.05 202.128 31.89 201.987 L 21.135 191.978 C 21.055 191.896 20.959 191.831 20.854 191.788 C 20.748 191.745 20.634 191.724 20.521 191.728 Z M -14.218 197.884 L 20.223 193.566 L 30.434 203.075 L 35.803 247.444 L -7.568 252.797 L -14.218 197.884 Z" style="fill: rgb(214, 214, 216);" transform="matrix(-1, 0, 0, -1, 21.619656, 446.493607)"/>
  <path d="M 23.124 201.699 L 23.019 201.699 L -7.386 205.5 C -7.616 205.53 -7.825 205.653 -7.967 205.84 C -8.108 206.027 -8.171 206.264 -8.141 206.499 C -8.131 206.614 -8.097 206.727 -8.041 206.83 C -7.986 206.931 -7.911 207.022 -7.821 207.093 C -7.731 207.165 -7.627 207.217 -7.516 207.247 C -7.405 207.277 -7.29 207.283 -7.176 207.265 L 23.229 203.483 C 23.462 203.469 23.68 203.362 23.834 203.184 C 23.989 203.007 24.068 202.774 24.054 202.538 C 24.04 202.301 23.934 202.08 23.76 201.923 C 23.586 201.765 23.357 201.685 23.124 201.699 Z" style="fill: rgb(214, 214, 216);" transform="matrix(-1, 0, 0, -1, 15.907267, 408.972565)"/>
  <path d="M 24.193 210.837 L -6.265 214.655 C -6.38 214.669 -6.491 214.706 -6.592 214.764 C -6.693 214.822 -6.783 214.899 -6.854 214.992 C -6.926 215.084 -6.979 215.191 -7.01 215.305 C -7.042 215.418 -7.051 215.537 -7.037 215.654 C -7.023 215.771 -6.987 215.885 -6.93 215.987 C -6.873 216.09 -6.796 216.18 -6.706 216.254 C -6.614 216.326 -6.51 216.38 -6.399 216.412 C -6.287 216.444 -6.169 216.454 -6.055 216.439 L 24.35 212.621 C 24.584 212.607 24.801 212.5 24.955 212.323 C 25.11 212.145 25.189 211.912 25.176 211.676 C 25.161 211.439 25.056 211.218 24.881 211.06 C 24.707 210.903 24.479 210.823 24.246 210.837 L 24.193 210.837 Z" style="fill: rgb(214, 214, 216);" transform="matrix(-1, 0, 0, -1, 18.133993, 427.281265)"/>
  <path d="M 25.452 219.988 L 25.329 219.988 L -5.077 223.805 C -5.191 223.82 -5.303 223.857 -5.404 223.915 C -5.505 223.973 -5.594 224.05 -5.666 224.143 C -5.737 224.235 -5.79 224.342 -5.822 224.456 C -5.853 224.569 -5.863 224.688 -5.848 224.805 C -5.835 224.922 -5.798 225.035 -5.741 225.138 C -5.684 225.241 -5.608 225.331 -5.517 225.405 C -5.425 225.477 -5.321 225.531 -5.21 225.563 C -5.098 225.595 -4.981 225.603 -4.866 225.59 L 25.539 221.79 C 25.768 221.754 25.974 221.63 26.114 221.444 C 26.255 221.258 26.32 221.024 26.294 220.791 C 26.272 220.576 26.176 220.377 26.021 220.229 C 25.866 220.081 25.664 219.996 25.452 219.988 Z" style="fill: rgb(214, 214, 216);" transform="matrix(-1, 0, 0, -1, 20.444756, 445.583954)"/>
  <path d="M 26.447 229.155 L 26.341 229.155 L -4.046 232.955 C -4.278 232.986 -4.488 233.109 -4.633 233.295 C -4.777 233.482 -4.844 233.719 -4.819 233.955 C -4.808 234.074 -4.773 234.188 -4.717 234.293 C -4.662 234.397 -4.585 234.489 -4.494 234.562 C -4.401 234.636 -4.296 234.69 -4.183 234.72 C -4.069 234.75 -3.952 234.757 -3.836 234.74 L 26.569 230.922 C 26.802 230.905 27.019 230.796 27.172 230.616 C 27.324 230.437 27.401 230.204 27.385 229.967 C 27.369 229.731 27.261 229.511 27.084 229.355 C 26.909 229.199 26.679 229.121 26.447 229.138 L 26.447 229.155 Z" style="fill: rgb(214, 214, 216);" transform="matrix(-1, 0, 0, -1, 22.562942, 463.884796)"/>
  <path d="M 27.562 238.306 L 27.458 238.306 L 6.86 240.893 C 6.746 240.906 6.636 240.943 6.537 240.999 C 6.438 241.055 6.35 241.132 6.28 241.223 C 6.21 241.315 6.159 241.419 6.128 241.531 C 6.098 241.643 6.09 241.759 6.105 241.874 C 6.115 241.992 6.15 242.108 6.206 242.212 C 6.262 242.317 6.338 242.409 6.43 242.482 C 6.522 242.556 6.628 242.609 6.74 242.64 C 6.854 242.67 6.972 242.677 7.087 242.659 L 27.667 240.073 C 27.783 240.065 27.896 240.036 28 239.984 C 28.103 239.933 28.196 239.861 28.272 239.773 C 28.349 239.685 28.408 239.583 28.446 239.473 C 28.483 239.362 28.5 239.244 28.492 239.127 C 28.485 239.009 28.456 238.895 28.405 238.79 C 28.355 238.684 28.285 238.59 28.198 238.512 C 28.111 238.434 28.011 238.374 27.902 238.335 C 27.793 238.297 27.678 238.282 27.562 238.288 L 27.562 238.306 Z" style="fill: rgb(214, 214, 216);" transform="matrix(-1, 0, 0, -1, 34.591571, 480.955521)"/>
  <path d="M -9.639 242.67 L -8.288 253.873 L 1.099 252.696 L -9.639 242.67 Z" fill="white" style="" transform="matrix(-1, 0, 0, -1, -8.54, 496.542999)"/>
  <path d="M -9.643 241.785 C -9.784 241.784 -9.924 241.821 -10.047 241.892 C -10.208 241.975 -10.341 242.108 -10.426 242.27 C -10.51 242.434 -10.543 242.619 -10.52 242.802 L -9.17 253.988 C -9.156 254.105 -9.12 254.217 -9.064 254.32 C -9.007 254.422 -8.931 254.512 -8.838 254.584 C -8.747 254.655 -8.642 254.707 -8.53 254.736 C -8.417 254.766 -8.301 254.773 -8.187 254.755 L 1.217 253.578 C 1.382 253.555 1.536 253.487 1.663 253.38 C 1.79 253.272 1.885 253.13 1.936 252.971 C 1.991 252.809 1.998 252.634 1.954 252.468 C 1.91 252.304 1.819 252.155 1.691 252.043 L -9.064 242.035 C -9.217 241.876 -9.425 241.787 -9.643 241.785 Z M -7.538 252.882 L -8.485 244.978 L -0.889 252.115 L -7.538 252.882 Z" style="fill: rgb(214, 214, 216);" transform="matrix(-1, 0, 0, -1, -8.544413, 496.549805)"/>
</svg>