<?xml version="1.0" ?><svg id="Layer_1" style="enable-background:new 0 0 128 128;" version="1.1" viewBox="0 0 128 128" xml:space="preserve" xmlns="http://www.w3.org/2000/svg" xmlns:xlink="http://www.w3.org/1999/xlink"><style type="text/css">
	.st0{opacity:0.2;fill:#FFFFFF;}
	.st1{fill:#FFFFFF;}
	.st2{fill:none;stroke:#242C88;stroke-width:2;stroke-linecap:round;stroke-linejoin:round;stroke-miterlimit:10;}
	.st3{fill:#5E61A3;}
	.st4{opacity:0.5;fill:#242C88;}
	.st5{fill:#39C89A;}
	.st6{fill:#CAEAFB;}
	.st7{fill:#589FFF;}
	.st8{fill:#FF5751;}
	.st9{fill:#BC8D66;}
	.st10{opacity:0.7;fill:#FFFFFF;}
	.st11{fill:#F1C92A;}
	.st12{opacity:0.4;fill:none;stroke:#FFFFFF;stroke-width:2;stroke-linecap:round;stroke-linejoin:round;stroke-miterlimit:10;}
	.st13{fill:#F3877E;}
	.st14{fill:#83D689;}
	.st15{opacity:0.4;fill:#242C88;}
	.st16{opacity:0.2;fill:#242C88;}
	
		.st17{fill:none;stroke:#FFFFFF;stroke-width:3;stroke-linecap:round;stroke-linejoin:round;stroke-miterlimit:10;stroke-dasharray:0.1,6;}
	.st18{fill:#FFC408;}
	
		.st19{opacity:0.4;fill:none;stroke:#FFFFFF;stroke-width:3;stroke-linecap:round;stroke-linejoin:round;stroke-miterlimit:10;stroke-dasharray:0.1,6;}
	.st20{fill:none;stroke:#CAEAFB;stroke-width:12;stroke-linecap:round;stroke-miterlimit:10;}
	.st21{fill:none;stroke:#CAEAFB;stroke-width:7;stroke-linecap:round;stroke-miterlimit:10;}
	.st22{opacity:0.4;fill:none;stroke:#242C88;stroke-width:2;stroke-linecap:round;stroke-linejoin:round;stroke-miterlimit:10;}
	.st23{opacity:0.5;}
	.st24{fill:#242C88;}
	
		.st25{fill:none;stroke:#242C88;stroke-width:3;stroke-linecap:round;stroke-linejoin:round;stroke-miterlimit:10;stroke-dasharray:0.1,6;}
	.st26{opacity:0.5;fill:#FFFFFF;}
	.st27{fill:none;stroke:#FFFFFF;stroke-width:3;stroke-linecap:round;stroke-linejoin:round;stroke-miterlimit:10;}
	.st28{fill:none;stroke:#FFFFFF;stroke-width:2;stroke-linecap:round;stroke-linejoin:round;stroke-miterlimit:10;}
	.st29{fill:#E5BD9E;}
	.st30{fill:#A06D47;}
	
		.st31{opacity:0.3;fill:none;stroke:#FFFFFF;stroke-width:3;stroke-linecap:round;stroke-linejoin:round;stroke-miterlimit:10;stroke-dasharray:0.1,6;}
	.st32{opacity:0.1;fill:#242C88;}
	.st33{opacity:0.5;fill:#FF5751;}
	.st34{opacity:0.2;fill:none;stroke:#242C88;stroke-width:2;stroke-linecap:round;stroke-linejoin:round;stroke-miterlimit:10;}
	.st35{opacity:0.3;clip-path:url(#SVGID_2_);}
	
		.st36{fill:none;stroke:#FFFFFF;stroke-width:3;stroke-linecap:round;stroke-linejoin:round;stroke-miterlimit:10;stroke-dasharray:0,6;}
	
		.st37{opacity:0.3;fill:none;stroke:#FFFFFF;stroke-width:3;stroke-linecap:round;stroke-linejoin:round;stroke-miterlimit:10;stroke-dasharray:0,6;}
	.st38{clip-path:url(#SVGID_4_);}
	.st39{opacity:0.2;fill:none;stroke:#242C88;stroke-width:9;stroke-linecap:round;stroke-linejoin:round;stroke-miterlimit:10;}
	.st40{opacity:0.3;}
	.st41{opacity:0.4;fill:#FFFFFF;}
	.st42{opacity:0.5;fill:#CAEAFB;}
	.st43{opacity:0.6;fill:#242C88;}
	.st44{opacity:0.5;fill:none;stroke:#242C88;stroke-width:2;stroke-linecap:round;stroke-linejoin:round;stroke-miterlimit:10;}
	.st45{opacity:0.3;fill:#242C88;}
	.st46{opacity:0.2;}
	
		.st47{clip-path:url(#SVGID_6_);fill:none;stroke:#242C88;stroke-width:2;stroke-linecap:round;stroke-linejoin:round;stroke-miterlimit:10;}
	.st48{opacity:0.2;fill:none;stroke:#FFFFFF;stroke-width:8;stroke-linecap:round;stroke-linejoin:round;stroke-miterlimit:10;}
	.st49{clip-path:url(#SVGID_8_);fill:#FFFFFF;}
	
		.st50{clip-path:url(#SVGID_8_);fill:none;stroke:#242C88;stroke-width:2;stroke-linecap:round;stroke-linejoin:round;stroke-miterlimit:10;}
	.st51{opacity:0.2;clip-path:url(#SVGID_8_);fill:#242C88;}
	
		.st52{opacity:0.2;clip-path:url(#SVGID_8_);fill:none;stroke:#242C88;stroke-width:2;stroke-linecap:round;stroke-linejoin:round;stroke-miterlimit:10;}
	.st53{fill:none;stroke:#242C88;stroke-width:1.848;stroke-linecap:round;stroke-linejoin:round;stroke-miterlimit:10;}
	.st54{opacity:0.4;fill:none;stroke:#FFFFFF;stroke-width:7;stroke-linecap:round;stroke-linejoin:round;stroke-miterlimit:10;}
	.st55{opacity:0.2;fill:none;stroke:#242C88;stroke-width:7;stroke-linecap:round;stroke-linejoin:round;stroke-miterlimit:10;}
	.st56{opacity:0.07;fill:#242C88;}
	.st57{fill:none;stroke:#FFFFFF;stroke-width:4;stroke-linecap:round;stroke-linejoin:round;stroke-miterlimit:10;}
	.st58{opacity:0.4;fill:none;stroke:#FFFFFF;stroke-width:8;stroke-linecap:round;stroke-linejoin:round;stroke-miterlimit:10;}
	.st59{opacity:0.2;fill:none;stroke:#242C88;stroke-width:8;stroke-linecap:round;stroke-linejoin:round;stroke-miterlimit:10;}
	.st60{fill:none;stroke:#FF5751;stroke-width:4;stroke-linecap:round;stroke-linejoin:round;stroke-miterlimit:10;}
	.st61{fill:none;stroke:#242C88;stroke-width:4;stroke-linecap:round;stroke-linejoin:round;stroke-miterlimit:10;}
</style><polygon class="st8" points="15,56 10,56 10,66 15,71 "/><polygon class="st43" points="15,56 10,56 10,66 15,71 "/><polygon class="st2" points="15,56 10,56 10,66 15,71 "/><rect class="st1" height="78" width="64" x="15" y="38"/><rect class="st16" height="78" width="64" x="15" y="38"/><rect class="st2" height="78" width="64" x="15" y="38"/><line class="st28" x1="48" x2="65" y1="49" y2="49"/><line class="st28" x1="48" x2="65" y1="54" y2="54"/><line class="st28" x1="48" x2="65" y1="59" y2="59"/><line class="st28" x1="48" x2="65" y1="64" y2="64"/><rect class="st28" height="23" width="41" x="26" y="73"/><rect class="st28" height="4" width="41" x="26" y="102"/><path class="st16" d="M51,93h28V38H49v53C49,92.1,49.9,93,51,93z"/><rect class="st1" height="78" width="64" x="54" y="10"/><rect class="st2" height="78" width="64" x="54" y="10"/><path class="st16" d="M15,70h26c0.55,0,1-0.45,1-1V52H15V70z"/><rect class="st8" height="18" width="32" x="10" y="48"/><rect class="st2" height="18" width="32" x="10" y="48"/><g><path class="st1" d="M18.77,58.32h-1.59v2.43c0,0.35-0.08,0.61-0.25,0.79s-0.37,0.27-0.62,0.27c-0.26,0-0.47-0.09-0.63-0.27   s-0.24-0.44-0.24-0.78v-6.62c0-0.38,0.09-0.66,0.26-0.82s0.46-0.25,0.84-0.25h2.23c0.66,0,1.17,0.05,1.52,0.15   c0.35,0.1,0.66,0.26,0.91,0.49s0.45,0.5,0.58,0.83s0.2,0.7,0.2,1.11c0,0.88-0.27,1.54-0.81,1.99S19.84,58.32,18.77,58.32z    M18.35,54.38h-1.17v2.62h1.17c0.41,0,0.75-0.04,1.03-0.13s0.49-0.23,0.63-0.42s0.22-0.45,0.22-0.77c0-0.38-0.11-0.69-0.33-0.93   C19.64,54.51,19.13,54.38,18.35,54.38z"/><path class="st1" d="M24.52,53.08h2.27c0.59,0,1.1,0.05,1.52,0.16s0.8,0.31,1.15,0.62c0.89,0.77,1.34,1.93,1.34,3.49   c0,0.52-0.04,0.99-0.13,1.41s-0.23,0.81-0.42,1.15s-0.43,0.65-0.72,0.92c-0.23,0.21-0.48,0.37-0.76,0.5s-0.57,0.21-0.88,0.26   s-0.67,0.08-1.06,0.08h-2.27c-0.32,0-0.55-0.05-0.71-0.14s-0.26-0.23-0.31-0.4s-0.07-0.4-0.07-0.68v-6.3   c0-0.38,0.08-0.65,0.25-0.81S24.14,53.08,24.52,53.08z M25.19,54.45v5.83h1.32c0.29,0,0.52-0.01,0.68-0.02s0.33-0.05,0.51-0.12   s0.33-0.15,0.46-0.26c0.58-0.49,0.87-1.34,0.87-2.54c0-0.85-0.13-1.48-0.38-1.9s-0.57-0.69-0.95-0.81s-0.83-0.17-1.36-0.17H25.19z"/><path class="st1" d="M37.46,54.42h-3.43v2.2h2.87c0.27,0,0.46,0.06,0.59,0.18s0.2,0.28,0.2,0.48s-0.07,0.36-0.2,0.47   s-0.33,0.18-0.59,0.18h-2.87v2.83c0,0.36-0.08,0.63-0.24,0.8s-0.37,0.26-0.62,0.26c-0.26,0-0.47-0.09-0.63-0.26   s-0.24-0.44-0.24-0.8v-6.61c0-0.25,0.04-0.45,0.11-0.61s0.19-0.27,0.35-0.35s0.36-0.11,0.61-0.11h4.1c0.28,0,0.48,0.06,0.62,0.18   s0.2,0.28,0.2,0.48c0,0.2-0.07,0.37-0.2,0.49S37.73,54.42,37.46,54.42z"/></g><path class="st14" d="M98,21.25V31h9.75C107.75,25.62,103.38,21.25,98,21.25z"/><path class="st7" d="M98,30.75V21c-5.38,0-9.75,4.37-9.75,9.75S92.62,40.5,98,40.5c2.86,0,5.42-1.24,7.21-3.2L98,30.75z"/><circle class="st2" cx="98" cy="31" r="10"/><rect class="st7" height="6" width="6" x="70" y="71"/><rect class="st14" height="12" width="6" x="79" y="65"/><rect class="st7" height="9" width="6" x="88" y="68"/><rect class="st14" height="15" width="6" x="97" y="62"/><rect class="st2" height="6" width="6" x="70" y="71"/><rect class="st2" height="12" width="6" x="79" y="65"/><rect class="st2" height="9" width="6" x="88" y="68"/><rect class="st2" height="15" width="6" x="97" y="62"/><polyline class="st2" points="106,77 66,77 66,64 "/><line class="st34" x1="65" x2="106" y1="55" y2="55"/><line class="st34" x1="65" x2="106" y1="50" y2="50"/><line class="st34" x1="65" x2="79" y1="27" y2="27"/><line class="st34" x1="65" x2="79" y1="23" y2="23"/><line class="st34" x1="65" x2="79" y1="35" y2="35"/><line class="st34" x1="65" x2="72" y1="39" y2="39"/><line class="st34" x1="65" x2="79" y1="31" y2="31"/></svg>