<?xml version="1.0" encoding="utf-8"?>
<svg viewBox="0 34.163 498.042 465.837" xmlns="http://www.w3.org/2000/svg">
  <g id="freepik--background-complete--inject-86" transform="matrix(1, 0, 0, 1, -12.08757, 33.172451)">
    <rect y="382.4" width="500" height="0.25" style="fill:#ebebeb"/>
    <rect x="359" y="391.92" width="90.9" height="0.25" style="fill:#ebebeb"/>
    <rect x="306.33" y="389.21" width="24.89" height="0.25" style="fill:#ebebeb"/>
    <rect x="349.52" y="401.21" width="38.59" height="0.25" style="fill:#ebebeb"/>
    <rect x="52.46" y="399.53" width="22.64" height="0.25" style="fill:#ebebeb"/>
    <rect x="84" y="399.53" width="26.89" height="0.25" style="fill:#ebebeb"/>
    <rect x="178.31" y="395.31" width="46.84" height="0.25" style="fill:#ebebeb"/>
    <circle cx="122.74" cy="109.59" r="70.27" transform="translate(-41.54 118.89) rotate(-45)" style="fill:#ebebeb"/>
    <circle cx="358.27" cy="103.18" r="57.3" transform="translate(31.98 283.55) rotate(-45)" style="fill:#f5f5f5"/>
    <circle cx="110.29" cy="305.94" r="48.64" transform="translate(-184.03 167.6) rotate(-45)" style="fill:#fafafa"/>
    <circle cx="355.9" cy="275.72" r="91.58" transform="translate(-90.72 332.42) rotate(-45)" style="fill:#f0f0f0"/>
  </g>
  <g id="freepik--Shadow--inject-86" transform="matrix(1, 0, 0, 1, -12.08757, 33.172451)">
    <ellipse id="freepik--path--inject-86" cx="250" cy="416.24" rx="193.89" ry="11.32" style="fill:#f5f5f5"/>
  </g>
  <g id="freepik--Character--inject-86" transform="matrix(1, 0, 0, 1, -12.08757, 33.172451)">
    <polygon points="271.81 407.29 264.32 404.2 270.35 386.07 277.84 389.16 271.81 407.29" style="fill:#ff8b7b"/>
    <polygon points="344.44 407.9 336.27 407.9 335.55 388.99 343.72 388.99 344.44 407.9" style="fill:#ff8b7b"/>
    <path d="M335.23,407h10a.69.69,0,0,1,.67.56l1.27,7.26a1.26,1.26,0,0,1-1.26,1.45c-3.2-.05-5.53-.24-9.56-.24-2.49,0-7.61.26-11,.26s-3.72-3.39-2.3-3.7c6.35-1.38,8.81-3.27,10.91-5.08A2.06,2.06,0,0,1,335.23,407Z" style="fill:#263238"/>
    <path d="M263.86,402.65l8.25,3.39a.77.77,0,0,1,.46.8l-.88,7.49a1.11,1.11,0,0,1-1.56.92c-2.95-1.27-7.19-3.22-10.93-4.76-4.38-1.79-6.27-2.29-11.39-4.4-3.1-1.28-2.86-4.84-1.46-4.6,6.37,1.11,9.27,2.14,15.49,1A3.66,3.66,0,0,1,263.86,402.65Z" style="fill:#263238"/>
    <path d="M314.41,167c-1.06,1-2,1.74-3,2.54s-2,1.57-3,2.34c-2,1.54-4.13,2.95-6.28,4.33s-4.39,2.64-6.66,3.85a76.09,76.09,0,0,1-7.16,3.23c-1.23.49-2.52.89-3.8,1.3-.59.21-1.43.4-2.17.58a18.9,18.9,0,0,1-2.41.36,16.53,16.53,0,0,1-10-2.09,16.07,16.07,0,0,1-3.84-3.13,19.1,19.1,0,0,1-2.64-3.73,22.83,22.83,0,0,1-1.69-3.93c-.22-.67-.39-1.34-.55-2s-.26-1.3-.39-2.15L266.8,167l.74,1.28c.27.45.56.9.85,1.33a19.36,19.36,0,0,0,1.86,2.36,13.23,13.23,0,0,0,2,1.79,8.21,8.21,0,0,0,2.05,1,7.22,7.22,0,0,0,4.1,0c.37-.08.76-.23,1.15-.34s.74-.27,1.28-.5c1-.42,2-.81,2.95-1.31a84.07,84.07,0,0,0,11.54-6.79c1.89-1.27,3.73-2.62,5.57-4,.92-.68,1.83-1.38,2.72-2.09l2.57-2.07Z" style="fill:#ff8b7b"/>
    <path d="M319.22,164.71c-3.49,7.16-16.75,13.06-16.75,13.06l-5-16s2.14-2.9,7.58-5.5C317.89,150.15,323.92,155.06,319.22,164.71Z" style="fill:#263238"/>
    <path d="M310.86,164.41a34.06,34.06,0,0,0-6.93,10.68,23.05,23.05,0,0,0-.81,2.38c2-1,8.41-4.2,12.74-8.37l.33-1.93A3.16,3.16,0,0,0,310.86,164.41Z" style="opacity:0.2"/>
    <path d="M268.71,170.68l-4.46-9.58-5.47,9.07s2.67,5.49,8.16,3.57Z" style="fill:#ff8b7b"/>
    <polygon points="257.51 156.82 253.8 163.66 258.78 170.17 264.25 161.1 257.51 156.82" style="fill:#ff8b7b"/>
    <polygon points="270.35 386.08 267.24 395.42 274.74 398.51 277.85 389.17 270.35 386.08" style="opacity:0.2"/>
    <polygon points="343.72 388.99 335.55 388.99 335.93 398.74 344.1 398.74 343.72 388.99" style="opacity:0.2"/>
    <path d="M308.84,158.77a367,367,0,0,0-4.69,65.62l43.31,5.68c.75-6.36,1.84-35.6,6.93-66.27.42-2.52.55-4.45-1.92-5.16-2.73-.79-8.08-2.27-11.69-2.93a161.51,161.51,0,0,0-18.41-2.41,73.89,73.89,0,0,0-7.59.13A6.45,6.45,0,0,0,308.84,158.77Z" style="fill:#263238"/>
    <path d="M340.78,155.71a161.09,161.09,0,0,0-18.42-2.41c-1.33-.05-2.64-.05-3.89,0l1.3,1.86a31.74,31.74,0,0,1,3.69,7.7h0a1.27,1.27,0,0,0,1.66.82l1.94-.74c3.2-1.21,8.51-2.63,11.73-3.44a49.17,49.17,0,0,0,5.67-1.81l1.84-.7C344.38,156.47,342.4,156,340.78,155.71Z" style="fill:#fff"/>
    <path d="M341.75,173a28.6,28.6,0,0,0-1.32,15.67,3.13,3.13,0,0,0,3.58,2.53l3.51-.55a3.15,3.15,0,0,0,2.61-2.59l3.87-23a3.15,3.15,0,0,0-5.32-2.76A33.72,33.72,0,0,0,341.75,173Z" style="opacity:0.2"/>
    <path d="M340.47,134.58l-12,8.24c.82,4.79.63,9.75-6.1,10.48a35.77,35.77,0,0,1,3.15,5.51,1.26,1.26,0,0,0,1.58.72c5.26-1.83,13.69-3.82,13.69-3.82C336.92,151.18,338.88,140.4,340.47,134.58Z" style="fill:#ff8b7b"/>
    <path d="M335.57,138l-7.1,4.87a20.67,20.67,0,0,1,.33,3.37c2.55,0,6.22-2.37,6.68-5A9,9,0,0,0,335.57,138Z" style="opacity:0.2"/>
    <path d="M328.8,111.66c-5.7,2.73-8.72,15.69-.6,12.79S335,108.69,328.8,111.66Z" style="fill:#263238"/>
    <path d="M347.21,126.48c-2.49,7.61-4.79,13.3-9.76,16-7.47,4.11-16.15-2.52-16-10.86.14-7.51,5.42-19.78,13.85-20.44A11.75,11.75,0,0,1,347.21,126.48Z" style="fill:#ff8b7b"/>
    <path d="M341.26,124.72c1.47-1.88,6.72-6.59,1.7-6.1s-14.84-1.23-17.74-7.09,4.23-5.49,5.71-3.23c-.51-3.22,1.61-5.62,4.16-4.45a6.66,6.66,0,0,1,3.35,3.7s.68-5.39,4.4-2.56a15.3,15.3,0,0,1,4.94,6.66s11.67,5,5.59,9.34c5.33,1,4,11.19-9,12.55C337.86,132.4,339.08,127.5,341.26,124.72Z" style="fill:#263238"/>
    <path d="M354.33,121.33a4,4,0,0,1-3.33-1.39.27.27,0,0,1,.43-.31c.82,1.17,2.72,1.36,4.13,1,.9-.2,1.35-.55,1.39-.79s-.23-.4-.4-.51a.26.26,0,0,1-.08-.36.26.26,0,0,1,.36-.09c.61.39.69.79.64,1-.09.53-.76,1-1.79,1.22A6.5,6.5,0,0,1,354.33,121.33Z" style="fill:#263238"/>
    <path d="M347.89,134.63a7.86,7.86,0,0,1-5.09,2.68c-2.66.29-3.54-2-2.42-4.17,1-1.93,3.59-4.4,6.07-3.69A3.11,3.11,0,0,1,347.89,134.63Z" style="fill:#ff8b7b"/>
    <path d="M304.15,224.39S290.53,282.2,285,306.59C279.16,332,265,392.47,265,392.47l12.8,5.26s14.46-49,22.23-73.26c8.48-26.43,31-75,32.57-96.35Z" style="fill: rgb(253, 227, 41);"/>
    <path d="M316.85,279.83c4.64-12,9.11-24,12.11-34.29h0C318.27,240.46,316,260.18,316.85,279.83Z" style="opacity:0.2"/>
    <path d="M322.44,226.79s-1.75,64.26.62,88.4c2.6,26.43,9,81.66,9,81.66h15s-1.94-54-2.21-79.77c-.29-28,1.14-66.56,2.63-87Z" style="fill: rgb(253, 225, 3);"/>
    <polygon points="331.86 397.18 348.18 397.18 348.18 391.57 330.05 391.57 331.86 397.18" style="fill: rgb(253, 225, 3);"/>
    <polygon points="331.86 397.18 348.18 397.18 348.166 391.564 330.05 391.57 331.86 397.18" style="opacity:0.4"/>
    <polygon points="263.36 392.15 278.74 398.53 281.19 393.71 264.52 386.56 263.36 392.15" style="fill: rgb(253, 227, 41);"/>
    <path style="opacity: 0.4; fill: rgb(59, 59, 59);" d="M 263.36 392.15 L 278.74 398.53 L 281.056 393.636 L 264.52 386.56 L 263.36 392.15 Z"/>
    <path d="M333.62,126c-.17.63-.64,1-1.05.9s-.62-.75-.45-1.38.63-1,1-.91S333.78,125.34,333.62,126Z" style="fill:#263238"/>
    <path d="M326.45,123.68c-.16.63-.63,1-1.05.9s-.61-.75-.45-1.38.63-1,1.05-.9S326.62,123.05,326.45,123.68Z" style="fill:#263238"/>
    <path d="M328.65,124.72a21.55,21.55,0,0,1-4.44,4.44,4,4,0,0,0,2.88,1.53Z" style="fill:#ff5652"/>
    <path d="M 326.301 134.302 C 327.981 134.93 329.866 134.659 331.301 133.582 C 331.376 133.508 331.376 133.386 331.301 133.312 C 331.229 133.231 331.103 133.231 331.031 133.312 C 329.695 134.274 327.971 134.518 326.421 133.962 C 326.324 133.922 326.214 133.98 326.191 134.082 C 326.176 134.171 326.221 134.26 326.301 134.302 Z" style="fill:#263238" transform="matrix(-1, 0, 0, -1, 657.54538, 267.886337)"/>
    <path d="M337.17,122.89a.36.36,0,0,0,.25,0,.37.37,0,0,0,.23-.49,4.13,4.13,0,0,0-2.5-2.63.37.37,0,0,0-.47.27.41.41,0,0,0,.29.48h0a3.33,3.33,0,0,1,2,2.11A.4.4,0,0,0,337.17,122.89Z" style="fill:#263238"/>
    <path d="M324.68,119.56a.36.36,0,0,0,.39-.1,2.9,2.9,0,0,1,2.53-1,.36.36,0,0,0,.43-.31.42.42,0,0,0-.33-.45,3.59,3.59,0,0,0-3.22,1.23.39.39,0,0,0,0,.55A.29.29,0,0,0,324.68,119.56Z" style="fill:#263238"/>
    <path d="M358.63,168.06c-.16,1.82-.36,3.38-.62,5s-.53,3.27-.84,4.9c-.63,3.24-1.4,6.48-2.36,9.7a78,78,0,0,1-3.5,9.59,45.08,45.08,0,0,1-5.42,9.33l-.44.56-.23.28-.39.47a10.55,10.55,0,0,1-1.8,1.58,14.24,14.24,0,0,1-3.35,1.72,27,27,0,0,1-5.74,1.28,60.24,60.24,0,0,1-10.26.23,114.5,114.5,0,0,1-19.34-2.87l.81-6.07c3.06,0,6.21,0,9.29-.05s6.17-.16,9.17-.39a62.4,62.4,0,0,0,8.62-1.14,15.54,15.54,0,0,0,3.41-1.1,2.79,2.79,0,0,0,.82-.52c.05,0,0-.06,0,0s-.07.08,0,0l.13-.2.26-.39a39.26,39.26,0,0,0,3.59-7.29A83.35,83.35,0,0,0,343,184.4c.74-2.87,1.38-5.8,1.94-8.75.28-1.48.54-3,.77-4.45s.46-3,.62-4.35Z" style="fill:#ff8b7b"/>
    <path d="M359.65,164.46c4,9.37-2.49,22.43-2.49,22.43l-15.51-5.45a137.64,137.64,0,0,1,2.08-16.54C345.41,155.59,356.56,157.24,359.65,164.46Z" style="fill:#263238"/>
    <path d="M332.13,408.38a9.87,9.87,0,0,0,2.12-.29.17.17,0,0,0,.13-.16.19.19,0,0,0-.1-.19c-.3-.19-3-1.81-3.91-1.35a.6.6,0,0,0-.3.55,1.22,1.22,0,0,0,.46,1A2.6,2.6,0,0,0,332.13,408.38Zm1.54-.56a4.07,4.07,0,0,1-2.91-.15.87.87,0,0,1-.3-.7.23.23,0,0,1,.11-.23C331,406.5,332.57,407.2,333.67,407.82Z" style="fill: rgb(253, 225, 3);"/>
    <path d="M334.2,408.09a.2.2,0,0,0,.11,0,.2.2,0,0,0,.07-.18c0-.1-.34-2.45-1.34-3.23a1.12,1.12,0,0,0-.83-.25.6.6,0,0,0-.59.51c-.12.91,1.62,2.7,2.49,3.16Zm-1.84-3.31a.77.77,0,0,1,.46.17,5,5,0,0,1,1.11,2.56c-.88-.64-2-2-1.93-2.53,0-.05,0-.16.28-.19Z" style="fill: rgb(253, 225, 3);"/>
    <path d="M260.26,402.71a12.66,12.66,0,0,0,2.47.7.17.17,0,0,0,.19-.09.2.2,0,0,0,0-.23c-.28-.32-2.77-3.15-3.87-3a.57.57,0,0,0-.46.36,1.13,1.13,0,0,0,0,1A3.2,3.2,0,0,0,260.26,402.71Zm2,.2c-1.77-.4-3-1-3.3-1.6a.74.74,0,0,1,0-.68.23.23,0,0,1,.18-.15C259.68,400.4,261.18,401.78,262.22,402.91Z" style="fill: rgb(253, 227, 41);"/>
    <path d="M262.69,403.4a.17.17,0,0,0,.12,0,.2.2,0,0,0,.13-.14c0-.09.53-2.25-.15-3.46a1.49,1.49,0,0,0-.88-.72c-.51-.15-.74.05-.84.24-.44.82.78,3.23,1.55,4Zm-.76-3.89a1.1,1.1,0,0,1,.54.49,4.94,4.94,0,0,1,.17,2.8c-.73-1-1.51-2.78-1.24-3.27,0,0,.09-.16.42-.06Z" style="fill: rgb(253, 227, 41);"/>
    <circle cx="189.55" cy="204.84" r="105.44" transform="translate(-89.32 194.03) rotate(-45)" style="fill: rgb(253, 225, 3);"/>
    <circle cx="195.48" cy="182.76" r="79.21" style="fill:#fff;opacity:0.07"/>
    <path d="M237.61,143.74c-.15,3-3.79,5.33-8.13,5.11s-7.73-2.86-7.57-5.91,3.79-5.32,8.13-5.1S237.77,140.7,237.61,143.74Z" style="fill:#263238"/>
    <path d="M156.57,148.74c.58,3-2.41,6.08-6.67,6.91s-8.19-.92-8.77-3.91,2.4-6.09,6.67-6.92S156,145.75,156.57,148.74Z" style="fill:#263238"/>
    <ellipse cx="146.47" cy="166.1" rx="14.79" ry="5.51" style="fill: rgba(192, 192, 192, 0.34);"/>
    <path d="M251,154.73c.45,2.9-5.49,6.24-13.26,7.46s-14.45-.15-14.91-3.05,5.49-6.23,13.26-7.45S250.57,151.83,251,154.73Z" style="fill: rgba(180, 180, 180, 0.26);"/>
    <path d="M 169.643 175.689 C 177.197 173.166 194.607 168.906 217.522 170.262 C 221.52 170.499 221.86 174.782 219.268 174.308 C 206.374 171.95 189.795 175.124 168.543 179.609 C 166.819 179.973 167.972 176.247 169.643 175.689 Z" style="fill:#263238"/>
    <path d="M306.7,204.22,299.56,200,299,210.71s6.8,2.16,8.19-1.47Z" style="fill:#ff8b7b"/>
    <polygon points="290.97 200.79 290.96 209.58 298.99 210.71 299.56 200.04 290.97 200.79" style="fill:#ff8b7b"/>
  </g>
</svg>